<svg width="18" height="18" viewBox="0 0 18 18" fill="none" xmlns="http://www.w3.org/2000/svg">
<path d="M10.9813 7.01595C10.7681 6.80147 10.5317 6.61134 10.2765 6.44906C9.60047 6.01618 8.81459 5.78616 8.01187 5.78616C6.89772 5.78409 5.82884 6.22677 5.0424 7.01595L1.22709 10.8343C0.441976 11.6209 0.000703868 12.6867 8.69406e-07 13.798C-0.00147543 16.1172 1.87736 17.9985 4.19655 18C5.30898 18.0038 6.37687 17.5633 7.16303 16.7762L10.3125 13.6267C10.3697 13.57 10.4016 13.4926 10.4012 13.412C10.4002 13.2464 10.2652 13.1129 10.0995 13.1138H9.97952C9.32152 13.1162 8.66938 12.9898 8.05988 12.7419C7.94758 12.6957 7.81851 12.7218 7.73295 12.8079L5.46835 15.0755C4.76514 15.7787 3.62501 15.7787 2.9218 15.0755C2.21859 14.3723 2.21859 13.2321 2.9218 12.5289L6.75213 8.70164C7.45478 7.99987 8.59304 7.99987 9.29568 8.70164C9.76922 9.1473 10.5079 9.1473 10.9814 8.70164C11.1851 8.49773 11.3086 8.22729 11.3293 7.93976C11.3512 7.59617 11.2245 7.25968 10.9813 7.01595Z" fill="url(#paint0_linear_8075_4697)"/>
<path d="M16.7673 1.22999C15.1273 -0.409998 12.4684 -0.409998 10.8284 1.22999L7.68191 4.37342C7.59551 4.46024 7.57059 4.59082 7.61893 4.70337C7.66669 4.81624 7.77833 4.88868 7.90086 4.88632H8.01183C8.66906 4.88513 9.32015 5.01248 9.92849 5.26127C10.0408 5.30749 10.1699 5.28141 10.2554 5.19529L12.514 2.93969C13.2172 2.23648 14.3573 2.23648 15.0606 2.93969C15.7638 3.6429 15.7638 4.78302 15.0606 5.48623L12.247 8.29671L12.223 8.32371L11.2392 9.30154C10.5366 10.0033 9.39832 10.0033 8.69567 9.30154C8.22213 8.85588 7.48349 8.85588 7.00999 9.30154C6.80496 9.50699 6.68134 9.77979 6.66204 10.0694C6.6401 10.413 6.76682 10.7495 7.00999 10.9932C7.35716 11.3419 7.76336 11.6262 8.20976 11.8331C8.27275 11.8631 8.33574 11.8871 8.39873 11.9141C8.46171 11.9411 8.52769 11.962 8.59068 11.986C8.65367 12.0101 8.71965 12.031 8.78263 12.049L8.95961 12.097C9.07958 12.127 9.19958 12.151 9.32254 12.172C9.47066 12.194 9.61983 12.208 9.76947 12.214H9.99742L10.1774 12.193C10.2434 12.19 10.3124 12.175 10.3904 12.175H10.4923L10.6993 12.145L10.7953 12.127L10.9692 12.091H11.0022C11.739 11.906 12.4118 11.5245 12.9489 10.9872L16.7672 7.16893C18.4073 5.52894 18.4073 2.86998 16.7673 1.22999Z" fill="url(#paint1_linear_8075_4697)"/>
<defs>
<linearGradient id="paint0_linear_8075_4697" x1="0" y1="8.99999" x2="17.9973" y2="8.99999" gradientUnits="userSpaceOnUse">
<stop stop-color="#FFBF9A"/>
<stop offset="1" stop-color="#F07730"/>
</linearGradient>
<linearGradient id="paint1_linear_8075_4697" x1="0" y1="8.99999" x2="17.9973" y2="8.99999" gradientUnits="userSpaceOnUse">
<stop stop-color="#FFBF9A"/>
<stop offset="1" stop-color="#F07730"/>
</linearGradient>
</defs>
</svg>
