<svg width="17" height="19" viewBox="0 0 17 19" fill="none" xmlns="http://www.w3.org/2000/svg">
<path d="M4.1625 5.41992C4.9572 5.41992 5.65718 5.19395 6.23521 4.90559C5.64837 6.05577 5.29675 7.38718 5.22697 8.76023C2.88055 9.02262 1.04062 11.0732 1.04062 13.5859C1.04062 16.2757 3.14125 18.5 5.72344 18.5C6.51895 18.5 7.28099 18.2665 7.96444 17.876C6.90417 16.7933 6.24375 15.2512 6.24375 13.5859C6.24375 11.9207 6.90417 10.4147 7.96444 9.332C7.43817 9.03123 6.86474 8.82671 6.26597 8.74725C6.49225 4.91632 9.26969 1.75639 12.8508 1.17982C11.9387 2.51363 11.4469 4.10517 11.4469 5.77617V8.76277C9.11184 9.03645 7.28438 11.0816 7.28438 13.5859C7.28438 16.2757 9.385 18.5 11.9672 18.5C14.5494 18.5 16.65 16.2757 16.65 13.5859C16.65 11.0816 14.8225 9.03645 12.4875 8.76277V5.77617C12.4875 3.9437 13.1724 2.2209 14.4163 0.925198L15.3045 0H14.0484C11.6046 0 9.38974 1.03811 7.78721 2.71264C7.36649 2.29189 6.01747 1.08398 4.1625 1.08398C1.96743 1.08398 0.465436 2.78773 0.392809 2.86028L0 3.25195L0.392809 3.64363C0.465436 3.71618 1.96743 5.41992 4.1625 5.41992ZM11.9672 11.96C11.1065 11.96 10.4062 12.6894 10.4062 13.5859H9.36563C9.36563 12.0918 10.5328 10.876 11.9672 10.876V11.96ZM5.72344 11.96C4.86275 11.96 4.1625 12.6894 4.1625 13.5859H3.12188C3.12188 12.0918 4.28906 10.876 5.72344 10.876V11.96Z" fill="url(#paint0_linear_8075_4610)"/>
<defs>
<linearGradient id="paint0_linear_8075_4610" x1="0" y1="9.25" x2="16.65" y2="9.25" gradientUnits="userSpaceOnUse">
<stop stop-color="#FFBF9A"/>
<stop offset="1" stop-color="#F07730"/>
</linearGradient>
</defs>
</svg>
