<svg width="18" height="16" viewBox="0 0 18 16" fill="none" xmlns="http://www.w3.org/2000/svg">
<path d="M12.5107 0C13.9776 7.87092e-05 15.3563 0.572114 16.3936 1.60938C18.5348 3.75068 18.5349 7.23458 16.3936 9.37598L10.3721 15.3984C10.0067 15.7637 9.51929 15.9648 9 15.9648C8.48071 15.9648 7.99326 15.7636 7.62793 15.3984L1.60547 9.37598C-0.53553 7.23467 -0.535317 3.75066 1.60547 1.60938C2.64272 0.572084 4.02233 4.57993e-05 5.48926 0C6.78661 0 8.01573 0.44767 9 1.26855C9.98434 0.44767 11.2133 0 12.5107 0Z" fill="url(#paint0_linear_8041_4342)"/>
<defs>
<linearGradient id="paint0_linear_8041_4342" x1="0" y1="7.98242" x2="17.9998" y2="7.98242" gradientUnits="userSpaceOnUse">
<stop stop-color="#FFBF9A"/>
<stop offset="1" stop-color="#F07730"/>
</linearGradient>
</defs>
</svg>
