<svg width="18" height="18" viewBox="0 0 18 18" fill="none" xmlns="http://www.w3.org/2000/svg">
<path d="M11.5781 15.0254C12.572 15.0255 13.3778 15.8314 13.3779 16.8252V16.8389H14.4404C14.7612 16.839 15.0205 17.0991 15.0205 17.4199C15.0205 17.7407 14.7612 17.9998 14.4404 18H2.98047C2.65974 17.9998 2.40044 17.7407 2.40039 17.4199C2.40039 17.0991 2.65971 16.839 2.98047 16.8389H4.04297V16.8252C4.04313 15.8314 4.84887 15.0254 5.84277 15.0254H11.5781Z" fill="url(#paint0_linear_8075_4685)"/>
<path fill-rule="evenodd" clip-rule="evenodd" d="M13.0635 0C13.7078 0.000108606 14.2246 0.522562 14.2246 1.16113V1.24219H15.6816C16.6395 1.24219 17.4236 2.02561 17.4238 2.9834V3.57031C17.4238 5.46298 16.0125 7.03658 14.1895 7.29785C13.9455 9.49236 12.4185 11.2921 10.3691 11.9365L11.1123 13.8643H6.31055L7.05371 11.9365C5.0103 11.2978 3.47732 9.49226 3.2334 7.29785C1.40476 7.03642 3.58178e-05 5.46285 0 3.57031V2.9834C0.000237091 2.02561 0.778532 1.24219 1.74219 1.24219H3.19336V1.16113C3.19336 0.522496 3.71582 0 4.35449 0H13.0635ZM9.2373 3.55859C9.02251 3.12319 8.40139 3.12326 8.18652 3.55859L7.62305 4.69629L6.36328 4.87695C5.88721 4.94662 5.68985 5.53829 6.04395 5.88086L6.94922 6.76953L6.73438 8.01758C6.65318 8.49932 7.15826 8.86476 7.58203 8.63867L8.70898 8.04688L9.8291 8.63867C10.2645 8.86511 10.7639 8.49948 10.6826 8.01758L10.4736 6.76953L11.3799 5.88086C11.7278 5.54414 11.5362 4.95273 11.0547 4.88281L9.80078 4.69629L9.2373 3.55859ZM1.74219 2.40332C1.42298 2.40332 1.16137 2.66428 1.16113 2.9834V3.57031C1.16117 4.81272 2.0322 5.8462 3.19336 6.11328V2.40332H1.74219ZM14.2246 2.40332V6.11328C15.3915 5.84615 16.2627 4.8069 16.2627 3.57031V2.9834C16.2625 2.66428 16.0008 2.40332 15.6816 2.40332H14.2246Z" fill="url(#paint1_linear_8075_4685)"/>
<defs>
<linearGradient id="paint0_linear_8075_4685" x1="0" y1="9" x2="17.4238" y2="9" gradientUnits="userSpaceOnUse">
<stop stop-color="#FFBF9A"/>
<stop offset="1" stop-color="#F07730"/>
</linearGradient>
<linearGradient id="paint1_linear_8075_4685" x1="0" y1="9" x2="17.4238" y2="9" gradientUnits="userSpaceOnUse">
<stop stop-color="#FFBF9A"/>
<stop offset="1" stop-color="#F07730"/>
</linearGradient>
</defs>
</svg>
