<svg width="15" height="18" viewBox="0 0 15 18" fill="none" xmlns="http://www.w3.org/2000/svg">
<path fill-rule="evenodd" clip-rule="evenodd" d="M7.46289 0C9.44206 0 11.3406 0.78612 12.7402 2.18555C14.1398 3.58512 14.9267 5.48359 14.9268 7.46289C14.9268 13.17 10.0969 17.999 7.46289 17.999C4.82874 17.9985 0 13.1697 0 7.46289C3.72984e-05 5.48359 0.786946 3.58512 2.18652 2.18555C3.586 0.786251 5.48386 0.000119785 7.46289 0ZM2.63379 8.78027C2.49346 8.78029 2.35362 8.78685 2.2168 8.80176C2.15457 9.38774 2.22448 9.98053 2.4209 10.5361C2.6173 11.0917 2.93588 11.596 3.35254 12.0127C3.7692 12.4294 4.27356 12.7479 4.8291 12.9443C5.3847 13.1407 5.97749 13.2107 6.56348 13.1484C6.62195 12.5975 6.56335 12.0398 6.39258 11.5127C6.22173 10.9859 5.94259 10.5006 5.57227 10.0889C5.20173 9.6769 4.74828 9.34754 4.24219 9.12207C3.73611 8.89661 3.18782 8.78027 2.63379 8.78027ZM12.292 8.78027C11.7382 8.78034 11.1905 8.89669 10.6846 9.12207C10.1785 9.34754 9.72501 9.6769 9.35449 10.0889C8.98409 10.5007 8.70405 10.9858 8.5332 11.5127C8.36243 12.0398 8.30481 12.5975 8.36328 13.1484C8.94927 13.2107 9.54205 13.1407 10.0977 12.9443C10.6532 12.7479 11.1576 12.4293 11.5742 12.0127C11.9909 11.596 12.3095 11.0917 12.5059 10.5361C12.7023 9.98053 12.7722 9.38773 12.71 8.80176C12.5714 8.78718 12.4313 8.78027 12.292 8.78027Z" fill="url(#paint0_linear_8075_4776)"/>
<defs>
<linearGradient id="paint0_linear_8075_4776" x1="0" y1="8.99951" x2="14.9268" y2="8.99951" gradientUnits="userSpaceOnUse">
<stop stop-color="#FFBF9A"/>
<stop offset="1" stop-color="#F07730"/>
</linearGradient>
</defs>
</svg>
