<svg width="20" height="10" viewBox="0 0 20 10" fill="none" xmlns="http://www.w3.org/2000/svg">
<path d="M9.21113 6.37384C8.25883 9.97248 3.91085 11.3196 1.33981 8.43759C-2.6324 3.98439 3.06942 -2.25306 7.49951 1.28894C9.80744 3.13413 12.5085 10.5845 16.3093 7.64583C19.6691 5.04766 16.1715 0.119152 12.7656 2.21923C12.0956 2.63235 11.5844 3.34408 10.9737 3.83047C11.3417 0.39436 15.3031 -1.1553 17.9646 0.971252C23.2649 5.20712 17.0591 12.5651 12.4726 8.70849C10.1592 6.76295 7.95378 0.227511 4.13199 2.29188C0.552322 4.22573 2.84108 9.51811 6.64909 8.15253C7.63974 7.79729 8.33734 6.93349 9.20993 6.37445L9.21113 6.37384Z" fill="url(#paint0_linear_8075_4626)"/>
<defs>
<linearGradient id="paint0_linear_8075_4626" x1="0" y1="5" x2="20" y2="5" gradientUnits="userSpaceOnUse">
<stop stop-color="#FFBF9A"/>
<stop offset="1" stop-color="#F07730"/>
</linearGradient>
</defs>
</svg>
