<svg width="18" height="18" viewBox="0 0 18 18" fill="none" xmlns="http://www.w3.org/2000/svg">
<path d="M17.534 7.88032L15.4173 5.76153C14.5468 4.89018 15.0787 3.97042 16.0274 3.91456C17.5899 3.81774 18.4678 2.14952 17.1918 0.76057C15.8042 -0.512942 14.145 0.362132 14.0483 1.92237C13.9887 2.87192 13.0624 3.40814 12.1956 2.54051L10.1235 0.466396C9.50222 -0.155465 8.49406 -0.155465 7.87279 0.466396L5.77462 2.56657C4.9041 3.43792 3.9815 2.89799 3.92198 1.94844C3.82526 0.384474 2.15118 -0.505495 0.763563 0.771741C-0.516172 2.16441 0.372946 3.84009 1.93541 3.9369C2.88405 3.99648 3.42348 4.92369 2.55668 5.79504L0.46595 7.88405C-0.155317 8.50591 -0.155317 9.51504 0.46595 10.1369L2.53808 12.211C3.4086 13.0786 2.89149 13.9835 1.94285 14.0431C0.380386 14.1399 -0.493851 15.8044 0.782164 17.1933C2.16978 18.4706 3.82526 17.5992 3.92198 16.0353C3.9815 15.0857 4.88922 14.5644 5.75974 15.432L7.85047 17.5248C8.4829 18.1578 9.5171 18.1578 10.1495 17.5285L12.244 15.432C13.0661 14.5718 12.5342 13.667 11.5967 13.6074C10.0342 13.5106 9.14881 11.8349 10.4248 10.446C11.8124 9.16873 13.4865 10.0587 13.5832 11.6227C13.6428 12.561 14.543 13.0898 15.4024 12.2669L17.5043 10.163C17.508 10.1592 17.508 10.1592 17.5117 10.1555L17.534 10.1332C18.1553 9.51131 18.1553 8.50218 17.534 7.88032Z" fill="url(#paint0_linear_8075_4695)"/>
<defs>
<linearGradient id="paint0_linear_8075_4695" x1="0" y1="9" x2="18" y2="9" gradientUnits="userSpaceOnUse">
<stop stop-color="#FFBF9A"/>
<stop offset="1" stop-color="#F07730"/>
</linearGradient>
</defs>
</svg>
