<svg width="19" height="18" viewBox="0 0 19 18" fill="none" xmlns="http://www.w3.org/2000/svg">
<path d="M10.0664 0C11.876 0.000151843 13.3485 1.47263 13.3486 3.28223V4.26465L12.7549 6.31445H17.0195C18.0537 6.31471 18.8945 7.15625 18.8945 8.19043C18.8945 8.81482 18.5879 9.36879 18.1172 9.70996C18.3529 10.0235 18.4922 10.4134 18.4922 10.835C18.4921 11.4596 18.1848 12.0134 17.7139 12.3545C17.9496 12.6681 18.0898 13.0579 18.0898 13.4795C18.0898 14.104 17.7824 14.6579 17.3115 14.999C17.5471 15.3126 17.6875 15.7026 17.6875 16.124C17.6874 17.1583 16.8458 17.9999 15.8115 18H9.90625C8.93358 18 7.97809 17.8269 7.06738 17.4854L5.53516 16.9102V7.22363C7.33068 5.29156 8.9745 3.44733 9.27051 2.97363V0.795898C9.2706 0.357173 9.62762 0 10.0664 0ZM4.42773 5.94922V17.6377H0V5.94922H4.42773Z" fill="url(#paint0_linear_8075_4590)"/>
<defs>
<linearGradient id="paint0_linear_8075_4590" x1="0" y1="9" x2="18.8945" y2="9" gradientUnits="userSpaceOnUse">
<stop stop-color="#FFBF9A"/>
<stop offset="1" stop-color="#F07730"/>
</linearGradient>
</defs>
</svg>
