<svg width="18" height="18" viewBox="0 0 18 18" fill="none" xmlns="http://www.w3.org/2000/svg">
<g clip-path="url(#clip0_7885_439)">
<path d="M10.9828 7.01595C10.7696 6.80147 10.5332 6.61134 10.2779 6.44906C9.60193 6.01618 8.81605 5.78616 8.01333 5.78616C6.89918 5.78409 5.83031 6.22677 5.04386 7.01595L1.22855 10.8343C0.443441 11.6209 0.00216871 12.6867 0.00146571 13.798C-1.05841e-05 16.1172 1.87882 17.9985 4.19802 18C5.31044 18.0038 6.37833 17.5633 7.1645 16.7762L10.3139 13.6267C10.3712 13.57 10.4031 13.4926 10.4026 13.412C10.4017 13.2464 10.2666 13.1129 10.101 13.1138H9.98099C9.32298 13.1162 8.67085 12.9898 8.06135 12.7419C7.94904 12.6957 7.81997 12.7218 7.73442 12.8079L5.46981 15.0755C4.7666 15.7787 3.62648 15.7787 2.92327 15.0755C2.22006 14.3723 2.22006 13.2321 2.92327 12.5289L6.75359 8.70164C7.45624 7.99987 8.5945 7.99987 9.29715 8.70164C9.77069 9.1473 10.5093 9.1473 10.9828 8.70164C11.1866 8.49773 11.3101 8.22729 11.3308 7.93976C11.3527 7.59617 11.226 7.25968 10.9828 7.01595Z" fill="#7D7D7D"/>
<path d="M16.7688 1.22999C15.1288 -0.409998 12.4698 -0.409998 10.8298 1.22999L7.68338 4.37342C7.59698 4.46024 7.57206 4.59082 7.62039 4.70337C7.66816 4.81624 7.77979 4.88868 7.90233 4.88632H8.0133C8.67053 4.88513 9.32161 5.01248 9.92995 5.26127C10.0423 5.30749 10.1713 5.28141 10.2569 5.19529L12.5155 2.93969C13.2187 2.23648 14.3588 2.23648 15.062 2.93969C15.7652 3.6429 15.7652 4.78302 15.062 5.48623L12.2485 8.29671L12.2245 8.32371L11.2407 9.30154C10.538 10.0033 9.39979 10.0033 8.69714 9.30154C8.2236 8.85588 7.48496 8.85588 7.01145 9.30154C6.80642 9.50699 6.6828 9.77979 6.6635 10.0694C6.64157 10.413 6.76828 10.7495 7.01145 10.9932C7.35863 11.3419 7.76482 11.6262 8.21122 11.8331C8.27421 11.8631 8.3372 11.8871 8.40019 11.9141C8.46318 11.9411 8.52916 11.962 8.59214 11.986C8.65513 12.0101 8.72111 12.031 8.7841 12.049L8.96108 12.097C9.08105 12.127 9.20105 12.151 9.324 12.172C9.47212 12.194 9.6213 12.208 9.77093 12.214H9.99888L10.1788 12.193C10.2448 12.19 10.3138 12.175 10.3918 12.175H10.4938L10.7008 12.145L10.7967 12.127L10.9707 12.091H11.0037C11.7405 11.906 12.4133 11.5245 12.9503 10.9872L16.7687 7.16893C18.4087 5.52894 18.4087 2.86998 16.7688 1.22999Z" fill="#7D7D7D"/>
</g>
<defs>
<clipPath id="clip0_7885_439">
<rect width="18" height="18" fill="white"/>
</clipPath>
</defs>
</svg>
