<svg width="21" height="21" viewBox="0 0 21 21" fill="none" xmlns="http://www.w3.org/2000/svg">
<path d="M18.8399 2.21837L12.0523 1.02155C11.2889 0.886938 10.5609 1.3967 10.4263 2.16012L10.3621 2.52445C11.3437 2.64538 12.173 3.35251 12.4341 4.32687L12.8489 5.87498C13.0685 5.77974 13.3175 5.74542 13.5709 5.79011C14.0517 5.8749 14.4206 6.22095 14.558 6.65643C14.8361 6.29421 15.3011 6.09519 15.782 6.17999C16.4702 6.30135 16.9297 6.95761 16.8083 7.64579C16.5446 9.14113 14.94 10.343 14.1785 10.8373L15.3411 15.1764C15.4035 15.409 15.4295 15.6428 15.4237 15.8722L16.4019 16.0447C17.1653 16.1793 17.8933 15.6695 18.028 14.9061L19.9784 3.84449C20.1131 3.081 19.6033 2.35299 18.8399 2.21837Z" fill="#A7A7A7"/>
<path d="M11.4172 4.59937C11.2492 3.97225 10.6821 3.55864 10.0623 3.55867C9.94206 3.55867 9.81978 3.57425 9.69811 3.60684L3.04071 5.39066C2.29191 5.5913 1.84754 6.36098 2.04817 7.10977L4.95528 17.9593C5.12333 18.5864 5.69043 19 6.3102 19C6.43044 19 6.55271 18.9844 6.67435 18.9518L13.3318 17.168C14.0805 16.9673 14.5249 16.1977 14.3243 15.4489L11.4172 4.59937ZM6.23669 12.0156C6.12381 11.9163 6.08165 11.7589 6.12975 11.6165L7.14773 8.60226C7.23288 8.35011 7.54725 8.26588 7.74708 8.44166L10.1358 10.5431C10.2487 10.6424 10.2908 10.7998 10.2427 10.9422L9.22476 13.9564C9.13962 14.2086 8.82525 14.2929 8.62542 14.117L6.23669 12.0156Z" fill="#A7A7A7"/>
</svg>
