<svg width="20" height="20" viewBox="0 0 20 20" fill="none" xmlns="http://www.w3.org/2000/svg">
<path d="M9.97754 11.6484C10.0377 11.6485 10.0972 11.6636 10.1494 11.6934C10.2016 11.7231 10.2447 11.7666 10.2754 11.8184C11.0909 13.2043 12.2461 14.3599 13.6318 15.1758C13.6836 15.2063 13.7269 15.2496 13.7568 15.3018C13.7867 15.354 13.8027 15.4135 13.8027 15.4736C13.8027 15.5339 13.7867 15.5932 13.7568 15.6455C13.742 15.6715 13.724 15.6956 13.7031 15.7168L13.6318 15.7725C12.2481 16.5896 11.0934 17.7442 10.2764 19.1279C10.2458 19.1799 10.2017 19.223 10.1494 19.2529C10.0973 19.2827 10.0385 19.2987 9.97852 19.2988C9.91833 19.2988 9.85891 19.2828 9.80664 19.2529C9.75431 19.223 9.71027 19.1799 9.67969 19.1279C8.86425 17.7419 7.70861 16.5864 6.32227 15.7715C6.27052 15.7409 6.22708 15.6977 6.19727 15.6455C6.16746 15.5933 6.15234 15.5338 6.15234 15.4736C6.15237 15.4135 6.16744 15.354 6.19727 15.3018C6.2271 15.2496 6.27049 15.2064 6.32227 15.1758C7.70433 14.3548 8.85892 13.2005 9.67969 11.8184C9.71037 11.7666 9.75341 11.7231 9.80566 11.6934C9.85793 11.6636 9.91739 11.6484 9.97754 11.6484ZM16.0293 5.26074C16.3446 5.26033 16.6556 5.33527 16.9365 5.47852C17.2174 5.62178 17.4607 5.82948 17.6455 6.08496C17.8302 6.34032 17.9518 6.63583 18 6.94727C18.0481 7.25877 18.0218 7.57769 17.9229 7.87695H17.9658V7.875C18.2601 7.87554 18.5506 7.94114 18.8164 8.06738C19.0823 8.19376 19.3176 8.37754 19.5039 8.60547C19.6902 8.83338 19.8236 9.10006 19.8945 9.38574C19.9655 9.67141 19.972 9.96924 19.9141 10.2578C19.8561 10.5464 19.7344 10.8186 19.5586 11.0547C19.3828 11.2906 19.1572 11.4848 18.8975 11.623C18.6375 11.7613 18.3497 11.8407 18.0557 11.8545C17.7617 11.8683 17.468 11.8163 17.1963 11.7031L17.3877 12.7334C17.4022 12.8117 17.3999 12.8927 17.3799 12.9697C17.3598 13.0468 17.3224 13.1184 17.2715 13.1797C17.2206 13.2409 17.157 13.2904 17.085 13.3242C17.0129 13.3581 16.9341 13.3759 16.8545 13.376H15.4082C15.3286 13.3759 15.2498 13.3581 15.1777 13.3242C15.1056 13.2904 15.0421 13.2409 14.9912 13.1797C14.9403 13.1184 14.9029 13.0468 14.8828 12.9697C14.8628 12.8927 14.8604 12.8116 14.875 12.7334L15.0664 11.7031C14.8005 11.8145 14.5127 11.8668 14.2246 11.8564C13.9367 11.846 13.6545 11.7737 13.3975 11.6436C13.1403 11.5133 12.9142 11.3286 12.7354 11.1025C12.5565 10.8765 12.4289 10.6142 12.3613 10.334C12.2937 10.0538 12.2877 9.76221 12.3438 9.47949C12.3999 9.19676 12.517 8.92945 12.6865 8.69629C12.8559 8.46327 13.0737 8.26947 13.3252 8.12891C13.5768 7.98833 13.8562 7.90401 14.1436 7.88184C14.0438 7.58298 14.0162 7.26462 14.0635 6.95312C14.1108 6.64139 14.2319 6.34482 14.416 6.08887C14.6001 5.83294 14.8426 5.62445 15.123 5.48047C15.4035 5.33654 15.7141 5.26121 16.0293 5.26074ZM3.82324 5.30957C3.98274 5.30967 4.13605 5.37275 4.24902 5.48535L6.59766 7.82617L7.0752 8.30469C7.25685 8.48546 7.40057 8.70089 7.49902 8.9375C7.59739 9.17401 7.64823 9.42744 7.64844 9.68359C7.64863 9.93989 7.59811 10.1939 7.5 10.4307C7.40191 10.6673 7.25847 10.8825 7.07715 11.0635C6.76171 11.3775 6.34867 11.5745 5.90625 11.623C5.46404 11.6716 5.01848 11.569 4.64258 11.3311L4.9082 12.7744C4.92064 12.8419 4.91772 12.9112 4.90039 12.9775C4.88301 13.044 4.85158 13.1064 4.80762 13.1592C4.76372 13.2119 4.70858 13.2541 4.64648 13.2832C4.58425 13.3124 4.51599 13.3281 4.44727 13.3281H3.19922C3.13064 13.3282 3.06311 13.3122 3.00098 13.2832C2.93871 13.2541 2.88285 13.212 2.83887 13.1592C2.79494 13.1064 2.76343 13.044 2.74609 12.9775C2.72882 12.9111 2.72674 12.8419 2.73926 12.7744L3.00488 11.3389C2.59784 11.5965 2.10991 11.6956 1.63477 11.6162C1.15963 11.5368 0.73079 11.2842 0.429688 10.9082C0.128544 10.5321 -0.0235228 10.0583 0.00292969 9.57715C0.0293831 9.09605 0.232678 8.64162 0.573242 8.30078L1.05371 7.82129L3.39746 5.48535C3.5105 5.37282 3.66373 5.30957 3.82324 5.30957ZM8.11426 0C8.63414 6.01866e-05 9.13251 0.206484 9.50098 0.573242L9.98242 1.05273L10.4609 0.576172C10.8287 0.209759 11.3266 0.00390625 11.8457 0.00390625C12.3647 0.00399653 12.8628 0.209833 13.2305 0.576172C13.412 0.757038 13.556 0.972318 13.6543 1.20898C13.7526 1.44572 13.8037 1.69972 13.8037 1.95605C13.8037 2.21238 13.7526 2.46641 13.6543 2.70312C13.5559 2.93982 13.4121 3.15507 13.2305 3.33594L12.752 3.8125L10.4033 6.1543C10.2902 6.2666 10.137 6.3291 9.97754 6.3291C9.8181 6.32907 9.66488 6.26664 9.55176 6.1543L7.20801 3.81836L6.72656 3.33887C6.54442 3.15758 6.40038 2.94141 6.30176 2.7041C6.20323 2.46696 6.15239 2.21285 6.15234 1.95605C6.15234 1.69907 6.20314 1.44433 6.30176 1.20703C6.40033 0.969867 6.54456 0.754456 6.72656 0.573242C7.09508 0.206424 7.59429 0 8.11426 0Z" fill="#A7A7A7"/>
</svg>
