<svg width="21" height="21" viewBox="0 0 21 21" fill="none" xmlns="http://www.w3.org/2000/svg">
<path d="M18.8399 2.31288L12.0523 1.11606C11.2889 0.981443 10.5609 1.49121 10.4263 2.25463L10.3621 2.61895C11.3437 2.73989 12.173 3.44702 12.4341 4.42138L12.8489 5.96948C13.0685 5.87424 13.3175 5.83993 13.5709 5.88461C14.0517 5.96941 14.4206 6.31545 14.558 6.75093C14.8361 6.38872 15.3011 6.1897 15.782 6.2745C16.4702 6.39585 16.9297 7.05212 16.8083 7.7403C16.5446 9.23563 14.94 10.4375 14.1785 10.9319L15.3411 15.2709C15.4035 15.5035 15.4295 15.7373 15.4237 15.9667L16.4019 16.1392C17.1653 16.2738 17.8933 15.764 18.028 15.0006L19.9784 3.939C20.1131 3.17551 19.6033 2.44749 18.8399 2.31288Z" fill="#A7A7A7"/>
<path d="M11.4172 4.69387C11.2492 4.06675 10.6821 3.65314 10.0623 3.65318C9.94206 3.65318 9.81978 3.66875 9.69811 3.70134L3.04071 5.48517C2.29191 5.6858 1.84754 6.45548 2.04817 7.20427L4.95528 18.0538C5.12333 18.6809 5.69043 19.0945 6.3102 19.0945C6.43044 19.0945 6.55271 19.0789 6.67435 19.0463L13.3318 17.2625C14.0805 17.0618 14.5249 16.2922 14.3243 15.5434L11.4172 4.69387ZM6.23669 12.1101C6.12381 12.0108 6.08165 11.8534 6.12975 11.711L7.14773 8.69676C7.23288 8.44462 7.54725 8.36039 7.74708 8.53617L10.1358 10.6376C10.2487 10.7369 10.2908 10.8943 10.2427 11.0367L9.22476 14.051C9.13962 14.3031 8.82525 14.3874 8.62542 14.2115L6.23669 12.1101Z" fill="#A7A7A7"/>
</svg>
