<svg width="21" height="21" viewBox="0 0 21 21" fill="none" xmlns="http://www.w3.org/2000/svg">
<path d="M17.9788 7.55119C15.1686 5.35745 12.5904 2.53285 11.5213 1.31124C11.2457 0.996332 10.7544 0.996332 10.4788 1.31124C9.40962 2.53282 6.83146 5.35742 4.02123 7.55119C2.74619 8.54653 2 10.0432 2 11.629C2 14.4434 4.35655 16.725 7.26348 16.725C8.24662 16.725 9.14091 16.3572 9.80804 15.7562V16.7499C9.80804 17.9596 8.93673 18.1097 8.26066 18.6746C8.09805 18.8104 8.1979 19.0751 8.41021 19.0751H13.572C13.7835 19.0751 13.8835 18.8123 13.7227 18.6755C13.0535 18.1064 12.192 17.9794 12.192 16.7589V15.7561C12.8591 16.3572 13.7534 16.725 14.7365 16.725C17.6435 16.725 20 14.4434 20 11.6289C20 10.0432 19.2538 8.54653 17.9788 7.55119Z" fill="#A7A7A7"/>
</svg>
