<svg width="18" height="20" viewBox="0 0 18 20" fill="none" xmlns="http://www.w3.org/2000/svg">
<path d="M4.5 5.85938C5.35913 5.85938 6.11587 5.61508 6.74077 5.30334C6.10635 6.54678 5.72622 7.98615 5.65078 9.47052C3.11411 9.75418 1.125 11.971 1.125 14.6875C1.125 17.5954 3.39595 20 6.1875 20C7.04751 20 7.87134 19.7476 8.61021 19.3254C7.46396 18.1549 6.75 16.4877 6.75 14.6875C6.75 12.8873 7.46396 11.2592 8.61021 10.0887C8.04126 9.76349 7.42134 9.54239 6.77402 9.45648C7.01865 5.31494 10.0213 1.8988 13.8927 1.27548C12.9067 2.71744 12.375 4.43802 12.375 6.24451V9.47327C9.85064 9.76913 7.875 11.9801 7.875 14.6875C7.875 17.5954 10.1459 20 12.9375 20C15.7291 20 18 17.5954 18 14.6875C18 11.9801 16.0244 9.76913 13.5 9.47327V6.24451C13.5 4.26346 14.2405 2.40097 15.5852 1.00021L16.5454 0H15.1875C12.5455 0 10.1511 1.12228 8.4186 2.93259C7.96377 2.47772 6.50537 1.17188 4.5 1.17188C2.12695 1.17188 0.503174 3.01376 0.424658 3.09219L0 3.51562L0.424658 3.93906C0.503174 4.01749 2.12695 5.85938 4.5 5.85938ZM12.9375 12.9297C12.007 12.9297 11.25 13.7183 11.25 14.6875H10.125C10.125 13.0722 11.3868 11.7578 12.9375 11.7578V12.9297ZM6.1875 12.9297C5.25703 12.9297 4.5 13.7183 4.5 14.6875H3.375C3.375 13.0722 4.63682 11.7578 6.1875 11.7578V12.9297Z" fill="#A7A7A7"/>
</svg>
