<svg id="Layer_1" enable-background="new 0 0 480 480" height="512" viewBox="0 0 480 480" width="512" xmlns="http://www.w3.org/2000/svg"><g><path d="m427.305 330.87c-50.22 66.29-122.56 112.83-203.69 131.04-10.32 2.32-15.14 5.81-17.2 12.46-1.04 3.35-4.14 5.63-7.64 5.63h-142.88c-4.494 0-8.115-3.712-7.99-8.21.12-4.64.21-18.18-.79-24.92-3.25-21.86.38-44.01 10.49-64.05 22-43.63 63.51-74.271 111.02-81.94 14.36-2.33 28.14-7.729 40.96-16.08 15.93-10.38 46.28-26.729 70.47-19.58 39.824 11.819 51.09 83.719-85.29 128.5-3.709 1.225-6.512 5.126-5.09 10.021 1.235 4.252 5.84 6.58 10.05 5.189 42.349-13.997 96.864-39.811 116.17-79.944 23.21-8.24 44.41-21.846 61.95-40.025 14.58-15.12 33.23-11.72 44.39-2.17 11.6 9.919 17.06 28.249 5.07 44.079z"/><path d="m311.955 225.51c16.003-13.86 28.064-32.032 34.48-52.41 26.017-5.182 48.442-21.094 62.12-42.869 29.224 60.989-35.729 125.43-96.6 95.279z"/><path d="m177.565 39.81c-45.777 27.395-66.485 82.47-50.91 132.68-32.11-7.16-56.18-35.87-56.18-70.11 0-55.415 60.007-89.229 107.09-62.57z"/><path d="m236.642 140.584 25.04-6.767-25.04-35.361-25.04 35.361z"/><path d="m238.729 156.594c-1.368.37-2.805.37-4.174 0l-16.727-4.521 18.814 26.567 18.814-26.567z"/><path d="m236.645 39.45c-54.64 0-99.1 44.46-99.1 99.1 0 54.641 44.46 99.101 99.1 99.101s99.09-44.46 99.09-99.101c0-54.64-44.45-99.1-99.09-99.1zm44.719 103.723c-.103.103-37.309 52.685-38.193 53.934-3.176 4.486-9.861 4.514-13.058 0-8.593-12.134-37.17-52.553-38.194-53.934-1.183-1.595-1.917-4.268-1.13-6.909.583-1.948-2.167 2.326 39.323-56.273 3.176-4.485 9.862-4.514 13.058 0 40.951 57.839 38.399 54.137 38.856 55.063 1.736 3.573.362 6.071-.662 8.119z"/><path d="m407.205 79.47c0 35.92-23.96 66.36-56.74 76.15 8.705-57.728-27.394-112.429-82.93-127.96 14.58-16.93 36.16-27.66 60.2-27.66 43.82 0 79.47 35.65 79.47 79.47z"/></g></svg>