<svg width="18" height="18" viewBox="0 0 18 18" fill="none" xmlns="http://www.w3.org/2000/svg">
<g clip-path="url(#clip0_7885_317)">
<path d="M9.73979 8.7774L16.7194 4.3755C16.4555 3.96482 16.0972 3.62334 15.6743 3.37962L10.5292 0.409978C9.58275 -0.136659 8.41648 -0.136659 7.46996 0.409978L2.32491 3.37962C1.95353 3.5942 1.63148 3.88458 1.37973 4.23187L8.59956 8.77743C8.94821 8.99597 9.39113 8.99597 9.73979 8.7774ZM7.80059 4.02505C7.80037 3.36286 8.33704 2.82586 8.99925 2.82565C9.66144 2.82544 10.1984 3.3621 10.1986 4.02432C10.1989 4.68653 9.6622 5.2235 8.99998 5.22371C8.99986 5.22371 9.0001 5.22371 8.99998 5.22371C8.33792 5.22368 7.80077 4.68708 7.80059 4.02505Z" fill="#A7A7A7"/>
<path d="M8.93164 9.3769C8.72739 9.34548 8.53176 9.2726 8.35674 9.16274L1.14024 4.61904C0.913453 5.05481 0.795013 5.53879 0.794922 6.03001V11.9711C0.795196 13.0641 1.37839 14.0739 2.32491 14.6204L7.46997 17.5908C7.9151 17.8481 8.41797 17.9888 8.932 18C8.932 18 8.932 17.9982 8.932 17.997L8.93164 9.3769ZM2.6559 13.5779C2.17614 13.2245 1.79962 12.4354 1.79962 11.8098C1.79962 11.1842 2.178 10.9282 2.65775 11.25C3.1522 11.5806 3.56436 12.3909 3.56436 13.05C3.56436 13.709 3.15034 13.9434 2.6559 13.5779ZM6.33377 11.8341C5.85402 11.4792 5.47565 10.6916 5.47565 10.066C5.47565 9.44044 5.85402 9.1844 6.33377 9.5062C6.82822 9.83682 7.24002 10.6472 7.24002 11.308C7.24002 11.9689 6.82822 12.1996 6.33377 11.8341Z" fill="#A7A7A7"/>
<path d="M16.9343 4.77553L9.9826 9.16274C9.80169 9.27653 9.59875 9.35077 9.38715 9.38058V17.9765C9.78967 17.9252 10.1779 17.7942 10.5292 17.5911L15.6743 14.6204C16.621 14.0739 17.2042 13.0638 17.2043 11.9707V6.03001C17.2042 5.59743 17.1121 5.16985 16.9343 4.77553ZM11.3631 16.2268C10.8833 16.5471 10.505 16.2926 10.505 15.667C10.505 15.0414 10.8833 14.2538 11.3631 13.8989C11.8575 13.5316 12.2693 13.7641 12.2693 14.425C12.2693 15.0858 11.8576 15.8966 11.3631 16.2268ZM11.3631 11.8686C10.8833 12.1889 10.505 11.9344 10.505 11.3088C10.505 10.6832 10.8833 9.89559 11.3631 9.54072C11.8575 9.17485 12.269 9.40592 12.269 10.0653C12.269 10.7246 11.8576 11.5384 11.3631 11.8686ZM15.3859 13.6238C14.9062 13.9441 14.5278 13.6899 14.5278 13.064C14.5278 12.438 14.9062 11.6508 15.3859 11.2959C15.8804 10.9304 16.2922 11.1611 16.2922 11.822C16.2922 12.4828 15.8804 13.2935 15.3859 13.6238ZM15.3859 9.26561C14.9062 9.58777 14.5278 9.33064 14.5278 8.70613C14.5278 8.08163 14.9062 7.29295 15.3859 6.93808C15.8804 6.57075 16.2922 6.80364 16.2922 7.46413C16.2922 8.12461 15.8804 8.93535 15.3859 9.26561Z" fill="#A7A7A7"/>
</g>
<defs>
<clipPath id="clip0_7885_317">
<rect width="18" height="18" fill="white"/>
</clipPath>
</defs>
</svg>
