<svg width="18" height="18" viewBox="0 0 18 18" fill="none" xmlns="http://www.w3.org/2000/svg">
<path fill-rule="evenodd" clip-rule="evenodd" d="M10.7253 9.63423C10.7253 9.00873 10.4765 8.40811 10.0338 7.96623C9.59189 7.52349 8.99127 7.27466 8.36576 7.27466C6.66172 7.27466 4.06362 7.27466 2.35957 7.27466C1.73321 7.27466 1.13345 7.52349 0.690712 7.96623C0.248828 8.40811 0 9.00873 0 9.63423V15.6404C0 16.2668 0.248828 16.8665 0.690712 17.3093C1.13345 17.7512 1.73321 18 2.35957 18H8.36576C8.99127 18 9.59189 17.7512 10.0338 17.3093C10.4765 16.8665 10.7253 16.2668 10.7253 15.6404V9.63423ZM8.36576 14.7824C8.36576 14.3088 7.98137 13.9244 7.50774 13.9244C7.03411 13.9244 6.64971 14.3088 6.64971 14.7824C6.64971 15.256 7.03411 15.6404 7.50774 15.6404C7.98137 15.6404 8.36576 15.256 8.36576 14.7824ZM3.2176 13.9244C2.74397 13.9244 2.35957 14.3088 2.35957 14.7824C2.35957 15.256 2.74397 15.6404 3.2176 15.6404C3.69123 15.6404 4.07563 15.256 4.07563 14.7824C4.07563 14.3088 3.69123 13.9244 3.2176 13.9244ZM5.36267 11.7793C4.88904 11.7793 4.50464 12.1637 4.50464 12.6373C4.50464 13.111 4.88904 13.4954 5.36267 13.4954C5.8363 13.4954 6.2207 13.111 6.2207 12.6373C6.2207 12.1637 5.8363 11.7793 5.36267 11.7793ZM7.50774 9.63423C7.03411 9.63423 6.64971 10.0186 6.64971 10.4923C6.64971 10.9659 7.03411 11.3503 7.50774 11.3503C7.98137 11.3503 8.36576 10.9659 8.36576 10.4923C8.36576 10.0186 7.98137 9.63423 7.50774 9.63423ZM4.07563 10.4923C4.07563 10.0186 3.69123 9.63423 3.2176 9.63423C2.74397 9.63423 2.35957 10.0186 2.35957 10.4923C2.35957 10.9659 2.74397 11.3503 3.2176 11.3503C3.69123 11.3503 4.07563 10.9659 4.07563 10.4923Z" fill="#A7A7A7"/>
<path fill-rule="evenodd" clip-rule="evenodd" d="M6.02051 6.41663H8.3655C9.21837 6.41663 10.0369 6.75555 10.6401 7.3596C11.2442 7.9628 11.5831 8.78135 11.5831 9.63423V11.8582C12.2901 12.0976 12.7766 12.2538 12.8075 12.2649C13.3961 12.4769 14.0448 12.446 14.6111 12.18C15.1774 11.9132 15.6141 11.4327 15.826 10.8441C16.4035 9.2404 17.283 6.79588 17.8604 5.19223C18.0724 4.60362 18.0415 3.95495 17.7746 3.38865C17.5086 2.82236 17.0281 2.38562 16.4387 2.17369C14.8359 1.59624 12.3914 0.716758 10.7877 0.139306C10.1991 -0.0726271 9.54957 -0.0417381 8.98413 0.225108C8.41784 0.491097 7.98024 0.971592 7.76831 1.56106L6.02051 6.41663ZM13.8963 9.23783C14.0568 8.79165 13.8251 8.3 13.3798 8.13955C12.9345 7.9791 12.442 8.21077 12.2824 8.65608C12.1219 9.10226 12.3536 9.59391 12.7989 9.75436C13.2442 9.91481 13.7367 9.68314 13.8963 9.23783ZM12.0876 5.39472C11.6423 5.23427 11.1507 5.46594 10.9902 5.91211C10.8297 6.35743 11.0614 6.84908 11.5067 7.00953C11.952 7.16998 12.4446 6.93831 12.605 6.493C12.7655 6.04768 12.5338 5.55517 12.0876 5.39472ZM11.3128 3.74817C11.4733 3.30285 11.2416 2.81034 10.7963 2.64989C10.3501 2.4903 9.85846 2.72111 9.69801 3.16728C9.53756 3.6126 9.76923 4.10425 10.2145 4.2647C10.6607 4.42515 11.1524 4.19348 11.3128 3.74817Z" fill="#A7A7A7"/>
</svg>
