<svg width="21" height="21" viewBox="0 0 21 21" fill="none" xmlns="http://www.w3.org/2000/svg">
<path d="M12.6767 12.2567H9.33809C8.82673 12.2567 8.40835 11.8345 8.40835 11.3184V2.46862C8.40835 1.95256 8.82673 1.53033 9.33809 1.53033H12.6767C13.1881 1.53033 13.6064 1.95256 13.6064 2.46862V11.3184C13.6064 11.8345 13.1881 12.2567 12.6767 12.2567Z" fill="#A7A7A7"/>
<path d="M12.6767 11.8302C11.6962 11.8302 10.7158 11.8302 9.73534 11.8302C9.60433 11.8302 9.47332 11.8323 9.3402 11.8302C9.32964 11.8302 9.31907 11.8302 9.30851 11.8302C9.29794 11.8302 9.28949 11.8302 9.27892 11.8281C9.23244 11.8238 9.24089 11.8259 9.30428 11.8345C9.30217 11.8387 9.22821 11.8195 9.21976 11.8174C9.19229 11.811 9.16693 11.8003 9.13946 11.7918C9.05917 11.7684 9.16693 11.8003 9.16271 11.8025C9.15848 11.8067 8.99789 11.7172 8.99577 11.7022C9.01057 11.7129 9.02324 11.7236 9.03804 11.7342C9.02324 11.7214 9.01057 11.7108 8.99789 11.698C8.97887 11.6788 8.95985 11.6575 8.94084 11.6383C8.89435 11.5914 8.95563 11.6596 8.95563 11.6596C8.94717 11.6596 8.91337 11.5999 8.90914 11.5914C8.89435 11.5679 8.88167 11.5423 8.86899 11.5189C8.8225 11.4357 8.89435 11.6084 8.86899 11.5167C8.86477 11.4997 8.81405 11.3589 8.82673 11.3504C8.82884 11.3696 8.83096 11.3866 8.83518 11.4058C8.83307 11.3866 8.83307 11.3674 8.83096 11.3461C8.83096 11.3184 8.83096 11.3269 8.83096 11.3163V11.3141C8.83096 11.3077 8.83096 11.2992 8.83096 11.2928C8.83096 11.2608 8.83096 11.2288 8.83096 11.1968C8.83096 11.0732 8.83096 10.9495 8.83096 10.8279C8.83096 9.77449 8.83096 8.72104 8.83096 7.6676C8.83096 6.42863 8.83096 5.19179 8.83096 3.95283C8.83096 3.55832 8.83096 3.16381 8.83096 2.77143C8.83096 2.68187 8.83096 2.59444 8.83096 2.50487C8.83096 2.49208 8.83096 2.48142 8.83096 2.46862C8.83096 2.46222 8.82884 2.38119 8.83518 2.38119C8.83307 2.40038 8.83096 2.41744 8.82673 2.43663C8.82884 2.41744 8.83307 2.39825 8.8373 2.37906C8.84364 2.35133 8.84997 2.32361 8.85843 2.29589C8.86054 2.28736 8.86477 2.27883 8.86688 2.26817C8.88378 2.22552 8.87956 2.23192 8.85631 2.29163C8.84786 2.28523 8.91759 2.18074 8.92393 2.17007C8.92816 2.16154 8.9345 2.15515 8.93872 2.14662C8.96619 2.11036 8.95985 2.11676 8.92393 2.16581C8.9197 2.15941 8.99155 2.09117 9 2.08478C8.99789 2.08691 9.04015 2.04852 9.04015 2.04852C9.02536 2.05919 9.01268 2.06985 8.99789 2.08051C9.01268 2.06985 9.02747 2.05919 9.04226 2.04852C9.06551 2.0336 9.08875 2.01867 9.11411 2.00587C9.12256 2.00161 9.13101 1.99734 9.13946 1.99308C9.18172 1.97389 9.17327 1.97602 9.11411 2.00161C9.11622 1.98668 9.23032 1.96536 9.24934 1.96109C9.25779 1.95896 9.26836 1.95683 9.27681 1.95469C9.3233 1.94616 9.31484 1.9483 9.24934 1.95683C9.25145 1.95043 9.32964 1.95256 9.33598 1.95256H12.6725C12.6936 1.95256 12.7126 1.95469 12.7338 1.95469C12.831 1.95469 12.6408 1.93124 12.7359 1.95469C12.7549 1.95896 12.7739 1.96322 12.7908 1.96749C12.8183 1.97389 12.8436 1.98455 12.8711 1.99308C12.962 2.0208 12.7908 1.94616 12.8732 1.99308C12.8922 2.00374 13.0148 2.05705 13.0148 2.08051C13 2.06985 12.9873 2.05919 12.9725 2.04852C12.9873 2.06132 13 2.07198 13.0127 2.08478C13.0317 2.10397 13.0507 2.12529 13.0697 2.14448C13.1373 2.21059 13.0211 2.06558 13.0718 2.14448C13.0866 2.16794 13.1014 2.1914 13.1162 2.21486C13.1247 2.23192 13.1331 2.24898 13.1416 2.2639C13.1881 2.34707 13.1162 2.17434 13.1416 2.26604C13.15 2.29376 13.1585 2.31935 13.1669 2.34707C13.1712 2.36626 13.1754 2.38332 13.1796 2.40251C13.1881 2.44943 13.1859 2.4409 13.1775 2.37479C13.169 2.40678 13.1817 2.45369 13.1817 2.48995V9.43542C13.1817 10.0709 13.2029 10.7085 13.1817 11.3419C13.1817 11.3525 13.1817 11.361 13.1796 11.3717C13.1754 11.4186 13.1775 11.4101 13.1859 11.3461C13.1902 11.3483 13.1733 11.408 13.1712 11.4165C13.1648 11.4399 13.1585 11.4634 13.1521 11.4847C13.15 11.4933 13.1458 11.5018 13.1437 11.5125C13.1268 11.5551 13.131 11.5487 13.1543 11.489C13.1648 11.4997 13.0803 11.6212 13.0718 11.634C13.0275 11.7022 13.0866 11.6105 13.0866 11.6148C13.0887 11.6191 13.0359 11.6724 13.0317 11.6767C13.0275 11.6809 12.9746 11.7364 12.9704 11.7321C12.9852 11.7214 12.9979 11.7108 13.0127 11.7001C12.9979 11.7108 12.9831 11.7214 12.9683 11.7321C12.962 11.7364 12.8542 11.8067 12.8479 11.8003C12.8648 11.7939 12.8817 11.7854 12.8986 11.779C12.8817 11.7854 12.8627 11.7918 12.8457 11.7982C12.8183 11.8067 12.7908 11.8153 12.7633 11.8195C12.7549 11.8217 12.7443 11.8238 12.7359 11.8259C12.6894 11.8345 12.6978 11.8323 12.7633 11.8238C12.7633 11.8323 12.683 11.8302 12.6767 11.8302C12.4548 11.8345 12.2435 12.0242 12.2541 12.2567C12.2647 12.4849 12.44 12.6874 12.6767 12.6832C13.2747 12.6747 13.8114 12.2737 13.9783 11.6895C14.0227 11.538 14.0291 11.3802 14.0291 11.2224C14.0291 10.909 14.0291 10.5934 14.0291 10.2799C14.0291 9.0665 14.0291 7.85099 14.0291 6.63761C14.0291 5.48608 14.0291 4.33667 14.0291 3.18513C14.0291 2.95056 14.0312 2.71599 14.0291 2.48142C14.0269 2.03146 13.8177 1.63269 13.4649 1.364C13.2071 1.16781 12.8986 1.10384 12.5816 1.10384C11.5293 1.10384 10.4791 1.10384 9.42684 1.10384C9.06762 1.10384 8.74644 1.1998 8.4654 1.43011C8.15689 1.686 7.98785 2.08264 7.98574 2.48142C7.98362 2.72025 7.98574 2.95909 7.98574 3.19793V11.2288C7.98574 11.393 7.99419 11.5594 8.0449 11.7172C8.22663 12.2865 8.74432 12.6747 9.33809 12.6832C10.3418 12.6981 11.3455 12.6832 12.3492 12.6832H12.6767C12.8986 12.6832 13.1099 12.487 13.0993 12.2567C13.0887 12.0264 12.9134 11.8302 12.6767 11.8302Z" fill="#A7A7A7"/>
<path d="M15.318 9.39917V11.2992C15.318 11.4826 15.3117 11.666 15.2884 11.8473C15.299 11.7726 15.3096 11.6958 15.318 11.6212C15.2779 11.9176 15.2018 12.2055 15.0877 12.4827C15.1152 12.4145 15.1447 12.3463 15.1722 12.278C15.056 12.5574 14.906 12.8175 14.7221 13.0564C14.7665 12.9988 14.8109 12.9412 14.8553 12.8836C14.6778 13.1118 14.4749 13.3187 14.2467 13.4978C14.3038 13.453 14.3608 13.4082 14.4179 13.3634C14.1812 13.5468 13.9234 13.7004 13.6466 13.8177C13.7142 13.7899 13.7818 13.7601 13.8494 13.7324C13.5747 13.8454 13.2895 13.9243 12.9958 13.9648C13.0697 13.9541 13.1458 13.9435 13.2198 13.9349C12.9937 13.9648 12.7676 13.9648 12.5394 13.9648C12.2414 13.9648 11.9435 13.9648 11.6455 13.9648C10.9482 13.9648 10.2509 13.9648 9.55362 13.9648C9.29794 13.9648 9.04437 13.9691 8.7887 13.9349C8.86265 13.9456 8.93872 13.9563 9.01268 13.9648C8.71897 13.9243 8.4337 13.8475 8.15901 13.7324C8.22663 13.7601 8.29424 13.7899 8.36186 13.8177C8.08505 13.7004 7.82726 13.549 7.5906 13.3634C7.64765 13.4082 7.7047 13.453 7.76175 13.4978C7.53566 13.3187 7.33069 13.1139 7.1532 12.8836L7.28632 13.0564C7.1046 12.8175 6.95246 12.5574 6.83624 12.278C6.86371 12.3463 6.89329 12.4145 6.92076 12.4827C6.80877 12.2055 6.73059 11.9176 6.69044 11.6212C6.701 11.6958 6.71157 11.7726 6.72002 11.8473C6.67987 11.5338 6.69044 11.216 6.69044 10.9026C6.69044 10.5017 6.69044 10.1008 6.69044 9.69985C6.69044 9.59962 6.69044 9.4994 6.69044 9.39917C6.69044 8.95348 6.30164 8.52485 5.84522 8.54618C5.38669 8.5675 5 8.9215 5 9.39917V10.8066C5 11.4549 4.99789 12.0989 5.20919 12.7216C5.54305 13.7089 6.20866 14.5598 7.1046 15.0886C7.78077 15.4874 8.54358 15.6687 9.3233 15.6687H12.4506C13.0401 15.6687 13.6318 15.6324 14.1875 15.4192C14.7095 15.2187 15.1659 14.95 15.5864 14.579C15.9392 14.2697 16.2414 13.8838 16.4675 13.4701C16.7042 13.0393 16.8732 12.5638 16.9408 12.0733C16.981 11.7747 17 11.4826 17 11.1819C17 10.6296 17 10.0794 17 9.52712C17 9.48234 17 9.43969 17 9.39491C17 8.94922 16.6112 8.52059 16.1548 8.54191C15.7047 8.5675 15.318 8.9215 15.318 9.39917Z" fill="#A7A7A7"/>
<path d="M11.0074 18.6541C11.449 18.6541 11.8737 18.2617 11.8526 17.8011C11.8315 17.3384 11.4807 16.9481 11.0074 16.9481C10.5658 16.9481 10.141 17.3405 10.1622 17.8011C10.1833 18.2639 10.5341 18.6541 11.0074 18.6541Z" fill="#A7A7A7"/>
<path d="M14.6799 17.396C14.4369 17.396 14.1918 17.396 13.9488 17.396C13.3677 17.396 12.7845 17.396 12.2034 17.396C11.4955 17.396 10.7876 17.396 10.0798 17.396C9.46698 17.396 8.85631 17.396 8.24353 17.396C7.94559 17.396 7.64765 17.3917 7.35182 17.396C7.3476 17.396 7.34337 17.396 7.33914 17.396C6.89752 17.396 6.4728 17.7883 6.49393 18.2489C6.51506 18.7117 6.86582 19.1019 7.33914 19.1019H13.7755C14.0734 19.1019 14.3714 19.1062 14.6672 19.1019H14.6799C15.1215 19.1019 15.5462 18.7096 15.5251 18.2489C15.504 17.7862 15.1532 17.396 14.6799 17.396Z" fill="#A7A7A7"/>
<path d="M11.8526 18.057C11.8526 17.1102 11.8526 16.1613 11.8526 15.2144C11.8526 15.0822 11.8526 14.9479 11.8526 14.8157C11.8526 14.37 11.4638 13.9413 11.0074 13.9627C10.5489 13.984 10.1622 14.338 10.1622 14.8157V18.057C10.1622 18.5027 10.551 18.9313 11.0074 18.91C11.4659 18.8887 11.8526 18.5347 11.8526 18.057Z" fill="#A7A7A7"/>
</svg>
