<svg width="15" height="18" viewBox="0 0 15 18" fill="none" xmlns="http://www.w3.org/2000/svg">
<path d="M7.4624 0C9.44158 0 11.3401 0.78612 12.7397 2.18555C14.1394 3.58512 14.9262 5.48359 14.9263 7.46289C14.9263 13.17 10.0965 17.999 7.4624 17.999C4.82825 17.9985 -0.000488281 13.1697 -0.000488281 7.46289C-0.000450983 5.48359 0.786458 3.58512 2.18604 2.18555C3.58551 0.786251 5.48338 0.000119785 7.4624 0ZM2.6333 8.78027C2.49298 8.78029 2.35313 8.78685 2.21631 8.80176C2.15408 9.38774 2.22399 9.98053 2.42041 10.5361C2.61681 11.0917 2.93539 11.596 3.35205 12.0127C3.76871 12.4294 4.27307 12.7479 4.82861 12.9443C5.38421 13.1407 5.977 13.2107 6.56299 13.1484C6.62146 12.5975 6.56286 12.0398 6.39209 11.5127C6.22124 10.9859 5.9421 10.5006 5.57178 10.0889C5.20125 9.6769 4.7478 9.34754 4.2417 9.12207C3.73562 8.89661 3.18733 8.78027 2.6333 8.78027ZM12.2915 8.78027C11.7377 8.78034 11.19 8.89669 10.6841 9.12207C10.178 9.34754 9.72453 9.6769 9.354 10.0889C8.9836 10.5007 8.70356 10.9858 8.53271 11.5127C8.36194 12.0398 8.30432 12.5975 8.36279 13.1484C8.94878 13.2107 9.54156 13.1407 10.0972 12.9443C10.6527 12.7479 11.1571 12.4293 11.5737 12.0127C11.9904 11.596 12.309 11.0917 12.5054 10.5361C12.7018 9.98053 12.7717 9.38773 12.7095 8.80176C12.5709 8.78718 12.4308 8.78027 12.2915 8.78027Z" fill="#7D7D7D"/>
</svg>
