<svg width="18" height="18" viewBox="0 0 18 18" fill="none" xmlns="http://www.w3.org/2000/svg">
<path d="M8.26907 2.92681C8.40903 2.89433 8.51567 2.9333 8.58232 3.0567C8.69563 3.25804 8.78894 3.84257 8.88891 4.12834C9.58208 6.07029 11.6149 8.03822 13.5344 8.85007C13.9743 9.03842 14.4542 9.12285 14.8808 9.31769L14.9008 9.57749L9.91533 14.4746C9.40212 14.8772 8.64231 14.598 8.10244 14.3706C7.92249 14.2927 6.76277 13.6562 6.73611 13.5588L8.34905 8.47986C8.38904 8.14213 7.83584 7.78492 7.52925 7.86286L3.34362 10.0776C2.70377 8.81759 2.41718 7.10946 3.29696 5.88844L8.26907 2.9333V2.92681ZM11.295 0.952385C10.8218 1.31609 10.2153 1.67331 9.77536 2.06949C9.44878 2.36176 9.4821 2.5566 9.55542 2.97227C9.93532 5.27792 12.4347 7.71348 14.6875 8.36296C14.9874 8.44739 15.6872 8.63574 15.9205 8.38244L17.0069 6.52493L18 1.42651L17.98 1.27712C17.7534 1.0628 17.5668 0.78352 17.3468 0.569191C17.2802 0.497748 16.7736 0.0431121 16.7336 0.0236277C16.6537 -0.0153412 16.6137 0.00414319 16.5404 0.010638C14.8408 0.173008 13.0012 0.744551 11.2883 0.952385H11.295ZM3.01703 11.487L0.877557 14.7798C0.717596 15.189 1.14416 15.5072 1.51073 15.2604L5.81634 13.0327L7.40928 9.07089C7.44927 8.94749 7.29597 8.78512 7.176 8.8046L3.0037 11.4805L3.01703 11.487ZM10.9884 17.7479L12.4414 13.4029C11.9082 13.8446 11.5016 14.4161 11.0151 14.9097C10.5618 15.3708 10.3885 15.5332 9.72871 15.7086C9.64873 15.7281 9.57541 15.7346 9.49543 15.7281L10.3486 17.9038C10.5818 18.0662 10.8751 18.0272 10.9884 17.7544V17.7479ZM3.48358 4.32968C2.54381 4.37515 1.41076 4.34917 0.497651 4.47257C-0.0355512 4.54401 -0.168852 4.92071 0.237715 5.26493L2.05727 6.33658C2.11059 5.90143 2.27721 5.45328 2.55048 5.10256L4.35003 4.28422L3.48358 4.32968Z" fill="#A7A7A7"/>
</svg>
