<svg width="18" height="18" viewBox="0 0 18 18" fill="none" xmlns="http://www.w3.org/2000/svg">
<path d="M12.2275 13.0996C12.0359 13.988 11.7801 14.8068 11.4658 15.5254C10.7778 17.0979 9.87988 18 9.00098 18C8.12221 17.9997 7.225 17.0977 6.53711 15.5254C6.22282 14.8072 5.96699 13.9883 5.77539 13.0996H12.2275ZM17.0166 13.0996C16.4535 14.208 15.6655 15.1876 14.7031 15.9746C13.7408 16.7614 12.6247 17.3391 11.4268 17.6709C11.7952 17.2058 12.1329 16.6282 12.4307 15.9473C12.7984 15.1067 13.0915 14.143 13.3027 13.0996H17.0166ZM4.69922 13.0996C4.91015 14.1437 5.20357 15.1074 5.57129 15.9473C5.86934 16.6281 6.20588 17.2049 6.57422 17.6699C5.37649 17.338 4.26095 16.7604 3.29883 15.9736C2.3366 15.1868 1.54842 14.2078 0.985352 13.0996H4.69922ZM4.51758 5.95508C4.23591 7.97529 4.2359 10.0247 4.51758 12.0449H0.52832C-0.176364 10.0762 -0.176339 7.9238 0.52832 5.95508H4.51758ZM12.4199 5.95508C12.5697 6.96309 12.6445 7.98092 12.6426 9C12.6445 10.0191 12.5697 11.0369 12.4199 12.0449H5.58301C5.2868 10.0258 5.28682 7.97424 5.58301 5.95508H12.4199ZM17.4736 5.95508C18.1784 7.92397 18.1785 10.076 17.4736 12.0449H13.4854C13.6273 11.0362 13.6978 10.0187 13.6963 9C13.6978 7.98133 13.6273 6.96381 13.4854 5.95508H17.4736ZM9.00098 0C9.87988 0 10.7778 0.901719 11.4658 2.47461C11.7801 3.19282 12.0359 4.01169 12.2275 4.90039H5.77539C5.96698 4.01203 6.22283 3.19318 6.53711 2.47461C7.225 0.901981 8.12221 0.000301179 9.00098 0ZM11.4268 0.329102C12.6249 0.660893 13.7407 1.23943 14.7031 2.02637C15.6656 2.81332 16.4535 3.79205 17.0166 4.90039H13.3037C13.0928 3.85633 12.7993 2.89257 12.4316 2.05273C12.1339 1.37141 11.7963 0.793867 11.4268 0.329102ZM6.5752 0.329102C6.20685 0.794161 5.87033 1.37093 5.57227 2.05176C5.20453 2.89234 4.91148 3.85598 4.7002 4.89941H0.985352C1.54863 3.79121 2.33739 2.81227 3.2998 2.02539C4.26203 1.23873 5.37745 0.660943 6.5752 0.329102Z" fill="#7D7D7D"/>
</svg>
