<svg width="20" height="20" viewBox="0 0 20 20" fill="none" xmlns="http://www.w3.org/2000/svg">
<path d="M12.8633 16.6934C13.9676 16.6935 14.8623 17.5891 14.8623 18.6934V18.708H16.043C16.3995 18.708 16.6885 18.997 16.6885 19.3535C16.6885 19.71 16.3995 19.998 16.043 19.998H3.31152C2.95506 19.998 2.66702 19.71 2.66699 19.3535C2.66699 18.997 2.95504 18.7081 3.31152 18.708H4.49219V18.6934C4.49219 17.5891 5.38691 16.6934 6.49121 16.6934H12.8633ZM14.5137 0C15.2295 0.000202226 15.8037 0.580635 15.8037 1.29004V1.37988H17.4229C18.487 1.38013 19.3574 2.25125 19.3574 3.31543V3.9668C19.3573 6.06948 17.79 7.81715 15.7646 8.10742C15.4937 10.5456 13.7974 12.5457 11.5205 13.2617L12.3457 15.4033H7.01172L7.83691 13.2617C5.56647 12.5522 3.86371 10.5456 3.59277 8.10742C1.56101 7.81715 0.000125511 6.06948 0 3.9668V3.31543C0 2.25125 0.863995 1.38013 1.93457 1.37988H3.54785V1.29004C3.54785 0.580512 4.12832 0 4.83789 0H14.5137ZM10.2627 3.9541C10.024 3.47032 9.33339 3.47032 9.09473 3.9541L8.46973 5.21777L7.06934 5.41797C6.54054 5.4955 6.32143 6.15364 6.71484 6.53418L7.7207 7.52051L7.48242 8.90723C7.39212 9.44254 7.95296 9.84901 8.42383 9.59766L9.67578 8.93945L10.9209 9.59766C11.4046 9.84886 11.9585 9.44249 11.8682 8.90723L11.6367 7.52051L12.6426 6.53418C13.0296 6.16005 12.8166 5.50127 12.2812 5.42383L10.8877 5.21777L10.2627 3.9541ZM1.93457 2.66992C1.57998 2.67017 1.29004 2.96082 1.29004 3.31543V3.9668C1.29016 5.34704 2.25785 6.49528 3.54785 6.79199V2.66992H1.93457ZM15.8037 2.66992V6.79199C17.1 6.49518 18.0673 5.34052 18.0674 3.9668V3.31543C18.0674 2.96082 17.7774 2.67017 17.4229 2.66992H15.8037Z" fill="#A7A7A7"/>
</svg>
