<svg width="21" height="21" viewBox="0 0 21 21" fill="none" xmlns="http://www.w3.org/2000/svg">
<path d="M14.186 14.8289C14.009 14.8283 13.8361 14.7739 13.6889 14.6725C13.5418 14.571 13.4268 14.4271 13.3585 14.2586C13.2902 14.0901 13.2716 13.9046 13.305 13.7253C13.3383 13.5459 13.4222 13.3807 13.5461 13.2503C14.2211 12.5505 14.6001 11.6033 14.6001 10.616C14.6001 9.62863 14.2211 8.68148 13.5461 7.98162C13.3829 7.80558 13.2932 7.57041 13.2965 7.3268C13.2998 7.0832 13.3957 6.85068 13.5636 6.67939C13.7315 6.50809 13.958 6.41175 14.1941 6.41112C14.4303 6.4105 14.6572 6.50565 14.8259 6.67605C15.8342 7.72344 16.4001 9.13975 16.4001 10.616C16.4001 12.0922 15.8342 13.5085 14.8259 14.5559C14.742 14.6427 14.6423 14.7116 14.5324 14.7584C14.4226 14.8053 14.3049 14.8292 14.186 14.8289ZM8.44668 14.5605C8.61636 14.3874 8.71245 14.1518 8.7138 13.9056C8.71515 13.6593 8.62165 13.4226 8.45388 13.2475C7.77887 12.5477 7.39993 11.6005 7.39993 10.6132C7.39993 9.62585 7.77887 8.67869 8.45388 7.97883C8.53924 7.89264 8.60712 7.78979 8.65356 7.67626C8.7 7.56273 8.72407 7.4408 8.72438 7.31758C8.72468 7.19435 8.70121 7.0723 8.65534 6.95853C8.60946 6.84475 8.54209 6.74154 8.45716 6.6549C8.37223 6.56826 8.27144 6.49993 8.16065 6.45389C8.04987 6.40785 7.93131 6.38501 7.81189 6.38672C7.69246 6.38843 7.57456 6.41465 7.46506 6.46385C7.35556 6.51304 7.25664 6.58423 7.17407 6.67327C6.16577 7.72065 5.59989 9.13696 5.59989 10.6132C5.59989 12.0894 6.16577 13.5057 7.17407 14.5531C7.34189 14.7282 7.57023 14.8273 7.80888 14.8287C8.04753 14.8301 8.27695 14.7336 8.44668 14.5605ZM17.6889 16.8076C19.1764 15.1095 20 12.9021 20 10.6132C20 8.32426 19.1764 6.11684 17.6889 4.41871C17.5287 4.2361 17.3048 4.12661 17.0664 4.11433C16.828 4.10206 16.5946 4.188 16.4176 4.35324C16.2406 4.51849 16.1345 4.74951 16.1226 4.99549C16.1107 5.24146 16.194 5.48223 16.3541 5.66484C17.5422 7.0215 18.1999 8.7848 18.1999 10.6132C18.1999 12.4416 17.5422 14.2049 16.3541 15.5615C16.194 15.7441 16.1107 15.9849 16.1226 16.2309C16.1345 16.4768 16.2406 16.7079 16.4176 16.8731C16.5946 17.0384 16.828 17.1243 17.0664 17.112C17.3048 17.0997 17.5287 16.9903 17.6889 16.8076ZM5.58196 16.8726C5.75888 16.7075 5.865 16.4766 5.87699 16.2307C5.88897 15.9849 5.80583 15.7442 5.64586 15.5615C4.45782 14.2049 3.80009 12.4416 3.80009 10.6132C3.80009 8.7848 4.45782 7.0215 5.64586 5.66484C5.72516 5.57442 5.78643 5.46877 5.82616 5.35393C5.86589 5.23908 5.88331 5.11728 5.87742 4.99549C5.87153 4.87369 5.84244 4.75429 5.79182 4.64409C5.7412 4.5339 5.67004 4.43507 5.58241 4.35324C5.49477 4.27142 5.39237 4.20821 5.28105 4.16722C5.16973 4.12622 5.05168 4.10825 4.93363 4.11433C4.69523 4.12661 4.47131 4.2361 4.31115 4.41871C2.82358 6.11684 2 8.32426 2 10.6132C2 12.9021 2.82358 15.1095 4.31115 16.8076C4.47135 16.9901 4.69521 17.0994 4.93351 17.1116C5.17181 17.1238 5.40505 17.0378 5.58196 16.8726ZM11 9.22033C10.733 9.22033 10.472 9.30202 10.25 9.45506C10.028 9.60811 9.85493 9.82565 9.75275 10.0802C9.65057 10.3347 9.62384 10.6147 9.67593 10.8849C9.72802 11.1551 9.8566 11.4033 10.0454 11.5981C10.2342 11.7929 10.4747 11.9255 10.7366 11.9793C10.9985 12.033 11.2699 12.0054 11.5166 11.9C11.7633 11.7946 11.9742 11.6161 12.1225 11.387C12.2708 11.158 12.35 10.8887 12.35 10.6132C12.35 10.2438 12.2078 9.88949 11.9546 9.62828C11.7014 9.36707 11.358 9.22033 11 9.22033Z" fill="#A7A7A7"/>
</svg>
