<svg width="19" height="16" viewBox="0 0 19 16" fill="none" xmlns="http://www.w3.org/2000/svg">
<path d="M8.78516 1.11629C9.92161 1.11629 10.8464 2.04042 10.8467 3.17683V13.547C10.8467 14.6836 9.92176 15.6085 8.78516 15.6085H2.06152C0.924922 15.6085 0 14.6836 0 13.547V3.17683C0.000242816 2.04042 0.925072 1.11629 2.06152 1.11629H8.78516ZM9.65039 0.123123C10.0014 -0.004989 10.382 -0.0345071 10.7578 0.0410919L17.3496 1.36922C17.8878 1.47779 18.3513 1.78986 18.6553 2.24715C18.9591 2.70448 19.0674 3.25287 18.959 3.79109L16.9102 13.9571C16.7136 14.9315 15.8534 15.6064 14.8955 15.6065C14.7613 15.6065 14.6248 15.593 14.4883 15.5655L11.6133 14.9864C11.834 14.554 11.96 14.0649 11.96 13.547V11.1934L15.3027 8.34383L13.3105 4.39265L11.96 5.545V3.17683C11.9598 1.72672 10.9812 0.50099 9.65039 0.123123ZM6.48828 5.67488C6.10728 5.67493 5.73792 5.78564 5.42285 5.98738C5.10786 5.78572 4.73914 5.67497 4.3584 5.67488C3.26818 5.67488 2.38086 6.56233 2.38086 7.65242C2.38098 8.21916 2.62466 8.7595 3.0498 9.13484C3.29528 9.35138 5.38861 11.2064 5.41699 11.2315C5.41699 11.2315 7.69771 9.26892 7.9707 8.96004C8.28951 8.59891 8.46572 8.13455 8.46582 7.65242C8.46582 6.56233 7.57835 5.67488 6.48828 5.67488ZM6.48828 6.78816C6.96461 6.78816 7.35254 7.17609 7.35254 7.65242C7.35244 7.86277 7.27563 8.06531 7.13672 8.22273C6.99916 8.37856 6.14917 9.12839 5.42773 9.75301C4.89935 9.2849 3.96441 8.4564 3.78711 8.29988C3.60124 8.13588 3.49426 7.9 3.49414 7.65242C3.49414 7.17609 3.88207 6.78816 4.3584 6.78816C4.60568 6.78829 4.84172 6.89497 5.00586 7.08113L5.42285 7.55476L5.84082 7.08113C6.00514 6.89515 6.24099 6.78823 6.48828 6.78816ZM13.915 8.06355L12.292 9.44734L11.96 8.78816V7.00789L12.9541 6.15926L13.915 8.06355Z" fill="#A7A7A7"/>
</svg>
