<svg width="24" height="24" viewBox="0 0 24 24" fill="none" xmlns="http://www.w3.org/2000/svg">
<path d="M18.7698 6.62636C18.6345 6.47907 18.4695 6.36275 18.2858 6.28522C18.1022 6.2077 17.9042 6.17078 17.7051 6.17697C17.5033 6.1825 17.305 6.23147 17.1235 6.32057C16.9419 6.40968 16.7814 6.53687 16.6527 6.69361C16.44 6.95853 16.3288 7.29162 16.3394 7.63222C16.35 7.97282 16.4816 8.29826 16.7103 8.54925C17.4929 9.40138 18.0008 10.4727 18.1669 11.6218C18.333 12.7709 18.1495 13.9437 17.6406 14.9855C17.1317 16.0272 16.3213 16.889 15.3164 17.457C14.3115 18.0249 13.1593 18.2724 12.012 18.1668C10.9518 18.0724 9.93903 17.6803 9.08871 17.0351C8.2384 16.3898 7.58458 15.5172 7.20146 14.5164C6.81834 13.5155 6.72126 12.4264 6.92125 11.3728C7.12123 10.3191 7.61028 9.34304 8.33286 8.55536C8.51477 8.35414 8.63552 8.10451 8.68077 7.83614C8.72602 7.56777 8.69386 7.29194 8.58813 7.04145C8.48239 6.79096 8.30752 6.57634 8.0843 6.42309C7.86108 6.26984 7.59889 6.18442 7.32891 6.17697C7.12858 6.16967 6.92906 6.20636 6.74419 6.28448C6.55931 6.3626 6.3935 6.4803 6.25823 6.62941C5.39991 7.56465 4.75954 8.6812 4.38383 9.89762C4.00812 11.114 3.90655 12.3996 4.08653 13.6607C4.38652 15.6404 5.35867 17.454 6.83716 18.7919C8.31566 20.1299 10.2089 20.9095 12.194 20.9976H12.5185C14.1672 20.9913 15.7786 20.5026 17.157 19.591C18.5354 18.6793 19.6216 17.3839 20.2835 15.862C20.9455 14.3402 21.1549 12.6573 20.8861 11.0178C20.6174 9.37835 19.8822 7.85277 18.7698 6.62636Z" fill="#7D7D7D"/>
<path d="M12.5155 12.9086C12.8896 12.9086 13.2483 12.7589 13.5128 12.4923C13.7773 12.2257 13.9259 11.8641 13.9259 11.4871V4.41916C13.9259 4.04214 13.7773 3.68057 13.5128 3.41398C13.2483 3.14739 12.8896 2.99762 12.5155 2.99762C12.1414 2.99762 11.7827 3.14739 11.5182 3.41398C11.2537 3.68057 11.1051 4.04214 11.1051 4.41916V11.4871C11.1051 11.8641 11.2537 12.2257 11.5182 12.4923C11.7827 12.7589 12.1414 12.9086 12.5155 12.9086Z" fill="#7D7D7D"/>
</svg>
