<svg width="153" height="18" viewBox="0 0 153 18" fill="none" xmlns="http://www.w3.org/2000/svg">
<path d="M48.0703 6.96387C48.6934 0.817405 55.4008 -1.9553 59.9072 1.84863C68.8816 9.42572 58.3732 22.5881 50.6074 15.6895C46.6906 12.209 42.9562 0.519249 36.4854 4.21191C30.425 7.67139 34.3006 17.138 40.748 14.6953C42.4253 14.0598 43.6066 12.5146 45.084 11.5146L45.0859 11.5137C43.4733 17.9506 36.111 20.3603 31.7578 15.2051C25.0322 7.2393 34.6866 -3.91851 42.1875 2.41699C46.0953 5.71765 50.669 19.0447 57.1045 13.7881C62.7922 9.14056 56.8709 0.325428 51.1045 4.08105C49.9701 4.82002 49.1043 6.09383 48.0703 6.96387ZM97.7393 0C105.629 0 108.371 1.32704 108.371 5.04492C108.371 6.81361 107.926 8.02067 106.722 8.80371C108.019 9.5471 108.759 10.834 108.759 12.4629C108.759 16.261 105.924 17.5879 97.8867 17.5879C95.4423 17.5879 91.5708 17.206 89.4033 16.8447C89.1801 16.8051 89.0694 16.6642 89.0693 16.4033H89.0703V1.24707C89.0703 1.00588 89.1811 0.864284 89.4043 0.803711C91.5525 0.421559 95.3496 4.41166e-06 97.7393 0ZM123.152 0C125.56 0 127.356 0.221675 128.783 0.523438C128.987 0.563109 129.098 0.703802 129.153 0.905273L129.562 2.93457C129.636 3.23629 129.525 3.35642 129.247 3.2959C127.377 2.93469 124.635 2.79397 123.116 2.79395C117.097 2.79395 114.967 4.08036 114.559 7.45801H129.062C129.283 7.45815 129.413 7.59906 129.413 7.83984V9.58887C129.413 9.84975 129.284 9.97156 129.062 9.97168H114.522C114.929 13.4086 117.041 14.7148 123.116 14.7148C124.635 14.7148 127.376 14.5543 129.247 14.2129C129.525 14.1326 129.635 14.2731 129.562 14.5537L129.153 16.584C129.117 16.805 129.005 16.9248 128.803 16.9854C127.376 17.2871 125.56 17.5283 123.152 17.5283C114.504 17.5283 111.318 14.5933 111.336 8.74414C111.318 2.95473 114.504 8.18301e-06 123.152 0ZM70.1221 0C72.807 0 74.3449 1.30596 75.5859 4.74414C75.6965 5.16595 76.5301 7.41892 77.8076 11.1777C78.7329 13.871 79.2893 14.5946 80.5117 14.5947C81.6228 14.5947 82.123 13.6091 82.123 11.3184V0.623047C82.1231 0.362356 82.2341 0.241317 82.4561 0.241211H84.7344C84.9565 0.241211 85.0858 0.361141 85.0859 0.623047V12.7441C85.0859 15.5183 83.3454 17.5087 80.8076 17.5088C78.1216 17.5088 76.6033 16.2023 75.3623 12.7441C75.2513 12.3214 74.3611 9.88849 73.1396 6.33105C72.2317 3.63798 71.6576 2.91424 70.418 2.91406C69.3068 2.91406 68.8057 3.91847 68.8057 6.19043L68.8252 16.8848V16.8857C68.8251 17.1464 68.7148 17.2675 68.4736 17.2676H66.1953C65.9732 17.2676 65.8624 17.1477 65.8623 16.8857V4.74414C65.8624 1.95033 67.6037 7.82139e-05 70.1221 0ZM6.39258 0C8.31841 7.41496e-05 9.59691 1.06612 10.4482 3.39746C11.3737 5.88975 11.5963 9.1678 12.2822 10.9365C12.5785 11.7204 12.9671 12.2031 13.5596 12.2031H14.0039C14.5964 12.2031 15.0035 11.7205 15.3008 10.9365C15.9857 9.1678 16.2081 5.89085 17.1152 3.39746C17.9869 1.06614 19.2653 6.7539e-05 21.1729 0H21.8955C24.5257 0 26.0813 1.64899 26.3594 4.52344L27.5635 16.9062L27.5625 16.9053C27.5808 17.1464 27.4888 17.2871 27.2666 17.2871H24.9697C24.7295 17.2869 24.5983 17.1463 24.5811 16.9053L23.5625 5.84863C23.3768 3.73887 22.8023 2.89453 21.7471 2.89453H21.2109C20.4326 2.89453 19.8776 3.43771 19.4707 4.70312C18.8599 6.65359 18.6184 9.80886 17.7295 12.1006C17.0263 13.9704 15.9513 15.1356 14.2295 15.1357H13.3398C11.6364 15.1355 10.5616 13.9692 9.85742 12.1006C8.9686 9.80896 8.72865 6.65361 8.09863 4.70312C7.70999 3.43661 7.1533 2.89453 6.375 2.89453H5.82031C4.76405 2.89453 4.20888 3.73887 4.00488 5.84863L3.00391 16.9053C2.98564 17.1465 2.83746 17.2871 2.61523 17.2871H0.317383C0.0768902 17.2871 -0.0153356 17.1465 0.00292969 16.9053L1.20605 4.52344C1.48409 1.64899 3.059 0 5.66992 0H6.39258ZM152.271 0.242188C152.475 0.242279 152.586 0.362703 152.642 0.583984L152.994 2.6543C153.031 2.93606 152.939 3.0761 152.661 3.07617H143.808V16.8652H143.807C143.807 17.1262 143.696 17.248 143.455 17.248H141.195C140.972 17.248 140.844 17.1273 140.844 16.8652V3.07617H131.989C131.713 3.07602 131.62 2.93494 131.657 2.6543L132.009 0.583984C132.045 0.362789 132.176 0.242372 132.379 0.242188H152.271ZM103.889 9.70801C102.555 9.94918 100.832 10.0498 98.6104 10.0498H92.0166V14.4932C93.7396 14.7343 96.1658 14.8545 97.499 14.8545C104.074 14.8545 105.648 14.3117 105.648 12.1006C105.648 10.7944 105.13 10.0494 103.889 9.70801ZM97.332 2.75488C95.7025 2.75491 93.499 2.91568 92.0166 3.11719V7.7793H98.2217C103.944 7.77928 105.26 7.33772 105.26 5.28711C105.26 3.23673 103.758 2.75488 97.332 2.75488Z" fill="white"/>
</svg>
