<svg width="21" height="20" viewBox="0 0 21 20" fill="none" xmlns="http://www.w3.org/2000/svg">
<path d="M10.8662 11.6484C10.9263 11.6485 10.9858 11.6636 11.0381 11.6934C11.0903 11.7231 11.1334 11.7666 11.1641 11.8184C11.9796 13.2043 13.1348 14.3599 14.5205 15.1758C14.5723 15.2063 14.6156 15.2496 14.6455 15.3018C14.6754 15.354 14.6913 15.4135 14.6914 15.4736C14.6914 15.5339 14.6754 15.5932 14.6455 15.6455C14.6306 15.6715 14.6127 15.6956 14.5918 15.7168L14.5205 15.7725C13.1368 16.5896 11.9821 17.7442 11.165 19.1279C11.1345 19.1799 11.0904 19.223 11.0381 19.2529C10.986 19.2827 10.9272 19.2987 10.8672 19.2988C10.807 19.2988 10.7476 19.2828 10.6953 19.2529C10.643 19.223 10.5989 19.1799 10.5684 19.1279C9.75292 17.7419 8.59728 16.5864 7.21094 15.7715C7.15919 15.7409 7.11575 15.6977 7.08594 15.6455C7.05613 15.5933 7.04102 15.5338 7.04102 15.4736C7.04105 15.4135 7.05611 15.354 7.08594 15.3018C7.11577 15.2496 7.15917 15.2064 7.21094 15.1758C8.593 14.3548 9.74759 13.2005 10.5684 11.8184C10.599 11.7666 10.6421 11.7231 10.6943 11.6934C10.7466 11.6636 10.8061 11.6484 10.8662 11.6484ZM16.918 5.26074C17.2333 5.26033 17.5443 5.33527 17.8252 5.47852C18.1061 5.62178 18.3494 5.82948 18.5342 6.08496C18.7189 6.34032 18.8405 6.63583 18.8887 6.94727C18.9368 7.25877 18.9105 7.57769 18.8115 7.87695H18.8545V7.875C19.1487 7.87554 19.4393 7.94114 19.7051 8.06738C19.971 8.19376 20.2062 8.37754 20.3926 8.60547C20.5789 8.83338 20.7122 9.10006 20.7832 9.38574C20.8541 9.67141 20.8607 9.96924 20.8027 10.2578C20.7447 10.5464 20.6231 10.8186 20.4473 11.0547C20.2715 11.2906 20.0459 11.4848 19.7861 11.623C19.5262 11.7613 19.2384 11.8407 18.9443 11.8545C18.6503 11.8683 18.3567 11.8163 18.085 11.7031L18.2764 12.7334C18.2909 12.8117 18.2886 12.8927 18.2686 12.9697C18.2485 13.0468 18.2111 13.1184 18.1602 13.1797C18.1093 13.2409 18.0457 13.2904 17.9736 13.3242C17.9015 13.3581 17.8228 13.3759 17.7432 13.376H16.2969C16.2172 13.3759 16.1385 13.3581 16.0664 13.3242C15.9943 13.2904 15.9308 13.2409 15.8799 13.1797C15.829 13.1184 15.7915 13.0468 15.7715 12.9697C15.7515 12.8927 15.7491 12.8116 15.7637 12.7334L15.9551 11.7031C15.6892 11.8145 15.4014 11.8668 15.1133 11.8564C14.8254 11.846 14.5431 11.7737 14.2861 11.6436C14.029 11.5133 13.8029 11.3286 13.624 11.1025C13.4452 10.8765 13.3176 10.6142 13.25 10.334C13.1824 10.0538 13.1763 9.76221 13.2324 9.47949C13.2885 9.19676 13.4057 8.92945 13.5752 8.69629C13.7446 8.46327 13.9624 8.26947 14.2139 8.12891C14.4654 7.98833 14.7449 7.90401 15.0322 7.88184C14.9325 7.58298 14.9049 7.26462 14.9521 6.95312C14.9995 6.64139 15.1205 6.34482 15.3047 6.08887C15.4888 5.83294 15.7312 5.62445 16.0117 5.48047C16.2921 5.33654 16.6028 5.26121 16.918 5.26074ZM4.71191 5.30957C4.87141 5.30967 5.02472 5.37275 5.1377 5.48535L7.48633 7.82617L7.96387 8.30469C8.14552 8.48546 8.28924 8.70089 8.3877 8.9375C8.48607 9.17401 8.5369 9.42744 8.53711 9.68359C8.5373 9.93989 8.48678 10.1939 8.38867 10.4307C8.29058 10.6673 8.14714 10.8825 7.96582 11.0635C7.65039 11.3775 7.23734 11.5745 6.79492 11.623C6.35271 11.6716 5.90715 11.569 5.53125 11.3311L5.79688 12.7744C5.80931 12.8419 5.80639 12.9112 5.78906 12.9775C5.77168 13.044 5.74025 13.1064 5.69629 13.1592C5.6524 13.2119 5.59725 13.2541 5.53516 13.2832C5.47292 13.3124 5.40467 13.3281 5.33594 13.3281H4.08789C4.01931 13.3282 3.95178 13.3122 3.88965 13.2832C3.82738 13.2541 3.77152 13.212 3.72754 13.1592C3.68361 13.1064 3.6521 13.044 3.63477 12.9775C3.61749 12.9111 3.61541 12.8419 3.62793 12.7744L3.89355 11.3389C3.48651 11.5965 2.99859 11.6956 2.52344 11.6162C2.0483 11.5368 1.61946 11.2842 1.31836 10.9082C1.01722 10.5321 0.865149 10.0583 0.891602 9.57715C0.918055 9.09605 1.12135 8.64162 1.46191 8.30078L1.94238 7.82129L4.28613 5.48535C4.39917 5.37282 4.5524 5.30957 4.71191 5.30957ZM9.00293 0C9.52281 6.01866e-05 10.0212 0.206484 10.3896 0.573242L10.8711 1.05273L11.3496 0.576172C11.7173 0.209759 12.2153 0.00390625 12.7344 0.00390625C13.2534 0.00399653 13.7515 0.209833 14.1191 0.576172C14.3007 0.757038 14.4446 0.972318 14.543 1.20898C14.6413 1.44572 14.6924 1.69972 14.6924 1.95605C14.6923 2.21238 14.6413 2.46641 14.543 2.70312C14.4446 2.93982 14.3008 3.15507 14.1191 3.33594L13.6406 3.8125L11.292 6.1543C11.1789 6.2666 11.0256 6.3291 10.8662 6.3291C10.7068 6.32907 10.5536 6.26664 10.4404 6.1543L8.09668 3.81836L7.61523 3.33887C7.43309 3.15758 7.28905 2.94141 7.19043 2.7041C7.0919 2.46696 7.04106 2.21285 7.04102 1.95605C7.04102 1.69907 7.09181 1.44433 7.19043 1.20703C7.28901 0.969867 7.43323 0.754456 7.61523 0.573242C7.98375 0.206424 8.48297 0 9.00293 0Z" fill="#A8A8A8"/>
</svg>
