<svg width="22" height="18" viewBox="0 0 22 18" fill="none" xmlns="http://www.w3.org/2000/svg">
<path fill-rule="evenodd" clip-rule="evenodd" d="M10.1318 1.28723C11.4425 1.28741 12.5088 2.35352 12.5088 3.66419V15.6232C12.5086 16.9337 11.4424 17.9999 10.1318 18.0001H2.37695C1.06638 18 0.00018652 16.9337 0 15.6232V3.66419C0 2.35348 1.06627 1.28735 2.37695 1.28723H10.1318ZM11.1299 0.142703C11.5345 -0.00494801 11.973 -0.0401178 12.4062 0.0470002L20.0078 1.57923C20.6285 1.70443 21.1641 2.06359 21.5146 2.59095C21.865 3.11837 21.9893 3.75149 21.8643 4.3722L19.501 16.0949C19.2745 17.2189 18.2827 17.9972 17.1777 17.9972C17.023 17.9972 16.8664 17.9821 16.709 17.9503L13.3936 17.2824C13.648 16.7838 13.7929 16.2202 13.793 15.6232V12.9093L17.6475 9.6222L15.3506 5.06556L13.793 6.39466V3.66419C13.793 1.99181 12.6646 0.578657 11.1299 0.142703ZM7.48242 6.54407C7.04309 6.54416 6.61721 6.6718 6.25391 6.90442C5.89053 6.67181 5.46462 6.54407 5.02539 6.54407C3.7683 6.54429 2.7461 7.56737 2.74609 8.82434C2.74609 9.47815 3.0271 10.1013 3.51758 10.5343C3.80293 10.786 6.24805 12.9523 6.24805 12.9523C6.28122 12.9237 8.87928 10.6873 9.19238 10.3331C9.56016 9.91654 9.7627 9.38052 9.7627 8.82434C9.76269 7.56723 8.73954 6.54407 7.48242 6.54407ZM7.48242 7.82825C8.03174 7.82825 8.47948 8.27503 8.47949 8.82434C8.47949 9.06708 8.39075 9.30088 8.23047 9.48255C8.07182 9.66225 7.09177 10.5278 6.25977 11.2482C5.65028 10.7082 4.57118 9.7515 4.36719 9.57141C4.15271 9.38218 4.0293 9.11004 4.0293 8.82434C4.0293 8.27517 4.47626 7.82847 5.02539 7.82825C5.31068 7.82825 5.58306 7.95142 5.77246 8.16614L6.25391 8.71204L6.73535 8.16614C6.92482 7.95161 7.19722 7.82838 7.48242 7.82825ZM16.0469 9.29895L14.1758 10.8947L13.793 10.1349V8.08118L14.9395 7.10364L16.0469 9.29895Z" fill="#E1E1E1"/>
</svg>
