<svg width="20" height="21" viewBox="0 0 20 21" fill="none" xmlns="http://www.w3.org/2000/svg">
<path d="M9.21113 12.3738C8.25883 15.9725 3.91085 17.3196 1.33981 14.4376C-2.6324 9.98439 3.06942 3.74694 7.49951 7.28894C9.80744 9.13413 12.5085 16.5845 16.3093 13.6458C19.6691 11.0477 16.1715 6.11915 12.7656 8.21923C12.0956 8.63235 11.5844 9.34408 10.9737 9.83047C11.3417 6.39436 15.3031 4.8447 17.9646 6.97125C23.2649 11.2071 17.0591 18.5651 12.4726 14.7085C10.1592 12.7629 7.95378 6.22751 4.13199 8.29188C0.552322 10.2257 2.84108 15.5181 6.64909 14.1525C7.63974 13.7973 8.33734 12.9335 9.20993 12.3745L9.21113 12.3738Z" fill="#E1E1E1"/>
</svg>
