<svg width="22" height="18" viewBox="0 0 22 18" fill="none" xmlns="http://www.w3.org/2000/svg">
<path d="M10.585 18L6.96777 5.94141H14.2021L10.585 18ZM9.0625 17.2695L0 5.94141H5.66406L9.0625 17.2695ZM12.1074 17.2695L15.5059 5.94141H21.1699L12.1074 17.2695ZM5.69531 4.69336H0.208008L4.71973 0.181641C4.83599 0.0653789 4.9938 5.55271e-05 5.1582 0H7.45605L5.69531 4.69336ZM12.3809 0L14.1406 4.69336H7.0293L8.78906 0H12.3809ZM16.0117 0C16.1761 8.77972e-05 16.334 0.0654077 16.4502 0.181641L20.9619 4.69336H15.4736L13.7139 0H16.0117Z" fill="#A8A8A8"/>
</svg>
