<svg width="18" height="18" viewBox="0 0 18 18" fill="none" xmlns="http://www.w3.org/2000/svg">
<path d="M5.87598 17.0391H2.08008C1.40119 17.0391 0.902599 16.4891 0.854492 15.8125V8.11523H5.87598V17.0391ZM10.6514 17.0391H7.22461V8.11523H10.6514V17.0391ZM17.0215 15.8125C17.0215 16.4912 16.475 17.0391 15.7959 17.0391H12V8.11523H17.0215V15.8125ZM12.7578 0C14.3735 0.00011942 15.5592 1.19248 15.7197 2.52637C15.7572 2.8381 15.7301 3.16643 15.6377 3.48242H16.8125C17.4011 3.48255 17.877 3.97788 17.877 4.59375V5.96973C17.8769 6.58442 17.4011 7.07897 16.8125 7.0791H1.0625C0.473623 7.07903 6.22553e-05 6.58423 0 5.96973V4.59375C0 3.97784 0.473584 3.48249 1.0625 3.48242H1.95117C1.85993 3.16644 1.83285 2.83809 1.87012 2.52637C2.03062 1.19263 3.2169 0 4.6709 0C6.12507 9.6565e-06 7.04213 0.834864 7.69629 1.62793C8.93156 3.13476 8.73135 3.13701 9.89648 1.62793C10.5497 0.835183 11.4654 0 12.7578 0ZM4.83203 1.79102C4.10204 1.79126 3.67314 2.35389 3.68359 2.74023C3.69416 3.15341 3.97066 3.47461 4.37598 3.47461H6.88672L6.31348 2.76953C5.77374 2.11448 5.3684 1.79102 4.83203 1.79102ZM12.7578 1.79102C12.2228 1.79102 11.8161 2.11447 11.2764 2.76953L10.7041 3.47461H13.2148C13.6197 3.47435 13.8957 3.15325 13.9062 2.74023C13.9167 2.35381 13.4894 1.79102 12.7578 1.79102Z" fill="#7D7D7D"/>
</svg>
