<svg width="21" height="21" viewBox="0 0 21 21" fill="none" xmlns="http://www.w3.org/2000/svg">
<path d="M4.65812 11.5151H2C2.11714 13.548 2.90643 15.4535 4.26104 16.9737L6.1428 15.092C5.31062 14.1094 4.77063 12.8721 4.65812 11.5151Z" fill="#A7A7A7"/>
<path d="M6.1428 6.87759L4.26104 4.99582C2.90643 6.51611 2.11714 8.42157 2 10.4545H4.65812C4.77063 9.09751 5.31062 7.86018 6.1428 6.87759Z" fill="#A7A7A7"/>
<path d="M17.3418 10.4545H20C19.8828 8.42164 19.0935 6.51611 17.7389 4.99582L15.8572 6.87763C16.6893 7.86018 17.2294 9.09751 17.3418 10.4545Z" fill="#A7A7A7"/>
<path d="M11 10.4545C10.7076 10.4545 10.4696 10.6924 10.4696 10.9848C10.4963 11.6874 11.5038 11.6872 11.5303 10.9848C11.5303 10.6923 11.2925 10.4545 11 10.4545Z" fill="#A7A7A7"/>
<path d="M16.3034 10.9848C16.3034 8.06048 13.9243 5.68135 11 5.68135C3.97391 5.94797 3.97582 16.0227 11.0001 16.2883C13.9243 16.2883 16.3034 13.9091 16.3034 10.9848ZM14.1821 11.5151H12.4998C12.3397 11.9664 11.9816 12.3246 11.5303 12.4846V14.1669H10.4696V12.4846C10.0184 12.3246 9.66023 11.9664 9.50017 11.5151H7.81792V10.4545H9.50017C9.66023 10.0032 10.0184 9.64504 10.4696 9.48498V7.80273H11.5303V9.48498C11.9816 9.64504 12.3397 10.0032 12.4998 10.4545H14.1821V11.5151Z" fill="#A7A7A7"/>
<path d="M10.4696 4.64289V1.9848C8.43683 2.10194 6.53134 2.8912 5.01105 4.24581L6.89282 6.12761C7.87541 5.2954 9.1127 4.7554 10.4696 4.64289Z" fill="#A7A7A7"/>
<path d="M16.9889 4.24584C15.4687 2.89123 13.5632 2.10194 11.5303 1.9848V4.64293C12.8872 4.75543 14.1245 5.29543 15.1071 6.12761L16.9889 4.24584Z" fill="#A7A7A7"/>
<path d="M11.5303 17.3267V19.9848C13.5631 19.8676 15.4687 19.0784 16.9889 17.7238L15.1071 15.842C14.1245 16.6742 12.8872 17.2142 11.5303 17.3267Z" fill="#A7A7A7"/>
<path d="M5.01105 17.7237C6.53134 19.0783 8.43683 19.8676 10.4696 19.9848V17.3266C9.1127 17.2141 7.87541 16.6741 6.89282 15.842L5.01105 17.7237Z" fill="#A7A7A7"/>
<path d="M15.8572 15.092L17.7389 16.9737C19.0936 15.4535 19.8828 13.548 20 11.5151H17.3418C17.2294 12.8721 16.6893 14.1094 15.8572 15.092Z" fill="#A7A7A7"/>
</svg>
