<svg width="20" height="20" viewBox="0 0 20 20" fill="none" xmlns="http://www.w3.org/2000/svg">
<path d="M19.9956 6.30946C19.9805 6.54455 20.0108 6.78722 19.9956 7.02231C19.9881 7.1209 19.9578 7.32565 19.9426 7.45457C19.6019 10.2377 17.5421 12.5355 14.816 13.1725C14.7857 11.7468 14.3768 10.3894 13.6801 9.22152L15.4066 5.31603C15.4521 5.21744 15.4824 5.11886 15.4975 5.02027C15.5127 4.9141 15.5278 4.8231 15.5278 4.72451C15.5278 4.54251 15.4824 4.39842 15.3991 4.27709C15.3233 4.16334 15.2249 4.07233 15.1265 4.00408H11.9611C11.8021 4.00408 11.6734 4.04958 11.5749 4.14817C11.4689 4.24675 11.4159 4.40601 11.4159 4.6411C11.4159 4.76243 11.4386 4.87618 11.4689 4.98235C11.5068 5.09611 11.5446 5.18711 11.5825 5.24777H13.8088L12.5821 7.76549C11.1281 6.21088 9.09111 5.21744 6.84962 5.18711C7.35699 2.86656 9.16683 0.925186 11.4538 0.273006C11.8475 0.159253 12.3852 0.0379175 12.7865 0H13.8543L15.2628 0.295756C17.5042 0.97827 19.2687 2.85139 19.8063 5.14919L19.9956 6.30946ZM6.53158 13.6048C6.41799 13.6048 6.29683 13.6275 6.16809 13.673C6.03936 13.7261 5.93334 13.7944 5.85004 13.8778V14.1053C5.85004 14.4314 5.9182 14.6665 6.0545 14.803C6.19081 14.9471 6.35741 15.0153 6.55429 15.0153C6.75118 15.0153 6.90263 14.9471 7.00108 14.8106C7.09952 14.6816 7.15253 14.5072 7.15253 14.2949C7.15253 14.0825 7.09952 13.9157 6.9935 13.7868C6.88749 13.6654 6.73604 13.6048 6.53158 13.6048ZM12.7941 15.9481C10.7874 20.6878 4.32795 21.4461 1.29135 17.2828C-1.83613 12.9829 1.0566 6.97681 6.32712 6.68105C11.2039 6.40805 14.7024 11.4359 12.7941 15.9481ZM8.70491 14.2873C8.70491 13.6882 8.53831 13.2256 8.21269 12.8995C7.8795 12.581 7.44029 12.4218 6.87992 12.4218C6.66788 12.4218 6.46342 12.4521 6.25896 12.5279C6.06208 12.5962 5.90305 12.672 5.78189 12.7554C5.85004 12.399 5.97878 12.126 6.17566 11.9364C6.37255 11.7392 6.65274 11.6482 7.01622 11.6482C7.16767 11.6482 7.33427 11.6634 7.50844 11.7089C7.69018 11.7468 7.86435 11.7999 8.02338 11.8757C8.10667 11.8151 8.17483 11.7241 8.22783 11.6027C8.28841 11.489 8.31871 11.3677 8.31871 11.2387C8.31871 10.9657 8.18997 10.761 7.9325 10.6245C7.67504 10.4955 7.30398 10.4273 6.81933 10.4273C6.43313 10.4273 6.08479 10.488 5.77432 10.6169C5.45627 10.7458 5.18366 10.9354 4.95648 11.1932C4.7293 11.4435 4.55513 11.762 4.43397 12.1488C4.30524 12.5279 4.24466 12.9754 4.24466 13.4759C4.24466 14.3631 4.44912 15.0456 4.85804 15.5234C5.26695 16.0012 5.82733 16.2438 6.54672 16.2438C6.90263 16.2438 7.21311 16.1908 7.48572 16.0846C7.75076 15.9784 7.97794 15.8343 8.15968 15.6523C8.34142 15.4779 8.47773 15.2656 8.5686 15.0305C8.65947 14.7954 8.70491 14.5451 8.70491 14.2873Z" fill="#A8A8A8"/>
</svg>
