<svg width="21" height="21" viewBox="0 0 21 21" fill="none" xmlns="http://www.w3.org/2000/svg">
<path d="M15.5879 18.9662C16.3773 18.9662 17.022 18.3224 17.022 17.534V15.95C17.022 15.1615 16.3773 14.5178 15.5879 14.5178H3.43409C2.64472 14.5178 2 15.1615 2 15.95V17.534C2 18.3224 2.64472 18.9662 3.43409 18.9662H15.5879Z" fill="#A7A7A7"/>
<path d="M19.2757 4.61712H17.465C17.0646 4.61712 16.7407 4.94099 16.7407 5.34044C16.7407 5.73988 17.0646 6.06375 17.465 6.06375H17.646V8.99444L15.7165 9.4571V3.88291C15.7165 2.8269 14.8544 1.96616 13.7898 1.96616H5.22131C4.16387 1.96616 3.302 2.8269 3.302 3.88291V12.9822H15.7165V10.9445L18.5394 10.2676C18.8648 10.1896 19.0946 9.89893 19.0946 9.56447V6.06375H19.2757C19.6761 6.06375 20 5.73988 20 5.34044C20 4.94099 19.6761 4.61712 19.2757 4.61712ZM10.6415 6.48686V11.0871H8.37948V6.48686H10.6415ZM4.75784 10.6169V6.95698C4.75784 6.6966 4.96791 6.48686 5.22131 6.48686H6.9309V11.0871H5.22131C4.96791 11.0871 4.75784 10.8774 4.75784 10.6169ZM14.2679 10.6169C14.2679 10.8774 14.0578 11.0871 13.797 11.0871H12.0901V6.48686H13.797C14.0578 6.48686 14.2679 6.6966 14.2679 6.95698V10.6169Z" fill="#A7A7A7"/>
</svg>
