<svg width="18" height="15" viewBox="0 0 18 15" fill="none" xmlns="http://www.w3.org/2000/svg">
<path d="M3.76126 11.6664H2.68636V8.8888H3.76126V11.6664Z" fill="#A7A7A7"/>
<path d="M7.79111 11.6664H6.71621V8.8888H7.79111V11.6664Z" fill="#A7A7A7"/>
<path d="M11.8209 11.6664H10.746V8.8888H11.8209V11.6664Z" fill="#A7A7A7"/>
<path fill-rule="evenodd" clip-rule="evenodd" d="M16.701 9.1665C16.701 10.0869 15.9796 10.8332 15.0895 10.8333H14.5073V13.891C14.5073 14.5034 14.028 14.9999 13.4354 15H1.07194C0.480166 14.9999 0 14.5019 0 13.891V6.66415C6.49802e-05 6.05187 0.479398 5.55533 1.07194 5.55519H13.4354C14.0271 5.55532 14.5072 6.05335 14.5073 6.66415V9.72189H15.0895C15.3861 9.72181 15.6267 9.47324 15.6267 9.1665V4.67551C15.7864 4.70612 15.9511 4.7221 16.1194 4.7221C16.319 4.72209 16.5137 4.69987 16.701 4.65712V9.1665ZM2.41719 7.778C1.97307 7.77804 1.61206 8.15297 1.61206 8.61294V11.9423C1.61206 12.4026 1.97131 12.7778 2.41719 12.7778H4.03043C4.47456 12.7778 4.83557 12.4023 4.83557 11.9423V8.61294C4.83557 8.15265 4.47631 7.778 4.03043 7.778H2.41719ZM6.44704 7.778C6.00291 7.77804 5.6419 8.15297 5.6419 8.61294V11.9423C5.6419 12.4026 6.00115 12.7778 6.44704 12.7778H8.06028C8.5044 12.7778 8.86541 12.4023 8.86541 11.9423V8.61294C8.86541 8.15265 8.50616 7.778 8.06028 7.778H6.44704ZM10.4769 7.778C10.0328 7.77804 9.67175 8.15297 9.67174 8.61294V11.9423C9.67174 12.4026 10.031 12.7778 10.4769 12.7778H12.0901C12.5342 12.7778 12.8953 12.4023 12.8953 11.9423V8.61294C12.8953 8.15265 12.536 7.778 12.0901 7.778H10.4769Z" fill="#A7A7A7"/>
<path d="M16.1194 0C17.158 7.31178e-05 18 0.870662 18 1.9445C17.9999 3.01829 17.1579 3.88893 16.1194 3.889C15.0808 3.889 14.2388 3.01837 14.2387 1.9445C14.2387 0.870581 15.0807 0 16.1194 0Z" fill="#A7A7A7"/>
</svg>
