<svg width="18" height="18" viewBox="0 0 18 18" fill="none" xmlns="http://www.w3.org/2000/svg">
<path d="M9 7.62939e-06C13.9693 8.01085e-06 18 4.03071 18 9.00001C18 13.9693 13.9693 18 9 18C4.03071 18 1.68837e-05 13.9693 0 9.00001C0 4.03071 4.0307 7.62939e-06 9 7.62939e-06ZM9 3.21387C8.64642 3.21387 8.35742 3.50385 8.35742 3.85743V9.00001C8.35743 9.19609 8.44757 9.37883 8.59863 9.50098L11.8125 12.0732C11.9312 12.1695 12.0727 12.2138 12.2139 12.2139C12.4034 12.2139 12.5904 12.131 12.7158 11.9736C12.9375 11.6973 12.8924 11.2921 12.6162 11.0703L9.64258 8.69141V3.85743C9.64258 3.50385 9.35358 3.21388 9 3.21387Z" fill="#7D7D7D"/>
</svg>
