<svg width="18" height="18" viewBox="0 0 18 18" fill="none" xmlns="http://www.w3.org/2000/svg">
<path d="M12.2271 13.0996C12.0355 13.988 11.7796 14.8068 11.4653 15.5254C10.7773 17.0979 9.87939 18 9.00049 18C8.12172 17.9997 7.22451 17.0977 6.53662 15.5254C6.22233 14.8072 5.9665 13.9883 5.7749 13.0996H12.2271ZM17.0161 13.0996C16.453 14.208 15.6651 15.1876 14.7026 15.9746C13.7403 16.7614 12.6242 17.3391 11.4263 17.6709C11.7947 17.2058 12.1324 16.6282 12.4302 15.9473C12.7979 15.1067 13.091 14.143 13.3022 13.0996H17.0161ZM4.69873 13.0996C4.90966 14.1437 5.20308 15.1074 5.5708 15.9473C5.86885 16.6281 6.2054 17.2049 6.57373 17.6699C5.376 17.338 4.26047 16.7604 3.29834 15.9736C2.33611 15.1868 1.54793 14.2078 0.984863 13.0996H4.69873ZM4.51709 5.95508C4.23543 7.97529 4.23542 10.0247 4.51709 12.0449H0.527832C-0.176853 10.0762 -0.176827 7.9238 0.527832 5.95508H4.51709ZM12.4194 5.95508C12.5692 6.96309 12.644 7.98092 12.6421 9C12.644 10.0191 12.5692 11.0369 12.4194 12.0449H5.58252C5.28632 10.0258 5.28633 7.97424 5.58252 5.95508H12.4194ZM17.4731 5.95508C18.1779 7.92397 18.178 10.076 17.4731 12.0449H13.4849C13.6268 11.0362 13.6974 10.0187 13.6958 9C13.6974 7.98133 13.6268 6.96381 13.4849 5.95508H17.4731ZM9.00049 0C9.87939 0 10.7773 0.901719 11.4653 2.47461C11.7796 3.19282 12.0355 4.01169 12.2271 4.90039H5.7749C5.9665 4.01203 6.22234 3.19318 6.53662 2.47461C7.22451 0.901981 8.12172 0.000301179 9.00049 0ZM11.4263 0.329102C12.6244 0.660893 13.7402 1.23943 14.7026 2.02637C15.6651 2.81332 16.453 3.79205 17.0161 4.90039H13.3032C13.0923 3.85633 12.7988 2.89257 12.4312 2.05273C12.1334 1.37141 11.7958 0.793867 11.4263 0.329102ZM6.57471 0.329102C6.20636 0.794161 5.86984 1.37093 5.57178 2.05176C5.20404 2.89234 4.911 3.85598 4.69971 4.89941H0.984863C1.54814 3.79121 2.33691 2.81227 3.29932 2.02539C4.26155 1.23873 5.37696 0.660943 6.57471 0.329102Z" fill="#7D7D7D"/>
</svg>
