<?xml version="1.0" encoding="UTF-8"?>
<svg version="1.1" xmlns="http://www.w3.org/2000/svg" width="50" height="50">
<path d="M0 0 C5.14338337 2.9958329 8.76038445 7.90615335 10.625 13.5 C10.74453769 15.47654185 10.80026196 17.45738456 10.8125 19.4375 C10.82667969 20.47777344 10.84085938 21.51804687 10.85546875 22.58984375 C10.62892282 25.45046613 10.10233619 27.07670151 8.625 29.5 C7.635 29.5 6.645 29.5 5.625 29.5 C5.58375 30.4075 5.5425 31.315 5.5 32.25 C4.625 35.5 4.625 35.5 1.75 37.8125 C-4.6109368 41.24740587 -11.71148447 41.71421549 -18.73046875 39.88671875 C-24.13740082 37.51268862 -27.39993663 33.51334209 -30.375 28.5 C-31.42836511 25.33990467 -31.57532888 22.9446864 -31.625 19.625 C-31.66367187 18.08199219 -31.66367187 18.08199219 -31.703125 16.5078125 C-31.12035889 11.16578982 -28.16308672 8.06525809 -24.375 4.5 C-23.1065625 3.1696875 -23.1065625 3.1696875 -21.8125 1.8125 C-16.40459986 -3.31807193 -6.6089189 -2.90178838 0 0 Z " fill="#FEF7D4" transform="translate(35.375,5.5)"/>
<path d="M0 0 C0.66 0 1.32 0 2 0 C1.88140625 0.90621094 1.7628125 1.81242188 1.640625 2.74609375 C0.83746145 10.33598928 0.28815402 16.63339859 5 23 C10.20735851 27.25090491 14.32812189 28.44479187 21 28 C24.49502709 26.91703386 27.37914826 25.62085174 30 23 C32.125 23.375 32.125 23.375 34 24 C32.26647781 28.08493347 30.4342505 29.42103431 26.4765625 31.234375 C20.34028954 33.13139314 13.55821806 33.04605526 7.625 30.5 C2.48161663 27.5041671 -1.13538445 22.59384665 -3 17 C-3.1447963 15.04524991 -3.22067502 13.0848862 -3.25 11.125 C-3.28867187 9.58199219 -3.28867187 9.58199219 -3.328125 8.0078125 C-2.95578391 4.59468586 -2.06712665 2.71937535 0 0 Z " fill="#FAC505" transform="translate(7,14)"/>
<path d="M0 0 C5.14338337 2.9958329 8.76038445 7.90615335 10.625 13.5 C10.74453769 15.47654185 10.80026196 17.45738456 10.8125 19.4375 C10.82667969 20.47777344 10.84085938 21.51804687 10.85546875 22.58984375 C10.62892282 25.45046613 10.10233619 27.07670151 8.625 29.5 C7.635 29.17 6.645 28.84 5.625 28.5 C5.79 27.84 5.955 27.18 6.125 26.5 C7.21345721 19.96925675 7.37151347 15.1197702 3.625 9.5 C-0.94764251 5.12616803 -4.50575927 2.76084007 -10.8125 2.1875 C-14.68545529 2.52723292 -16.95329087 3.75112645 -20.375 5.5 C-22.75 5.1875 -22.75 5.1875 -24.375 4.5 C-17.85610823 -2.3712643 -8.95021624 -3.92978547 0 0 Z " fill="#FAC503" transform="translate(35.375,5.5)"/>
<path d="M0 0 C3 0 3 0 4.5625 1.4375 C5.036875 1.953125 5.51125 2.46875 6 3 C6.66 3.33 7.32 3.66 8 4 C8 5.32 8 6.64 8 8 C7.01 8 6.02 8 5 8 C4.67 7.34 4.34 6.68 4 6 C2.35 6 0.7 6 -1 6 C-1 7.32 -1 8.64 -1 10 C1.01822917 10.45572917 3.03645833 10.91145833 5.0546875 11.3671875 C7 12 7 12 9 14 C9.375 16.875 9.375 16.875 9 20 C7.125 22.375 7.125 22.375 5 24 C4.34 24 3.68 24 3 24 C3 24.66 3 25.32 3 26 C2.01 26 1.02 26 0 26 C0 25.34 0 24.68 0 24 C-0.639375 23.7525 -1.27875 23.505 -1.9375 23.25 C-4 22 -4 22 -4.75 19.875 C-4.8325 19.25625 -4.915 18.6375 -5 18 C-4.01 18 -3.02 18 -2 18 C-1.67 18.66 -1.34 19.32 -1 20 C0.65 20 2.3 20 4 20 C4.66 18.35 5.32 16.7 6 15 C4.1128125 14.8453125 4.1128125 14.8453125 2.1875 14.6875 C-0.31797458 14.35934935 -1.81117604 14.11211423 -4 12.8125 C-5.50815882 10.07896214 -5.3826201 8.06096083 -5 5 C-3.625 3.125 -3.625 3.125 -2 2 C-1.34 2 -0.68 2 0 2 C0 1.34 0 0.68 0 0 Z " fill="#FAC60C" transform="translate(23,12)"/>
<path d="M0 0 C5.13279389 2.79607449 9.080611 6.866833 10.9375 12.4375 C11.06531786 15.11144964 10.98141871 17.75845857 10.9375 20.4375 C10.68371582 19.85774414 10.42993164 19.27798828 10.16845703 18.68066406 C8.79991385 16.18677777 7.26752231 14.54006164 5.2421875 12.546875 C4.52675781 11.83789062 3.81132813 11.12890625 3.07421875 10.3984375 C2.32785156 9.66882812 1.58148438 8.93921875 0.8125 8.1875 C0.05839844 7.44242188 -0.69570313 6.69734375 -1.47265625 5.9296875 C-3.33150772 4.0943658 -5.19487005 2.2638809 -7.0625 0.4375 C-7.3925 1.0975 -7.7225 1.7575 -8.0625 2.4375 C-7.4025 2.7675 -6.7425 3.0975 -6.0625 3.4375 C-7.0525 3.4375 -8.0425 3.4375 -9.0625 3.4375 C-9.0625 4.0975 -9.0625 4.7575 -9.0625 5.4375 C-11.0425 6.4275 -11.0425 6.4275 -13.0625 7.4375 C-13.0625 5.4575 -13.0625 3.4775 -13.0625 1.4375 C-14.3825 1.7675 -15.7025 2.0975 -17.0625 2.4375 C-12.35870851 -2.71427163 -6.18177775 -2.77114175 0 0 Z " fill="#FDE983" transform="translate(32.0625,8.5625)"/>
<path d="M0 0 C1.65 0 3.3 0 5 0 C5.33 0.99 5.66 1.98 6 3 C7.65 2.67 9.3 2.34 11 2 C11 4.64 11 7.28 11 10 C10.319375 9.54625 9.63875 9.0925 8.9375 8.625 C5.69564814 6.83163514 2.5796559 5.91246131 -1 5 C-0.67 3.35 -0.34 1.7 0 0 Z " fill="#FEF0AD" transform="translate(22,17)"/>
<path d="M0 0 C4.21228561 1.56010578 6.34546845 4.4845393 9 8 C10.28317892 11.84953676 10.06643637 14.94738135 10 19 C9.67 19 9.34 19 9 19 C9 18.01 9 17.02 9 16 C8.38879562 11.21708317 5.21605794 8.91578989 1.71484375 5.89453125 C0 4 0 4 0 0 Z " fill="#FDE46F" transform="translate(33,10)"/>
<path d="M0 0 C0 0.99 0 1.98 0 3 C0.66 3.33 1.32 3.66 2 4 C1.01 4 0.02 4 -1 4 C-1 4.66 -1 5.32 -1 6 C-2.98 6.99 -2.98 6.99 -5 8 C-5 6.02 -5 4.04 -5 2 C-6.32 2.33 -7.64 2.66 -9 3 C-6.38997624 -0.48003168 -4.1689578 -0.27793052 0 0 Z " fill="#FEEEA5" transform="translate(24,8)"/>
<path d="M0 0 C1.65 0 3.3 0 5 0 C5 1.32 5 2.64 5 4 C3.35 4 1.7 4 0 4 C0 2.68 0 1.36 0 0 Z " fill="#FEF4C4" transform="translate(21,18)"/>
</svg>
