<svg width="23" height="23" viewBox="0 0 23 23" fill="none" xmlns="http://www.w3.org/2000/svg">
<path d="M16.5547 1.56475C17.1235 1.56486 17.5839 2.02589 17.584 2.59405C17.584 3.16226 17.1236 3.62324 16.5547 3.62334H3.85742C3.47934 3.6234 3.17095 3.9311 3.1709 4.30987C3.1709 4.68868 3.4793 4.99634 3.85742 4.99639H18.6133C19.559 4.99639 20.3291 5.76577 20.3291 6.71221V8.42803H16.8975C15.0054 8.42814 13.4658 9.96754 13.4658 11.8597C13.4659 13.7517 15.0054 15.2912 16.8975 15.2913H20.3291V17.0071C20.329 17.9535 19.559 18.723 18.6133 18.723H3.85742C2.34357 18.7229 1.11251 17.4917 1.1123 15.9778C1.1123 15.9778 1.1123 4.32016 1.1123 4.30987C1.11236 2.79592 2.34347 1.5648 3.85742 1.56475H16.5547ZM20.3291 13.9183H16.8975C15.7604 13.9182 14.839 12.9968 14.8389 11.8597C14.8389 10.7225 15.7603 9.80021 16.8975 9.8001H20.3291V13.9183Z" fill="url(#paint0_linear_7651_401)"/>
<defs>
<linearGradient id="paint0_linear_7651_401" x1="1.1123" y1="10.1439" x2="20.3291" y2="10.1439" gradientUnits="userSpaceOnUse">
<stop stop-color="#F07730"/>
<stop offset="1" stop-color="#EFD28E"/>
</linearGradient>
</defs>
</svg>
