<svg width="24" height="24" viewBox="0 0 24 24" fill="none" xmlns="http://www.w3.org/2000/svg">
<path d="M24 12C24 18.6273 18.6273 24 12 24C5.37273 24 0 18.6273 0 12C0 5.37273 5.37273 0 12 0C18.6273 0 24 5.37273 24 12Z" fill="#8DC351"/>
<path d="M15.2291 7.31236C14.4262 5.94 12.9785 6.03382 11.3367 6.62291L10.4095 4.62655L9.19855 5.19055L10.0985 7.12473L9.13527 7.58618L8.25055 5.62473L7.03964 6.18327L7.96146 8.17527C7.70291 8.30291 7.44327 8.42945 7.19236 8.55055L5.52 9.32291L6.12 10.62C6.12 10.62 7.00473 10.1847 6.99709 10.2109C7.14962 10.114 7.33415 10.0811 7.51076 10.1193C7.68737 10.1575 7.84183 10.2637 7.94073 10.4149L7.94291 10.4171L8.99236 12.6862L9.12327 12.6338L8.99673 12.6938L10.4695 15.8738C10.492 15.9269 10.5036 15.9862 10.5044 16.0516C10.5044 16.2589 10.3713 16.4356 10.1847 16.4989L10.1815 16.5C10.2033 16.5 9.3 16.9091 9.3 16.9091L9.72764 18.4691L11.3062 17.7382L12.1767 17.3433L13.1258 19.3462L14.3367 18.7876L13.4138 16.7924C13.7476 16.6462 14.0713 16.5 14.3847 16.3538L15.3033 18.3371L16.5 17.7753L15.5705 15.7495C17.5538 14.6891 18.7429 13.5 18.0338 11.52C17.4644 9.91091 16.4171 9.55855 15.1353 9.81818C15.6709 9.15055 15.8171 8.31709 15.2291 7.31236ZM15.5247 12.4047C16.2262 13.9047 13.5676 14.9324 12.7462 15.3153L11.5135 12.6447C12.3338 12.2662 14.8015 10.8338 15.5247 12.4047ZM13.2185 8.90291C13.8524 10.2709 11.6291 11.1065 10.9462 11.4229L9.82473 9C10.5 8.68473 12.5585 7.47382 13.2185 8.90291Z" fill="white"/>
</svg>
