<svg width="24" height="24" viewBox="0 0 24 24" fill="none" xmlns="http://www.w3.org/2000/svg">
<path d="M24 12C24 18.6266 18.6266 24 12 24C5.37343 24 0 18.6277 0 12C0 5.37343 5.37343 0 12 0C18.6266 0 24 5.37343 24 12Z" fill="#F7931A"/>
<path d="M17.3931 10.5161C17.626 8.94478 16.4308 8.09951 14.7928 7.53527L15.322 5.40514L14.0295 5.08147L13.5036 7.15582C13.1613 7.06944 12.8114 6.99071 12.4658 6.91197L12.9918 4.83434L11.696 4.51066L11.1657 6.63751C10.8893 6.57572 10.6137 6.51047 10.339 6.44177L8.55003 5.99453L8.20776 7.3789C8.20776 7.3789 9.17004 7.60087 9.14817 7.61181C9.32749 7.63378 9.49112 7.725 9.6041 7.86597C9.71709 8.00695 9.77048 8.18652 9.75287 8.36632V8.36304L9.14817 10.7906C9.19993 10.8037 9.24731 10.8183 9.29032 10.8343L9.28267 10.8321L9.14817 10.7993L8.29852 14.1815C8.27992 14.2412 8.24961 14.2965 8.20939 14.3443C8.16916 14.3921 8.11981 14.4313 8.06423 14.4599C8.00864 14.4884 7.94794 14.5055 7.88565 14.5103C7.82337 14.5151 7.76076 14.5074 7.70148 14.4877L7.70476 14.4888L6.76107 14.2559L6.1181 15.7332L7.80645 16.1498L8.73045 16.3904L8.19355 18.5446L9.48934 18.8671L10.0197 16.737C10.3718 16.8311 10.7162 16.92 11.053 17.0038L10.5227 19.1263L11.8196 19.45L12.3532 17.3002C14.5664 17.7179 16.2285 17.5484 16.9273 15.5495C17.4904 13.941 16.901 13.0126 15.7354 12.4068C16.585 12.2264 17.2203 11.6654 17.3931 10.5161ZM14.4276 14.6692C14.0295 16.2821 11.3198 15.4215 10.4407 15.1919L11.1514 12.351C12.0306 12.5577 14.8486 12.994 14.4276 14.6692ZM14.83 10.4943C14.4538 11.9595 12.199 11.2127 11.4773 11.0323L12.1236 8.44615C12.8529 8.62657 15.2094 8.96884 14.83 10.4943Z" fill="white"/>
</svg>
