<svg width="24" height="24" viewBox="0 0 24 24" fill="none" xmlns="http://www.w3.org/2000/svg">
<path fill-rule="evenodd" clip-rule="evenodd" d="M12 0C18.6284 0 24 5.37164 24 12C24 18.6284 18.6284 24 12 24C5.37164 24 0 18.6284 0 12C0 5.37164 5.37164 0 12 0Z" fill="#F0B90B"/>
<path d="M6.59564 12L6.60436 15.1735L9.3 16.7596V18.6175L5.02582 16.1105V11.0716L6.59564 12ZM6.59564 8.82654V10.6756L5.02473 9.74727V7.89818L6.59564 6.96873L8.17309 7.89818L6.59564 8.82654ZM10.4258 7.89818L11.9967 6.96873L13.5742 7.89818L11.9956 8.82654L10.4258 7.89818Z" fill="white"/>
<path d="M7.73018 14.5156V12.6578L9.3 13.5862V15.4353L7.73018 14.5156ZM10.4258 17.4251L11.9967 18.3535L13.5742 17.4251V19.2742L11.9956 20.2025L10.4258 19.2742V17.4251ZM15.8258 7.89818L17.3967 6.96873L18.9742 7.89818V9.74727L17.3956 10.6756V8.82654L15.8258 7.89818ZM17.3967 15.1735L17.4044 12L18.9753 11.0716V16.1095L14.7011 18.6164V16.7585L17.3967 15.1735Z" fill="white"/>
<path d="M16.2698 14.5156L14.7 15.4353V13.5862L16.2709 12.6578L16.2698 14.5156Z" fill="white"/>
<path d="M16.2698 9.48436L16.2785 11.3422L13.5753 12.9284V16.1095L12.0044 17.0302L10.4345 16.1095V12.9284L7.73127 11.3422V9.48436L9.30764 8.556L11.9956 10.1498L14.6989 8.556L16.2775 9.48436H16.2698ZM7.73018 6.312L11.9956 3.79745L16.2698 6.312L14.7 7.24146L11.9956 5.64764L9.3 7.24036L7.73018 6.312Z" fill="white"/>
</svg>
