<svg width="24" height="24" viewBox="0 0 24 24" fill="none" xmlns="http://www.w3.org/2000/svg">
<path d="M24 12C24 18.6266 18.6266 24 12 24C5.37343 24 0 18.6277 0 12C0 5.37343 5.37343 0 12 0C18.6266 0 24 5.37343 24 12Z" fill="#C2A633"/>
<path d="M11.7037 4.83324H7.57026V11.2225H5.87534V12.7895H7.57026V19.1788H12.3762C12.3762 19.1788 19.1405 19.7452 19.1405 12.117C19.1405 4.61126 12.6802 4.83324 11.7037 4.83324ZM12.2745 16.5457H10.2832V12.7873H13.2892V11.2236H10.2821V7.46419H12.1618C12.8726 7.46419 16.4461 7.74959 16.4538 12.1618C16.4615 16.5741 12.7862 16.5249 12.2745 16.5249V16.5457Z" fill="white"/>
</svg>
