<svg width="24" height="24" viewBox="0 0 24 24" fill="none" xmlns="http://www.w3.org/2000/svg">
<path d="M24 12C24 18.6273 18.6273 24 12 24C5.37273 24 0 18.6273 0 12C0 5.37273 5.37273 0 12 0C18.6273 0 24 5.37273 24 12Z" fill="#627EEA"/>
<path d="M12.3753 3V9.65236L18 12.1647L12.3753 3ZM12.3753 3L6.75055 12.1647L12.3753 9.65236V3ZM12.3753 16.4771V21L18 13.2109L12.3753 16.4771ZM12.3753 21V16.4727L6.75055 13.2109L12.3753 21Z" fill="white"/>
<path d="M12.3753 15.4309L18 12.1647L12.3753 9.65236V15.4309ZM6.75055 12.1647L12.3753 15.4309V9.65236L6.75055 12.1647Z" fill="white"/>
</svg>
