<svg width="24" height="24" viewBox="0 0 24 24" fill="none" xmlns="http://www.w3.org/2000/svg">
<path d="M12 24C18.6273 24 24 18.6273 24 12C24 5.37273 18.6273 0 12 0C5.37273 0 0 5.37273 0 12C0 18.6273 5.37273 24 12 24Z" fill="#914FFF"/>
<path d="M16.3898 9.07964C16.08 8.89964 15.6807 8.89964 15.3207 9.07964L12.8204 10.5502L11.1196 11.4905L8.67055 12.96C8.36073 13.14 7.96036 13.14 7.60036 12.96L5.68036 11.8004C5.51691 11.7035 5.38129 11.566 5.28667 11.4012C5.19205 11.2364 5.14165 11.05 5.14036 10.86V8.63018C5.14036 8.27018 5.32036 7.92 5.68036 7.68982L7.60036 6.57054C7.91018 6.39054 8.30945 6.39054 8.66945 6.57054L10.5895 7.73018C10.9004 7.91018 11.1305 8.27018 11.1305 8.66945V10.14L12.8302 9.16036V7.63964C12.8302 7.27964 12.6502 6.93055 12.2902 6.70036L8.72073 4.60036C8.40982 4.42036 8.01055 4.42036 7.65055 4.60036L3.99055 6.73964C3.82613 6.82246 3.68832 6.94985 3.59283 7.10725C3.49735 7.26466 3.44804 7.44573 3.45055 7.62982V11.82C3.45055 12.18 3.63055 12.5291 3.99055 12.7604L7.60036 14.8604C7.91018 15.0404 8.30945 15.0404 8.66945 14.8604L11.1207 13.4302L12.8204 12.4495L15.2705 11.0204C15.5804 10.8404 15.9796 10.8404 16.3396 11.0204L18.2596 12.1396C18.5705 12.3196 18.7996 12.6796 18.7996 13.08V15.3098C18.7996 15.6698 18.6196 16.02 18.2596 16.2502L16.3898 17.3695C16.08 17.5495 15.6807 17.5495 15.3207 17.3695L13.4007 16.2502C13.2373 16.1533 13.1017 16.0158 13.007 15.851C12.9124 15.6863 12.862 15.4998 12.8607 15.3098V13.8807L11.16 14.8604V16.3298C11.16 16.6898 11.34 17.04 11.7 17.2702L15.3109 19.3702C15.6207 19.5502 16.02 19.5502 16.38 19.3702L19.9909 17.2702C20.3007 17.0902 20.5298 16.7302 20.5298 16.3298V12.0905C20.5298 11.7305 20.3498 11.3804 19.9898 11.1502L16.38 9.05018L16.3898 9.07964Z" fill="white"/>
</svg>
