<svg width="24" height="24" viewBox="0 0 24 24" fill="none" xmlns="http://www.w3.org/2000/svg">
<path d="M24 12C24 18.6266 18.6266 24 12 24C5.37343 24 0 18.6277 0 12C0 5.37343 5.37343 0 12 0C18.6266 0 24 5.37343 24 12Z" fill="#5E5E5E"/>
<path d="M17.4412 18.5621L15.5626 16.7053L13.8491 15.0071C13.5897 14.7456 13.281 14.5381 12.9409 14.3966C12.6008 14.2551 12.236 14.1824 11.8677 14.1826C11.0946 14.1826 10.3937 14.4975 9.88846 15.0071L6.29852 18.561H4.04374L4.37179 18.2242L5.49809 17.0957L8.07982 14.5413C8.38819 14.2362 8.6889 13.9202 9.01586 13.6391C9.65066 13.0765 10.4425 12.7216 11.2849 12.6222L11.3045 12.62C11.9186 12.534 12.5441 12.582 13.1379 12.7605C13.7317 12.9391 14.2798 13.244 14.7447 13.6545L14.7392 13.6501C15.006 13.8797 15.2422 14.1345 15.4915 14.3794L18.5533 17.4084L19.6326 18.48C19.6522 18.4986 19.6695 18.5196 19.684 18.5424L17.4412 18.5621ZM6.3357 5.58557L7.61509 6.85402C8.20011 7.43357 8.77966 8.01203 9.36468 8.58721C9.61837 8.84819 9.88263 9.09422 10.1575 9.32531L10.1739 9.33844C10.6602 9.71879 11.2601 9.92481 11.8775 9.92346C12.6452 9.92346 13.3395 9.6129 13.8414 9.1088C14.6616 8.28978 15.4872 7.4784 16.3149 6.65938L17.4117 5.58447H19.6665L19.4106 5.85457L17.0169 8.21432L14.9349 10.2745C14.2846 10.9231 13.4396 11.3407 12.5293 11.4631L12.5074 11.4653C11.8589 11.5678 11.1954 11.5192 10.5687 11.3233C9.94206 11.1274 9.36909 10.7894 8.89448 10.3357L8.89557 10.3379C8.47895 9.96282 8.08748 9.54839 7.68617 9.15036L4.13778 5.63805C4.11919 5.61946 4.10498 5.5965 4.08529 5.57354L6.3357 5.58557Z" fill="white"/>
</svg>
