<svg width="24" height="24" viewBox="0 0 24 24" fill="none" xmlns="http://www.w3.org/2000/svg">
<path d="M24 12C24 18.6273 18.6273 24 12 24C5.37273 24 0 18.6273 0 12C0 5.37273 5.37273 0 12 0C18.6273 0 24 5.37273 24 12Z" fill="white"/>
<path d="M16.9811 9.01091C16.9434 9.05573 16.8945 9.08963 16.8393 9.10909C16.7848 9.13231 16.7261 9.14418 16.6669 9.144H5.55055C5.15782 9.144 4.956 8.65309 5.23091 8.35855L7.05818 6.42C7.09953 6.37559 7.14969 6.34029 7.20545 6.31636C7.25969 6.29367 7.31794 6.28217 7.37673 6.28255H18.5378C18.9349 6.28255 19.1313 6.77782 18.852 7.07236L16.9811 9.01091ZM16.9811 17.6782C16.9403 17.7203 16.8915 17.7538 16.8375 17.7767C16.7836 17.7996 16.7255 17.8113 16.6669 17.8113H5.55055C5.15782 17.8113 4.956 17.3302 5.23091 17.0455L7.05709 15.1505C7.09754 15.1064 7.14807 15.0727 7.20436 15.0524C7.25859 15.0297 7.31685 15.0182 7.37564 15.0185H18.5367C18.9338 15.0185 19.1302 15.504 18.8509 15.7887L16.9811 17.6782ZM16.9811 10.7836C16.9403 10.7415 16.8915 10.708 16.8375 10.6851C16.7836 10.6622 16.7255 10.6505 16.6669 10.6505H5.55055C5.15782 10.6505 4.956 11.1305 5.23091 11.4164L7.05818 13.3091C7.09863 13.3532 7.14916 13.3869 7.20545 13.4073C7.26 13.4313 7.31709 13.4429 7.37673 13.4422H18.5378C18.9349 13.4422 19.1313 12.9556 18.852 12.6709L16.9811 10.7836Z" fill="url(#paint0_linear_22_278)"/>
<defs>
<linearGradient id="paint0_linear_22_278" x1="5.9531" y1="17.9553" x2="18.0971" y2="6.13201" gradientUnits="userSpaceOnUse">
<stop stop-color="#CF41E8"/>
<stop offset="1" stop-color="#10F2B0"/>
</linearGradient>
</defs>
</svg>
