<svg width="24" height="24" viewBox="0 0 24 24" fill="none" xmlns="http://www.w3.org/2000/svg">
<path d="M24 12C24 18.6273 18.6273 24 12 24C5.37273 24 0 18.6273 0 12C0 5.37273 5.37273 0 12 0C18.6273 0 24 5.37273 24 12Z" fill="#26A17B"/>
<path d="M13.4422 13.0364C13.3593 13.0418 12.9338 13.0669 11.9847 13.0669C11.2276 13.0669 10.6942 13.0451 10.5065 13.0353V13.0375C7.59055 12.9098 5.41418 12.4015 5.41418 11.7938C5.41418 11.1862 7.59055 10.68 10.5065 10.5502V12.5324C10.6975 12.5465 11.2429 12.5782 11.9978 12.5782C12.9033 12.5782 13.3571 12.5411 13.4422 12.5335V10.5513C16.3516 10.6811 18.5225 11.1884 18.5225 11.7949C18.5225 12.4015 16.3516 12.9065 13.4422 13.0364ZM13.4422 10.3462V8.57018H17.5025V5.86473H6.44618V8.57018H10.5065V10.344C7.20655 10.4956 4.72473 11.1491 4.72473 11.9324C4.72473 12.7156 7.20655 13.3691 10.5065 13.5207V19.2076H13.4411V13.5196C16.7356 13.368 19.212 12.7145 19.212 11.9324C19.212 11.1502 16.7356 10.4967 13.4411 10.3451" fill="white"/>
</svg>
