<svg width="24" height="24" viewBox="0 0 24 24" fill="none" xmlns="http://www.w3.org/2000/svg">
<path d="M24 12C24 18.6266 18.6266 24 12 24C5.37343 24 0 18.6277 0 12C0 5.37343 5.37343 0 12 0C18.6266 0 24 5.37343 24 12Z" fill="#EB0A29"/>
<path d="M4.75014 5.2094C4.91197 5.25752 5.10771 5.29798 5.30782 5.32422L5.32531 5.32531L16.7622 7.41935C16.8205 7.42737 16.8704 7.45107 16.912 7.49043L19.9333 10.3663C19.9825 10.4101 19.9902 10.4374 19.9333 10.4932C19.0913 11.513 18.2522 12.534 17.4161 13.556L12.7064 19.31L11.1504 21.1886L11.1022 21.2411L10.8507 20.6178C9.87611 18.1733 8.90362 15.7278 7.9333 13.2816C6.88719 10.6382 5.83379 7.99125 4.7731 5.34062C4.75705 5.2992 4.74354 5.25684 4.73264 5.21378V5.2094H4.75014ZM11.064 18.8628H11.0858C11.1288 18.4866 11.173 18.1108 11.2182 17.7354C11.3056 17.0399 11.3876 16.3488 11.474 15.6534C11.5484 15.0148 11.6249 14.3758 11.7037 13.7365C11.7824 13.0979 11.8568 12.4516 11.9366 11.8086L11.9399 11.7758C11.9396 11.7512 11.9334 11.727 11.9218 11.7053C11.9101 11.6836 11.8935 11.6651 11.8732 11.6512L6.44505 7.13723H6.42646L11.064 18.8628ZM11.9366 18.9076L18.3587 11.0837H18.2723L15.7572 11.5495L12.8311 12.0755C12.7545 12.0755 12.737 12.1247 12.7294 12.1914C12.7294 12.3991 12.6845 12.5981 12.6572 12.8004L12.4057 14.8868C12.3237 15.5823 12.2526 16.1717 12.1728 16.8147L11.9366 18.9076ZM7.05085 6.50629V6.52816L7.68945 7.08803L12.2482 10.8464C12.2584 10.8595 12.2715 10.8702 12.2865 10.8775C12.3015 10.8849 12.3179 10.8887 12.3346 10.8887C12.3513 10.8887 12.3677 10.8849 12.3827 10.8775C12.3977 10.8702 12.4108 10.8595 12.421 10.8464C13.3838 10.0388 14.3483 9.2333 15.3144 8.42974L15.7135 8.09951L7.05085 6.50629ZM13.4653 11.088C13.579 11.088 18.351 10.2264 18.4757 10.1848C18.4757 10.1848 18.4757 10.1586 18.4494 10.1476C17.8779 9.61181 17.3078 9.06944 16.7392 8.5205C16.6605 8.44505 16.6222 8.45599 16.5478 8.5205C15.8338 9.12192 15.1121 9.71897 14.3937 10.3171C14.0929 10.5686 13.789 10.8212 13.4653 11.088Z" fill="white"/>
</svg>
