<svg width="24" height="24" viewBox="0 0 24 24" fill="none" xmlns="http://www.w3.org/2000/svg">
<path d="M12 24C18.6273 24 24 18.6273 24 12C24 5.37273 18.6273 0 12 0C5.37273 0 0 5.37273 0 12C0 18.6273 5.37273 24 12 24Z" fill="#F0B90B"/>
<path d="M12 3.14945L14.1895 5.39018L8.68036 10.8993L6.48982 8.70982L12 3.14945ZM15.3196 6.46909L17.5102 8.70982L8.69018 17.5298L6.49964 15.3404L15.3196 6.46909ZM5.35964 9.78982L7.55018 12.0295L5.35964 14.22L3.17018 12.0295L5.35964 9.78982ZM18.6404 9.78982L20.8298 12.0295L12.0098 20.8505L9.82036 18.66L18.6404 9.78V9.78982Z" fill="#473800"/>
</svg>
