<svg width="24" height="24" viewBox="0 0 24 24" fill="none" xmlns="http://www.w3.org/2000/svg">
<path d="M12 0C18.6305 0 24 5.37055 24 12C24 18.6305 18.6305 24 12 24C5.37055 24 0 18.6305 0 12C0 5.37055 5.37055 0 12 0Z" fill="#EB0A29"/>
<path d="M16.6604 12.36C16.6604 12.36 16.5295 12.5302 16.3996 12.6196C16.0298 12.8902 15.3796 13.14 14.7098 13.26C14.3302 13.3298 13.9505 13.3396 13.8404 13.2796C13.7705 13.2404 13.7596 13.2098 13.7804 13.1204C13.8404 12.9196 14.0204 12.7004 14.2996 12.4996C14.4404 12.4004 15.0196 12.0404 15.2902 11.8996C15.7396 11.6596 16.0996 11.5102 16.3396 11.4796C16.4061 11.4693 16.4739 11.4693 16.5404 11.4796C16.5905 11.5004 16.6396 11.64 16.6604 11.8102C16.6702 11.8996 16.6604 12.3 16.6604 12.3698V12.36ZM10.4105 13.2404C10.4105 13.2404 10.3102 13.3102 10.2196 13.32C10.1302 13.3309 9.84982 13.32 9.70036 13.3091C9.14996 13.2382 8.61361 13.0837 8.10982 12.8509C7.90872 12.756 7.7233 12.6309 7.56 12.48L7.49018 12.4004V12.3C7.47004 12.1173 7.47004 11.9329 7.49018 11.7502C7.50209 11.6691 7.52911 11.5911 7.56982 11.52L7.68982 11.4905C7.80982 11.4905 7.90036 11.5102 8.06073 11.5604C8.39018 11.6596 8.87018 11.8996 9.46036 12.2596C9.95018 12.5498 10.1302 12.6905 10.2698 12.8902C10.3702 13.0102 10.4302 13.1815 10.4105 13.2404ZM14.16 16.9309C14.16 16.9309 14.1305 17.0705 14.0902 17.22C14.0644 17.3128 14.0412 17.4063 14.0204 17.5004H13.86L13.74 17.7796C13.68 17.9302 13.62 18.0698 13.6091 18.0905L13.5905 18.1298L13.4705 17.9498V17.22H13.4498C13.4498 17.22 13.08 17.28 12.9404 17.2898C12.361 17.3514 11.7762 17.3378 11.2004 17.2495L11.0302 17.2298V17.9902L10.9898 18.06C10.9702 18.1004 10.9396 18.1298 10.9396 18.1298C10.9396 18.1298 10.9102 18.1004 10.8404 17.9705C10.7772 17.8423 10.7268 17.7082 10.6898 17.5702L10.6702 17.4895H10.5905L10.5098 17.5004L10.4902 17.4C10.4793 17.3498 10.4705 17.2604 10.4596 17.22V17.1404L10.38 17.0804C10.3396 17.0498 10.3004 17.0105 10.2905 17.0105C10.2777 16.9969 10.2703 16.9791 10.2698 16.9604V16.9298H10.9298V16.9604L10.9505 16.9898H11.0596C11.1196 16.9898 11.3302 17.0007 11.5102 17.0095H11.8396L11.9204 16.8895L12.0098 16.7596H12.12V16.2L11.9705 16.14C11.5004 15.9295 11.2298 15.7004 11.1196 15.4091C11.1 15.3502 11.1 15.3305 11.0902 15.0709C11.0902 14.8091 11.0902 14.7796 11.1098 14.7305C11.1271 14.6656 11.1613 14.6064 11.2088 14.5589C11.2563 14.5114 11.3155 14.4773 11.3804 14.46C11.4305 14.4491 11.5396 14.4491 12.1702 14.4491H12.9098L12.9905 14.4905C13.0715 14.5225 13.141 14.578 13.1902 14.6498C13.2502 14.7295 13.2698 14.8004 13.2698 14.9596C13.2698 15.1898 13.2502 15.3905 13.2305 15.4702C13.1961 15.5773 13.1454 15.6785 13.08 15.7702C12.9491 15.9404 12.7091 16.1105 12.4909 16.1902L12.4298 16.2098V16.7695H12.4898L12.5498 16.7804L12.7102 17.0204H13.4498C13.4804 17.0204 13.4804 17.0204 13.5098 16.98L13.5404 16.9298H13.8404C14.0695 16.92 14.1404 16.9298 14.1404 16.9298L14.16 16.9309Z" fill="black"/>
<path d="M12.7604 17.6902C12.7337 17.7104 12.7027 17.7242 12.6698 17.7305C12.6698 17.7305 12.6196 17.7 12.5902 17.6705L12.5204 17.6095L12.4505 17.6902C12.2902 17.8604 12.2804 17.8702 12.24 17.88C12.1702 17.88 12.1505 17.88 12.06 17.7404C12.0304 17.6986 12.0038 17.6549 11.9804 17.6095H11.8396L11.8102 17.6705L11.7796 17.7404L11.7196 17.7196C11.7196 17.7196 11.6204 17.6902 11.58 17.6596L11.5004 17.6204V17.4698H12.9196V17.5396C12.9196 17.6204 12.9196 17.6204 12.8105 17.6902H12.7604Z" fill="black"/>
<path d="M19.3898 14.46V14.4C18.6495 14.3298 17.9025 14.4067 17.192 14.6264C16.4815 14.846 15.8214 15.2039 15.2498 15.6796C15.2498 15.6796 14.7098 13.1902 12.1604 13.1902C9.60982 13.1902 8.66945 15.6796 8.66945 15.6796C7.24036 14.1502 5.34 14.2604 4.64946 14.3596V14.4098C4.62982 14.7895 4.63964 14.9804 4.69964 15.2204C4.90036 15.9796 5.51018 16.8098 6.47018 17.6204C8.04 18.96 10.1695 19.92 11.7895 20.0302C13.4695 20.1393 15.96 19.1596 17.6095 17.7196C17.8702 17.4905 18.1102 17.2505 18.3404 16.9898C18.4996 16.8 18.7495 16.4695 18.7298 16.4695L18.7407 16.4596C18.7407 16.4596 18.7604 16.4498 18.7505 16.44C18.7505 16.44 18.7505 16.4291 18.7604 16.4291C18.7702 16.4291 18.7702 16.4291 18.7702 16.4204C18.7702 16.4095 18.7702 16.4095 18.78 16.4095C18.78 16.4095 18.7909 16.3996 18.78 16.3898V16.38C18.78 16.38 18.7909 16.38 18.7909 16.3691C18.7895 16.3618 18.7924 16.3589 18.7996 16.3604C18.8105 16.3604 18.8105 16.3604 18.8105 16.3495C18.8105 16.3298 18.8302 16.3102 18.84 16.2895C18.9188 16.1627 18.9923 16.0328 19.0604 15.9C19.2014 15.599 19.2988 15.2794 19.3495 14.9509C19.3702 14.8004 19.38 14.5396 19.3702 14.4709L19.3898 14.46ZM12.7604 17.6902C12.7337 17.7104 12.7027 17.7242 12.6698 17.7305C12.6698 17.7305 12.6196 17.7 12.5902 17.6705L12.5204 17.6095L12.4505 17.6902C12.2902 17.8604 12.2804 17.8702 12.24 17.88C12.1702 17.88 12.1505 17.88 12.06 17.7404C12.0304 17.6986 12.0038 17.6549 11.9804 17.6095H11.8396L11.8102 17.6705L11.7796 17.7404L11.7196 17.7196C11.7196 17.7196 11.6204 17.6902 11.58 17.6596L11.5004 17.6204V17.4698H12.9196V17.5396C12.9196 17.6204 12.9196 17.6204 12.8105 17.6902H12.7604ZM14.0902 17.2091C14.0644 17.3023 14.0411 17.3961 14.0204 17.4905H13.86L13.7509 17.7698C13.7096 17.874 13.6659 17.9773 13.62 18.0796L13.6004 18.12L13.4804 17.94V17.2091H13.4596C13.4596 17.2091 13.0898 17.2702 12.9502 17.28C12.3709 17.3415 11.786 17.328 11.2102 17.2396L11.04 17.22V17.9804L10.9996 18.0502C10.98 18.0905 10.9495 18.12 10.9495 18.12C10.9495 18.12 10.92 18.0905 10.8502 17.9596C10.7856 17.8324 10.7352 17.6985 10.6996 17.5604L10.68 17.4796H10.6004L10.5196 17.4905L10.5 17.3902C10.4891 17.34 10.4804 17.2505 10.4705 17.2102V17.1305L10.3898 17.0705C10.3505 17.04 10.3102 16.9996 10.3004 16.9996C10.2878 16.9863 10.2804 16.9689 10.2796 16.9505V16.92H10.9396V16.9495L10.9604 16.98H11.0695C11.1305 16.98 11.34 16.9909 11.52 16.9996H11.8505L11.9302 16.8796L12.0196 16.7498H12.1298V16.1902L11.9804 16.1302C11.5102 15.9196 11.2396 15.6905 11.1295 15.3993C11.1098 15.3404 11.1098 15.3196 11.1 15.06C11.1 14.8004 11.1 14.7698 11.1196 14.7196C11.1381 14.6554 11.1726 14.597 11.22 14.5498C11.2673 14.5027 11.3259 14.4684 11.3902 14.4502C11.4404 14.4393 11.5495 14.4393 12.18 14.4393H12.9196L13.0004 14.4796C13.0814 14.5119 13.151 14.5678 13.2 14.64C13.26 14.7196 13.2796 14.7895 13.2796 14.9498C13.2796 15.18 13.26 15.3796 13.2404 15.4604C13.206 15.5675 13.1552 15.6687 13.0898 15.7604C12.9331 15.9489 12.7301 16.0936 12.5007 16.1804L12.4396 16.2V16.7596H12.4996L12.5596 16.7705L12.72 17.0105H13.4596C13.4902 17.0105 13.4902 17.0105 13.5196 16.9702L13.5502 16.92H13.8502C14.0902 16.92 14.1502 16.92 14.1502 16.9309C14.1502 16.9309 14.1098 17.0596 14.0705 17.2102L14.0902 17.2091Z" fill="white"/>
<path d="M19.3702 14.1905C19.3702 14.0705 19.3505 13.9004 19.3505 13.8196C19.2589 12.6827 18.9173 11.5801 18.3502 10.5905C18.3305 10.5502 18.3 10.5098 18.2902 10.4804C18.2902 10.4804 18.2902 10.4596 18.2793 10.4596C18.36 10.2098 18.7004 9.18 18.9698 7.99964C19.3298 6.40036 19.56 4.53055 18.8607 3.96982C18.8607 3.96982 17.64 3.88036 16.0102 5.47964C15.5705 5.92036 15.1593 6.40036 14.7993 6.90982L14.6902 6.87055C14.0356 6.65697 13.3569 6.52578 12.6698 6.48C12.2602 6.46074 11.85 6.46074 11.4404 6.48C10.755 6.51336 10.078 6.6445 9.42982 6.86945L9.36 6.9C8.98997 6.3874 8.5713 5.91174 8.10982 5.47964C6.41018 3.87055 5.15018 3.96 5.15018 3.96C4.39964 4.54036 4.65927 6.49964 5.04109 8.14909C5.28982 9.24 5.61055 10.2109 5.71964 10.5491C5.71964 10.5709 5.7 10.5895 5.69018 10.6102C5.07055 11.8604 4.74109 13.0702 4.66036 14.3498C5.34982 14.2505 7.26 14.1404 8.69018 15.6698C8.69018 15.6698 9.63055 13.1804 12.1811 13.1804C14.7316 13.1804 15.2705 15.6698 15.2705 15.6698C15.8422 15.1941 16.5022 14.8362 17.2127 14.6165C17.9233 14.3969 18.6702 14.32 19.4105 14.3902C19.4105 14.34 19.4105 14.2593 19.3996 14.1796L19.3702 14.1905ZM6.19964 9.55964C6.19964 9.55964 5.21018 7.08 5.46 5.67055C5.50036 5.43055 5.58 5.22 5.71091 5.05964C5.71091 5.05964 6.83018 5.16982 8.64982 7.19018C8.64982 7.19018 8.31055 7.36036 7.84036 7.71055C7.17911 8.21511 6.62193 8.84305 6.19964 9.55964ZM10.4105 13.2404C10.4105 13.2404 10.3102 13.3102 10.2196 13.32C10.1302 13.3309 9.84982 13.32 9.70036 13.3091C9.14996 13.2382 8.61361 13.0837 8.10982 12.8509C7.90872 12.756 7.7233 12.6309 7.56 12.48L7.49018 12.4004V12.3C7.47004 12.1173 7.47004 11.9329 7.49018 11.7502C7.50209 11.6691 7.52911 11.5911 7.56982 11.52L7.68982 11.4905C7.80982 11.4905 7.90036 11.5102 8.06073 11.5604C8.39018 11.6596 8.87018 11.8996 9.46036 12.2596C9.95018 12.5498 10.1302 12.6905 10.2698 12.8902C10.3702 13.0102 10.4302 13.1815 10.4105 13.2404ZM16.6505 12.3589C16.6505 12.3589 16.5196 12.5291 16.3898 12.6185C16.02 12.8891 15.3698 13.1389 14.7 13.2589C14.3204 13.3287 13.9396 13.3385 13.8305 13.2785C13.7596 13.2393 13.7498 13.2087 13.7705 13.1193C13.8305 12.9185 14.0105 12.6993 14.2898 12.4985C14.4305 12.3993 15.0098 12.0393 15.2804 11.8985C15.7298 11.6585 16.0898 11.5091 16.3298 11.4785C16.3963 11.4682 16.464 11.4682 16.5305 11.4785C16.5807 11.4993 16.6298 11.6389 16.6505 11.8091C16.6604 11.8985 16.6505 12.2989 16.6505 12.3687V12.3589ZM16.2098 7.69855C15.9678 7.49986 15.7065 7.3259 15.4298 7.17927C17.1796 5.16873 18.2705 5.04873 18.2705 5.04873C18.3905 5.20909 18.4702 5.41964 18.5105 5.65964C18.7604 7.07891 17.8004 9.55855 17.8004 9.55855C17.398 8.84574 16.8612 8.21777 16.2196 7.70946L16.2098 7.69855Z" fill="#FFA409"/>
<path d="M18.5105 5.65964C18.3 5.63018 17.3302 5.63018 16.2196 7.69964C15.9781 7.50034 15.7167 7.32634 15.4396 7.18036C17.1895 5.16982 18.2804 5.04982 18.2804 5.04982C18.4004 5.21018 18.48 5.42073 18.5204 5.66073L18.5105 5.65964Z" fill="#FF9300"/>
<path d="M17.8004 9.55855C17.4003 8.84412 16.8631 8.21573 16.2196 7.70946C17.3302 5.62909 18.3 5.64 18.5105 5.67055C18.7604 7.08982 17.8004 9.57055 17.8004 9.57055V9.55855Z" fill="#FF8300"/>
<path d="M8.65091 7.18036C8.65091 7.18036 8.30945 7.34945 7.84036 7.69964C6.68946 5.62036 5.68036 5.63018 5.46982 5.65964C5.51018 5.41964 5.58982 5.21018 5.72073 5.04982C5.72073 5.04982 6.84982 5.16 8.65964 7.18036H8.65091Z" fill="#FF9300"/>
<path d="M7.84036 7.69964C7.33964 8.09018 6.68945 8.69018 6.19964 9.54982C6.19964 9.54982 5.21018 7.07018 5.46 5.64982C5.66946 5.62036 6.68945 5.62036 7.82945 7.68982L7.84036 7.69964Z" fill="#FF8300"/>
<path d="M15.12 10.9309C15.12 10.9309 14.2691 10.98 14.3804 10.32C14.4895 9.66 15.1495 9.58036 15.3295 9.6C15.5095 9.61964 16.26 9.89018 16.1302 10.4509C15.9993 11.0095 15.8095 10.9004 15.7102 10.9309C15.6098 10.9604 15.1298 10.9309 15.1298 10.9309H15.12ZM8.86036 10.9309C8.86036 10.9309 8.00945 10.98 8.12073 10.32C8.22982 9.66 8.88982 9.58036 9.06982 9.6C9.24982 9.61964 10.0004 9.89018 9.87055 10.4509C9.73964 11.0095 9.54982 10.9004 9.45055 10.9309C9.35018 10.9604 8.87018 10.9309 8.87018 10.9309H8.86036Z" fill="white"/>
</svg>
