<svg width="24" height="24" viewBox="0 0 24 24" fill="none" xmlns="http://www.w3.org/2000/svg">
<path d="M12 24C18.6273 24 24 18.6273 24 12C24 5.37273 18.6273 0 12 0C5.37273 0 0 5.37273 0 12C0 18.6273 5.37273 24 12 24Z" fill="#0F94F8"/>
<path d="M7.97018 5.65964L6.66982 6.96V12.1004L7.97018 13.3996H13.1095V15.9905H10.5709V14.6902H6.67964V17.28L7.98 18.5804H15.7091L17.0084 17.28V12.1004L15.7102 10.8H10.5698V8.21018H13.1596V9.50945H17.0498V6.91964L15.7495 5.62036H7.97018V5.66945V5.65964Z" fill="white"/>
</svg>
