<svg width="24" height="24" viewBox="0 0 24 24" fill="none" xmlns="http://www.w3.org/2000/svg">
<path d="M24 12C24 18.6196 18.6305 24 12 24C5.37055 24 0 18.6196 0 12C0 8.16003 1.8 4.74986 4.60036 2.55059C4.66036 2.50041 4.73018 2.45022 4.79018 2.40986C6.86503 0.839326 9.39779 -0.00722418 12 4.64442e-05C18.6305 4.64442e-05 24 5.37058 24 12Z" fill="#FF007A"/>
<path d="M9.26945 4.21968C9.04036 4.19022 9.02946 4.1804 9.13964 4.15968C9.35018 4.13022 9.84 4.17058 10.1804 4.25022C10.98 4.44004 11.6902 4.92004 12.4604 5.77967L12.66 6.00985L12.9502 5.96949C14.1796 5.76985 15.4396 5.93022 16.4902 6.41022C16.7793 6.54003 17.2298 6.80949 17.2898 6.87058C17.3095 6.89022 17.3498 7.03967 17.3695 7.1804C17.4502 7.69967 17.4098 8.09021 17.2495 8.38039C17.16 8.54949 17.16 8.58985 17.22 8.72948C17.2604 8.83967 17.4 8.92039 17.52 8.92039C17.7895 8.92039 18.06 8.50039 18.1898 7.91021L18.2498 7.68003L18.3502 7.78912C18.9098 8.41967 19.3593 9.29021 19.4193 9.90985L19.44 10.08L19.3396 9.94039C19.1695 9.68948 19.02 9.52039 18.8095 9.37967C18.4298 9.12985 18.0393 9.05021 16.9898 8.99021C16.0407 8.93021 15.4996 8.8593 14.9695 8.68039C14.0596 8.38039 13.6004 7.98985 12.5302 6.56949C12.0502 5.94004 11.76 5.59967 11.46 5.30949C10.8098 4.68004 10.1596 4.34949 9.30982 4.21968H9.26945Z" fill="white"/>
<path d="M17.5004 5.62913C17.52 5.21022 17.58 4.93095 17.7 4.68004C17.7224 4.61174 17.756 4.54761 17.7993 4.49022C17.8102 4.49022 17.7895 4.56986 17.76 4.6604C17.6695 4.9004 17.6596 5.24949 17.7196 5.63022C17.8004 6.12985 17.8298 6.18985 18.36 6.73967C18.6 6.99058 18.8902 7.31021 19.0004 7.44985L19.1902 7.68985L18.9993 7.50985C18.7702 7.29058 18.24 6.87058 18.12 6.81058C18.0404 6.77022 18.0295 6.77022 17.9804 6.8204C17.94 6.85967 17.9204 6.92949 17.9204 7.25021C17.9095 7.74985 17.8396 8.05967 17.6804 8.38039C17.5898 8.55058 17.58 8.51021 17.6596 8.32039C17.7196 8.17967 17.7295 8.10985 17.7295 7.62985C17.7295 6.66985 17.6204 6.44076 16.9495 6.05022C16.7472 5.93546 16.5405 5.82883 16.3298 5.73058C16.2275 5.68877 16.1274 5.6418 16.0298 5.58985C16.0495 5.57022 16.6996 5.76004 16.9604 5.87022C17.3498 6.01967 17.4098 6.0404 17.46 6.01967C17.4895 5.99022 17.52 5.89967 17.5298 5.6204L17.5004 5.62913ZM9.72 7.26985C9.25964 6.63058 8.95964 5.63022 9.01964 4.89058L9.04036 4.6604L9.14946 4.68004C9.35018 4.70949 9.68946 4.85022 9.85964 4.94949C10.2993 5.22004 10.5 5.58004 10.6898 6.48985C10.7498 6.7604 10.8207 7.0604 10.86 7.15967C10.92 7.32985 11.1295 7.71058 11.2996 7.9604C11.4196 8.1404 11.34 8.22985 11.0705 8.2004C10.6495 8.16003 10.0898 7.77058 9.72 7.26985ZM16.9396 12.0797C14.7502 11.2004 13.98 10.4302 13.98 9.13967C13.98 8.94985 13.9909 8.80039 13.9909 8.80039C13.9996 8.80039 14.0804 8.87021 14.1796 8.94003C14.6204 9.28912 15.12 9.44948 16.5 9.64912C17.3095 9.76912 17.7698 9.85966 18.1909 10.0004C19.5295 10.44 20.3596 11.3498 20.5495 12.5706C20.6095 12.9197 20.5702 13.6004 20.4796 13.9506C20.4 14.2298 20.1796 14.7295 20.1305 14.7502C20.1196 14.7502 20.1 14.6902 20.1 14.6095C20.0804 14.1502 19.8491 13.6997 19.4596 13.3604C19.0004 12.96 18.4004 12.66 16.9396 12.0797ZM15.3895 12.4397C15.3683 12.2834 15.3317 12.1295 15.2804 11.9804L15.2193 11.8102L15.3196 11.9302C15.4604 12.1004 15.5705 12.2902 15.6698 12.5706C15.7495 12.78 15.7495 12.8498 15.7495 13.1902C15.7495 13.5306 15.7396 13.6004 15.6698 13.7902C15.5607 14.0902 15.4298 14.2997 15.2095 14.5298C14.8102 14.94 14.2898 15.1604 13.5502 15.2607C13.4193 15.2695 13.0396 15.3 12.7102 15.3295C11.88 15.3698 11.3302 15.4604 10.8295 15.6404C10.7596 15.66 10.6996 15.6797 10.6898 15.6698C10.6702 15.6502 11.0095 15.4495 11.2898 15.3207C11.6793 15.1298 12.0698 15.0295 12.9502 14.88C13.38 14.8102 13.8196 14.7295 13.9298 14.6804C15.0207 14.34 15.5695 13.4902 15.3895 12.4495V12.4397Z" fill="white"/>
<path d="M16.3996 14.22C16.1105 13.5895 16.0505 12.9906 16.2 12.4309C16.2196 12.3698 16.2404 12.3197 16.2698 12.3197C16.2993 12.3197 16.3604 12.3502 16.4204 12.4004C16.5502 12.4898 16.8305 12.6404 17.5396 13.0298C18.4396 13.5207 18.9404 13.8895 19.3004 14.3204C19.6102 14.7 19.8 15.1298 19.8895 15.66C19.9505 15.96 19.9102 16.68 19.8305 16.98C19.5905 17.9204 19.0298 18.6709 18.2302 19.0996C18.1102 19.1706 18.0098 19.2098 18.0011 19.2098C17.9902 19.2098 18.0305 19.1007 18.0993 18.9698C18.3698 18.4102 18.4004 17.8604 18.1996 17.2604C18.0796 16.8797 17.82 16.4302 17.3204 15.6698C16.7095 14.7895 16.5698 14.5495 16.4105 14.2298L16.3996 14.22ZM8.16 17.5996C8.98036 16.9102 9.97964 16.4302 10.9102 16.2698C11.3863 16.2046 11.8703 16.2249 12.3393 16.3298C12.9305 16.4804 13.4596 16.8207 13.7302 17.2298C14.0007 17.6302 14.1196 17.9695 14.2396 18.7298C14.28 19.0298 14.34 19.3407 14.3498 19.3996C14.4404 19.8 14.6204 20.1098 14.8407 20.2702C15.18 20.52 15.78 20.5396 16.3702 20.3106C16.4705 20.28 16.56 20.2396 16.56 20.2506C16.5796 20.2702 16.2807 20.4698 16.08 20.5702C15.8339 20.7005 15.5587 20.7658 15.2804 20.76C14.7502 20.76 14.2996 20.4796 13.9298 19.9309C13.8502 19.8196 13.7007 19.5 13.5698 19.2C13.1804 18.3 12.9807 18.0404 12.5302 17.7404C12.1298 17.4895 11.6204 17.4295 11.2396 17.6204C10.7302 17.8604 10.6004 18.5204 10.9505 18.9098C11.0902 19.08 11.3607 19.2098 11.58 19.2404C11.6752 19.2532 11.7721 19.2454 11.864 19.2175C11.956 19.1897 12.0409 19.1424 12.113 19.0789C12.185 19.0154 12.2427 18.9371 12.2819 18.8494C12.3211 18.7617 12.3411 18.6666 12.3404 18.5706C12.3404 18.3 12.24 18.1495 11.9804 18.0306C11.6302 17.88 11.2407 18.0502 11.2495 18.3906C11.2495 18.5302 11.3204 18.6196 11.46 18.6895C11.5196 18.7164 11.5262 18.7266 11.4796 18.72C11.16 18.6502 11.0804 18.2596 11.34 18C11.6498 17.6902 12.3 17.82 12.5204 18.2509C12.6098 18.4298 12.6196 18.78 12.54 19.0004C12.3502 19.4902 11.82 19.74 11.28 19.6004C10.92 19.5 10.7607 19.3996 10.32 18.9502C9.54982 18.1506 9.25091 18 8.14036 17.8298L7.92982 17.8004L8.16 17.58V17.5996Z" fill="white"/>
<path fill-rule="evenodd" clip-rule="evenodd" d="M9.72 7.85021C9.42 7.50985 6.88145 4.71058 4.79018 2.40986C4.72562 2.45413 4.66158 2.5018 4.60036 2.55059C6.10629 4.38309 7.60303 6.22201 9.09055 8.06949C9.25964 8.29967 9.18982 8.51021 8.92036 8.65967C8.72344 8.75896 8.50948 8.82004 8.28982 8.83967C8.09065 8.83234 7.90147 8.75059 7.75964 8.61058C7.66036 8.51021 7.23055 7.87967 6.24982 6.36003C5.79613 5.64615 5.33611 4.9363 4.86982 4.23058L6.18 6.61967C7.03091 8.13058 7.30036 8.67058 7.30036 8.74039C7.30036 8.88003 7.26 8.95967 7.08 9.16039C6.78982 9.48985 6.65018 9.86948 6.54982 10.6495C6.44073 11.52 6.13964 12.1397 5.28982 13.1902C4.8 13.8098 4.72036 13.92 4.60036 14.1698C4.44 14.4797 4.39964 14.6607 4.38 15.06C4.35055 15.48 4.39964 15.7397 4.51964 16.14C4.62982 16.5 4.74982 16.7291 5.04982 17.1797C5.30073 17.58 5.46 17.88 5.46 17.9902C5.46 18.0796 5.47964 18.0796 5.88 17.9902C6.82909 17.7698 7.61018 17.3902 8.04 16.9298C8.31055 16.6397 8.38036 16.4804 8.38036 16.0898C8.38036 15.8302 8.38036 15.78 8.29964 15.6207C8.19055 15.3807 7.98 15.18 7.53055 14.8702C6.93055 14.46 6.66982 14.1306 6.60982 13.6898C6.54982 13.3102 6.62073 13.0604 6.95018 12.36C7.29055 11.64 7.38 11.3498 7.44109 10.62C7.47055 10.1509 7.53055 9.96003 7.65927 9.82039C7.80109 9.66985 7.92109 9.60985 8.27018 9.56948C8.82982 9.48985 9.18982 9.35021 9.48109 9.06985C9.60179 8.97277 9.69867 8.84935 9.76428 8.70904C9.8299 8.56873 9.86252 8.41526 9.85964 8.26039V8.00949L9.72 7.85021ZM5.74909 15.5302C5.64 15.7298 5.43055 15.7997 5.26909 15.6797C5.17091 15.6 5.17091 15.4898 5.25055 15.3698C5.33018 15.2498 5.32036 15.1898 5.22 15.1407C5.15018 15.1102 5.13055 15.0698 5.13055 15.0306C5.13055 14.8604 5.40982 14.8004 5.59964 14.9302C5.6972 14.9916 5.76731 15.0882 5.79536 15.2C5.82341 15.3118 5.80613 15.4301 5.74909 15.5302ZM10.9091 9.78985C10.6916 9.69732 10.4512 9.67297 10.2196 9.72003C9.96 9.79966 9.69927 10.0909 9.63055 10.3702C9.57927 10.5502 9.6 10.8698 9.67964 10.9702C9.79964 11.1197 9.90982 11.1698 10.2196 11.1698C10.8305 11.1698 11.3498 10.9004 11.4 10.5808C11.46 10.32 11.2298 9.95021 10.9091 9.78985ZM10.9298 10.2698C10.86 10.3604 10.6593 10.4498 10.5196 10.4498C10.2993 10.4498 10.0702 10.3004 10.0702 10.1498C10.0702 9.86948 10.5196 9.71021 10.8196 9.90003C10.98 10.0004 11.0204 10.1389 10.9298 10.2698Z" fill="white"/>
</svg>
