<svg width="24" height="24" viewBox="0 0 24 24" fill="none" xmlns="http://www.w3.org/2000/svg">
<path d="M12 24C18.6273 24 24 18.6273 24 12C24 5.37273 18.6273 0 12 0C5.37273 0 0 5.37273 0 12C0 18.6273 5.37273 24 12 24Z" fill="#0F97F8"/>
<path d="M9.44073 21.4909C9.44073 21.8105 9.18 21.9895 8.88 21.9C6.80495 21.2403 4.9941 19.9365 3.71021 18.1779C2.42632 16.4193 1.73621 14.2974 1.74 12.12C1.73659 9.94388 2.42702 7.82333 3.711 6.06637C4.99498 4.30941 6.80565 3.00753 8.88 2.34982C9.18982 2.25055 9.44073 2.44036 9.44073 2.76V3.55964C9.44073 3.77018 9.28036 4.02 9.08073 4.08982C5.80036 5.30073 3.46036 8.45018 3.46036 12.12C3.46322 13.8715 4.00376 15.5799 5.00892 17.0143C6.01408 18.4487 7.43538 19.5399 9.08073 20.1404C9.28036 20.2102 9.44073 20.46 9.44073 20.6705V21.4909Z" fill="white"/>
<path d="M12.8509 18.5302C12.8509 18.7702 12.66 18.96 12.42 18.96H11.5691C11.5126 18.9604 11.4565 18.9496 11.4043 18.9282C11.352 18.9067 11.3045 18.875 11.2646 18.835C11.2247 18.795 11.1931 18.7474 11.1718 18.6951C11.1505 18.6428 11.1398 18.5867 11.1404 18.5302V17.1796C9.27055 16.92 8.35964 15.8902 8.11964 14.46C8.10994 14.4025 8.11312 14.3435 8.12893 14.2874C8.14474 14.2312 8.17279 14.1793 8.21107 14.1352C8.24935 14.0912 8.29691 14.0562 8.35032 14.0328C8.40374 14.0093 8.46169 13.998 8.52 13.9996H9.49091C9.58827 14.003 9.68188 14.0381 9.75749 14.0995C9.8331 14.1609 9.88659 14.2454 9.90982 14.34C10.0898 15.18 10.5796 15.84 12.0807 15.84C13.1804 15.84 13.9702 15.2204 13.9702 14.2996C13.9702 13.38 13.5098 13.0298 11.8898 12.7604C9.50073 12.4396 8.35964 11.7098 8.35964 9.84C8.35964 8.4 9.46036 7.26 11.1502 7.02982V5.70982C11.1502 5.46982 11.34 5.28 11.58 5.28H12.4309C12.4874 5.27956 12.5435 5.29039 12.5957 5.31185C12.648 5.33331 12.6955 5.36497 12.7354 5.40498C12.7753 5.445 12.8069 5.49256 12.8282 5.5449C12.8495 5.59724 12.8602 5.6533 12.8596 5.70982V7.07018C14.2396 7.32 15.1102 8.1 15.4004 9.40036C15.4505 9.65018 15.2596 9.86945 15 9.86945H14.1C14.0076 9.86788 13.9182 9.83703 13.8444 9.78135C13.7707 9.72568 13.7166 9.64805 13.6898 9.55964C13.44 8.74036 12.8607 8.37055 11.8298 8.37055C10.6996 8.37055 10.1105 8.91055 10.1105 9.67964C10.1105 10.4902 10.44 10.9004 12.18 11.1404C14.5298 11.46 15.7505 12.1298 15.7505 14.1295C15.7505 15.6502 14.6204 16.8796 12.8498 17.1502V18.5204H12.84L12.8509 18.5302Z" fill="white"/>
<path d="M15.12 21.9C14.8102 22.0004 14.5604 21.8105 14.5604 21.4898V20.6902C14.5567 20.5751 14.5896 20.4619 14.6543 20.3666C14.719 20.2714 14.8121 20.1991 14.9204 20.16C18.1898 18.96 20.5396 15.8095 20.5396 12.1396C20.5366 10.3884 19.9962 8.68039 18.9912 7.24624C17.9863 5.81209 16.5653 4.72099 14.9204 4.12036C14.7196 4.05055 14.5604 3.79964 14.5604 3.59018V2.78945C14.5604 2.46982 14.82 2.28982 15.12 2.38036C17.1944 3.03451 19.0057 4.33398 20.29 6.08942C21.5743 7.84486 22.2645 9.96455 22.26 12.1396C22.2604 14.3162 21.569 16.4366 20.2856 18.1945C19.0022 19.9524 17.1932 21.257 15.12 21.9196V21.9Z" fill="white"/>
</svg>
