<svg width="24" height="24" viewBox="0 0 24 24" fill="none" xmlns="http://www.w3.org/2000/svg">
<path d="M7.94553 12.6077C7.91489 12.4085 7.89957 12.2043 7.89957 12C7.89957 9.73787 9.73787 7.89447 12.0051 7.89447C12.817 7.89447 13.6034 8.12936 14.2774 8.57872L14.7013 7.94042C13.8996 7.40936 12.9702 7.12851 12.0051 7.12851C9.31915 7.12851 7.13362 9.31404 7.13362 12C7.13362 12.3268 7.17447 12.6485 7.24085 12.9702L6.17872 13.5115L6.52596 14.1957L17.8264 8.43064L17.4791 7.74638L7.94553 12.6077Z" fill="black"/>
<path d="M17.474 9.80936L6.17362 15.5694L6.52085 16.2536L16.0494 11.3923C16.0851 11.5915 16.1004 11.7957 16.1004 12C16.1004 14.2621 14.2621 16.1004 12 16.1004C11.1779 16.1004 10.3864 15.8604 9.70723 15.4009L9.2783 16.034C10.0851 16.5804 11.0247 16.8664 12 16.8664C14.686 16.8664 16.8664 14.6809 16.8664 12C16.8664 11.6732 16.8255 11.3515 16.7591 11.0298L17.8213 10.4885L17.474 9.80936Z" fill="black"/>
<path d="M12 0C5.38213 0 0 5.38213 0 12C0 18.6179 5.38213 24 12 24C18.6179 24 24 18.6179 24 12C24 5.38213 18.6179 0 12 0ZM20.8085 12C20.8085 16.8562 16.8562 20.8085 12 20.8085C7.14383 20.8085 3.19149 16.8562 3.19149 12C3.19149 7.14383 7.14383 3.19149 12 3.19149C16.8562 3.19149 20.8085 7.14383 20.8085 12Z" fill="black"/>
</svg>
