<svg width="24" height="24" viewBox="0 0 24 24" fill="none" xmlns="http://www.w3.org/2000/svg">
<path d="M24 12.0007C24 12.6007 23.9596 13.2007 23.8691 13.7811C23.8516 13.9207 23.8287 14.0607 23.8004 14.2011C23.6804 14.8611 23.5004 15.5004 23.2702 16.1211H23.2593C23.2593 16.1211 23.2593 16.1408 23.2495 16.1506C23.1539 16.4328 23.0439 16.7099 22.92 16.9808C22.3243 18.2799 21.5054 19.4644 20.5004 20.4805H20.4895C20.3095 20.6714 20.1196 20.8405 19.9298 21.0107C18.1774 22.5604 16.0069 23.5588 13.6898 23.8809C13.6396 23.8918 13.5905 23.8918 13.5404 23.9005C11.8253 24.1222 10.0826 23.9723 8.43054 23.4609H8.40982C8.21314 23.4053 8.01974 23.3386 7.83055 23.2613C6.837 22.9021 5.89792 22.4072 5.04 21.7907C4.81448 21.6359 4.59744 21.4691 4.38982 21.291C4.38 21.291 4.37018 21.2714 4.34945 21.2714C3.71273 20.7329 3.13031 20.1333 2.61055 19.4812C2.36896 19.1843 2.14494 18.8736 1.93964 18.5506C1.93964 18.5408 1.93964 18.531 1.92982 18.531C0.953513 17.0412 0.33108 15.3478 0.110182 13.5804C0.0796363 13.4407 0.0698181 13.3109 0.0599999 13.1811C0.0209453 12.7921 0.00092147 12.4014 0 12.0105C0 11.7203 0.010909 11.441 0.0403636 11.1509C0.0403636 11.0407 0.0501818 10.9305 0.0599999 10.8105C0.280364 8.55009 1.14 6.46096 2.44909 4.74056C2.54945 4.60965 2.65964 4.48092 2.76982 4.3511C4.13172 2.69756 5.91321 1.44067 7.92768 0.712103C9.94215 -0.0164672 12.1155 -0.189913 14.22 0.209934C15.4004 0.422485 16.5406 0.817396 17.5996 1.3805C17.7698 1.47105 17.9302 1.57032 18.1004 1.66087C20.528 3.0961 22.3727 5.34053 23.3105 8.00026C23.3596 8.11044 23.4 8.23044 23.4305 8.34063C23.6487 9.01046 23.8018 9.70065 23.8898 10.4112C23.9204 10.5607 23.9302 10.7112 23.9498 10.8509C23.9818 11.229 23.9985 11.6123 24 12.0007Z" fill="#024AD6"/>
<path d="M22.9702 16.6917C22.9495 16.7899 22.9396 16.8913 22.92 16.9808C23.0509 16.7102 23.1491 16.4299 23.2495 16.1506C23.0999 16.2948 23.0018 16.4863 22.9702 16.6917ZM23.4305 14.4607C23.1062 14.922 22.7303 15.3447 22.3102 15.7208C22.1006 15.9103 21.9685 16.1706 21.9393 16.4517C21.9181 16.639 21.8916 16.8256 21.8596 17.0113C21.5705 18.531 20.8898 19.5903 20.64 19.9907L19.9298 21.0107C20.1185 20.8405 20.3105 20.6714 20.4895 20.4903H20.5004L20.7698 20.0812C21.3853 19.1613 21.8104 18.1275 22.02 17.0408C22.0604 16.851 22.08 16.6611 22.1095 16.4702C22.118 16.3492 22.1508 16.2311 22.2059 16.1229C22.261 16.0148 22.3373 15.9188 22.4302 15.8408C22.851 15.4517 23.2298 15.0195 23.5604 14.5513C23.64 14.4411 23.7196 14.3211 23.8004 14.2011C23.8287 14.0607 23.8516 13.9207 23.8691 13.7811C23.7343 14.0153 23.5894 14.2421 23.4305 14.4607ZM2.41855 4.81038C2.21902 5.3531 2.08177 5.91672 2.00945 6.49041L1.95927 6.65078L1.88945 6.75987C1.57855 7.23115 0.929455 8.21081 0.678546 9.62029C0.645363 9.77507 0.588318 9.92376 0.509455 10.061L0.0589091 10.8007C0.0480001 10.9207 0.0392728 11.0298 0.0392728 11.141C0.0687273 11.0909 0.109091 11.0309 0.148364 10.9709L0.649091 10.1505C0.738546 9.9912 0.809455 9.82102 0.838909 9.65083C1.09091 8.26972 1.72036 7.3097 2.02909 6.85042L2.07055 6.79042L2.16982 6.52096C2.24466 5.95721 2.38224 5.40358 2.58 4.87038L2.63018 4.72093L2.68036 4.59001C2.7 4.52019 2.73055 4.44056 2.76982 4.34019C2.66073 4.4711 2.55055 4.60092 2.45018 4.73074L2.41855 4.81038ZM23.8898 10.4112C23.868 10.4712 23.8505 10.5203 23.8298 10.5705V10.6403C23.6861 11.793 23.2526 12.8905 22.5698 13.8302C22.2207 14.3309 21.7996 14.7804 21.3305 15.1611C21.203 15.2551 21.1 15.3787 21.0305 15.5211C20.96 15.6608 20.92 15.8106 20.9105 15.9706C20.9105 16.251 20.8702 16.5313 20.8102 16.8106C20.5702 18.1306 19.9702 19.0503 19.7193 19.4408L19.1498 20.3005C18.2804 21.4514 17.2604 22.1911 16.0298 22.5707L15.78 22.6503L15.5105 22.7005C15.1601 22.7594 14.8055 22.7897 14.4502 22.7911H14.0793L13.6702 22.8107C13.4498 22.8107 13.2404 22.8511 13.0298 22.9209C12.1702 23.2111 11.1698 23.3507 9.88036 23.3507C9.14946 23.3507 8.44036 23.3005 7.82946 23.2514C8.01901 23.3288 8.21277 23.3955 8.40982 23.4511H8.43055C8.88982 23.4707 9.37964 23.4915 9.88036 23.4915C11.1796 23.4915 12.1996 23.3507 13.08 23.0605C13.2696 22.9943 13.4683 22.9575 13.6691 22.9514L14.0902 22.9307H14.4393C14.8102 22.9416 15.1702 22.9013 15.5302 22.8413L15.8204 22.7911L16.08 22.7114C17.34 22.3209 18.3905 21.5605 19.2698 20.3812L19.8502 19.5205C20.1098 19.1212 20.7196 18.1808 20.9705 16.8302C21.0185 16.5408 21.0516 16.251 21.0698 15.9608C21.0762 15.8276 21.1106 15.6973 21.1708 15.5783C21.2309 15.4593 21.3155 15.3543 21.4189 15.2702C21.9098 14.8807 22.3396 14.4204 22.6898 13.9109C23.118 13.3315 23.4492 12.6863 23.6705 12.0007C23.8004 11.6211 23.8898 11.2305 23.9498 10.841C23.9302 10.7003 23.9204 10.5509 23.8898 10.4003L23.8898 10.4112ZM8.96946 1.03031H9.20946C9.63756 1.03375 10.0638 1.08758 10.4793 1.19068C10.8612 1.29146 11.2667 1.24877 11.6193 1.07068C12.2767 0.745289 12.9826 0.529006 13.7095 0.430301C13.7566 0.428803 13.8034 0.42222 13.8491 0.410665C13.9582 0.410665 14.1185 0.380119 14.3291 0.360482C14.4491 0.3503 14.5891 0.340118 14.7491 0.329936C14.5735 0.288098 14.3967 0.251717 14.2189 0.220843C14.0585 0.24048 13.9189 0.250298 13.8295 0.260117C13.7891 0.271026 13.7389 0.271026 13.6789 0.280844C12.9393 0.384086 12.2206 0.603522 11.5495 0.931038C11.227 1.09163 10.8574 1.13037 10.5087 1.04013C10.0842 0.931744 9.64757 0.878217 9.20946 0.880855H8.84946C8.33805 0.919708 7.83186 1.00998 7.33855 1.15031C6.48859 1.40286 5.70661 1.84401 5.05091 2.44088L4.81091 2.66016L4.59164 2.93071C3.93164 3.74018 3.68073 4.49074 3.54109 4.89111C3.5278 4.94964 3.50767 5.00639 3.48109 5.0602L3.44073 5.18021C3.25959 5.6814 3.13554 6.20142 3.07091 6.73042C3.04146 6.80024 3.02073 6.87115 3.00109 6.93115L2.97164 7.03042C2.95284 7.08905 2.92912 7.14598 2.90073 7.20061L2.79164 7.36097C2.51127 7.7908 1.91127 8.69082 1.72145 9.95084C1.6875 10.143 1.62344 10.3285 1.53164 10.5007L1.23164 11.0505L1.20109 11.0909L1.092 11.2305L0.941455 11.441C0.531273 12.0302 0.24 12.6007 0.0599999 13.1811C0.0698181 13.3109 0.0796363 13.4407 0.110182 13.5804C0.270545 12.9007 0.580364 12.2309 1.07127 11.5207L1.21091 11.3309L1.33091 11.1803L1.66145 10.5803C1.77055 10.3905 1.84145 10.181 1.87091 9.97048C2.06073 8.75082 2.64109 7.87044 2.93127 7.45043L3.04036 7.27043L3.12109 7.0806L3.15164 6.98024C3.17127 6.92024 3.19091 6.85042 3.22146 6.77078C3.28146 6.25041 3.41127 5.73112 3.59127 5.24021L3.63164 5.1202L3.69164 4.9402C3.90843 4.24529 4.25449 3.59757 4.71164 3.03108L4.92109 2.76053L5.15018 2.56089C5.79237 1.98229 6.55402 1.55211 7.38109 1.30086C7.86333 1.15922 8.35985 1.07177 8.86145 1.04013H8.97055L8.96946 1.03031Z" fill="#6FC0FF"/>
<path d="M23.3105 8.00026C23.2996 8.36026 23.2396 8.67009 23.2004 8.90028V8.93082C23.1204 9.38064 22.9894 9.81986 22.8098 10.2399V10.2901L22.7902 10.3305C22.7902 10.3708 22.7695 10.4112 22.7695 10.4505V10.5105C22.722 10.8887 22.6349 11.261 22.5098 11.6211C22.3272 12.191 22.0539 12.7277 21.7004 13.2105C21.3774 13.6798 20.9785 14.092 20.52 14.4302C20.3204 14.5807 20.1491 14.7804 20.0291 15.0008C19.92 15.2211 19.8502 15.4808 19.8502 15.7317C19.8502 16.0306 19.8196 16.3208 19.7596 16.6208C19.56 17.7313 19.0702 18.4906 18.7996 18.9008L18.3796 19.5314C17.64 20.571 16.7695 21.231 15.7102 21.5507L15.66 21.5703C15.5722 21.6002 15.4815 21.6207 15.3895 21.6314L15.3196 21.6511C15.0323 21.699 14.7415 21.7223 14.4502 21.7209H14.1895C14.1895 21.7209 14.1098 21.7209 14.0095 21.7318H13.8295C13.7095 21.7405 13.5698 21.7405 13.44 21.7503C13.2146 21.7596 12.9919 21.8037 12.78 21.8812C12.0196 22.1507 11.0891 22.2805 9.88036 22.2805C9.11018 22.2805 8.35964 22.2314 7.72036 22.1812L7.52945 22.1605C7.39964 22.1409 7.26 22.1311 7.12036 22.1103C6.54 22.0503 5.75018 21.9609 4.86982 21.5507L4.66036 21.4416C4.56828 21.3914 4.47804 21.3379 4.38982 21.2812C4.60145 21.4631 4.81818 21.6296 5.04 21.7809C5.84945 22.1212 6.56945 22.2009 7.10946 22.2609C7.24036 22.2718 7.38 22.2903 7.50982 22.3013L7.70946 22.3209C8.34982 22.3711 9.11018 22.43 9.88036 22.43C11.1098 22.43 12.0502 22.3013 12.8302 22.0209C13.0298 21.9412 13.2404 21.9009 13.4498 21.89C13.5698 21.89 13.7095 21.8812 13.8393 21.8812H14.0193L14.46 21.8703C14.7502 21.8703 15.0491 21.8409 15.3393 21.7907H15.4102C15.5095 21.7612 15.6 21.7405 15.7004 21.7111L15.7495 21.6914C16.8404 21.3609 17.7404 20.6812 18.4996 19.611L18.9196 18.9805C19.1902 18.5605 19.6898 17.7913 19.9102 16.6404C19.9604 16.3404 19.9898 16.0404 19.9898 15.7306C20.0007 15.5015 20.0596 15.2713 20.16 15.0706C20.2691 14.8611 20.4196 14.6811 20.6095 14.5513C21.0787 14.2035 21.4877 13.7812 21.8204 13.3011C22.1804 12.8003 22.4596 12.2505 22.6495 11.6701C22.7804 11.3003 22.86 10.9109 22.9102 10.5203V10.4701C22.9102 10.4701 22.92 10.4003 22.9298 10.3501L22.9495 10.301C23.1298 9.86902 23.26 9.4221 23.34 8.96028V8.921C23.3695 8.76064 23.4011 8.561 23.4305 8.34063C23.4011 8.23153 23.3607 8.11153 23.3105 8.00026ZM4.62 5.50094C4.64945 5.42021 4.67018 5.36021 4.70945 5.27075C4.81964 4.92057 5.02036 4.33037 5.53964 3.69L5.7 3.50018L5.87018 3.3409C7.09964 2.22052 8.47964 2.12997 8.94 2.10051H9.01964L9.19964 2.0896C9.74945 2.0896 10.2796 2.20088 10.7902 2.41034C10.8853 2.46043 10.9931 2.4813 11.1 2.47034C11.2052 2.47006 11.3085 2.44263 11.4 2.3907H11.4196C11.88 2.12015 12.7396 1.62051 13.8502 1.48087C13.9004 1.48087 13.9495 1.46996 13.98 1.46996C14.0793 1.45032 14.2396 1.4405 14.4295 1.42086C14.76 1.39032 15.2596 1.34995 15.7996 1.34995C16.6996 1.34995 17.46 1.45032 18.1004 1.66087C17.9302 1.57032 17.7698 1.47105 17.5996 1.3805C17.0083 1.25325 16.4045 1.19287 15.7996 1.2005C15.2596 1.2005 14.7502 1.24086 14.4098 1.27032C14.22 1.28995 14.0607 1.31068 13.9702 1.3205C13.9298 1.33141 13.8796 1.33141 13.8295 1.34014C12.7102 1.48087 11.8396 1.97069 11.3596 2.24997H11.3498C11.2743 2.29631 11.1875 2.32085 11.0989 2.32088C11.0107 2.32861 10.922 2.31475 10.8404 2.28052C10.3215 2.0603 9.76326 1.94819 9.19964 1.95106H8.93018C8.46 1.99033 7.03964 2.08088 5.76982 3.23072L5.58982 3.4009L5.41964 3.60054C5.03402 4.08401 4.74546 4.63744 4.56982 5.23039L4.49018 5.45076L4.44982 5.54021C4.28545 5.99203 4.17808 6.46258 4.13018 6.94097C4.11927 6.9606 4.11927 6.97042 4.11927 6.97042C4.07018 7.12097 4.02 7.27043 3.98945 7.37079C3.92945 7.53007 3.85964 7.68062 3.84 7.7308L3.74945 7.86062C3.74945 7.86062 3.72982 7.90098 3.71018 7.92062L3.68945 7.95008C3.42 8.36026 2.84945 9.22101 2.75018 10.3807C2.73999 10.5083 2.70942 10.6336 2.65964 10.7516L2.55055 11.0407C2.51407 11.1264 2.46678 11.207 2.40982 11.2807C2.31776 11.3898 2.23111 11.5034 2.15018 11.6211L2.12945 11.6407L2.02036 11.7803L1.82945 12.0411C0.820364 13.4909 0.629455 14.7607 1.14 16.5706L1.16945 16.671C1.27964 17.0201 1.40945 17.391 1.60036 17.7804L1.72036 18.051L1.74982 18.111C1.81018 18.2419 1.87018 18.3786 1.92982 18.5212C1.94073 18.5212 1.94073 18.5212 1.94073 18.5408C2.14036 18.8605 2.36945 19.1714 2.60945 19.4703C2.32807 19.0178 2.08399 18.5431 1.87964 18.051L1.85018 17.991L1.73018 17.7204C1.56257 17.3684 1.42216 17.0041 1.31018 16.6306L1.27964 16.5313C0.78 14.7706 0.969818 13.5313 1.93964 12.1207L2.14036 11.8698C2.14036 11.8698 2.21018 11.7803 2.23964 11.7301L2.26036 11.7007C2.34982 11.5916 2.42945 11.4803 2.52 11.3701C2.59032 11.2878 2.6447 11.1931 2.68036 11.0909L2.80036 10.8007C2.84945 10.6698 2.88 10.5301 2.88982 10.4003C2.99018 9.27119 3.54 8.44099 3.80945 8.0308L3.83018 8.00026C3.83018 8.00026 3.86945 7.95008 3.88036 7.94026L3.96 7.80062C4.00036 7.74062 4.06036 7.59007 4.13018 7.42098C4.15964 7.32061 4.20982 7.16024 4.26 7.01079V6.98024C4.32 6.50023 4.43018 6.03113 4.58945 5.5904L4.62 5.50094Z" fill="#6FC0FF"/>
<path d="M22.0396 6.27114L22.0004 6.18059L21.9502 6.09004C21.6098 5.54021 21.2302 5.25003 21 5.07111C20.9518 5.0331 20.9052 4.99306 20.8604 4.95111L20.7404 4.84093C20.5102 4.63038 20.4 4.49074 20.2396 4.29001C19.74 3.65072 19.2196 3.08017 17.9095 2.59034L17.8495 2.5707C17.2996 2.37106 16.62 2.28052 15.7996 2.28052C15.3 2.28052 14.82 2.32088 14.5102 2.34052C14.3302 2.36015 14.1905 2.38088 14.0902 2.3907C14.0596 2.3907 14.0095 2.3907 13.9702 2.41034C13.0505 2.52052 12.3098 2.94053 11.8702 3.20017C11.6691 3.30312 11.4618 3.39348 11.2495 3.47072C11.1727 3.49906 11.0913 3.51275 11.0095 3.51108C10.9307 3.50124 10.8536 3.48068 10.7804 3.44999C10.4302 3.29072 9.76036 3.02017 9.19964 3.02017H9C8.34982 3.06053 7.38 3.21108 6.49091 4.02055L6.37091 4.12964L6.25964 4.27146C5.95221 4.64839 5.72435 5.0837 5.58982 5.55112C5.5606 5.64568 5.52711 5.73887 5.48945 5.8304L5.46982 5.8904C5.32601 6.27356 5.23179 6.67354 5.18945 7.0806C5.16982 7.1897 5.16982 7.20061 5.16 7.24097C5.1 7.40025 5.04 7.6108 5.00945 7.71007C4.92 7.96099 4.79018 8.22063 4.74982 8.29045L4.66036 8.42136L4.61018 8.50099L4.57964 8.54027C4.32 8.93082 3.84 9.66065 3.80945 10.6207V10.8498L3.78982 11.201C3.78558 11.2821 3.75406 11.3594 3.70036 11.4203C3.40036 11.7411 3.19964 12.0007 2.98036 12.2811C2.92036 12.3607 2.86036 12.4502 2.78945 12.5407L2.70982 12.6411C1.90036 13.8204 1.76073 14.7706 2.17964 16.2706L2.20036 16.3404C2.28982 16.6306 2.40982 16.971 2.57018 17.3004C2.62036 17.4204 2.67927 17.5404 2.72945 17.6604C3.16036 18.6205 3.68945 19.8205 5.11964 20.6212L5.26036 20.691C6.00982 21.0401 6.67964 21.1209 7.22945 21.171C7.37018 21.1907 7.50982 21.2114 7.66036 21.231H7.79018C8.40982 21.291 9.14945 21.3401 9.88036 21.3401C11.1196 21.3401 12.0196 21.2005 12.7102 20.8907C12.7655 20.8694 12.8224 20.8526 12.8804 20.8405C13.0004 20.8209 13.4498 20.8012 13.8895 20.7903H13.9505C14.0705 20.7805 14.1404 20.7805 14.1905 20.7805H14.4404C14.6804 20.7805 14.9204 20.7605 15.1604 20.7205L15.3098 20.691L15.4407 20.6507C16.6495 20.2808 17.94 18.5015 18 18.4208C18.2695 18.0008 18.6698 17.3702 18.8509 16.431C18.9491 15.8811 18.9196 15.34 18.8902 14.8709C18.8793 14.8404 18.8902 14.7902 18.8902 14.7204C18.8965 14.5719 18.9436 14.4281 19.0263 14.3047C19.1091 14.1813 19.2243 14.0832 19.3593 14.0211C19.98 13.7407 20.5004 13.2902 20.94 12.6607C21.428 11.989 21.7376 11.2046 21.84 10.3807V10.3305C21.84 10.2705 21.8596 10.2105 21.8695 10.1407C21.8806 10.05 21.908 9.96204 21.9502 9.88102V9.86029C22.1095 9.5112 22.2098 9.14028 22.2698 8.77045V8.73009C22.3702 8.18026 22.5295 7.25079 22.0407 6.26023L22.0396 6.27114ZM22.1498 8.72027V8.75082C22.0824 9.12127 21.9752 9.48337 21.8302 9.83084H21.8182C21.7775 9.92653 21.7507 10.0276 21.7385 10.1308C21.7189 10.2007 21.7189 10.2607 21.7091 10.3207V10.3708C21.6686 10.6802 21.5981 10.985 21.4985 11.2807C21.3491 11.7498 21.1189 12.1905 20.8287 12.5898C20.3989 13.2007 19.8993 13.6305 19.3091 13.9098C19.1477 13.9767 19.0112 14.0923 18.9185 14.2404C18.8166 14.3846 18.7579 14.5549 18.7495 14.7313V14.8906C18.7789 15.3509 18.8193 15.8811 18.7091 16.4211C18.5389 17.331 18.1484 17.9506 17.8887 18.351C17.8691 18.3706 16.5589 20.1805 15.3993 20.5307L15.2684 20.571L15.1385 20.6005C14.9095 20.6405 14.6796 20.6605 14.4491 20.6605C14.3989 20.6507 14.3487 20.6605 14.2887 20.6507H14.1895C14.1895 20.6507 14.0585 20.6507 13.9385 20.6616H13.8785C13.3985 20.6812 12.9785 20.7009 12.8585 20.7205C12.7865 20.7317 12.7161 20.7518 12.6491 20.7805C11.9793 21.0805 11.0989 21.2114 9.87818 21.2114C9.14836 21.2114 8.41855 21.1612 7.79891 21.1209L7.67891 21.1012C7.52836 21.0805 7.37891 21.0707 7.23927 21.051C6.70909 20.991 6.03927 20.9201 5.31927 20.5809L5.17855 20.511C3.79855 19.731 3.26945 18.5604 2.84836 17.6201C2.79962 17.4982 2.7465 17.3781 2.68909 17.2601C2.5447 16.9535 2.42434 16.6362 2.32909 16.311L2.30836 16.2411C1.89927 14.7902 2.02909 13.8705 2.81891 12.7305L2.88873 12.6313C2.95855 12.5407 3.02836 12.4611 3.08836 12.3705C3.29891 12.1011 3.49855 11.8403 3.79855 11.5207C3.87186 11.4364 3.91756 11.3317 3.92945 11.2207L3.94909 10.8607V10.7603L3.93818 10.6403C3.97855 9.71084 4.43891 9.01046 4.69855 8.621L4.71927 8.58063C4.71927 8.58063 4.75855 8.52063 4.77927 8.50099L4.85891 8.38099C4.90909 8.30026 5.03891 8.0308 5.13927 7.77007C5.16873 7.66098 5.22873 7.45043 5.28873 7.29006C5.30836 7.23115 5.30836 7.22024 5.31927 7.10024C5.35855 6.71078 5.45891 6.32023 5.58873 5.94058L5.60836 5.8904L5.71855 5.60021C5.80909 5.30021 5.95855 4.85075 6.35891 4.36092L6.468 4.23001L6.57927 4.13073C7.43891 3.35072 8.37927 3.20017 9.00873 3.15981H9.19855C9.73855 3.15981 10.3789 3.42054 10.7193 3.57109C10.8094 3.61369 10.9073 3.6374 11.0069 3.64078C11.1065 3.64416 11.2058 3.62712 11.2985 3.59072C11.5189 3.5209 11.7284 3.42054 11.9389 3.31035C12.3687 3.06053 13.0887 2.65034 13.9789 2.54016C14.0291 2.53034 14.0695 2.53034 14.1098 2.52052C14.208 2.50961 14.3498 2.50088 14.5189 2.48016C14.8287 2.4507 15.2989 2.41034 15.7985 2.41034C16.6091 2.41034 17.2691 2.5107 17.8091 2.69071L17.8593 2.71034C19.1389 3.19035 19.6484 3.75109 20.1393 4.38056C20.2985 4.5802 20.4185 4.72965 20.6487 4.9402L20.7589 5.04057C20.7589 5.04057 20.868 5.14093 20.9193 5.18021C21.1385 5.35039 21.5084 5.63076 21.8291 6.16095L21.8793 6.24059L21.9185 6.33114C22.3887 7.28025 22.2404 8.18026 22.1498 8.72027Z" fill="#6FC0FF"/>
<path d="M21.0796 6.74024L21.0295 6.65078C20.8004 6.27114 20.5396 6.07041 20.3498 5.91986C20.2595 5.85131 20.1729 5.77812 20.0902 5.70058L20.0302 5.64058C19.7976 5.43231 19.5864 5.20134 19.3996 4.95111C18.9698 4.40019 18.5902 3.99109 17.52 3.5809H17.5004C17.0596 3.43036 16.5098 3.35072 15.7996 3.35072C15.4396 3.35072 15.0404 3.37036 14.6204 3.41072C14.4502 3.43036 14.3204 3.44017 14.2396 3.45108H14.22C14.22 3.45108 14.1502 3.45108 14.1109 3.47072C13.3996 3.55036 12.7996 3.90055 12.4004 4.13073C11.9957 4.34452 11.5697 4.51527 11.1295 4.6402C10.9722 4.67968 10.806 4.66229 10.6604 4.5911C10.6004 4.56056 10.5404 4.52019 10.4596 4.48092L10.3996 4.45038C10.1302 4.31074 9.72982 4.09037 9.19964 4.09037H9.07964C8.54945 4.13073 7.85018 4.25073 7.20982 4.83111L7.14982 4.8802L7.08982 4.95111C6.79964 5.31112 6.70036 5.62094 6.60982 5.90022C6.56945 6.00059 6.54 6.10095 6.47891 6.24059V6.26023C6.36356 6.56966 6.28662 6.89207 6.24982 7.22024C6.23891 7.35116 6.22036 7.47116 6.18 7.59116C6.12998 7.72207 6.08629 7.85532 6.04909 7.99044L6.02945 8.06026C5.90945 8.37117 5.72945 8.79118 5.62036 8.93082L5.57018 9.00064L5.51018 9.09119L5.47964 9.14028C5.25055 9.49047 4.90036 10.001 4.87964 10.6709V10.8203C4.90036 10.9207 4.91018 11.021 4.92982 11.1203L5.04 11.4203C5.04 11.4203 5.05964 11.5109 5.05091 11.5512C5.04103 11.5979 5.01612 11.6401 4.98 11.6712C4.39964 12.2112 4.14 12.5505 3.84 12.9411L3.59018 13.2607C2.95964 14.1804 2.87018 14.7902 3.20945 15.9913V16.0208C3.3 16.2804 3.40036 16.5804 3.54 16.8499C3.59018 16.9699 3.64036 17.0812 3.70036 17.2012V17.2404C4.10946 18.1404 4.52945 19.071 5.64 19.6907L5.71964 19.731C6.3 20.0114 6.83018 20.0605 7.33964 20.1205C7.49018 20.1412 7.64946 20.151 7.80982 20.1707H7.87964C8.46982 20.2307 9.18 20.2808 9.88036 20.2808C10.9702 20.2808 11.7404 20.1608 12.3 19.9208C12.42 19.8608 12.5509 19.8205 12.6796 19.8008C12.8804 19.7605 13.2404 19.7507 13.8305 19.731H13.8895C14.0302 19.7201 14.1295 19.7201 14.1905 19.7201H14.4404C14.6302 19.7201 14.8004 19.7005 14.9804 19.671H15.06L15.12 19.6405C16.0505 19.3612 17.04 17.9408 17.0804 17.871C17.34 17.4706 17.6596 16.9808 17.8004 16.2411C17.88 15.8211 17.8505 15.3804 17.82 14.9407C17.8004 14.6211 17.7502 13.9404 17.8898 13.7909L17.9902 13.6502C18.1396 13.4211 18.3698 13.2509 18.6305 13.1702C19.2196 12.9803 19.6604 12.6313 20.0705 12.0411C20.3105 11.7203 20.5004 11.3603 20.6204 10.9807C20.7 10.7407 20.7502 10.5007 20.7796 10.2498V10.2007C20.7796 10.1308 20.8004 10.0512 20.82 9.96066C20.8495 9.79047 20.8996 9.6312 20.9596 9.48065C21.0905 9.20028 21.1702 8.90028 21.2204 8.60027V8.561C21.3098 8.08099 21.42 7.43079 21.0796 6.74024ZM21.1004 8.58063C21.0435 8.86909 20.9561 9.15068 20.8396 9.42065C20.7698 9.59083 20.72 9.76065 20.6902 9.93011C20.6705 10.0305 20.6596 10.1101 20.6498 10.181V10.241C20.6204 10.4701 20.5604 10.7101 20.4905 10.9403C20.3705 11.3112 20.2004 11.6505 19.9604 11.9603C19.5698 12.5309 19.1498 12.8603 18.5902 13.0403C18.2962 13.1291 18.0441 13.3208 17.88 13.5804L17.7796 13.7004C17.6302 13.8705 17.6498 14.4204 17.6902 14.9713C17.7098 15.3804 17.7404 15.8113 17.6596 16.2204C17.5298 16.9306 17.22 17.4106 16.9702 17.8012C16.9702 17.811 15.96 19.2412 15.0796 19.5107H15.0295L14.9596 19.5412C14.7905 19.5707 14.6105 19.5805 14.4404 19.5805H13.8295C13.2196 19.6012 12.8596 19.6208 12.66 19.6612C12.5095 19.6808 12.3796 19.731 12.24 19.7812C11.7098 20.0212 10.9495 20.1303 9.88036 20.1303C9.18 20.1303 8.47964 20.0812 7.88946 20.0408H7.82946C7.67362 20.0142 7.51722 19.9909 7.36036 19.971C6.84982 19.9208 6.32945 19.8608 5.76982 19.6001L5.70982 19.5707C4.62982 18.9608 4.22945 18.051 3.83018 17.1706V17.1302C3.7683 17.0165 3.71152 16.9 3.66 16.7811C3.53537 16.5196 3.43177 16.2486 3.35018 15.9706V15.9411C3.01964 14.7902 3.09927 14.2011 3.71018 13.3305L3.73964 13.2804C3.80945 13.1811 3.88036 13.1004 3.94036 13.0109C4.27553 12.5587 4.65366 12.14 5.06945 11.7607C5.12175 11.7078 5.15968 11.6425 5.17964 11.5709C5.19008 11.5007 5.18675 11.4292 5.16982 11.3603L5.06073 11.0712C5.03891 10.9807 5.03018 10.8912 5.02036 10.8007V10.661C5.04 10.0403 5.36945 9.54065 5.58982 9.2101L5.62036 9.16101L5.69018 9.06064L5.72945 9.00064C5.86036 8.83045 6.05018 8.37117 6.14946 8.10062L6.18 8.02099C6.21717 7.8855 6.26085 7.75189 6.31091 7.62062C6.35018 7.4897 6.37964 7.36097 6.38945 7.22024C6.42054 6.90284 6.49128 6.59059 6.6 6.29077L6.61964 6.27114C6.66982 6.14022 6.70036 6.03113 6.73964 5.93077C6.82036 5.66021 6.91964 5.36021 7.2 5.03075L7.25018 4.97075L7.30036 4.92057C7.91018 4.36092 8.58 4.25073 9.10036 4.22019H9.19964C9.70036 4.22019 10.08 4.42092 10.3298 4.56056L10.3996 4.5911C10.4705 4.63038 10.5404 4.67074 10.6004 4.7002C10.7762 4.79011 10.9791 4.81149 11.1698 4.7602C11.622 4.6247 12.0606 4.44758 12.48 4.2311C12.8596 4.01073 13.4509 3.67036 14.1305 3.59072C14.1698 3.59072 14.2004 3.57981 14.2298 3.57981H14.2495C14.3302 3.57981 14.4698 3.55036 14.6302 3.54054C15.0188 3.50152 15.4091 3.4815 15.7996 3.48054C16.4902 3.48054 17.0302 3.55036 17.46 3.70091L17.4796 3.63109V3.70091C18.5105 4.09037 18.8804 4.49074 19.3004 5.02093C19.4695 5.24021 19.6298 5.45076 19.9396 5.73003L19.9996 5.78022C20.0796 5.8704 20.1698 5.9504 20.2702 6.02022C20.4502 6.16095 20.7 6.35077 20.9204 6.71078L20.9596 6.79042C21.2804 7.44061 21.1702 8.07117 21.1004 8.53045V8.58063Z" fill="#6FC0FF"/>
<path d="M20.0095 8.32099C19.9604 8.61009 19.9004 8.75082 19.8404 8.91009C19.7695 9.0901 19.68 9.28101 19.6102 9.68029C19.5796 9.84066 19.5698 9.95084 19.5502 10.061V10.0708C19.5295 10.2301 19.5196 10.3403 19.4498 10.5399C19.3755 10.8002 19.2534 11.0444 19.0898 11.26C18.9098 11.4912 18.6207 11.8807 18.2302 11.9309H18.0993C16.9898 11.3603 16.0298 10.9403 15.6993 10.8509C15.3196 10.7407 15.36 9.90066 15.4102 9.15992C15.4298 8.83045 15.4495 8.52063 15.4298 8.25008C15.3796 7.32061 15.2095 6.29077 14.4 5.79113C13.9091 5.49003 13.2895 5.41039 12.6895 5.40057C12.7996 5.35039 12.9196 5.28057 13.0604 5.20093C13.4095 4.99039 13.8502 4.74056 14.2898 4.7002C14.4295 4.69038 14.5702 4.67074 14.7098 4.65111C15.5902 4.55074 16.3396 4.4711 17.1404 4.74056C17.5004 4.86056 18.2498 5.28057 18.4396 5.66022C18.5705 5.93077 18.7996 6.14022 19.26 6.57114C19.5 6.79042 19.6495 6.92024 19.7695 7.01079C19.9298 7.15042 19.9604 7.17006 20.0095 7.27043C20.16 7.57043 20.1 7.89116 20.0302 8.33081L20.0095 8.32099ZM15.9404 12.1611C15.9993 12.1807 16.0298 12.2603 15.9895 12.3203C15.8695 12.5003 15.7396 12.7403 15.5793 13.0305C15.4996 13.1702 15.4298 13.3109 15.3698 13.4102C15.1495 13.7811 15.1407 14.0909 15.1189 14.3407C15.1102 14.6004 15.0895 14.7204 14.94 14.8317C14.8091 14.9211 14.6793 14.9517 13.7596 15.0804C13.6004 15.1011 13.5305 15.1404 13.4695 15.1611C13.4596 15.1611 13.4498 15.1611 13.44 15.1709C13.38 15.2004 13.3091 15.1404 13.32 15.0706C13.32 14.9407 13.3298 14.7804 13.3298 14.5906V14.1106C13.3189 13.8815 13.3189 13.7811 13.38 13.6807C13.4371 13.5896 13.5158 13.5139 13.6091 13.4604C13.7498 13.3709 13.9298 13.2607 14.2091 12.8713C14.3596 12.6705 14.3902 12.5603 14.4098 12.4611C14.4098 12.4207 14.4207 12.4109 14.5407 12.3203C14.6607 12.2309 15.0295 11.9505 15.5007 12.0312C15.6207 12.0509 15.78 12.1011 15.9502 12.1512L15.9404 12.1611ZM12.3196 16.3906C12.3196 16.3906 12.2804 16.431 12.24 16.431C12.1396 16.431 12.0796 16.4113 12.0305 16.3611C11.94 16.251 11.9498 16.011 11.9705 15.8811L12.36 15.7808C12.3905 15.9913 12.4004 16.2804 12.3196 16.4004V16.3906ZM12.3491 14.9898C12.3491 15.0509 12.3404 15.1098 12.3404 15.1808V15.4611C12.2204 15.5004 12.12 15.5004 11.9804 15.5004V15.1709C11.9804 15.1011 11.9804 14.9702 12 14.9407C12.0404 14.9407 12.0698 14.9298 12.1091 14.9211C12.1905 14.8971 12.2752 14.8867 12.36 14.8906V14.9811L12.3491 14.9898ZM11.6291 16.2706C11.6095 16.4713 11.5495 16.7102 11.3596 16.7506C11.28 16.7702 11.2396 16.7506 11.2102 16.7211C11.0793 16.6011 11.0596 16.251 11.0793 16.0011C11.16 16.0011 11.2702 15.9804 11.4 15.9608C11.4796 15.9411 11.5604 15.9302 11.6204 15.9106C11.6204 16.0011 11.6302 16.1408 11.6204 16.2706H11.6291ZM11.5396 15.5604L11.1196 15.7109C11.1404 15.5506 11.1698 15.3204 11.1796 15.1611C11.1796 15.0509 11.22 15.0204 11.22 15.0106H11.2396L11.5102 15.0008C11.5211 15.1208 11.5211 15.4011 11.5102 15.5713L11.5396 15.5604ZM10.8698 15.4306C10.8502 15.4906 10.8196 15.6706 10.8 15.8015L10.2698 15.7808C10.2969 15.6242 10.337 15.4702 10.3898 15.3204C10.44 15.1906 10.4902 15.0913 10.5305 15.0608C10.5796 15.0313 10.6996 15.0204 10.7705 15.0804C10.8905 15.1808 10.92 15.2909 10.8698 15.4208V15.4306ZM10.6691 17.0408C10.6364 17.0876 10.5867 17.1197 10.5305 17.1302C10.4695 17.1302 10.4302 17.1302 10.3898 17.091C10.2196 16.9404 10.2404 16.4408 10.2404 16.2008C10.4283 16.1573 10.6184 16.1238 10.8098 16.1004C10.8295 16.3011 10.8284 16.8204 10.6691 17.0408ZM9.98073 15.7611C9.95018 15.8309 9.93054 15.8909 9.90982 15.9509C9.84982 15.9706 9.66 15.9509 9.47018 15.9106L9.60109 15.0815C9.81927 15.0204 10.0702 15.0008 10.1302 15.0706C10.2098 15.1502 10.0505 15.5811 9.98073 15.7611ZM9.74073 17.1608C9.64036 17.2917 9.48 17.3408 9.27055 17.3408C9.12 17.3408 9.06982 17.2808 9.04036 17.2404C8.92036 17.0506 9.04036 16.611 9.14945 16.3306L9.86073 16.371C9.86073 16.371 9.87055 16.48 9.88036 16.551C9.88036 16.7506 9.86073 17.0004 9.72982 17.1608H9.74073Z" fill="white"/>
<path d="M17.5495 11.9112C16.9381 11.6016 16.2989 11.3503 15.6404 11.1607C14.9902 10.9709 15.0502 10.0305 15.1004 9.13155C15.12 8.81082 15.1396 8.50099 15.1298 8.25117C15.0796 7.41116 14.9302 6.48059 14.2495 6.06059C13.5196 5.61112 12.3098 5.71149 11.5702 5.80967C11.3193 5.88058 11.0793 5.94058 10.8895 5.94058H10.8502C10.4095 5.91113 10.0702 5.73113 9.77018 5.56967C9.54 5.44094 9.32945 5.32966 9.13964 5.32966H9.11018C8.52982 5.37112 8.27018 5.51076 8.03018 5.72022C7.97018 5.78022 7.88945 5.93077 7.64945 6.63005C7.52945 6.98024 7.50982 7.17006 7.49018 7.36097C7.4719 7.56663 7.42452 7.76865 7.34945 7.96098C7.28945 8.14099 7.25018 8.30026 7.2 8.45081C7.08 8.85118 6.98945 9.15992 6.70909 9.54065C6.66019 9.59613 6.61706 9.65644 6.58036 9.72065C6.52036 9.82102 6.43964 9.94975 6.34036 10.0916C6.25964 10.1898 6.08945 10.5803 6.10036 10.6916C6.12 10.8803 6.18 10.9905 6.24 11.1301C6.30982 11.261 6.38945 11.4105 6.41018 11.6211V11.6505C6.42982 11.9811 6.38945 12.1414 5.76 12.7011C5.35964 13.0611 5.08036 13.4102 4.88945 13.6611C4.86982 13.6807 4.88945 13.7113 4.92 13.7113H5.04C5.19422 13.7265 5.33876 13.7934 5.45018 13.9011C5.46982 13.9207 5.50036 13.9305 5.52 13.9207C5.62281 13.8862 5.73225 13.8761 5.83964 13.8913C5.97055 13.9109 6.10036 13.9404 6.18982 14.0211C6.20489 14.0372 6.22379 14.0493 6.24477 14.0562C6.26575 14.063 6.28813 14.0645 6.30982 14.0604C6.40964 14.0371 6.51414 14.0444 6.60982 14.0811C6.67964 14.1007 6.74073 14.1411 6.78982 14.1902C6.83891 14.2393 6.92073 14.2513 6.97964 14.2207C7.00036 14.2011 7.02982 14.1913 7.04945 14.1804C7.189 14.144 7.33664 14.1547 7.46945 14.2109C7.54036 14.2306 7.60036 14.2611 7.66036 14.2906C7.75211 14.3549 7.82182 14.4459 7.86 14.5513C7.90036 14.6309 7.99964 14.6604 8.06945 14.6113C8.16 14.5502 8.22982 14.5404 8.28982 14.5709C8.32036 14.5906 8.34982 14.6004 8.35964 14.6211C8.40982 14.6811 8.49055 14.7411 8.57018 14.7204C8.78292 14.6715 9.00613 14.7001 9.19964 14.8011C9.26945 14.8306 9.33055 14.8906 9.37964 14.9702V14.9309C9.37964 14.9309 9.40036 14.9004 9.42 14.9004H9.46036C9.56946 14.8513 10.0996 14.7007 10.3004 14.9211C10.306 14.9254 10.3129 14.9277 10.32 14.9277C10.3271 14.9277 10.334 14.9254 10.3396 14.9211L10.3996 14.8611C10.5404 14.7804 10.7705 14.7706 10.92 14.9113C10.9495 14.9309 10.9996 14.9211 11.0291 14.8906C11.0291 14.8709 11.0596 14.8513 11.0695 14.8404C11.1259 14.7938 11.1971 14.7691 11.2702 14.7706H11.5604C11.64 14.7509 11.8604 14.7411 11.94 14.7204H11.9509C11.9509 14.7204 12.0196 14.7106 12.06 14.7007C12.1996 14.6713 12.36 14.6309 12.4898 14.6898C12.6207 14.7509 12.5989 14.9004 12.5902 15.0204C12.5793 15.0733 12.5724 15.1269 12.5695 15.1808C12.5695 15.2004 12.5695 15.2309 12.5804 15.2506C12.5804 15.3608 12.5804 15.4611 12.5596 15.5408V15.6008C12.5902 15.6608 12.6502 15.6902 12.7004 15.6608C12.7844 15.6113 12.8615 15.5507 12.9295 15.4808H12.9404L12.96 15.3804C12.9796 15.2713 13.0004 15.0509 13.0004 14.6004V14.5513C13.0004 14.3909 13.0004 14.2513 12.9895 14.1411C12.9796 13.8902 12.9698 13.7004 13.0898 13.5105C13.1732 13.3734 13.2904 13.26 13.4302 13.1811C13.56 13.1004 13.6996 13.0109 13.9396 12.6803C14.0596 12.5211 14.0804 12.4512 14.0902 12.4011C14.1098 12.2702 14.1502 12.2003 14.34 12.0607C14.4796 11.9516 14.94 11.6112 15.5509 11.7116C15.7495 11.7411 16.0702 11.8512 16.3909 11.9811C16.4095 11.9811 16.4204 11.9811 16.4302 11.9909H16.44C16.7204 12.1109 16.9898 12.2309 17.1709 12.3312C17.22 12.3607 17.28 12.3312 17.3204 12.3007C17.3804 12.2309 17.4404 12.1916 17.5004 12.1502C17.5298 12.1502 17.5495 12.1207 17.5702 12.1109C17.6302 12.0607 17.6204 11.9516 17.5495 11.9112ZM9.52036 11.3494C9.31964 12.22 7.97018 13.18 7.36036 13.18H7.34945C7.34945 13.18 7.32982 13.18 7.32 13.1691H7.27964C7.27964 13.1691 7.26982 13.1593 7.26 13.1593C7.11818 13.1065 6.98889 13.0247 6.88036 12.9193C6.7995 12.8489 6.7433 12.7544 6.72 12.6498V12.5996C6.65393 12.3909 6.67193 12.1647 6.77018 11.9691C6.79127 11.9298 6.808 11.8898 6.82036 11.8491C6.82036 11.8392 6.83018 11.8294 6.83018 11.8196C6.84777 11.7916 6.86102 11.761 6.86945 11.7291C6.89018 11.68 6.90982 11.6396 6.91964 11.6091C6.91964 11.5992 6.93054 11.5894 6.93054 11.5698C6.96982 11.4694 6.96982 11.429 6.97964 11.3898C6.97964 11.3592 6.99054 11.32 7.00036 11.2589C7.03964 11.0996 7.06036 10.9599 7.08 10.8399C7.10945 10.6196 7.13018 10.4298 7.25018 10.2498C7.26982 10.2192 7.30036 10.1996 7.32 10.169C7.33091 10.1592 7.33964 10.1592 7.34945 10.1494C7.35927 10.1396 7.37018 10.1298 7.38 10.1298L7.46945 10.0698C7.46945 10.0698 7.49018 10.0588 7.5 10.0588C7.52945 10.0501 7.55018 10.0392 7.57964 10.0392C7.70718 10.0065 7.84 9.99986 7.97018 10.0196C8.12945 10.0392 8.28 10.0698 8.40982 10.0992C8.51891 10.1396 8.62036 10.1701 8.70982 10.1996C8.72073 10.1996 8.72945 10.1996 8.72945 10.2192C8.75018 10.2192 8.76982 10.2301 8.77964 10.2301L8.83964 10.2596C8.87018 10.2705 8.88982 10.289 8.92036 10.289H8.94C9.02945 10.3501 9.11018 10.3894 9.18 10.4396C9.20945 10.469 9.24982 10.4898 9.26945 10.5192C9.28036 10.5192 9.29018 10.5399 9.3 10.5498C9.31091 10.5498 9.31964 10.5596 9.32945 10.5694C9.59018 10.8399 9.56945 11.1596 9.53018 11.3494H9.52036ZM10.14 8.05917L10.1204 8.21954C10.0604 8.56863 9.91964 9.05955 9.41018 9.17955C8.90946 9.29955 8.79927 9.3301 8.45018 9.34974H8.41964C8.16982 9.34974 7.68 9.18937 7.59055 8.77918C7.52945 8.52936 7.64945 8.33954 7.83055 8.02971C7.86982 7.97953 7.90036 7.91953 7.93964 7.85953C8.11425 7.55581 8.25509 7.23388 8.35964 6.89951C8.44036 6.65951 8.50036 6.46969 8.65964 6.31041C8.69819 6.26773 8.74221 6.23031 8.79054 6.19913C8.82 6.1795 8.86036 6.15986 8.88982 6.13913L9.04036 6.07913C9.14945 6.03986 9.28036 6.02895 9.40036 6.02895C9.64036 6.02895 9.88036 6.08895 10.0495 6.22968C10.1204 6.28968 10.2295 6.40968 10.2895 6.77951C10.3298 6.95951 10.2698 7.29988 10.14 8.05917ZM13.7902 9.06937C13.6102 9.36937 13.5196 9.53956 13.3702 9.65956C13.0604 9.91048 12.7102 9.96939 12.42 9.96939C12.2095 9.96939 12.0404 9.93993 11.9291 9.9192C11.6302 9.86902 11.0804 9.76975 10.8895 9.3301C10.8638 9.25945 10.8505 9.1849 10.8502 9.10973C10.8502 9.03991 10.8502 8.92973 10.8196 8.64936V8.62972C10.8098 8.50972 10.7902 8.36899 10.8305 8.17917V8.16062C10.9298 7.63043 10.9604 7.54971 10.9898 7.50061C11.001 7.47515 11.0175 7.45235 11.0382 7.43375C11.0589 7.41514 11.0833 7.40114 11.1098 7.39269C11.1363 7.38423 11.1644 7.3815 11.192 7.38468C11.2196 7.38787 11.2463 7.39689 11.2702 7.41116C11.3793 7.46025 11.4196 7.58025 11.3695 7.69043C11.3216 7.87191 11.2816 8.05535 11.2495 8.24026V8.27081C11.2247 8.3726 11.2247 8.47885 11.2495 8.58063V8.60027C11.28 8.90028 11.28 9.04101 11.28 9.11082V9.16101C11.3091 9.23083 11.3691 9.29083 11.46 9.34101C11.5298 9.38028 11.5996 9.31046 11.5909 9.23083C11.5004 8.76064 11.5102 8.23044 11.6804 7.89989C11.7404 7.7908 11.8495 7.60098 11.9498 7.43079L11.9804 7.38061C11.9902 7.36097 11.9902 7.35116 12 7.34025C12.0502 7.26061 12.0895 7.19079 12.1309 7.13079V7.11115H12.1396C12.1396 7.11115 12.1505 7.07079 12.1604 7.06097H12.1702C12.1702 7.06097 12.18 7.04024 12.18 7.03042V7.01079C12.2095 6.97042 12.24 6.93006 12.2596 6.9006C12.3196 6.82096 12.2498 6.7206 12.1604 6.76096C12.0098 6.83078 11.9095 6.91042 11.8898 6.92024C11.8683 6.93931 11.8432 6.95379 11.8159 6.96278C11.7886 6.97177 11.7598 6.97509 11.7312 6.97252C11.7026 6.96996 11.6748 6.96157 11.6496 6.94787C11.6243 6.93418 11.6022 6.91546 11.5844 6.89287C11.5667 6.87029 11.5538 6.84431 11.5464 6.81654C11.5391 6.78877 11.5375 6.7598 11.5418 6.7314C11.5461 6.703 11.5562 6.67578 11.5713 6.65141C11.5865 6.62704 11.6066 6.60603 11.6302 6.58969C11.7393 6.50023 12.3196 6.08022 13.02 6.28095C13.5196 6.42059 13.7902 6.80024 13.8895 6.95078C13.9702 7.07079 14.2102 7.41988 14.2004 7.92062C14.2004 8.30026 14.04 8.57082 13.7498 9.07046L13.7902 9.06937Z" fill="white"/>
<path d="M9.25091 6.46096C9.20569 6.56213 9.16564 6.66554 9.13091 6.77078C9.01964 7.04024 8.89964 7.35116 8.83964 7.46025C8.74036 7.65116 8.65964 7.77116 8.59964 7.87044C8.52982 7.98062 8.46982 8.07117 8.43054 8.19117C8.34995 8.42266 8.33596 8.67213 8.39018 8.91118C8.25927 8.90028 8.04109 8.801 8.01055 8.69082C7.98982 8.60027 8.04982 8.51081 8.20036 8.25117C8.22982 8.20099 8.27018 8.14099 8.29964 8.08099C8.57018 7.62061 8.68036 7.28024 8.76 7.03042C8.85054 6.76096 8.89091 6.65078 9.03055 6.55041C9.09854 6.50937 9.17361 6.47919 9.25091 6.46096ZM8.98909 16.0699C8.86499 16.325 8.71434 16.5663 8.53964 16.7899C8.43927 16.5302 8.28 15.9411 8.31927 15.4699V15.4306C8.33495 15.293 8.37957 15.1602 8.45018 15.0411C8.49927 14.9702 8.61927 14.9309 8.76982 14.9309C8.87891 14.9309 8.99018 14.9506 9.08945 15.0106C9.13964 15.0411 9.22036 15.1011 9.22036 15.2615C9.23018 15.4906 9.12 15.7906 8.98036 16.071L8.98909 16.0699Z" fill="white"/>
<path d="M17.1098 12.6803C17.1098 12.6803 17.1295 12.7011 17.1207 12.7207C17.0804 12.8102 17.0204 12.8702 16.9604 12.9498C16.8644 13.0551 16.7836 13.1734 16.7204 13.3011C16.6102 13.5302 16.5698 13.7309 16.5502 14.2611C16.5295 14.8807 16.5502 15.2309 16.5698 15.4808C16.5895 15.7306 16.5993 15.8702 16.5502 16.1113C16.4596 16.5913 16.26 16.911 15.9895 17.3212C15.66 17.8306 15.3196 18.351 14.76 18.5103C14.7098 18.531 14.7098 18.531 14.5604 18.531C14.4295 18.531 14.22 18.531 13.8196 18.5506C13.0898 18.5812 12.72 18.591 12.4102 18.651C12.1795 18.6897 11.9546 18.7567 11.7404 18.8506C11.5898 18.9106 11.4502 18.9706 11.1796 19.0208C11.0204 19.0503 10.7695 19.0906 9.95018 19.0906C9.08946 19.0906 8.57018 19.0906 7.88945 19.011C6.95018 18.9008 6.48 18.8506 6.16036 18.6805C5.41964 18.291 5.10982 17.5808 4.58945 16.4004C4.58945 16.3906 4.60036 16.371 4.62 16.3808C4.63964 16.4004 4.67018 16.4102 4.69964 16.4211C4.72384 16.4237 4.74744 16.4304 4.76945 16.4408H4.96036C4.98971 16.5315 5.04943 16.6093 5.12945 16.6611C5.22023 16.7026 5.3202 16.7199 5.41964 16.7113C5.52 16.7113 5.62036 16.7113 5.71964 16.6906C5.76982 16.6906 5.82982 16.7102 5.85055 16.7604C5.94 16.9808 6.06 17.1412 6.23018 17.1706H6.26945C6.3 17.1706 6.35018 17.1706 6.42 17.1204C6.49964 17.0702 6.62945 17.1008 6.68945 17.1706C6.72385 17.2065 6.76066 17.2401 6.79964 17.271C6.97964 17.451 7.39964 17.5404 7.75964 17.5404C7.96036 17.5404 8.13055 17.511 8.22982 17.4608C8.38036 17.391 8.38036 17.2808 8.36945 17.2317L8.34 16.9917C8.34 16.9917 8.34982 16.9808 8.35964 16.9917C8.38036 17.0408 8.40982 17.1008 8.47964 17.1117H8.51018C8.60945 17.1117 8.76982 17.1412 8.78945 17.2404C8.80036 17.2906 8.82 17.3408 8.84945 17.3812C8.90946 17.4804 9.02945 17.5906 9.26945 17.5906H9.29018C9.568 17.5906 9.78109 17.5008 9.92945 17.3212C9.92945 17.3102 9.95018 17.3004 9.96 17.2808C10.0102 17.211 10.1695 17.2012 10.2295 17.2612C10.3032 17.3283 10.4003 17.3639 10.5 17.3604H10.5502C10.6124 17.3529 10.6723 17.3321 10.7258 17.2993C10.7793 17.2665 10.825 17.2227 10.86 17.1706C10.914 17.0912 10.9546 17.0035 10.98 16.911C10.98 16.8804 11.0302 16.8706 11.0498 16.8913C11.1202 16.9568 11.2133 16.9924 11.3095 16.9906C11.34 16.9906 11.3695 16.9906 11.4098 16.9808C11.6498 16.9306 11.7698 16.7299 11.8298 16.5117H11.8495C11.895 16.5648 11.9521 16.6068 12.0164 16.6344C12.0807 16.662 12.1505 16.6745 12.2204 16.671H12.2498C12.3 16.6691 12.3491 16.6564 12.3939 16.6338C12.4387 16.6112 12.4781 16.5793 12.5095 16.5401C12.5844 16.4279 12.6229 16.2953 12.6196 16.1604C12.6196 16.1102 12.66 16.0611 12.7102 16.0404C12.9098 15.9509 13.1596 15.7709 13.2295 15.6509C13.24 15.6316 13.2543 15.6146 13.2715 15.6009C13.2888 15.5872 13.3086 15.5771 13.3298 15.5713C13.4269 15.5539 13.5213 15.5235 13.6102 15.4808C13.6593 15.4611 13.6996 15.4404 13.8196 15.4208C14.7502 15.2811 14.9302 15.2506 15.1298 15.1109C15.4298 14.9102 15.4495 14.6309 15.4604 14.3702C15.4702 14.1411 15.4898 13.8902 15.66 13.5902C15.72 13.4811 15.7996 13.3404 15.8793 13.2007C16.0102 12.9498 16.2 12.6116 16.3396 12.4207C16.3702 12.3803 16.4302 12.3607 16.4804 12.3803C16.7902 12.5112 17.0596 12.6509 17.1196 12.6902L17.1098 12.6803Z" fill="white"/>
<path d="M8.09018 15.4404C8.03958 15.8757 8.03958 16.3153 8.09018 16.7506C8.1 16.911 8.12945 17.0713 8.15018 17.2415C8.10982 17.2612 7.97018 17.3004 7.74 17.2906C7.39964 17.2906 7.08 17.2012 6.97964 17.091H6.96C6.88036 17.0113 6.82036 16.971 6.82036 16.851C6.82036 16.8106 6.83018 16.7702 6.86945 16.7201C6.89018 16.6906 6.91964 16.6502 6.95018 16.611C7.01018 16.5313 7.08 16.4408 7.14982 16.3208C7.36036 15.9608 7.44 15.8517 7.54036 15.7208C7.54036 15.7099 7.56 15.7011 7.56982 15.6913C7.62982 15.6106 7.70073 15.5113 7.80982 15.3509C7.88946 15.2309 7.94945 15.1404 8.00945 15.0608C8.1 14.9408 8.16 14.8709 8.20036 14.8404C8.20036 14.9004 8.17964 14.9713 8.16982 15.0411C8.15018 15.1502 8.12946 15.2909 8.10982 15.4502L8.09018 15.4404ZM7.92982 10.4516C7.88945 10.5105 7.84036 10.5803 7.78036 10.7112C7.62 11.0712 7.62 11.2709 7.61018 11.4312C7.61018 11.5207 7.61018 11.5807 7.57964 11.6603C7.56145 11.7105 7.53818 11.7705 7.50982 11.8403C7.41927 12.0607 7.28945 12.3411 7.34945 12.7207C7.26982 12.6803 7.15964 12.6007 7.14 12.5505C7.14 12.5309 7.14 12.5102 7.12909 12.4905C7.0905 12.368 7.10146 12.2352 7.15964 12.1207C7.36036 11.6603 7.38 11.5512 7.39964 11.4301C7.39964 11.4007 7.39964 11.381 7.41055 11.3505C7.44982 11.1705 7.46946 11.0101 7.49018 10.8912C7.51964 10.7003 7.52946 10.5803 7.59927 10.481C7.62 10.4505 7.68982 10.4308 7.78036 10.4308H7.92982V10.4516ZM7.66909 14.9811C7.66248 14.8714 7.63931 14.7632 7.60036 14.6604C7.60036 14.6604 7.58945 14.6309 7.57964 14.6211C7.57964 14.6102 7.56 14.5906 7.56 14.5807L7.54909 14.5698L7.53055 14.5502H7.51964C7.51964 14.5502 7.5 14.5502 7.5 14.5404H7.48909C7.43018 14.5207 7.36036 14.4913 7.29055 14.4804H7.22945C7.22945 14.4804 7.2 14.4804 7.18036 14.4913C7.18036 14.4913 7.16946 14.4913 7.15964 14.5011C7.15964 14.5011 7.14982 14.5011 7.14 14.5109C7.14 14.5109 7.12909 14.5306 7.12036 14.5306C7.12036 14.5306 7.12036 14.5415 7.10946 14.5502C7.08 14.5906 7.06036 14.6309 7.02982 14.6702L6.84 14.9506C6.78 15.0302 6.72 15.1208 6.66 15.2015C6.63027 15.2506 6.59671 15.2973 6.55964 15.3411C6.55964 15.3411 6.54982 15.3608 6.54 15.3608C6.58036 15.3608 6.61964 15.3717 6.64909 15.3804C6.73964 15.4011 6.82036 15.4109 6.91091 15.4208C7.08982 15.4404 7.27091 15.4611 7.44982 15.4502H7.48036C7.51964 15.3902 7.57964 15.3106 7.63964 15.2102C7.68 15.1502 7.71055 15.1011 7.74 15.0509L7.71055 14.9713L7.66909 14.9811ZM7.02982 15.7208C7.01018 15.8604 6.86073 16.2204 6.62073 16.5608C6.42 16.851 6.29018 16.9099 6.27055 16.9208C6.17018 16.9099 6.07964 16.6611 6 16.4211C5.97055 16.3208 5.94 16.2302 5.92036 16.1408C5.87488 15.9509 5.85796 15.7553 5.87018 15.5604C6.06982 15.6706 6.42982 15.7011 6.93927 15.7109C6.93927 15.7109 7.01018 15.7109 7.04073 15.7208H7.02982ZM6.66982 14.5807V14.5917C6.58036 14.7204 6.50073 14.8404 6.41018 14.9713C6.36294 15.0354 6.31923 15.1021 6.27927 15.1709C6.26073 15.2113 6.22036 15.2506 6.18982 15.2909C6.12 15.2713 6.05018 15.2604 5.98036 15.2408C5.92036 15.2211 5.86036 15.2113 5.81018 15.1808C5.79927 15.1808 5.79055 15.1808 5.78073 15.1698C5.78073 15.1502 5.76 15.1306 5.74036 15.1208C5.76 15.0804 5.78073 15.0411 5.80036 14.9898C5.84073 14.9113 5.88 14.8404 5.92036 14.7607C6 14.6298 6.09055 14.4913 6.22036 14.4116C6.22036 14.4116 6.23127 14.4116 6.24 14.4007C6.28897 14.3703 6.34347 14.35 6.40036 14.3407H6.47018C6.48982 14.3407 6.50073 14.3407 6.52036 14.3516H6.54C6.55091 14.3516 6.57055 14.3713 6.58036 14.3811L6.60982 14.4106C6.65018 14.4607 6.66 14.5109 6.66982 14.5807ZM5.98036 14.2207C5.82471 14.3575 5.69851 14.5245 5.60946 14.7117C5.56146 14.8091 5.50836 14.912 5.45018 15.0204C5.45018 15.0313 5.43927 15.0411 5.42946 15.0509C5.38132 15.0438 5.33435 15.0302 5.28982 15.0106C5.23964 14.9909 5.18946 14.9811 5.14036 14.9506C5.11964 14.9408 5.1 14.9309 5.06945 14.9211C5.11964 14.8306 5.17964 14.7411 5.22982 14.6604C5.30946 14.5404 5.39018 14.4204 5.48073 14.3113C5.51249 14.2638 5.55326 14.223 5.60073 14.1913C5.64982 14.1607 5.70982 14.1706 5.76 14.1706C5.82 14.1706 5.88 14.1706 5.94 14.2011C5.94982 14.2011 5.95964 14.2109 5.96946 14.2207H5.98036ZM5.72945 16.371L5.70982 16.3906H5.35091C5.30946 16.3906 5.27018 16.3906 5.24945 16.3611C5.22 16.3208 5.21018 16.2411 5.20036 16.191C5.14828 15.9139 5.14128 15.6302 5.17964 15.3509C5.32146 15.4011 5.46836 15.4411 5.62036 15.4709C5.58982 15.7208 5.64 16.0906 5.68036 16.2008C5.7 16.251 5.70982 16.3011 5.72945 16.3611V16.371ZM5.27018 14.1313C5.13927 14.2906 5.03018 14.4509 4.92109 14.6211C4.88073 14.6909 4.83055 14.7607 4.80109 14.8404C4.74972 14.8319 4.7011 14.8114 4.65927 14.7804C4.62 14.7607 4.59055 14.7302 4.55018 14.7106C4.55018 14.7106 4.52073 14.6811 4.5 14.6702H4.49018C4.50229 14.6398 4.51576 14.6099 4.53055 14.5807C4.55869 14.5232 4.58852 14.4664 4.62 14.4106C4.68 14.3113 4.74 14.2011 4.82073 14.1106C4.85018 14.0811 4.86982 14.0309 4.92 14.0211C4.96036 14.0102 5.01055 14.0211 5.04 14.0211C5.12884 14.0381 5.20967 14.0837 5.27018 14.1509V14.1313ZM4.29055 14.8011H4.31018C4.34346 14.8511 4.38838 14.8923 4.44109 14.9211C4.46073 14.9408 4.48036 14.9506 4.50982 14.9713V14.9811C4.45514 15.197 4.42513 15.4184 4.42036 15.6411C4.42036 15.6509 4.40073 15.6509 4.40073 15.6411C4.34073 15.3804 4.25018 14.9506 4.29055 14.8011ZM4.90909 15.2713C4.8794 15.4596 4.86953 15.6504 4.87964 15.8408C4.87964 15.9411 4.90036 16.0513 4.91018 16.1506H4.81964C4.79018 16.1506 4.79018 16.1506 4.77055 16.131C4.73921 16.1093 4.71189 16.0824 4.68982 16.0513C4.63964 15.9608 4.62982 15.8506 4.62 15.7611C4.62 15.5604 4.62 15.3706 4.67018 15.1808C4.69964 15.1917 4.73018 15.2004 4.77055 15.2211C4.80982 15.2408 4.86 15.2604 4.91018 15.2811L4.90909 15.2713Z" fill="white"/>
</svg>
