<svg width="24" height="24" viewBox="0 0 24 24" fill="none" xmlns="http://www.w3.org/2000/svg">
<path d="M24 12C24 18.6273 18.6273 24 12 24C5.37273 24 0 18.6273 0 12C0 5.37273 5.37273 0 12 0C18.6273 0 24 5.37273 24 12Z" fill="#E7EAEF"/>
<path d="M12 21.1876C11.9362 21.1863 11.873 21.1756 11.8124 21.156L11.8167 21.1571C11.7777 21.1432 11.7404 21.1249 11.7055 21.1025L11.7076 21.1047L5.95855 17.6585C5.85486 17.5969 5.774 17.5033 5.72815 17.3917C5.68231 17.2802 5.67396 17.1567 5.70436 17.04V17.0433L7.71709 8.70327C7.7332 8.63673 7.7617 8.57382 7.80109 8.51782L7.8 8.52L11.5505 3.05673C11.6055 2.98609 11.6758 2.92889 11.7561 2.88948C11.8365 2.85006 11.9247 2.82947 12.0142 2.82926C12.1037 2.82905 12.192 2.84923 12.2726 2.88826C12.3531 2.9273 12.4236 2.98417 12.4789 3.05455L12.48 3.05673L16.2305 8.52C16.2684 8.57309 16.2956 8.63309 16.3124 8.7V8.70327L18.3262 17.0433C18.3371 17.0847 18.3425 17.1302 18.3425 17.1796C18.3429 17.2757 18.3183 17.3701 18.2713 17.4539C18.2242 17.5376 18.1563 17.6077 18.0742 17.6575L18.0709 17.6585L12.2924 21.1058C12.2602 21.1249 12.2262 21.1406 12.1909 21.1527H12.1876C12.1276 21.1753 12.0641 21.1871 12 21.1876ZM15.5924 10.6429L12.9676 19.3953L17.1153 16.9047L15.5924 10.6429ZM6.89236 16.9047L11.04 19.3953L8.41527 10.6429L6.89236 16.9047ZM9 8.74473L12 18.6764L15 8.74582L12 4.37236L9 8.74473Z" fill="#231F20"/>
</svg>
