<svg width="12" height="12" viewBox="0 0 12 12" fill="none" xmlns="http://www.w3.org/2000/svg">
<g clip-path="url(#clip0_8075_4426)">
<path d="M10.3903 6.395C10.3124 7.2461 9.99635 8.0572 9.47899 8.73339C8.96163 9.40958 8.2644 9.9229 7.46888 10.2133C6.67336 10.5036 5.81246 10.5591 4.98691 10.373C4.16136 10.187 3.40531 9.76727 2.80722 9.16289C2.20913 8.5585 1.79375 7.79449 1.60967 6.96025C1.42559 6.12601 1.48043 5.25604 1.76778 4.45215C2.05513 3.64825 2.56309 2.94368 3.23224 2.42088C3.90138 1.89807 4.70403 1.57865 5.54627 1.5C5.05317 2.17413 4.81588 3.00472 4.87758 3.84071C4.93927 4.67669 5.29584 5.46253 5.88243 6.0553C6.46903 6.64807 7.24668 7.00839 8.07395 7.07073C8.90122 7.13308 9.72316 6.89329 10.3903 6.395Z" stroke="url(#paint0_linear_8075_4426)" stroke-width="2" stroke-linecap="round" stroke-linejoin="round"/>
</g>
<defs>
<linearGradient id="paint0_linear_8075_4426" x1="5.9466" y1="1.5" x2="5.9466" y2="10.4809" gradientUnits="userSpaceOnUse">
<stop stop-color="#C4A55D"/>
<stop offset="1" stop-color="#876A2D"/>
</linearGradient>
<clipPath id="clip0_8075_4426">
<rect width="11.875" height="12" fill="white"/>
</clipPath>
</defs>
</svg>
