<svg width="47" height="47" viewBox="0 0 47 47" fill="none" xmlns="http://www.w3.org/2000/svg">
<g clip-path="url(#clip0_8008_990)">
<path d="M46.2941 29.185C43.1554 41.7742 30.4046 49.4359 17.8139 46.2965C5.22833 43.1578 -2.43334 30.4062 0.706778 17.8177C3.84398 5.22696 16.5948 -2.43545 29.1819 0.703217C41.7719 3.84194 49.4328 16.595 46.2941 29.185Z" fill="#F7931A"/>
<path d="M15.7702 27.4577C15.6424 27.775 15.3186 28.2508 14.5886 28.0701C14.6144 28.1076 12.7145 27.6024 12.7145 27.6024L11.4346 30.5538L14.7898 31.3903C15.4141 31.5467 16.0258 31.7104 16.628 31.8647L15.5609 36.149L18.1364 36.7915L19.1931 32.5528C19.8967 32.7437 20.5796 32.9199 21.2479 33.0859L20.1948 37.3048L22.7732 37.9474L23.8402 33.6712C28.2369 34.5032 31.5429 34.1676 32.9346 30.191C34.056 26.9892 32.8788 25.1422 30.5655 23.9379C32.2502 23.5494 33.5191 22.4412 33.8577 20.1522C34.3254 17.0253 31.9446 15.3443 28.6892 14.2229L29.7452 9.98701L27.1668 9.34444L26.1387 13.4686C25.4609 13.2997 24.7647 13.1404 24.073 12.9825L25.1084 8.83105L22.5315 8.18848L21.4747 12.4228C20.9136 12.2951 20.3629 12.1687 19.8283 12.0358L19.8312 12.0226L16.2754 11.1347L15.5894 13.8886C15.5894 13.8886 17.5025 14.327 17.4621 14.3542C18.5064 14.6149 18.6951 15.3059 18.6635 15.8538L15.7702 27.4577ZM27.9666 28.4131C27.1698 31.6149 21.7788 29.884 20.031 29.45L21.4469 23.7741C23.1946 24.2103 28.7993 25.0739 27.9666 28.4131ZM28.7641 20.106C28.0371 23.0185 23.5501 21.5387 22.0946 21.1759L23.3783 16.028C24.8338 16.3908 29.5212 17.0678 28.7641 20.106Z" fill="white"/>
</g>
<defs>
<clipPath id="clip0_8008_990">
<rect width="47" height="47" fill="white"/>
</clipPath>
</defs>
</svg>
