<svg width="47" height="47" viewBox="0 0 47 47" fill="none" xmlns="http://www.w3.org/2000/svg">
<g clip-path="url(#clip0_8008_995)">
<path d="M23.5 47C36.4787 47 47 36.4787 47 23.5C47 10.5213 36.4787 0 23.5 0C10.5213 0 0 10.5213 0 23.5C0 36.4787 10.5213 47 23.5 47Z" fill="url(#paint0_linear_8008_995)"/>
<path d="M16.2617 27.9322C16.3255 27.8659 16.4022 27.8133 16.4871 27.7777C16.572 27.7422 16.6632 27.7244 16.7552 27.7254H33.9102C33.958 27.7278 34.0048 27.7396 34.048 27.7602C34.0911 27.7808 34.1298 27.8098 34.1617 27.8454C34.1936 27.881 34.2181 27.9226 34.2338 27.9677C34.2496 28.0129 34.2562 28.0607 34.2533 28.1084C34.2495 28.1956 34.2154 28.2786 34.157 28.3434L30.7683 31.7251C30.6374 31.8562 30.4601 31.9305 30.2748 31.9319H13.1198C13.045 31.938 12.9702 31.9199 12.9065 31.8803C12.8428 31.8407 12.7935 31.7816 12.7658 31.7119C12.7382 31.6421 12.7337 31.5653 12.753 31.4928C12.7723 31.4203 12.8144 31.3559 12.873 31.3091L16.2617 27.9322Z" fill="url(#paint1_linear_8008_995)"/>
<path d="M16.2619 15.2751C16.3925 15.1431 16.5698 15.0679 16.7554 15.0659H33.9104C33.9794 15.0669 34.0466 15.0881 34.1037 15.1269C34.1607 15.1657 34.2052 15.2204 34.2314 15.2842C34.2577 15.348 34.2647 15.4181 34.2515 15.4858C34.2383 15.5535 34.2055 15.6159 34.1572 15.6652L30.7685 19.068C30.6375 19.1991 30.4603 19.2734 30.275 19.2748H13.12C13.0238 19.2693 12.9336 19.2259 12.8693 19.1541C12.805 19.0823 12.7718 18.988 12.7769 18.8917C12.7808 18.8046 12.8148 18.7215 12.8732 18.6567L16.2619 15.2751Z" fill="url(#paint2_linear_8008_995)"/>
<path d="M30.7685 21.5636C30.7045 21.4975 30.6278 21.4448 30.543 21.4089C30.4582 21.373 30.3671 21.3545 30.275 21.3545H13.12C13.0238 21.36 12.9336 21.4033 12.8693 21.4751C12.805 21.5469 12.7718 21.6413 12.7769 21.7375C12.7804 21.8248 12.8145 21.908 12.8732 21.9725L16.2619 25.3448C16.3259 25.411 16.4026 25.4636 16.4874 25.4995C16.5722 25.5355 16.6634 25.554 16.7554 25.5539H33.9104C33.9794 25.553 34.0466 25.5318 34.1037 25.493C34.1607 25.4542 34.2052 25.3995 34.2314 25.3357C34.2577 25.2719 34.2647 25.2018 34.2515 25.1341C34.2383 25.0663 34.2055 25.004 34.1572 24.9547L30.7685 21.5636Z" fill="url(#paint3_linear_8008_995)"/>
</g>
<defs>
<linearGradient id="paint0_linear_8008_995" x1="23.5" y1="47" x2="23.5" y2="0" gradientUnits="userSpaceOnUse">
<stop stop-color="#170E2B"/>
<stop offset="1" stop-color="#210066"/>
</linearGradient>
<linearGradient id="paint1_linear_8008_995" x1="32.2652" y1="13.0426" x2="20.386" y2="35.7906" gradientUnits="userSpaceOnUse">
<stop stop-color="#00FFA3"/>
<stop offset="1" stop-color="#DC1FFF"/>
</linearGradient>
<linearGradient id="paint2_linear_8008_995" x1="27.0813" y1="10.333" x2="15.2138" y2="33.0834" gradientUnits="userSpaceOnUse">
<stop stop-color="#00FFA3"/>
<stop offset="1" stop-color="#DC1FFF"/>
</linearGradient>
<linearGradient id="paint3_linear_8008_995" x1="29.6663" y1="11.6842" x2="17.7847" y2="34.4322" gradientUnits="userSpaceOnUse">
<stop stop-color="#00FFA3"/>
<stop offset="1" stop-color="#DC1FFF"/>
</linearGradient>
<clipPath id="clip0_8008_995">
<rect width="47" height="47" fill="white"/>
</clipPath>
</defs>
</svg>
