<svg width="76" height="34" viewBox="0 0 76 34" fill="none" xmlns="http://www.w3.org/2000/svg">
<g clip-path="url(#clip0_8008_521)">
<mask id="mask0_8008_521" style="mask-type:luminance" maskUnits="userSpaceOnUse" x="0" y="0" width="76" height="34">
<path d="M76 0H0V34H76V0Z" fill="white"/>
</mask>
<g mask="url(#mask0_8008_521)">
<path fill-rule="evenodd" clip-rule="evenodd" d="M22.8039 10.2H26.8442C26.6793 10.3415 26.5452 10.5207 26.4698 10.7749C25.9138 10.8009 25.355 10.8819 24.7989 11.0234C24.1758 11.1823 23.6338 11.5667 23.6338 12.2283C23.6338 12.4421 23.6897 12.6444 23.7847 12.8207L23.7791 12.682L23.8629 12.6386C23.9384 12.5982 24.0193 12.5635 24.0976 12.5288C24.2988 12.4421 24.5084 12.3699 24.7179 12.3092C25.9473 11.951 27.7579 11.951 28.9873 12.3092C29.1969 12.3699 29.4064 12.445 29.6076 12.5288C29.6858 12.5606 29.7669 12.5982 29.8423 12.6386L29.9261 12.682L29.9206 12.8207C30.0156 12.6444 30.0714 12.4421 30.0714 12.2283C30.0714 11.5667 29.5293 11.1766 28.9063 11.0234C28.3139 10.879 27.7215 10.7923 27.1292 10.772C27.2522 10.6102 27.4422 10.5062 27.6322 10.4051C27.7523 10.3386 27.8725 10.2751 27.9814 10.2H30.9013C31.298 10.2 31.6222 10.5351 31.6222 10.9454V22.9914C31.6222 23.4017 31.298 23.7369 30.9013 23.7369H22.8039C22.4072 23.7369 22.083 23.4017 22.083 22.9914V10.9454C22.0802 10.5351 22.4043 10.2 22.8039 10.2ZM27.4561 16.0655C28.4816 15.4616 28.951 14.7653 29.0097 13.6124C28.5934 15.0224 27.9842 15.7043 27.4561 16.0655ZM23.997 14.2625C24.1423 16.2851 26.2547 16.4556 26.8526 17.5998C27.4506 16.4556 29.5629 16.2822 29.7082 14.2625L29.7752 12.7715C28.3307 11.9943 25.3773 11.9943 23.9327 12.7715L23.997 14.2625Z" fill="white"/>
<path fill-rule="evenodd" clip-rule="evenodd" d="M11.7609 10.2H19.8583C20.255 10.2 20.5792 10.5351 20.5792 10.9454V22.9914C20.5792 23.4017 20.255 23.7369 19.8583 23.7369H11.7609C11.3642 23.7369 11.04 23.4017 11.04 22.9914V10.9454C11.04 10.5351 11.3642 10.2 11.7609 10.2ZM16.4578 19.4664C17.4833 18.8624 17.9527 18.1661 18.0114 17.0132C17.595 18.4232 16.9859 19.1051 16.4578 19.4664ZM12.9568 17.7731C13.1021 19.7957 15.2145 19.9691 15.8124 21.1104C16.4104 19.9662 18.5227 19.7928 18.668 17.7731L18.735 16.2822C17.2905 15.5049 14.3371 15.5049 12.8926 16.2822L12.9568 17.7731ZM15.4296 14.2856C14.8736 14.3116 14.3148 14.3925 13.7587 14.5341C13.1357 14.693 12.5936 15.0773 12.5936 15.739C12.5936 15.9528 12.6495 16.1551 12.7445 16.3313L12.7389 16.1926L12.8227 16.1493C12.8982 16.1088 12.9792 16.0741 13.0574 16.0395C13.2586 15.9528 13.4682 15.8805 13.6777 15.8199C14.9071 15.4616 16.7177 15.4616 17.9471 15.8199C18.1567 15.8805 18.3663 15.9557 18.5674 16.0395C18.6457 16.0712 18.7267 16.1088 18.8021 16.1493L18.8859 16.1926L18.8804 16.3313C18.9754 16.1551 19.0313 15.9528 19.0313 15.739C19.0313 15.0773 18.4892 14.6872 17.8661 14.5341C17.2737 14.3896 16.6814 14.3029 16.0891 14.2827C16.212 14.1209 16.402 14.0169 16.592 13.9158C17.0111 13.6875 17.4191 13.465 17.4693 12.8265C16.6926 12.9276 17.0837 12.89 16.3182 13.3783C15.9493 13.5806 15.5721 13.7857 15.4296 14.2856Z" fill="white"/>
<path fill-rule="evenodd" clip-rule="evenodd" d="M0.720885 10.2H1.88603L1.91397 10.8327C2.05926 12.8553 4.17163 13.0258 4.76959 14.17C5.3675 13.0258 7.47984 12.8524 7.62516 10.8327L7.65312 10.2H8.81824C9.215 10.2 9.5391 10.5351 9.5391 10.9454V22.9914C9.5391 23.4017 9.215 23.7369 8.81824 23.7369H7.6559L7.69221 22.9365C6.24762 22.1593 3.29426 22.1593 1.8497 22.9365L1.88603 23.7369H0.720885C0.324118 23.7398 0 23.4017 0 22.9914V10.9454C0 10.5351 0.324118 10.2 0.720885 10.2ZM6.9825 10.2C6.57176 11.4048 6.01574 12.0145 5.52676 12.3468C6.45721 11.7978 6.92943 11.1708 7.05238 10.2H6.9825ZM4.38959 20.9428C3.83353 20.9688 3.2747 21.0497 2.71868 21.1913C2.09559 21.3503 1.55353 21.7345 1.55353 22.3962C1.55353 22.61 1.60941 22.8123 1.70441 22.9885L1.69882 22.8498L1.78265 22.8065C1.85809 22.766 1.93911 22.7314 2.01735 22.6967C2.21853 22.61 2.42809 22.5378 2.63765 22.4771C3.86705 22.1188 5.67762 22.1188 6.90705 22.4771C7.11664 22.5378 7.32615 22.6129 7.52738 22.6967C7.60557 22.7285 7.68664 22.766 7.76205 22.8065L7.8459 22.8498L7.84029 22.9885C7.93529 22.8123 7.99115 22.61 7.99115 22.3962C7.99115 21.7345 7.4491 21.3444 6.82602 21.1913C6.23369 21.0468 5.64131 20.9601 5.04898 20.94C5.17188 20.7781 5.36188 20.6741 5.55188 20.573C5.97102 20.3447 6.37898 20.1222 6.42926 19.4837C5.6525 19.5848 6.04369 19.5472 5.27812 20.0356C4.90926 20.2349 4.53205 20.4401 4.38959 20.9428Z" fill="white"/>
<path fill-rule="evenodd" clip-rule="evenodd" d="M39.4421 17.987C41.0656 17.987 42.0631 16.944 42.0631 15.5252V15.505C42.0631 14.1065 41.0963 13.5691 40.1072 13.3958L41.9487 11.5783V10.3301H37.0282V11.7488H39.8893L38.1514 13.5547L38.3999 14.6093H39.0651C39.9593 14.6093 40.4899 14.9531 40.4899 15.5657V15.5859C40.4899 16.1465 40.0625 16.499 39.4589 16.499C38.7214 16.499 38.2015 16.1754 37.7015 15.5946L36.6035 16.6868C37.2266 17.4496 38.1319 17.987 39.4421 17.987Z" fill="white"/>
<path fill-rule="evenodd" clip-rule="evenodd" d="M50.1956 17.9869C52.4422 17.9869 54.0741 16.233 54.0741 14.092V14.0718C54.0741 11.9307 52.4617 10.2 50.2154 10.2C47.9688 10.2 46.3369 11.9538 46.3369 14.092V14.1122C46.3369 16.2562 47.9494 17.9869 50.1956 17.9869ZM50.2154 16.4584C48.9243 16.4584 48.0106 15.3836 48.0106 14.092V14.0718C48.0106 12.7802 48.9049 11.7285 50.1956 11.7285C51.4868 11.7285 52.4004 12.8033 52.4004 14.0949V14.1151C52.4004 15.4067 51.5062 16.4584 50.2154 16.4584Z" fill="white"/>
<path fill-rule="evenodd" clip-rule="evenodd" d="M54.4072 17.857H56.0391L56.7037 16.1696H59.7834L60.448 17.857H62.1217L59.0065 10.2751H57.5283L54.4072 17.857ZM57.2796 14.7075L58.2465 12.2659L59.2134 14.7075H57.2796Z" fill="white"/>
<path fill-rule="evenodd" clip-rule="evenodd" d="M63.248 17.857H64.8516V15.557L65.6927 14.6526L67.9503 17.857H69.8727L66.774 13.5229L69.7385 10.3301H67.8051L64.8516 13.6211V10.3301H63.248V17.857Z" fill="white"/>
<path fill-rule="evenodd" clip-rule="evenodd" d="M73.327 17.9666C74.8972 17.9666 76.0009 17.1286 76.0009 15.6319V15.6117C76.0009 14.2999 75.1683 13.7509 73.693 13.3521C72.4357 13.0199 72.1228 12.8581 72.1228 12.364V12.3408C72.1228 11.9739 72.4441 11.6849 73.0589 11.6849C73.6736 11.6849 74.3078 11.9652 74.9504 12.4275L75.783 11.1793C75.0454 10.5667 74.1402 10.2229 73.0783 10.2229C71.5921 10.2229 70.5302 11.1273 70.5302 12.4911V12.5113C70.5302 14.0051 71.4772 14.427 72.944 14.8142C74.1625 15.1378 74.4112 15.3516 74.4112 15.7706V15.7908C74.4112 16.2329 74.0173 16.5016 73.3603 16.5016C72.5277 16.5016 71.8433 16.1462 71.1867 15.5886L70.2393 16.7617C71.1116 17.5678 72.2262 17.9666 73.327 17.9666Z" fill="white"/>
<path fill-rule="evenodd" clip-rule="evenodd" d="M38.1998 23.7398C38.7561 23.7398 39.1862 23.5145 39.4993 23.2399V21.8762H38.1777V22.4743H38.8509V22.9221C38.6804 23.0492 38.4655 23.1099 38.2224 23.1099C37.683 23.1099 37.303 22.6881 37.303 22.1131V22.1044C37.303 21.5699 37.6887 21.1249 38.175 21.1249C38.527 21.1249 38.7366 21.2405 38.9683 21.4427L39.3903 20.9169C39.0745 20.6395 38.7419 20.4863 38.1972 20.4863C37.2777 20.4863 36.6045 21.2174 36.6045 22.1131V22.1217C36.6018 23.0521 37.2529 23.7398 38.1998 23.7398Z" fill="white"/>
<path fill-rule="evenodd" clip-rule="evenodd" d="M44.0527 23.6849H44.7342L45.0112 22.9798H46.2964L46.573 23.6849H47.2718L45.9696 20.5181H45.3519L44.0527 23.6849ZM45.2514 22.3702L45.6563 21.3503L46.0617 22.3702H45.2514Z" fill="white"/>
<path fill-rule="evenodd" clip-rule="evenodd" d="M51.917 23.6849H52.5706V21.645L53.4176 22.9771H53.437L54.292 21.6335V23.6849H54.957V20.5413H54.2363L53.437 21.8704L52.6381 20.5413H51.917V23.6849Z" fill="white"/>
<path d="M60.5576 20.5413H59.8896V23.6849H60.5576V20.5413Z" fill="white"/>
<path fill-rule="evenodd" clip-rule="evenodd" d="M65.4893 23.6849H66.1517V21.6855L67.624 23.6849H68.1915V20.5413H67.532V22.4772L66.107 20.5413H65.4893V23.6849Z" fill="white"/>
<path fill-rule="evenodd" clip-rule="evenodd" d="M74.5556 23.7398C75.1112 23.7398 75.5419 23.5145 75.8543 23.2399V21.8762H74.5328V22.4743H75.2062V22.9221C75.0361 23.0492 74.8207 23.1099 74.5775 23.1099C74.0383 23.1099 73.6554 22.6881 73.6554 22.1131V22.1044C73.6554 21.5699 74.0413 21.1249 74.5273 21.1249C74.8794 21.1249 75.0893 21.2405 75.3206 21.4427L75.7429 20.9169C75.427 20.6395 75.0943 20.4863 74.5497 20.4863C73.6305 20.4863 72.957 21.2174 72.957 22.1131V22.1217C72.957 23.0521 73.6106 23.7398 74.5556 23.7398Z" fill="white"/>
</g>
</g>
<defs>
<clipPath id="clip0_8008_521">
<rect width="76" height="34" fill="white"/>
</clipPath>
</defs>
</svg>
