<svg width="144" height="70" viewBox="0 0 144 70" fill="none" xmlns="http://www.w3.org/2000/svg">
<g filter="url(#filter0_d_8008_333)">
<rect x="5" y="3" width="134" height="60" rx="12" fill="url(#paint0_linear_8008_333)" fill-opacity="0.15" shape-rendering="crispEdges"/>
<rect x="5.5" y="3.5" width="133" height="59" rx="11.5" stroke="url(#paint1_linear_8008_333)" shape-rendering="crispEdges"/>
</g>
<mask id="mask0_8008_333" style="mask-type:luminance" maskUnits="userSpaceOnUse" x="31" y="17" width="81" height="33">
<path d="M112 17H31V49.4H112V17Z" fill="white"/>
</mask>
<g mask="url(#mask0_8008_333)">
<path fill-rule="evenodd" clip-rule="evenodd" d="M39.5167 37.6101C38.9675 38.1101 38.1719 38.3603 37.1302 38.3603H33.9684C33.8324 38.3603 33.7221 38.2519 33.7221 38.1183V28.4885C33.7221 28.3548 33.8324 28.2464 33.9684 28.2464H36.904C37.9787 28.2464 38.7955 28.4817 39.3541 28.9515C39.9126 29.4216 40.192 30.1105 40.192 31.018C40.192 31.532 40.0763 31.9744 39.8455 32.3449C39.6515 32.6558 39.3978 32.8964 39.0846 33.0671C39.02 33.1023 39.0268 33.1967 39.0953 33.2233C39.4624 33.3667 39.7525 33.6054 39.9658 33.9389C40.2154 34.3303 40.3405 34.8131 40.3405 35.3872C40.3405 36.3692 40.0658 37.1099 39.5167 37.6101ZM42.8682 25.9102H31.1946C31.0872 25.9102 31 25.9973 31 26.1047V40.5022C31 40.6098 31.0872 40.6968 31.1946 40.6968H42.8682C42.9756 40.6968 43.0628 40.6098 43.0628 40.5022V26.1047C43.0628 25.9973 42.9756 25.9102 42.8682 25.9102ZM37.2647 33.9632H36.0473C35.9113 33.9632 35.801 34.0716 35.801 34.2053V36.4233C35.801 36.5569 35.9113 36.6655 36.0473 36.6655H37.1302C37.5026 36.6655 37.7855 36.5521 37.9787 36.325C38.1719 36.0981 38.2686 35.7762 38.2686 35.3596C38.2686 34.452 37.934 33.9864 37.2647 33.9632ZM36.0473 32.4768H36.8827C37.6981 32.4768 38.1061 32.0624 38.1061 31.2334C38.1061 30.775 38.0118 30.4462 37.8232 30.2469C37.6345 30.0479 37.3281 29.9483 36.904 29.9483H36.0473C35.9113 29.9483 35.801 30.0566 35.801 30.1903V32.2348C35.801 32.3684 35.9113 32.4768 36.0473 32.4768Z" fill="white"/>
<path opacity="0.2" fill-rule="evenodd" clip-rule="evenodd" d="M102.837 25.9426H102.358C102.329 25.9426 102.306 25.9658 102.306 25.9945V40.6773C102.306 40.7061 102.329 40.7293 102.358 40.7293H102.837C102.866 40.7293 102.89 40.7061 102.89 40.6773V25.9945C102.89 25.9658 102.866 25.9426 102.837 25.9426ZM90.7749 25.9426H90.295C90.2662 25.9426 90.2431 25.9658 90.2431 25.9945V40.6773C90.2431 40.7061 90.2662 40.7293 90.295 40.7293H90.7749C90.8033 40.7293 90.8267 40.7061 90.8267 40.6773V25.9945C90.8267 25.9658 90.8033 25.9426 90.7749 25.9426ZM78.712 25.9426H78.2321C78.2033 25.9426 78.1802 25.9658 78.1802 25.9945V40.6773C78.1802 40.7061 78.2033 40.7293 78.2321 40.7293H78.712C78.7407 40.7293 78.7638 40.7061 78.7638 40.6773V25.9945C78.7638 25.9658 78.7407 25.9426 78.712 25.9426ZM66.6492 25.9426H66.1692C66.1406 25.9426 66.1175 25.9658 66.1175 25.9945V40.6773C66.1175 40.7061 66.1406 40.7293 66.1692 40.7293H66.6492C66.6778 40.7293 66.7011 40.7061 66.7011 40.6773V25.9945C66.7011 25.9658 66.6778 25.9426 66.6492 25.9426ZM54.5864 25.9426H54.1064C54.0779 25.9426 54.0547 25.9658 54.0547 25.9945V40.6773C54.0547 40.7061 54.0779 40.7293 54.1064 40.7293H54.5864C54.615 40.7293 54.6384 40.7061 54.6384 40.6773V25.9945C54.6384 25.9658 54.615 25.9426 54.5864 25.9426Z" fill="white"/>
<path fill-rule="evenodd" clip-rule="evenodd" d="M111.821 33.3567H109.037C108.938 33.3567 108.857 33.4361 108.857 33.5339V34.2616C108.857 34.3597 108.938 34.4389 109.037 34.4389H110.54C110.639 34.4389 110.72 34.5184 110.72 34.6163V36.667C110.72 36.7166 110.699 36.7637 110.662 36.7973L110.531 36.916C110.171 37.2456 109.646 37.4102 108.955 37.4102C108.222 37.4102 107.66 37.1404 107.268 36.6002C106.875 36.0603 106.679 35.2846 106.679 34.2735V32.2261C106.694 31.192 106.871 30.4395 107.212 29.9685C107.553 29.4974 108.089 29.2618 108.822 29.2618C109.434 29.2618 109.89 29.4375 110.191 29.7892C110.466 30.1103 110.637 30.5455 110.704 31.0946C110.715 31.1846 110.79 31.2541 110.882 31.2541H111.807C111.912 31.2541 111.997 31.1652 111.987 31.0623C111.905 30.1671 111.607 29.4717 111.095 28.9756C110.546 28.4448 109.786 28.1794 108.815 28.1794C107.676 28.1794 106.821 28.5298 106.249 29.2307C105.677 29.9317 105.391 30.9852 105.391 32.3917V34.3632C105.405 35.6777 105.726 36.6944 106.354 37.4137C106.982 38.133 107.847 38.4925 108.948 38.4925C110.19 38.4925 111.133 38.1227 111.777 37.3826L111.962 37.1555C111.987 37.124 112.001 37.0849 112.001 37.0446V33.5339C112.001 33.4361 111.921 33.3567 111.821 33.3567ZM99.7814 28.3756H98.8734C98.7746 28.3756 98.6944 28.4555 98.6944 28.5542V35.4732C98.6944 35.6603 98.4433 35.7216 98.357 35.5555L94.6768 28.4719C94.646 28.4127 94.5848 28.3756 94.518 28.3756H93.5258C93.4269 28.3756 93.3472 28.4555 93.3472 28.5542V38.3124C93.3472 38.411 93.4269 38.491 93.5258 38.491H94.4479C94.5464 38.491 94.6266 38.411 94.6266 38.3124V31.4273C94.6266 31.2403 94.8777 31.179 94.9643 31.345L98.6304 38.3947C98.6616 38.4538 98.7223 38.491 98.7891 38.491H99.7814C99.8802 38.491 99.96 38.411 99.96 38.3124V28.5542C99.96 28.4555 99.8802 28.3756 99.7814 28.3756ZM85.022 28.3756H84.0593C83.9552 28.3756 83.871 28.4555 83.871 28.5542V38.3124C83.871 38.411 83.9552 38.491 84.0593 38.491H85.022C85.1261 38.491 85.2103 38.411 85.2103 38.3124V28.5542C85.2103 28.4555 85.1261 28.3756 85.022 28.3756ZM76.6304 28.3756H75.3C75.2222 28.3756 75.1533 28.4258 75.1298 28.4999L72.6998 36.0969C72.6468 36.2627 72.4123 36.2627 72.3592 36.0969L69.9294 28.4999C69.9057 28.4258 69.8368 28.3756 69.7591 28.3756H68.4288C68.3299 28.3756 68.25 28.4555 68.25 28.5542V38.3124C68.25 38.411 68.3299 38.491 68.4288 38.491H69.3426C69.4415 38.491 69.5214 38.411 69.5214 38.3124V34.5519L69.4259 31.3833C69.422 31.256 69.6012 31.224 69.6417 31.3448L71.9956 38.369C72.0199 38.4419 72.0879 38.491 72.1648 38.491H72.8805C72.957 38.491 73.0255 38.4419 73.0498 38.3692L75.4178 31.3152C75.4583 31.1944 75.6373 31.2263 75.6333 31.3537L75.5377 34.5519V38.3124C75.5377 38.411 75.6175 38.491 75.7163 38.491H76.6304C76.7288 38.491 76.809 38.411 76.809 38.3124V28.5542C76.809 28.4555 76.7288 28.3756 76.6304 28.3756ZM61.6927 34.7533H59.4009C59.2805 34.7533 59.1941 34.6379 59.2287 34.5235L60.3716 30.7251C60.4228 30.5553 60.6646 30.5551 60.716 30.7247L61.8646 34.5231C61.8995 34.6377 61.8131 34.7533 61.6927 34.7533ZM61.1358 28.4993C61.1117 28.4256 61.0427 28.3756 60.9646 28.3756H60.1292C60.0511 28.3756 59.9821 28.4256 59.9581 28.4995L56.7957 38.2575C56.7584 38.3729 56.845 38.491 56.967 38.491H57.8999C57.9797 38.491 58.0497 38.439 58.0723 38.3632L58.7859 35.9718C58.8085 35.8959 58.8785 35.844 58.9581 35.844H62.1293C62.2084 35.844 62.2785 35.8955 62.3014 35.971L63.0279 38.3639C63.0509 38.4394 63.1207 38.491 63.2001 38.491H64.1336C64.2556 38.491 64.3422 38.3729 64.3046 38.2573L61.1358 28.4993ZM51.5074 33.3567H48.7234C48.624 33.3567 48.5435 33.4361 48.5435 33.5339V34.2616C48.5435 34.3597 48.624 34.4389 48.7234 34.4389H50.226C50.3254 34.4389 50.406 34.5184 50.406 34.6163V36.667C50.406 36.7164 50.385 36.7637 50.348 36.7973L50.2169 36.916C49.8575 37.2456 49.3322 37.4102 48.6415 37.4102C47.9084 37.4102 47.3459 37.1404 46.9539 36.6002C46.5616 36.0603 46.3655 35.2846 46.3655 34.2735V32.2261C46.3797 31.192 46.557 30.4395 46.8979 29.9685C47.2385 29.4974 47.7753 29.2618 48.5082 29.2618C49.1199 29.2618 49.5762 29.4375 49.8774 29.7892C50.1523 30.1103 50.3231 30.5455 50.3898 31.0946C50.4008 31.1846 50.476 31.2541 50.5681 31.2541H51.4928C51.5977 31.2541 51.6827 31.1652 51.6732 31.0623C51.5907 30.1671 51.293 29.4717 50.7807 28.9756C50.232 28.4448 49.4723 28.1794 48.5014 28.1794C47.3623 28.1794 46.5068 28.5298 45.935 29.2307C45.363 29.9317 45.0771 30.9852 45.0771 32.3917V34.3632C45.0912 35.6777 45.412 36.6944 46.04 37.4137C46.6677 38.133 47.5325 38.4925 48.6343 38.4925C49.8762 38.4925 50.819 38.1227 51.4634 37.3826L51.6481 37.1553C51.6735 37.124 51.6874 37.0849 51.6874 37.0448V33.5339C51.6874 33.4361 51.6068 33.3567 51.5074 33.3567Z" fill="white"/>
</g>
<defs>
<filter id="filter0_d_8008_333" x="0" y="0" width="144" height="70" filterUnits="userSpaceOnUse" color-interpolation-filters="sRGB">
<feFlood flood-opacity="0" result="BackgroundImageFix"/>
<feColorMatrix in="SourceAlpha" type="matrix" values="0 0 0 0 0 0 0 0 0 0 0 0 0 0 0 0 0 0 127 0" result="hardAlpha"/>
<feMorphology radius="1" operator="dilate" in="SourceAlpha" result="effect1_dropShadow_8008_333"/>
<feOffset dy="2"/>
<feGaussianBlur stdDeviation="2"/>
<feComposite in2="hardAlpha" operator="out"/>
<feColorMatrix type="matrix" values="0 0 0 0 0 0 0 0 0 0 0 0 0 0 0 0 0 0 0.25 0"/>
<feBlend mode="normal" in2="BackgroundImageFix" result="effect1_dropShadow_8008_333"/>
<feBlend mode="normal" in="SourceGraphic" in2="effect1_dropShadow_8008_333" result="shape"/>
</filter>
<linearGradient id="paint0_linear_8008_333" x1="72" y1="63" x2="72" y2="3.00001" gradientUnits="userSpaceOnUse">
<stop stop-color="#1E1E1E"/>
<stop offset="1" stop-color="#4B4B4B"/>
</linearGradient>
<linearGradient id="paint1_linear_8008_333" x1="14.3874" y1="2.99999" x2="29.0477" y2="78.3758" gradientUnits="userSpaceOnUse">
<stop stop-color="white" stop-opacity="0.4"/>
<stop offset="0.405687" stop-color="white" stop-opacity="0.01"/>
<stop offset="0.574372" stop-color="white" stop-opacity="0.01"/>
<stop offset="1" stop-color="white" stop-opacity="0.1"/>
</linearGradient>
</defs>
</svg>
