<svg width="81" height="33" viewBox="0 0 81 33" fill="none" xmlns="http://www.w3.org/2000/svg">
<mask id="mask0_8008_331" style="mask-type:luminance" maskUnits="userSpaceOnUse" x="0" y="0" width="81" height="33">
<path d="M81 0H0V32.4H81V0Z" fill="white"/>
</mask>
<g mask="url(#mask0_8008_331)">
<path fill-rule="evenodd" clip-rule="evenodd" d="M8.51671 20.6101C7.96748 21.1101 7.1719 21.3603 6.13024 21.3603H2.96842C2.83242 21.3603 2.7221 21.2519 2.7221 21.1183V11.4885C2.7221 11.3548 2.83242 11.2464 2.96842 11.2464H5.90397C6.97872 11.2464 7.79548 11.4817 8.35406 11.9515C8.91263 12.4216 9.19204 13.1105 9.19204 14.018C9.19204 14.532 9.07625 14.9744 8.84552 15.3449C8.65153 15.6558 8.39784 15.8964 8.08461 16.0671C8.02001 16.1023 8.02682 16.1967 8.0953 16.2233C8.46243 16.3667 8.75254 16.6054 8.96577 16.9389C9.21537 17.3303 9.34048 17.8131 9.34048 18.3872C9.34048 19.3692 9.06576 20.1099 8.51671 20.6101ZM11.8682 8.91016H0.194561C0.0871633 8.91016 0 8.99731 0 9.10472V23.5022C0 23.6098 0.0871633 23.6968 0.194561 23.6968H11.8682C11.9756 23.6968 12.0628 23.6098 12.0628 23.5022V9.10472C12.0628 8.99731 11.9756 8.91016 11.8682 8.91016ZM6.26466 16.9632H5.04731C4.91131 16.9632 4.80099 17.0716 4.80099 17.2053V19.4233C4.80099 19.5569 4.91131 19.6655 5.04731 19.6655H6.13024C6.5026 19.6655 6.78549 19.5521 6.97872 19.325C7.1719 19.0981 7.26862 18.7762 7.26862 18.3596C7.26862 17.452 6.93397 16.9864 6.26466 16.9632ZM5.04731 15.4768H5.88275C6.69813 15.4768 7.10613 15.0624 7.10613 14.2334C7.10613 13.775 7.01177 13.4462 6.82324 13.2469C6.63455 13.0479 6.32808 12.9483 5.90397 12.9483H5.04731C4.91131 12.9483 4.80099 13.0566 4.80099 13.1903V15.2348C4.80099 15.3684 4.91131 15.4768 5.04731 15.4768Z" fill="white"/>
<path opacity="0.2" fill-rule="evenodd" clip-rule="evenodd" d="M71.8374 8.94263H71.3575C71.3292 8.94263 71.3057 8.96575 71.3057 8.99455V23.6773C71.3057 23.7061 71.3292 23.7293 71.3575 23.7293H71.8374C71.8662 23.7293 71.8897 23.7061 71.8897 23.6773V8.99455C71.8897 8.96575 71.8662 8.94263 71.8374 8.94263ZM59.7749 8.94263H59.295C59.2662 8.94263 59.2431 8.96575 59.2431 8.99455V23.6773C59.2431 23.7061 59.2662 23.7293 59.295 23.7293H59.7749C59.8033 23.7293 59.8267 23.7061 59.8267 23.6773V8.99455C59.8267 8.96575 59.8033 8.94263 59.7749 8.94263ZM47.712 8.94263H47.2321C47.2033 8.94263 47.1802 8.96575 47.1802 8.99455V23.6773C47.1802 23.7061 47.2033 23.7293 47.2321 23.7293H47.712C47.7407 23.7293 47.7638 23.7061 47.7638 23.6773V8.99455C47.7638 8.96575 47.7407 8.94263 47.712 8.94263ZM35.6492 8.94263H35.1692C35.1406 8.94263 35.1175 8.96575 35.1175 8.99455V23.6773C35.1175 23.7061 35.1406 23.7293 35.1692 23.7293H35.6492C35.6778 23.7293 35.7011 23.7061 35.7011 23.6773V8.99455C35.7011 8.96575 35.6778 8.94263 35.6492 8.94263ZM23.5864 8.94263H23.1064C23.0779 8.94263 23.0547 8.96575 23.0547 8.99455V23.6773C23.0547 23.7061 23.0779 23.7293 23.1064 23.7293H23.5864C23.615 23.7293 23.6384 23.7061 23.6384 23.6773V8.99455C23.6384 8.96575 23.615 8.94263 23.5864 8.94263Z" fill="white"/>
<path fill-rule="evenodd" clip-rule="evenodd" d="M80.8212 16.3567H78.0373C77.938 16.3567 77.8574 16.4361 77.8574 16.5339V17.2616C77.8574 17.3597 77.938 17.4389 78.0373 17.4389H79.5398C79.6394 17.4389 79.72 17.5184 79.72 17.6163V19.667C79.72 19.7166 79.699 19.7637 79.6621 19.7973L79.5309 19.916C79.1713 20.2456 78.646 20.4102 77.9555 20.4102C77.2224 20.4102 76.6599 20.1404 76.2678 19.6002C75.8754 19.0603 75.6794 18.2846 75.6794 17.2735V15.2261C75.6935 14.192 75.8709 13.4395 76.2119 12.9685C76.5525 12.4974 77.0892 12.2618 77.8222 12.2618C78.4338 12.2618 78.8902 12.4375 79.1911 12.7892C79.4661 13.1103 79.637 13.5455 79.7038 14.0946C79.7148 14.1846 79.7901 14.2541 79.882 14.2541H80.8067C80.912 14.2541 80.9966 14.1652 80.9873 14.0623C80.9047 13.1671 80.607 12.4717 80.0947 11.9756C79.5459 11.4448 78.7861 11.1794 77.8153 11.1794C76.6761 11.1794 75.8207 11.5298 75.2488 12.2307C74.677 12.9317 74.391 13.9852 74.391 15.3917V17.3632C74.4052 18.6777 74.726 19.6944 75.3541 20.4137C75.9819 21.133 76.8466 21.4925 77.9482 21.4925C79.1903 21.4925 80.1331 21.1227 80.7775 20.3826L80.9622 20.1555C80.9873 20.124 81.0015 20.0849 81.0015 20.0446V16.5339C81.0015 16.4361 80.9209 16.3567 80.8212 16.3567ZM68.7814 11.3756H67.8734C67.7746 11.3756 67.6944 11.4555 67.6944 11.5542V18.4732C67.6944 18.6603 67.4433 18.7216 67.357 18.5555L63.6768 11.4719C63.646 11.4127 63.5848 11.3756 63.518 11.3756H62.5258C62.4269 11.3756 62.3472 11.4555 62.3472 11.5542V21.3124C62.3472 21.411 62.4269 21.491 62.5258 21.491H63.4479C63.5464 21.491 63.6266 21.411 63.6266 21.3124V14.4273C63.6266 14.2403 63.8777 14.179 63.9643 14.345L67.6304 21.3947C67.6616 21.4538 67.7223 21.491 67.7891 21.491H68.7814C68.8802 21.491 68.96 21.411 68.96 21.3124V11.5542C68.96 11.4555 68.8802 11.3756 68.7814 11.3756ZM54.022 11.3756H53.0593C52.9552 11.3756 52.871 11.4555 52.871 11.5542V21.3124C52.871 21.411 52.9552 21.491 53.0593 21.491H54.022C54.1261 21.491 54.2103 21.411 54.2103 21.3124V11.5542C54.2103 11.4555 54.1261 11.3756 54.022 11.3756ZM45.6304 11.3756H44.3C44.2222 11.3756 44.1533 11.4258 44.1298 11.4999L41.6998 19.0969C41.6468 19.2627 41.4123 19.2627 41.3592 19.0969L38.9294 11.4999C38.9057 11.4258 38.8368 11.3756 38.7591 11.3756H37.4288C37.3299 11.3756 37.25 11.4555 37.25 11.5542V21.3124C37.25 21.411 37.3299 21.491 37.4288 21.491H38.3426C38.4415 21.491 38.5214 21.411 38.5214 21.3124V17.5519L38.4259 14.3833C38.422 14.256 38.6012 14.224 38.6417 14.3448L40.9956 21.369C41.0199 21.4419 41.0879 21.491 41.1648 21.491H41.8805C41.957 21.491 42.0255 21.4419 42.0498 21.3692L44.4178 14.3152C44.4583 14.1944 44.6373 14.2263 44.6333 14.3537L44.5377 17.5519V21.3124C44.5377 21.411 44.6175 21.491 44.7163 21.491H45.6304C45.7288 21.491 45.809 21.411 45.809 21.3124V11.5542C45.809 11.4555 45.7288 11.3756 45.6304 11.3756ZM30.6927 17.7533H28.4009C28.2805 17.7533 28.1941 17.6379 28.2287 17.5235L29.3716 13.7251C29.4228 13.5553 29.6646 13.5551 29.716 13.7247L30.8646 17.5231C30.8995 17.6377 30.8131 17.7533 30.6927 17.7533ZM30.1358 11.4993C30.1117 11.4256 30.0427 11.3756 29.9646 11.3756H29.1292C29.0511 11.3756 28.9821 11.4256 28.9581 11.4995L25.7957 21.2575C25.7584 21.3729 25.845 21.491 25.967 21.491H26.8999C26.9797 21.491 27.0497 21.439 27.0723 21.3632L27.7859 18.9718C27.8085 18.8959 27.8785 18.844 27.9581 18.844H31.1293C31.2084 18.844 31.2785 18.8955 31.3014 18.971L32.0279 21.3639C32.0509 21.4394 32.1207 21.491 32.2001 21.491H33.1336C33.2556 21.491 33.3422 21.3729 33.3046 21.2573L30.1358 11.4993ZM20.5074 16.3567H17.7234C17.624 16.3567 17.5435 16.4361 17.5435 16.5339V17.2616C17.5435 17.3597 17.624 17.4389 17.7234 17.4389H19.226C19.3254 17.4389 19.406 17.5184 19.406 17.6163V19.667C19.406 19.7164 19.385 19.7637 19.348 19.7973L19.2169 19.916C18.8575 20.2456 18.3322 20.4102 17.6415 20.4102C16.9084 20.4102 16.3459 20.1404 15.9539 19.6002C15.5616 19.0603 15.3655 18.2846 15.3655 17.2735V15.2261C15.3797 14.192 15.557 13.4395 15.8979 12.9685C16.2385 12.4974 16.7753 12.2618 17.5082 12.2618C18.1199 12.2618 18.5762 12.4375 18.8774 12.7892C19.1523 13.1103 19.3231 13.5455 19.3898 14.0946C19.4008 14.1846 19.476 14.2541 19.5681 14.2541H20.4928C20.5977 14.2541 20.6827 14.1652 20.6732 14.0623C20.5907 13.1671 20.293 12.4717 19.7807 11.9756C19.232 11.4448 18.4723 11.1794 17.5014 11.1794C16.3623 11.1794 15.5068 11.5298 14.935 12.2307C14.363 12.9317 14.0771 13.9852 14.0771 15.3917V17.3632C14.0912 18.6777 14.412 19.6944 15.04 20.4137C15.6677 21.133 16.5325 21.4925 17.6343 21.4925C18.8762 21.4925 19.819 21.1227 20.4634 20.3826L20.6481 20.1553C20.6735 20.124 20.6874 20.0849 20.6874 20.0448V16.5339C20.6874 16.4361 20.6068 16.3567 20.5074 16.3567Z" fill="white"/>
</g>
</svg>
