<svg width="104" height="52" viewBox="0 0 104 52" fill="none" xmlns="http://www.w3.org/2000/svg">
<mask id="mask0_8008_440" style="mask-type:luminance" maskUnits="userSpaceOnUse" x="11" y="6" width="82" height="41">
<path d="M93 6H11V47H93V6Z" fill="white"/>
</mask>
<g mask="url(#mask0_8008_440)">
<path fill-rule="evenodd" clip-rule="evenodd" d="M40.5765 16.1066C40.5765 16.1066 36.0947 9.58765 26.0446 9.58765C17.76 9.58765 11.5127 14.2053 11.5127 16.9215C11.5127 20.0452 17.76 21.6749 17.76 26.5642H28.4892C28.4892 23.7121 19.1181 22.2182 19.1181 16.1066C19.1181 10.5383 33.65 10.9458 40.5765 16.1066Z" fill="url(#paint0_linear_8008_440)"/>
<path fill-rule="evenodd" clip-rule="evenodd" d="M40.5765 37.0217C40.5765 37.0217 36.0947 43.5407 26.0446 43.5407C17.76 43.5407 11.5127 38.9231 11.5127 36.2068C11.5127 33.0832 17.76 31.3176 17.76 26.5642H28.4892C28.4892 29.4163 19.1181 30.9102 19.1181 37.0217C19.1181 42.59 33.65 42.1826 40.5765 37.0217Z" fill="url(#paint1_linear_8008_440)"/>
<path fill-rule="evenodd" clip-rule="evenodd" d="M11.6485 15.9707C11.5127 16.3781 11.5127 16.6498 11.5127 16.9214C11.5127 20.045 17.76 21.6748 17.76 26.564C17.76 31.3175 11.5127 33.083 11.5127 36.2067C11.5127 36.4783 11.5127 36.7499 11.6485 37.0215C10.8336 34.0337 21.6986 31.4533 26.7236 28.737C27.8101 28.058 28.4892 27.3789 28.4892 26.564C28.4892 25.7492 27.8101 25.0701 26.7236 24.391C21.6986 21.6748 10.8336 19.0944 11.6485 15.9707Z" fill="url(#paint2_linear_8008_440)"/>
<path d="M71.5172 21.5098C71.8477 21.7153 72.2844 21.6455 72.6549 21.7063C72.8348 21.7748 72.9604 21.9387 73.0137 22.1204C73.0623 22.293 73.0767 22.4731 73.0757 22.6521C73.0746 23.1109 73.0757 23.5697 73.0757 24.0284C73.521 23.882 74.0012 23.8401 74.4681 23.8373C74.792 23.833 75.12 23.8159 75.4352 23.9012C75.5987 23.9391 75.7478 23.9992 75.8934 24.0818C76.0646 24.1749 76.2465 24.2915 76.3675 24.447C76.6191 24.7848 76.7518 25.1899 76.7867 25.6078C76.7729 26.9355 76.7877 28.2736 76.779 29.6026C76.5586 29.6231 76.3347 29.6325 76.1143 29.6154C75.8493 29.5821 75.5946 29.5032 75.4204 29.2896C75.2256 29.0636 75.2128 28.7465 75.2205 28.4626C75.2118 27.671 75.2507 26.8683 75.1759 26.0857C75.1518 25.9148 75.1359 25.7119 75.0493 25.5594C74.9622 25.426 74.7849 25.3504 74.6352 25.3132C74.1099 25.1929 73.58 25.2578 73.0757 25.4355C73.0746 26.4222 73.0757 27.4087 73.0752 28.3955C73.0716 28.6175 73.0982 28.8177 73.028 29.033C72.9814 29.2063 72.8778 29.3473 72.7159 29.4286C72.3387 29.6181 71.9256 29.6053 71.5156 29.5956C71.5182 26.9005 71.5151 24.2052 71.5172 21.5098Z" fill="white"/>
<path d="M79.1129 21.6997C79.3855 21.6473 79.6643 21.7195 79.8688 21.908C80.0805 22.1149 80.1691 22.4269 80.0979 22.7144C80.0149 23.0721 79.6659 23.3508 79.2974 23.3428C78.8428 23.3646 78.4236 22.9334 78.4559 22.4789C78.4656 22.1078 78.7505 21.7739 79.1129 21.6997Z" fill="white"/>
<path d="M78.4961 23.6006C78.5873 23.6513 78.676 23.6993 78.7795 23.7215C79.0311 23.7685 79.2746 23.7692 79.5262 23.782C79.6861 23.789 79.8199 23.8938 79.9065 24.0218C80.0285 24.2001 80.0505 24.4517 80.0582 24.6623C80.0602 25.9611 80.0561 27.2606 80.0597 28.5594C80.0608 28.7256 80.0264 28.8973 79.9516 29.0461C79.8681 29.2036 79.7225 29.2936 79.559 29.3521C79.2192 29.4686 78.8528 29.4777 78.4971 29.4562C78.4966 27.5044 78.4987 25.5523 78.4961 23.6006Z" fill="white"/>
<path d="M40.5604 23.7107C41.0757 23.6932 41.5815 23.7117 42.089 23.8094C42.5612 23.9126 43.0197 24.0882 43.3552 24.45C43.6551 24.7694 43.7965 25.2362 43.8009 25.6675C43.8003 26.9411 43.8019 28.2151 43.8003 29.4887C43.4701 29.4887 43.11 29.5105 42.794 29.4041C42.6439 29.356 42.5068 29.2879 42.4098 29.1592C42.2972 29.0081 42.2425 28.8103 42.2368 28.6235C42.2398 27.6952 42.2364 26.7638 42.2388 25.8354C42.2475 25.6309 42.1323 25.422 41.9677 25.3041C41.7414 25.1355 41.4038 25.1083 41.1314 25.1187C40.7741 25.1368 40.416 25.1859 40.0664 25.2614C40.0788 25.3968 40.0973 25.5331 40.0976 25.6675C40.0969 26.5518 40.0976 27.4365 40.0973 28.3209C40.0949 28.517 40.1171 28.6957 40.0549 28.8865C40.0029 29.0739 39.8968 29.2375 39.7214 29.3292C39.3456 29.5193 38.9408 29.489 38.5327 29.4884C38.5314 27.8564 38.5334 26.2247 38.5318 24.5927C38.5348 24.4634 38.5136 24.3499 38.5906 24.236C38.7017 24.0496 38.9294 23.9703 39.1232 23.9005C39.576 23.7634 40.0912 23.7359 40.5604 23.7107Z" fill="white"/>
<path d="M61.0834 23.7068C61.7182 23.7028 62.3531 23.7075 62.9875 23.7048C63.0173 23.9567 63.0219 24.2093 62.9711 24.4592C62.9389 24.6161 62.8953 24.8021 62.7815 24.921C62.6457 25.0715 62.4561 25.1276 62.2598 25.1437C61.9483 25.1628 61.5808 25.1303 61.2819 25.2267C61.072 25.2975 60.8899 25.4289 60.8204 25.6479C60.7489 25.9035 60.7422 26.1839 60.7442 26.4479C60.7448 27.5066 60.7438 28.5652 60.7448 29.6239C60.4308 29.4126 60.0973 29.3814 59.7399 29.2968C59.5586 29.2598 59.4155 29.1416 59.3104 28.9935C59.2153 28.8541 59.1874 28.6633 59.1844 28.4977C59.1841 27.6245 59.1844 26.7505 59.1841 25.8769C59.18 25.5474 59.1999 25.1897 59.311 24.877C59.449 24.5177 59.6788 24.1999 60.0093 23.9947C60.3381 23.8123 60.7062 23.7072 61.0834 23.7068Z" fill="white"/>
<path d="M84.2329 23.6849C84.6337 23.7084 85.0237 23.744 85.4086 23.8643C85.8591 23.9996 86.2829 24.2421 86.5376 24.6495C86.7283 24.9639 86.819 25.3428 86.8093 25.7092C86.8082 26.9603 86.8093 28.2118 86.8093 29.4629C86.4069 29.4636 86.0072 29.4931 85.6356 29.3104C85.3825 29.1929 85.2636 28.8956 85.2487 28.6319C85.2507 27.6895 85.2482 26.7464 85.2502 25.81C85.2574 25.5376 85.0688 25.2914 84.8223 25.1896C84.5471 25.0784 84.255 25.0811 83.9633 25.1033C83.6646 25.1325 83.3678 25.1708 83.0747 25.2366C83.089 25.3492 83.1039 25.4606 83.1039 25.5742C83.1059 26.5906 83.1023 27.616 83.1059 28.6313C83.0885 28.8933 82.9752 29.1828 82.7267 29.3057C82.3582 29.4928 81.9415 29.4656 81.5403 29.4616C81.5382 27.7852 81.5402 26.1089 81.5392 24.4326C81.5346 24.268 81.6325 24.1353 81.7616 24.0443C81.9103 23.9489 82.083 23.8865 82.2531 23.8404C82.6042 23.7575 82.9665 23.7148 83.3268 23.7004C83.6282 23.6755 83.9316 23.6768 84.2329 23.6849Z" fill="white"/>
<path fill-rule="evenodd" clip-rule="evenodd" d="M36.5617 24.3833C36.291 24.0834 35.93 23.9286 35.5444 23.8339C35.0866 23.7338 34.6016 23.7183 34.1351 23.7475C33.6689 23.7812 33.2091 23.8554 32.7916 24.0777C32.4655 24.2493 32.1773 24.467 31.9976 24.7962C31.6836 25.3466 31.6036 26.0469 31.613 26.6703C31.6254 27.2813 31.7111 27.9459 32.0349 28.4773C32.2824 28.8904 32.6831 29.1574 33.1278 29.3213C33.7673 29.5571 34.5055 29.5954 35.1813 29.5709C35.5393 29.547 35.9455 29.5037 36.2676 29.3345C36.509 29.2092 36.6565 28.9821 36.7324 28.7265C36.8033 28.4649 36.8254 28.1945 36.81 27.9241C36.7153 27.9364 36.6209 27.9489 36.5265 27.9614C36.0009 28.0309 35.4782 28.1 34.9462 28.1277C34.8936 28.1283 34.8404 28.1294 34.787 28.1305C34.4684 28.1373 34.1382 28.1443 33.8388 28.0474C33.6974 28.0047 33.556 27.9342 33.4486 27.8318C33.3538 27.7367 33.3333 27.6205 33.3112 27.4936C33.7757 27.3101 34.3165 27.283 34.8119 27.2665C34.8371 27.2671 34.8623 27.2677 34.8875 27.2684C35.2144 27.2765 35.532 27.2844 35.8595 27.2326C35.8774 27.2298 35.8955 27.227 35.9137 27.2242C36.1178 27.193 36.3382 27.1594 36.5234 27.0731C36.7455 26.9722 36.9023 26.7529 36.9839 26.5292C37.0749 26.271 37.0619 25.9613 37.0485 25.6909C37.0018 25.2244 36.8899 24.737 36.5617 24.3833ZM35.0471 25.157C34.7602 25.0323 34.4469 25.0028 34.1389 25.0495C33.852 25.1093 33.582 25.2201 33.409 25.4686C33.2226 25.7508 33.2253 26.0732 33.2639 26.397C33.5031 26.2737 33.7537 26.2483 34.0164 26.2216C34.0241 26.2209 34.0318 26.2201 34.0395 26.2193C34.1466 26.2133 34.2535 26.2067 34.3604 26.2001C34.4997 26.1915 34.6391 26.1829 34.7787 26.1757C34.9722 26.1491 35.1898 26.0873 35.339 25.9547C35.4639 25.8488 35.5009 25.6651 35.4612 25.5113C35.3974 25.3249 35.2157 25.2312 35.0471 25.157Z" fill="white"/>
<path fill-rule="evenodd" clip-rule="evenodd" d="M50.0052 21.6762C49.7622 21.6658 49.5263 21.6557 49.2894 21.5098C49.2898 21.8908 49.2897 22.2719 49.2897 22.6529C49.2896 23.1103 49.2896 23.5675 49.2901 24.0248C48.8975 23.7799 48.4155 23.7779 47.9681 23.7873C47.2836 23.8041 46.6149 24.0315 46.1054 24.4967C45.7232 24.8497 45.5015 25.3189 45.396 25.8227C45.306 26.2274 45.3154 26.6211 45.3362 27.0322C45.3682 27.5219 45.4672 28.0505 45.7114 28.4815C45.9344 28.8815 46.3056 29.1764 46.7321 29.3352C47.0677 29.4706 47.4412 29.5294 47.7999 29.563C48.477 29.5956 49.1695 29.5814 49.8329 29.4286C50.1631 29.3403 50.5305 29.1771 50.7448 28.9003C50.7551 28.8861 50.7671 28.8722 50.7792 28.8581C50.8166 28.8149 50.8551 28.7704 50.8492 28.7115C50.8496 27.7036 50.8495 26.6957 50.8494 25.6878C50.8493 24.6801 50.8492 23.6725 50.8496 22.6648C50.8489 22.469 50.8425 22.253 50.7774 22.067C50.7129 21.8953 50.5923 21.7493 50.4042 21.7143C50.2684 21.6874 50.1358 21.6818 50.0052 21.6762ZM49.2927 25.2296C48.8927 25.0966 48.3882 25.0593 47.9748 25.1375C47.6903 25.2095 47.3944 25.3663 47.2174 25.6064C47.0014 25.9178 46.9262 26.3226 46.9218 26.695C46.9245 27.0275 47.0041 27.3903 47.2033 27.6627C47.3279 27.834 47.5019 27.9592 47.7017 28.0284C47.961 28.1185 48.231 28.1719 48.5061 28.1608C48.7684 28.1514 49.0395 28.1319 49.2927 28.059C49.2992 27.8806 49.298 27.7025 49.2967 27.5243C49.2963 27.4606 49.2959 27.3969 49.2958 27.3332C49.2894 26.6322 49.2884 25.9309 49.2927 25.2296Z" fill="white"/>
<path fill-rule="evenodd" clip-rule="evenodd" d="M67.886 23.8111C67.3909 23.6952 66.8881 23.6686 66.3813 23.6834C65.9969 23.7026 65.6171 23.7335 65.2394 23.81C64.9253 23.8779 64.6285 24.0022 64.3769 24.2047C64.3021 24.2664 64.2385 24.3466 64.176 24.4247C64.1575 24.4482 64.1391 24.4714 64.1201 24.4939C64.1206 26.0401 64.1206 27.5862 64.1206 29.1325C64.1206 29.6475 64.1206 30.1626 64.1206 30.6776C64.1283 30.8953 64.1493 31.1505 64.281 31.3329C64.363 31.4484 64.4855 31.5593 64.6347 31.5664C64.7203 31.5726 64.8043 31.575 64.8863 31.5773C65.1641 31.5851 65.4244 31.5924 65.6843 31.7494C65.6848 31.434 65.6848 31.1188 65.6848 30.8034C65.6843 30.316 65.6843 29.8286 65.6858 29.3412C66.0984 29.4588 66.5263 29.4906 66.9532 29.4802C67.5995 29.4527 68.2273 29.2727 68.747 28.8794C69.1431 28.5999 69.3902 28.1267 69.5229 27.6709C69.6879 27.0764 69.6741 26.4144 69.59 25.8078C69.5173 25.3198 69.3497 24.7928 69.0068 24.4254C68.7116 24.0999 68.3042 23.9212 67.886 23.8111ZM67.4309 25.294C67.1823 25.166 66.8943 25.1096 66.6175 25.0905C66.3085 25.0951 65.9933 25.1308 65.6909 25.1946C65.6663 25.3623 65.672 25.5276 65.6781 25.6938C65.6817 25.7873 65.6848 25.881 65.6827 25.9755C65.6863 26.5137 65.6858 27.052 65.6858 27.5901C65.6858 27.7397 65.6853 27.8892 65.6853 28.0387C65.9887 28.1213 66.3034 28.1687 66.617 28.1744C66.9968 28.1812 67.3678 28.0287 67.6543 27.7848C67.8521 27.5843 67.9639 27.2894 68.012 27.016C68.0694 26.6365 68.0735 26.2402 67.9239 25.8801C67.8158 25.6383 67.6717 25.4196 67.4309 25.294Z" fill="white"/>
<path fill-rule="evenodd" clip-rule="evenodd" d="M56.4594 23.9216C56.0453 23.7836 55.6127 23.7057 55.1754 23.7066C54.6172 23.6939 54.0616 23.7449 53.5464 23.9737C53.1659 24.1204 52.8367 24.3777 52.5939 24.7039C52.3816 25.0092 52.2157 25.3397 52.1502 25.7085C52.147 25.727 52.1437 25.7457 52.1405 25.7644C52.098 26.0099 52.0533 26.2677 52.0733 26.5142C52.1196 27.0358 52.1797 27.542 52.3426 28.0428C52.4978 28.4956 52.8444 28.8711 53.2589 29.1018C53.6868 29.3151 54.1913 29.3984 54.6635 29.4423C54.6985 29.4437 54.7334 29.4451 54.768 29.4464C55.1671 29.4621 55.5508 29.4772 55.9479 29.4031C56.1662 29.3712 56.3735 29.3016 56.579 29.223C57.0798 29.037 57.4728 28.6457 57.6974 28.1647C57.8442 27.8559 57.8879 27.5407 57.9341 27.2078C57.9354 27.1985 57.9366 27.1892 57.9379 27.1799C57.9504 27.0774 57.9519 26.9757 57.9534 26.8737C57.9541 26.8323 57.9547 26.7909 57.9561 26.7493C57.9572 26.7226 57.9585 26.696 57.9597 26.6693C57.9654 26.5505 57.9711 26.4324 57.9614 26.313C57.9559 26.2503 57.9515 26.1883 57.9473 26.1266C57.9344 25.9404 57.9218 25.7578 57.8741 25.5721C57.7656 25.1664 57.6199 24.7771 57.3098 24.4802C57.0744 24.2296 56.7815 24.0405 56.4594 23.9216ZM55.6835 25.2062C55.3701 25.091 55.0158 25.0919 54.6887 25.1309C54.4159 25.1739 54.1039 25.2797 53.9115 25.4859C53.7143 25.714 53.633 26.0512 53.6256 26.3461C53.6206 26.6292 53.6407 26.9111 53.7092 27.1865C53.7549 27.4112 53.8685 27.6295 54.0344 27.7884C54.247 27.9734 54.5331 28.0282 54.8055 28.053C55.1989 28.0916 55.6086 28.0775 55.9542 27.8646C56.186 27.7406 56.314 27.4961 56.3908 27.255C56.4607 27.0503 56.4583 26.85 56.4557 26.6412C56.4551 26.5992 56.4546 26.5569 56.4547 26.514C56.4489 26.2084 56.3902 25.9152 56.2373 25.6482C56.098 25.4544 55.9153 25.2807 55.6835 25.2062Z" fill="white"/>
<path fill-rule="evenodd" clip-rule="evenodd" d="M90.3846 23.7132C90.1622 23.707 89.9402 23.7009 89.7173 23.7081C89.6558 23.7098 89.5928 23.7096 89.5297 23.7093C89.357 23.7086 89.1807 23.708 89.0182 23.747C88.7461 23.8102 88.4991 23.9355 88.352 24.1823C88.19 24.4611 88.126 24.8443 88.1819 25.1604C88.5724 25.0233 89.0044 24.9753 89.4149 24.9343C89.8941 24.9018 90.3953 24.9135 90.8658 25.018C91.0267 25.0566 91.2179 25.115 91.3368 25.236C91.4373 25.3344 91.47 25.4922 91.405 25.6192C91.3435 25.7536 91.1943 25.8116 91.0642 25.8567C90.6967 25.9505 90.3395 25.9557 89.9843 25.9609C89.5964 25.9664 89.211 25.972 88.8174 26.0934C88.4417 26.2221 88.0845 26.4619 87.9251 26.8384C87.7652 27.2307 87.7186 27.6784 87.7508 28.0986C87.7795 28.3703 87.8692 28.6514 88.0409 28.8678C88.1701 29.0458 88.3776 29.1754 88.5688 29.2788C88.7594 29.3806 88.9578 29.4097 89.1664 29.4404C89.1817 29.4426 89.1971 29.4448 89.2125 29.4471C89.378 29.4693 89.5477 29.4675 89.7168 29.4657C89.7957 29.4648 89.8746 29.464 89.9525 29.4656C90.0873 29.4642 90.2226 29.4649 90.3579 29.4656C90.6265 29.467 90.895 29.4685 91.1626 29.4528C91.3988 29.4216 91.6387 29.3766 91.8642 29.299C92.2906 29.1337 92.6652 28.7844 92.8215 28.3502C92.9399 28.0251 93.0014 27.6714 92.9994 27.3251C92.9994 27.2056 92.9994 27.0862 92.9994 26.9667C92.9988 26.728 92.9988 26.4892 92.9994 26.2503C93.0045 25.858 92.965 25.4479 92.8395 25.0744C92.7288 24.7479 92.5258 24.4634 92.2706 24.234C92.0051 24.0174 91.7027 23.9187 91.3788 23.825C91.1246 23.7484 90.8551 23.7235 90.5906 23.7185C90.5219 23.717 90.4533 23.7151 90.3846 23.7132ZM91.2533 26.9556C91.2528 26.8776 91.2517 26.7997 91.2528 26.7221C91.1052 26.9142 90.9002 26.9908 90.6834 27.0717C90.6665 27.078 90.6495 27.0843 90.6326 27.0906C90.4517 27.1516 90.277 27.1569 90.1012 27.1623C89.9669 27.1663 89.8316 27.1705 89.6937 27.1998C89.5169 27.232 89.3145 27.2901 89.1761 27.4097C89.0013 27.5702 89.0726 27.8715 89.2499 28.0005C89.4078 28.1216 89.6281 28.1422 89.826 28.1605C89.849 28.1627 89.8721 28.1648 89.8941 28.1671C90.1509 28.1778 90.4112 28.1812 90.668 28.166C90.8366 28.157 90.9945 28.0871 91.1093 27.9629C91.1954 27.8412 91.2169 27.664 91.2348 27.5171C91.2353 27.5104 91.2364 27.5036 91.2369 27.497C91.2579 27.3184 91.2558 27.1367 91.2533 26.9556Z" fill="white"/>
</g>
<defs>
<linearGradient id="paint0_linear_8008_440" x1="24.7938" y1="27.0917" x2="26.9222" y2="9.00003" gradientUnits="userSpaceOnUse">
<stop stop-color="#8F8F8F"/>
<stop offset="0.502" stop-color="#8F8F8F"/>
<stop offset="1" stop-color="white"/>
</linearGradient>
<linearGradient id="paint1_linear_8008_440" x1="24.7901" y1="26.0053" x2="26.9185" y2="44.0969" gradientUnits="userSpaceOnUse">
<stop stop-color="#8F8F8F"/>
<stop offset="0.502" stop-color="#8F8F8F"/>
<stop offset="1" stop-color="white"/>
</linearGradient>
<linearGradient id="paint2_linear_8008_440" x1="11.5127" y1="26.4961" x2="28.4892" y2="26.4961" gradientUnits="userSpaceOnUse">
<stop stop-color="#8F8F8F"/>
<stop offset="0.3686" stop-color="#C7C7C7"/>
<stop offset="0.6784" stop-color="white"/>
<stop offset="1" stop-color="white"/>
</linearGradient>
</defs>
</svg>
