<svg width="78" height="36" viewBox="0 0 78 36" fill="none" xmlns="http://www.w3.org/2000/svg">
<mask id="mask0_8008_419" style="mask-type:luminance" maskUnits="userSpaceOnUse" x="0" y="10" width="78" height="16">
<path d="M78 10.3765H0V25.6235H78V10.3765Z" fill="white"/>
</mask>
<g mask="url(#mask0_8008_419)">
<path d="M12.6865 11.7427H21.4062V13.7314H14.9527V16.6319H19.249V18.6205H14.9527V21.8682H21.6061V23.8569H12.6874V11.7427H12.6865Z" fill="white"/>
<path d="M20.9784 15.2451H23.2986L25.3288 21.2474L27.214 15.2451H29.4621L26.3439 23.8561H24.2588L20.9775 15.2451H20.9784Z" fill="white"/>
<path d="M29.1055 19.5687C29.1055 16.9419 30.9186 15.0811 33.5108 15.0811C36.103 15.0811 37.898 16.9419 37.898 19.5687C37.898 22.1956 36.0489 24.0201 33.4567 24.0201C30.8645 24.0201 29.1063 22.1956 29.1063 19.5687H29.1055ZM35.6139 19.6231V19.5506C35.6139 17.9091 34.8159 16.9238 33.5108 16.9238C32.2056 16.9238 31.3896 17.9091 31.3896 19.5506V19.6231C31.3896 21.2284 32.1688 22.1774 33.4747 22.1774C34.7807 22.1774 35.6139 21.2284 35.6139 19.6231Z" fill="white"/>
<path d="M38.9199 11.5779H41.1859V23.8562H38.9199V11.5779Z" fill="white"/>
<path d="M42.4785 20.4081V15.2451H44.7268V20.2803C44.7268 21.4296 45.2706 22.1048 46.2857 22.1048C47.464 22.1048 47.954 21.1015 47.954 19.624V15.2451H50.202V23.8561H47.954V22.6342C47.5008 23.5279 46.7208 24.021 45.6158 24.021C43.6756 24.021 42.4796 22.6342 42.4796 20.4089L42.4785 20.4081Z" fill="white"/>
<path d="M52.2562 21.5755V17.0698H51.041V15.2451H52.2562V13.6217L54.4492 12.3809V15.2451H56.1356V17.0698H54.4315V21.3571C54.4315 21.7768 54.6305 21.9589 55.0475 21.9771H56.0446V23.8561H54.3044C52.6552 23.7646 52.2923 22.9986 52.2562 21.5755Z" fill="white"/>
<path d="M57.1582 11.7791H59.4964V13.9862H57.1582V11.7791ZM57.194 15.2452H59.4603V23.8562H57.194V15.2452Z" fill="white"/>
<path d="M60.4814 19.5687C60.4814 16.9419 62.2942 15.0811 64.8866 15.0811C67.4787 15.0811 69.2738 16.9419 69.2738 19.5687C69.2738 22.1956 67.4249 24.0201 64.8325 24.0201C62.2404 24.0201 60.4822 22.1956 60.4822 19.5687H60.4814ZM66.9897 19.6231V19.5506C66.9897 17.9091 66.1917 16.9238 64.8866 16.9238C63.5816 16.9238 62.7655 17.9091 62.7655 19.5506V19.6231C62.7655 21.2284 63.5448 22.1774 64.8498 22.1774C66.1549 22.1774 66.989 21.2284 66.989 19.6231H66.9897Z" fill="white"/>
<path d="M70.2764 15.2452H72.5246V16.6502C72.9775 15.6467 73.8116 15.063 75.0268 15.063C76.8937 15.063 77.9998 16.322 77.9998 18.6932V23.8562H75.7519V18.821C75.7519 17.6173 75.2987 16.9964 74.2475 16.9964C73.1963 16.9964 72.5254 17.872 72.5254 19.4773V23.8553H70.2771V15.2452H70.2764Z" fill="white"/>
<path d="M9.49122 25.4442C9.10508 25.4442 8.79276 25.129 8.79276 24.7404C8.79276 24.351 9.10595 24.0367 9.49122 24.0367C9.87649 24.0367 10.1897 24.351 10.1905 24.7404C10.1905 25.129 9.87818 25.4442 9.49122 25.4442ZM9.49122 23.8562C9.00726 23.8562 8.61426 24.2526 8.61426 24.7404C8.61426 25.2283 9.00726 25.6238 9.49122 25.6238C9.97514 25.6238 10.369 25.2283 10.369 24.7404C10.369 24.2526 9.97601 23.8562 9.49122 23.8562Z" fill="white"/>
<path d="M9.15568 24.597H9.02441V24.5098H9.39679V24.597H9.26639V24.9709H9.15568V24.597Z" fill="white"/>
<path d="M9.44336 24.5088H9.61839L9.70249 24.8033L9.79003 24.5088H9.96076V24.9699H9.85178V24.5977L9.73597 24.9699H9.6493L9.53775 24.5995V24.9699H9.44336V24.5088Z" fill="white"/>
<path d="M-0.000976562 11.2479C0.088333 11.4502 0.175985 11.655 0.264144 11.861C1.36773 14.44 2.55067 17.2045 8.05798 17.378C8.60885 16.3755 8.92378 15.2227 8.92378 13.9956C8.92378 13.6822 8.90146 13.3748 8.86199 13.0725C6.81464 10.355 3.08721 9.58824 -0.000976562 11.2479Z" fill="white"/>
<path d="M10.3685 17.3141C9.52243 17.3815 8.75608 17.4004 8.05762 17.378C8.60849 16.3754 8.92342 15.2226 8.92342 13.9956C8.92342 13.6821 8.9011 13.3747 8.86163 13.0725C9.69226 14.1761 10.2466 15.6 10.3685 17.3141Z" fill="white"/>
<path d="M1.96829 20.9963C4.38889 20.9963 6.51948 19.7519 7.76539 17.8643C8.54023 17.8254 9.40259 17.8401 10.3687 17.9161C9.94744 23.8562 4.34083 26.3164 -0.000976562 23.9832C0.0893888 23.7788 0.178019 23.5717 0.267162 23.3635C0.612255 22.5573 0.965042 21.7331 1.45602 20.9756C1.62506 20.9876 1.79581 20.9963 1.96829 20.9963Z" fill="white"/>
<path d="M1.45605 20.9755C2.50547 19.3556 4.18642 18.0421 7.76542 17.8643C6.51952 19.7519 4.38893 20.9962 1.96832 20.9962C1.79585 20.9962 1.62509 20.9876 1.45605 20.9755Z" fill="white"/>
</g>
</svg>
