<svg width="80" height="40" viewBox="0 0 80 40" fill="none" xmlns="http://www.w3.org/2000/svg">
<g clip-path="url(#clip0_8008_459)">
<mask id="mask0_8008_459" style="mask-type:luminance" maskUnits="userSpaceOnUse" x="0" y="0" width="80" height="40">
<path d="M80 0H0V40H80V0Z" fill="white"/>
</mask>
<g mask="url(#mask0_8008_459)">
<path d="M5.29695 17.6651H7.5834V19.5324L11.2036 19.6277V9.16712C11.2036 9.05282 11.1464 8.95752 11.0512 8.95752H7.73585C7.64055 8.95752 7.5834 9.03377 7.5834 9.16712V14.1211H5.29695V9.16712C5.29695 9.05282 5.2398 8.95752 5.14455 8.95752H1.86727C1.772 8.95752 1.71484 9.03377 1.71484 9.16712V19.399L5.29695 19.4943V17.6651Z" fill="white"/>
<path d="M19.5879 9.12901C19.5498 9.01466 19.4926 8.97656 19.4164 8.97656H15.8534C15.7771 8.97656 15.72 9.01466 15.6819 9.12901L12.6523 19.6658L22.6175 19.9325L19.5879 9.12901ZM16.6727 17.989L17.6063 12.0252L18.5209 17.989H16.6727Z" fill="white"/>
<path d="M36.6215 19.7801L38.203 17.4746L39.4034 20.3517L43.1189 20.4469L40.3751 14.3307L43.9001 9.18618C43.9954 9.05278 43.9382 8.93848 43.8048 8.93848H40.0703C39.9941 8.93848 39.9179 8.99563 39.8988 9.05278L36.6406 14.2926V9.14803C36.6406 9.03373 36.5834 8.93848 36.4882 8.93848H33.4396C33.3443 8.93848 33.2871 9.01468 33.2871 9.14803V20.1802L36.6406 20.2755L36.6215 19.7801Z" fill="white"/>
<path d="M54.227 18.5033C54.227 13.0157 48.0538 14.9783 48.0538 12.8062C48.0538 12.1774 48.5873 11.9107 49.2923 11.9107C50.1305 11.9107 50.969 12.2917 51.7885 13.1491C51.8265 13.2063 51.9025 13.2253 51.96 13.1873C51.979 13.1682 51.998 13.1491 51.998 13.13L53.6745 10.8055C53.732 10.7293 53.732 10.5959 53.6555 10.5197C52.4935 9.1288 51.1025 8.5 49.4257 8.5C47.1392 8.5 44.6813 9.62415 44.6813 13.2254C44.6813 18.9796 50.931 16.6931 50.931 19.0558C50.931 19.7798 50.34 20.1418 49.5019 20.1418C48.4539 20.1418 47.406 19.6083 46.358 18.1793C46.3008 18.1031 46.2056 18.0841 46.1484 18.1793L44.5098 20.5039L53.789 20.7516C54.094 20.0276 54.227 19.2654 54.227 18.5033Z" fill="white"/>
<path d="M61.8298 9.12901C61.7913 9.01466 61.7343 8.97656 61.6583 8.97656H58.0758C57.9998 8.97656 57.9428 9.01466 57.9043 9.12901L54.5703 20.7518L65.1638 21.0186L61.8298 9.12901ZM58.9143 17.989L59.8673 12.0252L60.7818 17.989H58.9143Z" fill="white"/>
<path d="M71.7949 15.2644L72.7284 21.2282L76.5964 21.3235L79.9879 9.18617C80.0259 9.05282 79.9689 8.95752 79.8734 8.95752H76.6914C76.5964 8.95752 76.5394 9.01472 76.5204 9.14807L74.8244 16.198L73.4524 9.14807C73.4334 9.05282 73.3764 8.95752 73.2809 8.95752H70.3084C70.2134 8.95752 70.1564 9.03377 70.1369 9.14807L68.7654 16.198L67.0694 9.14807C67.0504 9.03377 66.9934 8.95752 66.8979 8.95752H63.7159C63.6209 8.95752 63.5634 9.03377 63.6019 9.18617L66.9169 21.0758L70.8614 21.171L71.7949 15.2644Z" fill="white"/>
<path d="M31.7246 19.0367C31.7246 19.0177 31.7056 18.9795 31.6865 18.9795C31.6675 18.9795 31.6484 18.9795 31.6294 18.9986C31.1721 19.6655 30.429 20.0656 29.6097 20.0466C27.8567 20.0466 27.0184 18.2936 27.0184 15.969C27.0184 13.8541 27.7043 11.9868 29.6478 11.9868C30.448 11.9487 31.1911 12.3488 31.6294 12.9967C31.6484 13.0157 31.6866 13.0348 31.7056 13.0157C31.7246 12.9967 31.7246 12.9966 31.7246 12.9776V9.09064C31.7246 8.99539 31.6675 8.91914 31.5913 8.88104C30.9244 8.65239 30.2003 8.53809 29.4953 8.53809C25.6084 8.53809 23.1123 11.9487 23.1123 16.2548C23.0933 17.5315 23.341 18.789 23.8364 19.9513L31.7246 20.1609V19.0367Z" fill="white"/>
<path d="M5.86866 23.4956C5.86866 23.6099 5.92581 23.6861 6.02111 23.6861H9.31741C9.41266 23.6861 9.46986 23.6099 9.46986 23.4956V20.1993L5.84961 20.104L5.86866 23.4956Z" fill="white"/>
<path d="M0.152431 23.6862H3.42969C3.52495 23.6862 3.60117 23.61 3.60117 23.4957V20.0279L0 19.9517V23.4957C0 23.61 0.0571615 23.6862 0.152431 23.6862Z" fill="white"/>
<path d="M10.1365 23.6861H13.4328C13.5281 23.6861 13.5852 23.6099 13.6043 23.5337L14.0235 21.7045H17.7199L18.1391 23.5337C18.1581 23.6289 18.2343 23.6861 18.3106 23.6861H21.6069C21.7212 23.6861 21.7593 23.5908 21.7212 23.4384L20.8828 20.466L10.9177 20.1992L9.98408 23.4193C9.96503 23.5908 10.0222 23.6861 10.1365 23.6861Z" fill="white"/>
<path d="M38.7735 23.5523C38.7926 23.6285 38.8688 23.6857 38.945 23.6857H42.3938C42.5081 23.6857 42.5652 23.5904 42.5081 23.438L41.403 20.9991L37.6875 20.9038L38.7735 23.5523Z" fill="white"/>
<path d="M31.7051 23.6863H34.7537C34.849 23.6863 34.9062 23.61 34.9062 23.4957V20.8472L31.5527 20.752V23.4767C31.5527 23.61 31.6099 23.6863 31.7051 23.6863Z" fill="white"/>
<path d="M42.5468 21.7044C43.7281 23.2478 45.5573 24.1624 47.5008 24.1624C49.4633 24.1624 51.2925 23.2097 52.0925 21.3043L42.8136 21.0566L42.5468 21.4377C42.4896 21.5139 42.4896 21.6282 42.5468 21.7044Z" fill="white"/>
<path d="M52.3779 23.6859H55.6739C55.7694 23.6859 55.8454 23.6097 55.8644 23.5335L56.2839 21.7043H59.9799L60.3994 23.5335C60.4184 23.6288 60.4944 23.6859 60.5899 23.6859H63.8669C63.9814 23.6859 64.0194 23.5906 63.9814 23.4382L63.4479 21.5709L52.8539 21.3042L52.2444 23.4382C52.2064 23.5906 52.2824 23.6859 52.3779 23.6859Z" fill="white"/>
<path d="M71.3002 23.5147C71.3192 23.61 71.3762 23.6862 71.4717 23.6862H74.2727C74.3677 23.6862 74.4252 23.629 74.4442 23.5147L74.9012 21.8761L71.0332 21.7808L71.3002 23.5147Z" fill="white"/>
<path d="M65.9067 23.6862H68.7077C68.8032 23.6862 68.8602 23.61 68.8792 23.5148L69.1652 21.7428L65.2207 21.6475L65.7542 23.5338C65.7542 23.6291 65.8117 23.6862 65.9067 23.6862Z" fill="white"/>
<path d="M27.8372 24.2385C28.5231 24.2385 29.2091 24.1432 29.8569 23.9336C29.9522 23.8955 30.0093 23.8193 30.0093 23.724V20.7135L22.1211 20.5039C23.1309 22.7904 25.1316 24.2385 27.8372 24.2385Z" fill="white"/>
<path d="M4.95343 28.2777H3.71493V27.7061C3.71493 27.6109 3.65777 27.5537 3.54345 27.5537H3.29575C3.18142 27.5537 3.12426 27.6109 3.12426 27.7061V30.2403C3.12426 30.3356 3.18142 30.3927 3.29575 30.3927H3.5625C3.67682 30.3927 3.73398 30.3356 3.73398 30.2403V29.4972H3.37196V28.735H4.95343V30.3356C4.95343 30.9072 4.61046 31.193 3.90547 31.193H2.89562C2.19063 31.193 1.84766 30.9072 1.84766 30.3356V27.6109C1.84766 27.0392 2.19063 26.7534 2.89562 26.7534H3.90547C4.61046 26.7534 4.95343 27.0392 4.95343 27.6109V28.2777Z" fill="white"/>
<path d="M18.254 31.1739L18.1015 30.507H16.9964L16.844 31.1739H15.6055L16.7868 26.7534H18.3111L19.4925 31.1739H18.254ZM17.206 29.6496H17.9301L17.5871 28.0491L17.206 29.6496Z" fill="white"/>
<path d="M31.382 31.1739H30.2578V26.7534H31.6107L32.3728 29.1161L33.1159 26.7534H34.4687V31.1739H33.3636V28.373L32.792 30.2403H31.9346L31.363 28.3921L31.382 31.1739Z" fill="white"/>
<path d="M45.5195 26.7534H46.7771V31.1739H45.5195V26.7534Z" fill="white"/>
<path d="M59.9046 26.7534H61.0476V31.1739H59.9806L58.9521 28.8494V31.1739H57.8086V26.7534H58.8756L59.9046 29.1161V26.7534Z" fill="white"/>
<path d="M75.1685 28.2777H73.93V27.7061C73.93 27.6109 73.8725 27.5537 73.7585 27.5537H73.4915C73.377 27.5537 73.32 27.6109 73.32 27.7061V30.2403C73.32 30.3356 73.377 30.3927 73.4915 30.3927H73.739C73.8535 30.3927 73.9105 30.3356 73.9105 30.2403V29.4972H73.5485V28.735H75.1685V30.3356C75.1685 30.9072 74.8255 31.193 74.1205 31.193H73.1105C72.4055 31.193 72.0625 30.9072 72.0625 30.3356V27.6109C72.0625 27.0392 72.4055 26.7534 73.1105 26.7534H74.1205C74.8255 26.7534 75.1685 27.0392 75.1685 27.6109V28.2777Z" fill="white"/>
</g>
</g>
<defs>
<clipPath id="clip0_8008_459">
<rect width="80" height="40" fill="white"/>
</clipPath>
</defs>
</svg>
