<svg width="70" height="31" viewBox="0 0 70 31" fill="none" xmlns="http://www.w3.org/2000/svg">
<path d="M0.426641 6.41765C0.600506 6.36092 0.766678 6.25513 0.957467 6.26435C2.38378 6.24595 3.81317 6.31341 5.23642 6.19995C5.19177 6.23676 5.10256 6.31186 5.05947 6.34867C6.2842 6.54339 7.51667 7.06156 8.32443 8.03205C8.99837 8.82468 9.28763 9.88713 9.26146 10.9159C8.54139 10.8837 7.81514 10.9741 7.10277 10.8607C7.14586 9.89174 6.56731 8.89215 5.60722 8.6085C4.66557 8.34023 3.67008 8.50581 2.70536 8.47512C2.70228 9.28771 2.70997 10.1003 2.70228 10.9128C1.94219 10.8852 1.1698 10.9849 0.418945 10.827C0.451258 9.35823 0.43741 7.88794 0.426641 6.41765Z" fill="white"/>
<path d="M15.8442 6.37018C15.8411 6.33646 15.838 6.269 15.8349 6.23529C16.4981 6.21843 17.1628 6.20309 17.8244 6.25214L17.7829 6.36711C19.103 6.50816 20.3908 7.15668 21.1771 8.24215C21.7325 9.02254 22.1372 9.95161 22.1695 10.9175C21.4894 10.8975 20.8093 10.9343 20.1308 10.9021C19.8877 10.6155 19.9138 10.1616 19.6877 9.84737C19.1538 8.89834 18.0244 8.45834 16.9751 8.46291C15.9626 8.42152 14.8379 8.67142 14.1763 9.49474C13.8162 9.89333 13.6809 10.4223 13.5239 10.9221C12.8161 10.8485 12.0745 11.0294 11.3867 10.827C11.6114 9.69403 12.0345 8.55951 12.8792 7.73623C13.6593 6.94666 14.744 6.48212 15.8442 6.37018Z" fill="white"/>
<path d="M24.6135 6.21216C25.3167 6.22289 26.0214 6.21832 26.7246 6.21526C26.7815 7.76371 26.723 9.31526 26.7553 10.8668C26.046 10.9603 25.3275 10.8867 24.6151 10.922C24.5643 9.35358 24.5705 7.78056 24.6135 6.21216Z" fill="white"/>
<path d="M34.0206 6.21825C34.7284 6.21519 35.4392 6.22593 36.1485 6.20752C36.1793 7.77899 36.1931 9.35507 36.1424 10.925C35.4331 10.9005 34.7222 10.9174 34.0129 10.9112C33.9975 9.34739 33.9837 7.78205 34.0206 6.21825Z" fill="white"/>
<path d="M42.9164 6.25867C43.4181 6.22189 43.9244 6.19275 44.4272 6.23875C44.4304 6.27707 44.435 6.35527 44.4381 6.39359C45.6429 6.45032 46.6369 7.33495 47.3155 8.26708C48.0295 7.37021 48.9601 6.60974 50.1081 6.366C50.625 6.07929 51.2604 6.26173 51.8251 6.25405L51.8052 6.37364C52.7359 6.49326 53.6206 6.94706 54.2377 7.65537C55.0256 8.55224 55.4534 9.73888 55.5195 10.9209C54.8149 10.9072 54.1102 10.9117 53.4051 10.9179C53.2962 10.0409 52.9451 9.06277 52.0744 8.6795C50.9497 8.20423 49.3832 8.46025 48.7649 9.60089C48.4985 9.97499 48.5001 10.4579 48.3449 10.8657C47.6815 10.9899 46.9706 10.8642 46.2908 10.9271C46.117 10.2985 45.9645 9.62546 45.4967 9.13791C44.7675 8.33915 43.4904 8.2901 42.5563 8.73161C41.7225 9.12256 41.3469 10.0501 41.2302 10.9102C40.51 10.8857 39.7792 10.9838 39.0684 10.8519C39.2469 9.71741 39.5961 8.56452 40.3886 7.69831C41.0361 6.96085 41.9656 6.50244 42.9351 6.37364L42.9164 6.25867Z" fill="white"/>
<path d="M58.1442 6.21371C58.8551 6.21983 59.5644 6.22138 60.2753 6.21216C60.3091 7.76677 60.2706 9.32293 60.2967 10.8775C59.5691 10.9297 58.8349 10.9419 58.1104 10.8668C58.1473 9.31677 58.0827 7.76371 58.1442 6.21371Z" fill="white"/>
<path d="M62.7505 6.21069C65.1538 6.24444 67.5603 6.18004 69.9636 6.24289C70.0037 6.95427 69.9605 7.66719 69.999 8.37856C69.1512 8.55026 68.2789 8.42917 67.4203 8.469C67.4016 9.26319 67.4526 10.0604 67.4001 10.8546C66.7063 10.9773 65.9584 10.9129 65.2476 10.8715C65.2584 10.0742 65.2476 9.27547 65.2569 8.47823C64.4169 8.41382 63.5504 8.54875 62.726 8.40921C62.6996 7.67637 62.6891 6.94047 62.7505 6.21069Z" fill="white"/>
<path d="M0.420898 11.5323C1.1656 11.3514 1.94415 11.4878 2.70423 11.4495C2.71192 13.3352 2.69808 15.221 2.71038 17.1083C1.9503 17.1113 1.18714 17.1451 0.428591 17.0776C0.436287 15.2287 0.450131 13.3797 0.420898 11.5323Z" fill="white"/>
<path d="M7.10457 11.5418C7.82464 11.5203 8.54319 11.5249 9.26329 11.5356C9.25866 13.4244 9.26788 15.3133 9.25866 17.2006C8.54011 17.2021 7.82312 17.2051 7.10457 17.1975C7.09535 15.3117 7.09535 13.426 7.10457 11.5418Z" fill="white"/>
<path d="M13.2821 16.1087C11.9205 15.0048 11.2896 13.1834 11.4188 11.4663C12.1374 11.4295 12.8559 11.451 13.5745 11.451C13.5545 12.3111 13.6453 13.2325 14.213 13.9224C15.1762 15.1934 17.0872 15.3237 18.4504 14.6706C19.6228 14.0895 20.1998 12.722 20.0337 11.4602C20.7399 11.4341 21.4477 11.4587 22.1554 11.4387C22.3355 12.8369 21.9323 14.3072 21.0599 15.4188C20.2937 16.3816 19.1228 16.9672 17.9104 17.1221C16.324 17.3567 14.57 17.1267 13.2821 16.1087Z" fill="white"/>
<path d="M24.5771 17.1542C24.6079 15.2516 24.5556 13.3474 24.6033 11.4448C25.3142 11.4525 26.0235 11.4402 26.7343 11.454C26.7697 12.6544 26.722 13.8564 26.7589 15.0584C28.2545 15.0477 29.7485 15.0431 31.2441 15.0599C31.2271 15.7621 31.2594 16.4643 31.2287 17.1665C30.0747 17.2493 28.9084 17.1772 27.7498 17.2018C26.6928 17.1757 25.6311 17.2569 24.5771 17.1542Z" fill="white"/>
<path d="M34.011 11.4524C34.7342 11.4478 35.4573 11.434 36.182 11.4616C36.1435 13.3765 36.2066 15.2944 36.1497 17.2108C35.4373 17.1924 34.7249 17.2047 34.0125 17.2001C33.9925 15.2837 33.9971 13.3672 34.011 11.4524Z" fill="white"/>
<path d="M39.0973 11.4584C39.8019 11.4829 40.5622 11.3587 41.2315 11.5136C41.2408 13.4116 41.2606 15.3127 41.219 17.2107C40.5128 17.1924 39.805 17.2046 39.0988 17.2C39.0941 15.2851 39.0957 13.3718 39.0973 11.4584Z" fill="white"/>
<path d="M46.2284 11.4587C46.9487 11.4357 47.6685 11.4495 48.3887 11.4511C48.3887 13.3675 48.3903 15.2839 48.3872 17.2003C47.6794 17.1743 46.9592 17.2586 46.2592 17.162C46.1915 15.264 46.2545 13.3598 46.2284 11.4587Z" fill="white"/>
<path d="M53.3535 17.1422C53.3858 15.2411 53.3368 13.34 53.3784 11.4404C54.0893 11.4527 54.7982 11.4512 55.5076 11.4404C55.5231 13.363 55.534 15.2871 55.5033 17.2096C54.7877 17.1683 54.0644 17.2648 53.3535 17.1422Z" fill="white"/>
<path d="M58.1133 17.1651C58.1347 15.2579 58.0977 13.3491 58.1316 11.4419C58.8502 11.4526 59.5669 11.445 60.2856 11.4481C60.2872 13.366 60.2934 15.284 60.2825 17.2019C59.5596 17.1881 58.8347 17.2372 58.1133 17.1651Z" fill="white"/>
<path d="M65.2553 11.4604C65.9615 11.4328 66.6662 11.4573 67.3724 11.4404C67.4681 13.3431 67.4171 15.2595 67.4 17.1636C66.6923 17.2526 65.9709 17.179 65.2584 17.1989C65.246 15.2856 65.2522 13.3737 65.2553 11.4604Z" fill="white"/>
<path d="M15.6522 21.4946C16.2092 20.6667 17.377 20.6759 18.2094 21.0454C18.1325 21.283 18.0463 21.5176 17.9555 21.7491C17.5755 21.5927 17.1447 21.3888 16.7308 21.562C16.3169 21.7675 16.1446 22.2581 16.1599 22.695C16.1307 23.1534 16.2399 23.687 16.6754 23.9292C17.1354 24.1209 17.6216 23.917 18.0755 23.8142C18.0786 23.9798 18.0832 24.3125 18.0848 24.4781C17.9401 24.5271 17.7955 24.5762 17.6509 24.6222C17.6539 24.6529 17.6601 24.7157 17.6632 24.7464C17.2478 24.7479 16.7662 24.8997 16.3984 24.6391C15.1752 24.176 15.0337 22.4865 15.6522 21.4946Z" fill="white"/>
<path d="M28.0762 24.6203C28.1239 23.357 28.0593 22.0921 28.1116 20.8289C28.3793 20.8334 28.647 20.8334 28.9163 20.8319C28.9609 22.0952 28.904 23.3585 28.9471 24.6218C28.6562 24.6264 28.367 24.6264 28.0762 24.6203Z" fill="white"/>
<path d="M38.7504 20.8357C39.7091 20.8419 40.6693 20.8403 41.6291 20.8372C41.6306 21.0749 41.6337 21.311 41.6353 21.5502C41.2861 21.5471 40.9384 21.5456 40.5892 21.544C40.6001 22.5712 40.5829 23.6 40.6012 24.6271C40.3228 24.6271 40.0443 24.6256 39.7675 24.621C39.8044 23.5969 39.7721 22.5712 39.7877 21.5471C39.4381 21.5456 39.0888 21.5486 38.7412 21.5502C38.7428 21.3125 38.7458 21.0733 38.7504 20.8357Z" fill="white"/>
<path d="M50.9277 20.838C51.2202 20.8365 51.5138 20.835 51.8078 20.8289C52.1049 21.324 52.3433 21.8514 52.6035 22.3681C52.9033 21.8698 53.1312 21.3348 53.4217 20.8319C53.7141 20.8365 54.0081 20.8365 54.3037 20.838C53.8942 21.6276 53.4248 22.3865 53.0402 23.1883C53.0001 23.6682 53.0355 24.1496 53.0312 24.6295C52.7508 24.6279 52.4724 24.6264 52.1924 24.6234C52.1893 24.1803 52.1846 23.7372 52.2325 23.2972C51.8323 22.4601 51.3617 21.6583 50.9277 20.838Z" fill="white"/>
</svg>
