<svg width="89" height="39" viewBox="0 0 89 39" fill="none" xmlns="http://www.w3.org/2000/svg">
<path fill-rule="evenodd" clip-rule="evenodd" d="M65.1832 9.64548C65.0131 9.46857 64.8672 9.47973 64.7253 9.47973C61.6899 9.47973 58.6545 9.48095 55.6191 9.48007C54.5586 9.47973 53.5998 9.8203 52.7079 10.3515C50.9264 11.413 49.7239 12.884 49.1279 14.899C48.2195 17.969 47.2113 21.0115 46.1924 24.0482C45.2214 26.9418 47.0358 29.2556 49.9004 29.0559C51.4386 28.9484 52.9917 29.0452 54.5378 29.0318C55.0189 29.0276 55.496 29.0217 55.9776 28.8814C58.4597 28.1582 59.9975 26.4908 60.8237 24.1512C61.4318 22.4292 61.9604 20.6793 62.4934 18.9326C62.6961 18.2686 62.9834 17.6239 63.0808 16.9353C62.7871 16.7484 62.4939 16.8333 62.2175 16.8316C60.7001 16.8221 59.1821 16.816 57.6647 16.8331C57.1272 16.8392 56.4948 16.6243 56.075 16.9392C55.6627 17.2484 55.6711 17.8963 55.5064 18.3988C55.1588 19.46 54.8231 20.5253 54.4725 21.6196C55.3146 21.7923 56.1151 21.5704 56.9092 21.7773C56.6733 22.5087 56.4464 23.1722 56.2496 23.8445C56.1789 24.0868 56.1047 24.2515 55.8085 24.25C54.2965 24.243 52.784 24.2469 51.1716 24.2469C51.497 23.2166 51.7892 22.2833 52.0863 21.352C52.7707 19.2106 53.4555 17.0698 54.1432 14.9296C54.3549 14.2707 54.3598 14.2705 55.0861 14.268C55.7447 14.2656 56.4033 14.2675 57.0624 14.2673C59.0951 14.2673 61.1282 14.2718 63.1614 14.2612C63.3864 14.2601 63.6702 14.3827 63.7874 14.0046C64.2428 12.5331 64.7248 11.0699 65.1832 9.64548ZM67.9986 29.0132C69.114 29.0271 70.2646 29.2045 71.3375 28.9435C74.1252 28.2658 76.1198 26.6177 77.0261 23.8647C77.9928 20.9301 78.9203 17.9827 79.8539 15.0376C80.0912 14.2897 80.2919 13.5425 80.3295 12.7387C80.4328 10.507 78.5297 9.11376 76.7438 9.15954C75.0849 9.20185 73.4241 9.16598 71.7642 9.17085C71.4513 9.17173 71.1407 9.17187 70.8288 9.25358C67.9956 9.99502 66.0554 11.6817 65.1412 14.4559C64.755 15.6291 64.3842 16.8075 64.0133 17.9858C63.3478 20.1022 62.6398 22.2073 62.0375 24.3411C61.2499 27.1326 63.1931 29.0842 65.4245 29.0174C66.2818 28.9918 67.1407 29.0132 67.9986 29.0132ZM47.5792 12.7118C48.8908 10.1846 50.8883 8.45671 53.6478 7.58667C53.9291 7.49785 54.2906 7.61768 54.4992 7.3125H77.6986C77.75 7.43754 77.8662 7.43603 77.9759 7.46075C80.2079 7.9601 81.6294 9.29848 82.2578 11.4684C82.3755 11.8749 82.2994 12.316 82.5085 12.7018C82.4037 13.789 82.2277 14.8553 81.8608 15.8985C81.397 17.2182 81.0479 18.5768 80.6029 19.9035C79.927 21.918 79.4187 23.9872 78.5876 25.9513C77.2931 28.2175 75.4637 29.8712 72.9524 30.7482C72.0841 31.0513 71.1976 31.2092 70.2705 31.208C63.3181 31.1987 56.3658 31.1762 49.4132 31.2174C46.9736 31.2319 44.1972 29.5565 43.8119 26.5348C43.7872 26.3405 43.724 26.1511 43.6787 25.9592C43.7104 24.6278 44.0974 23.3762 44.5129 22.1219C45.5502 18.99 46.4584 15.8172 47.5792 12.7118Z" fill="white"/>
<path fill-rule="evenodd" clip-rule="evenodd" d="M78.5898 25.9514C79.421 23.9871 79.9293 21.9181 80.6052 19.9034C81.0502 18.5769 81.3993 17.2183 81.8631 15.8986C82.2299 14.8553 82.406 13.7891 82.5108 12.7017C83.2821 12.7071 84.0539 12.704 84.8253 12.7203C85.8592 12.742 86.6681 13.1908 87.3341 13.9665C87.6342 14.3157 87.7064 14.7744 88.012 15.1066V17.1399C87.4992 17.9009 87.4453 18.8139 87.1689 19.6524C86.8792 20.5306 86.6824 21.4383 86.4149 22.3241C85.6965 24.7062 83.3899 26.0366 81.4161 25.9563C80.4756 25.9182 79.5323 25.9508 78.5898 25.9514Z" fill="white"/>
<path fill-rule="evenodd" clip-rule="evenodd" d="M34.5038 17.4989H36.8585C37.0688 17.4989 37.2357 17.4653 37.3127 17.2186C37.5188 16.558 37.7507 15.9052 37.9871 15.2047C37.152 15.0943 36.3869 15.1769 35.6264 15.1451C35.3252 15.1325 35.2322 15.3369 35.1582 15.5472C34.9456 16.1507 34.75 16.7602 34.5038 17.4989ZM39.7416 22.9013C40.2995 22.9013 40.8105 22.8831 41.3191 22.9073C41.7043 22.9256 41.8716 22.7719 41.9684 22.4076C42.2493 21.35 42.5872 20.3071 42.8687 19.2497C43.1772 18.0919 42.6319 17.3589 41.4412 17.3135C40.7845 17.2885 40.1248 17.2837 39.4687 17.3142C38.1943 17.3733 37.2879 18.0538 36.8481 19.177C36.39 20.3467 36.1152 21.5865 35.7517 22.8246C36.2718 22.9646 36.7602 22.8464 37.2324 22.9088C37.7139 22.9722 37.8804 22.7282 37.9878 22.3283C38.2136 21.4877 38.4604 20.6526 38.7106 19.8188C38.7815 19.5833 38.839 19.3093 39.1921 19.328C39.6987 19.3547 40.2124 19.2637 40.763 19.4005C40.4255 20.5572 40.0964 21.6851 39.7416 22.9013ZM16.2467 14.9526C15.6624 14.9526 15.2316 14.9926 14.8121 14.9423C14.3068 14.8816 14.1118 15.1019 13.9745 15.5453C13.4173 17.344 12.805 19.1265 12.2652 20.9301C12.0776 21.5571 11.7641 22.1624 11.7301 22.9008C13.6412 22.9008 15.4974 22.8954 17.3535 22.9059C17.6832 22.9076 17.7955 22.7368 17.8778 22.4679C18.1 21.7421 18.3661 21.0284 18.5642 20.2966C19.0158 18.6277 19.3836 18.9091 17.3968 18.8715C17.0495 18.865 16.8789 19.0223 16.7859 19.333C16.6653 19.7366 16.5082 20.1296 16.3907 20.534C16.3286 20.7466 16.2504 20.8971 15.9952 20.8817C15.4893 20.8512 14.9744 20.9548 14.3996 20.7917C15.0073 18.8706 15.6063 16.9767 16.2467 14.9526ZM28.9303 18.896C29.334 17.598 29.7303 16.3237 30.1567 14.9528C29.5287 14.9528 29.0182 14.9683 28.5091 14.947C28.1904 14.9338 28.0677 15.0687 27.9797 15.3569C27.5942 16.6194 27.1871 17.8752 26.7801 19.1309C26.5927 19.709 26.7822 20.1824 27.185 20.5894C27.4294 20.8362 27.803 20.8486 28.122 21.0027C28.0632 21.6531 27.6774 22.2095 27.6372 22.8734C27.7723 22.8839 27.8848 22.9051 27.9958 22.8991C28.5337 22.8695 29.1778 23.1021 29.5784 22.7954C29.8966 22.5518 29.9494 21.951 30.0822 21.4981C30.1883 21.137 30.3679 20.9486 30.7662 20.857C31.8436 20.6089 32.5722 19.944 32.9152 18.893C33.1855 18.0651 33.4708 17.2418 33.7186 16.4075C34.2051 14.7683 34.4947 14.968 32.5768 14.9494C32.242 14.946 32.0628 15.0568 31.9674 15.3945C31.7693 16.0963 31.5215 16.7844 31.2966 17.4791C30.787 19.0528 30.7875 19.0531 29.0924 18.9701C29.0659 18.9687 29.0405 18.9472 28.9303 18.896ZM4.90579 22.9012C5.38406 22.9012 5.89323 22.8919 6.40207 22.9047C6.70041 22.9125 6.83891 22.8168 6.93844 22.5105C7.0936 22.033 7.09464 21.4162 7.47788 21.1182C7.8989 20.7907 8.52427 21.0284 9.05941 20.9993C10.6873 20.9103 11.6607 20.2066 12.1781 18.7008C12.3696 18.1436 12.5524 17.5819 12.7012 17.0126C13.0313 15.7503 12.4257 14.9733 11.1005 14.9555C10.0436 14.9412 8.98465 14.9867 7.93 14.9386C7.38487 14.9136 7.19862 15.1317 7.05305 15.6061C6.37749 17.8055 5.66554 19.994 4.9613 22.1848C4.89325 22.3962 4.77914 22.5948 4.90579 22.9012ZM18.5653 22.8358C19.1274 22.9557 19.6416 22.8627 20.1468 22.9067C20.4932 22.9368 20.6726 22.7917 20.7666 22.4828C20.8811 22.107 21.0189 21.738 21.1246 21.36C21.1835 21.1489 21.2612 20.9869 21.514 21.0001C22.0196 21.026 22.5346 20.9169 23.0449 21.0769C23.059 21.7154 22.6175 22.2375 22.6543 22.9013C23.1612 22.9013 23.6456 22.8852 24.1285 22.9066C24.5021 22.9229 24.6771 22.7917 24.7896 22.421C25.3442 20.5936 25.9465 18.7803 26.5076 16.955C26.8555 15.8232 26.2426 14.9963 25.0472 14.9566C24.419 14.9356 23.7879 14.9265 23.1605 14.9584C21.8957 15.0224 20.9399 15.6683 20.5218 16.7993C19.7926 18.7715 19.2162 20.7988 18.5653 22.8358ZM47.5806 12.7117C46.4597 15.8171 45.5516 18.9899 44.5142 22.1218C44.0986 23.3761 43.7116 24.6277 43.68 25.9591C36.3482 25.9559 29.0164 25.9517 21.6847 25.9498C15.7562 25.9483 9.82773 25.9508 3.89927 25.9468C3.50024 25.9465 3.09158 25.9534 2.70389 25.8768C0.494761 25.44 -0.309148 23.6575 0.104493 21.8275C0.532057 19.9355 1.08971 18.0714 1.6166 16.2024C2.25089 13.9514 4.5578 12.6864 6.42496 12.6922C20.1435 12.735 33.8621 12.713 47.5806 12.7117Z" fill="white"/>
<path fill-rule="evenodd" clip-rule="evenodd" d="M74.9712 14.2956C73.6233 14.2956 72.3976 14.2929 71.1719 14.2966C70.3822 14.299 70.3857 14.3041 70.1597 15.0183C69.6519 16.6232 69.1377 18.2258 68.6324 19.8314C68.178 21.2743 67.732 22.7196 67.2559 24.2479C68.2719 24.2479 69.2109 24.2593 70.1498 24.2435C70.6893 24.2346 71.3217 24.4423 71.7425 24.1502C72.1642 23.8572 72.1464 23.1949 72.3081 22.6924C73.1907 19.9441 74.055 17.1902 74.9712 14.2956Z" fill="white"/>
<path fill-rule="evenodd" clip-rule="evenodd" d="M74.9712 14.2956C74.055 17.1902 73.1907 19.9441 72.3081 22.6924C72.1464 23.1949 72.1642 23.8572 71.7425 24.1502C71.3217 24.4423 70.6893 24.2346 70.1498 24.2435C69.2109 24.2593 68.2719 24.2479 67.2559 24.2479C67.732 22.7196 68.178 21.2743 68.6324 19.8314C69.1377 18.2258 69.6519 16.6232 70.1597 15.0183C70.3857 14.3041 70.3822 14.299 71.1719 14.2966C72.3976 14.2929 73.6233 14.2956 74.9712 14.2956Z" fill="white"/>
<path fill-rule="evenodd" clip-rule="evenodd" d="M21.9453 18.9434C21.972 18.7909 21.9859 18.679 22.0115 18.5695C22.4047 16.8919 22.5683 16.7868 24.4055 17.0505C24.3742 17.1596 24.3455 17.2655 24.3136 17.3706C23.802 19.05 23.8018 19.05 21.9453 18.9434Z" fill="white"/>
<path fill-rule="evenodd" clip-rule="evenodd" d="M8.18761 18.9816C8.09688 18.6943 8.18658 18.5744 8.22816 18.4435C8.74836 16.801 8.74767 16.8008 10.5952 17.0429C10.4445 17.5527 10.2885 18.0578 10.1477 18.5672C10.0706 18.8466 9.92366 18.9953 9.60983 18.9855C9.13279 18.9706 8.65486 18.9816 8.18761 18.9816Z" fill="white"/>
</svg>
