<svg width="144" height="70" viewBox="0 0 144 70" fill="none" xmlns="http://www.w3.org/2000/svg">
<g filter="url(#filter0_d_8008_334)">
<rect x="5" y="3" width="134" height="60" rx="12" fill="url(#paint0_linear_8008_334)" fill-opacity="0.15" shape-rendering="crispEdges"/>
<rect x="5.5" y="3.5" width="133" height="59" rx="11.5" stroke="url(#paint1_linear_8008_334)" shape-rendering="crispEdges"/>
</g>
<path d="M115.552 37.7293L115.308 36.2336L114.778 37.7293H114.37L113.841 36.2336L113.556 37.7293H113.148L113.556 35.3442H114.004L114.574 37.0016L115.145 35.3442H115.592L116 37.7293H115.552ZM112.537 37.7293H112.048V35.7889H111.6V35.3442H112.945V35.7889H112.496L112.537 37.7293ZM106.1 42.0547H104.796V39.1441L102.759 35.3442H104.185L105.489 37.7697L106.792 35.3442H108.178L106.141 39.1846L106.1 42.0547ZM102.352 42.0547L101.822 40.6803H99.0113L98.4408 42.0547H97.0557L99.7036 35.3038H101.048L103.696 42.0547H102.352ZM100.396 37.0825L99.4596 39.3867H101.292L100.396 37.0825ZM93.063 35.3038H94.3665V40.8015H96.2814V42.0143H93.063V35.3038ZM90.8221 39.1037C90.3743 39.1846 89.8853 39.225 89.437 39.225V42.0952H88.1334V35.3038H89.5185C90.089 35.2634 90.6188 35.3442 91.1481 35.5059C91.4741 35.6272 91.7594 35.8697 91.9631 36.1527C92.1669 36.4761 92.2484 36.8803 92.2484 37.2442C92.2484 37.6889 92.1261 38.0931 91.8816 38.4165C91.5556 38.7803 91.2296 39.0229 90.8221 39.1037ZM90.6188 36.6783C90.3743 36.5569 90.0483 36.5165 89.763 36.557H89.3962V37.9718H89.8038C90.0483 37.9718 90.252 37.9718 90.4965 37.891C90.6188 37.8506 90.7406 37.7697 90.7813 37.6484C90.8628 37.5272 90.9036 37.4059 90.9036 37.2442C90.9443 37.042 90.8221 36.7995 90.6188 36.6783ZM80.474 36.274C79.1704 36.2336 78.1113 37.2846 78.0706 38.5378C78.0706 38.5782 78.0706 38.5782 78.0706 38.6186C78.0706 39.0633 78.1521 39.4676 78.3554 39.8314C78.5591 40.1952 78.8444 40.4782 79.2112 40.6803C79.5779 40.8824 80.0262 41.0037 80.474 41.0037C80.8408 41.0037 81.2075 40.9228 81.5335 40.8015C81.9406 40.5994 82.3073 40.3165 82.5926 39.9931L83.4891 40.9228C83.0816 41.3675 82.5518 41.6909 82.0221 41.9739C81.5335 42.176 80.963 42.2569 80.4332 42.2569C79.4149 42.2973 78.4776 41.9335 77.7446 41.2462C76.3187 39.8718 76.278 37.608 77.6631 36.1931C77.9076 35.9102 78.2336 35.708 78.5591 35.5463C79.1297 35.223 79.8224 35.0613 80.474 35.0613C81.6558 35.0613 82.7556 35.5463 83.5299 36.4357L82.5926 37.2846C82.0628 36.6378 81.289 36.274 80.474 36.274ZM74.3224 35.1825H75.6667V42.0547H74.3224V35.1825ZM71.9593 42.0547H70.6149V36.4357H69.3519V35.1421H73.2628V36.4357H71.9593V42.0547ZM68.1297 42.0547L67.5593 40.6399H64.6667L64.0963 42.0547H62.7111L65.4408 35.1825H66.7852L69.5149 42.0547H68.1297ZM66.1334 37.0016L65.1963 39.3867H67.0704L66.1334 37.0016ZM59.8593 37.6889L58.3519 42.0547H57.1704L55.7037 37.6889L54.9296 42.0547H53.5852L54.8074 35.1421H56.1111L57.7408 39.9526L59.4111 35.1421H60.7149L61.8963 42.0143H60.5926L59.8593 37.6889ZM51.263 41.8122C50.6926 42.0952 50.0815 42.2569 49.4704 42.2569C48.7778 42.2569 48.1259 42.0952 47.5148 41.8122C46.9445 41.4888 46.4555 41.0441 46.1704 40.4782C45.8445 39.9122 45.6815 39.2654 45.6815 38.6186C45.6815 37.7293 46.0074 36.8803 46.6186 36.2336C47.3519 35.4251 48.3704 35.0208 49.4704 35.0613C50.0815 35.0613 50.6519 35.1825 51.1815 35.3846C51.6704 35.6272 52.1593 35.9506 52.5259 36.3548L51.5889 37.2846C51.0593 36.6783 50.2852 36.3548 49.5111 36.3548C48.8593 36.3548 48.2482 36.5974 47.7593 37.042C47.3111 37.4463 47.0259 38.0527 47.0667 38.6995C47.0667 39.3462 47.3111 39.9526 47.8 40.3973C48.2889 40.842 48.9407 41.1249 49.5926 41.0845C50 41.0845 50.4074 41.0037 50.7741 40.8015C51.1 40.5994 51.3852 40.276 51.5482 39.9122H49.5111V38.6995H53.0556V38.9824C52.9741 40.0739 52.3222 41.2058 51.263 41.8122ZM43.4815 40.6399H40.6296L40.0593 42.0547H38.6334L41.363 35.1825H42.7074L45.437 42.0547H44.0519L43.4815 40.6399ZM42.0555 37.0016L41.1185 39.3867H42.9926L42.0555 37.0016ZM36.3519 42.0547L34.763 39.1441H34.6407V42.0547H33.2963V35.1825H34.7222C35.2926 35.1421 35.8629 35.223 36.3926 35.3846C36.7185 35.5059 37.0037 35.7485 37.2074 36.0719C37.4111 36.3953 37.5333 36.7995 37.4926 37.2038C37.4926 37.608 37.3704 38.0123 37.1667 38.3356C36.9222 38.659 36.5556 38.9016 36.1482 39.0229L37.8185 42.0952L36.3519 42.0547ZM36.1482 37.1633C36.1482 36.8803 35.9852 36.6378 35.7 36.5165C35.4556 36.4761 35.2111 36.4357 34.9667 36.4357H34.6V37.8506H35.0074C35.2926 37.891 35.6185 37.8101 35.9037 37.6889C36.1074 37.5676 36.1889 37.3655 36.1482 37.1633ZM30.7704 39.0229C30.3222 39.1037 29.8334 39.1441 29.3444 39.1441V42.0547H28V35.1825H29.4259C29.9963 35.1421 30.5666 35.223 31.0963 35.3846C31.4222 35.5059 31.7074 35.7485 31.9111 36.0719C32.1148 36.3953 32.237 36.7995 32.1963 37.2038C32.1963 37.6484 32.0741 38.0527 31.8296 38.3761C31.5445 38.6995 31.1778 38.942 30.7704 39.0229ZM30.5666 36.557C30.2815 36.4357 29.9963 36.3953 29.7518 36.4357H29.3444V37.8506H29.7518C29.9963 37.8506 30.2407 37.8506 30.4444 37.7697C30.5666 37.7293 30.6889 37.6484 30.7704 37.5272C30.8519 37.4059 30.8926 37.2846 30.8926 37.1229C30.8926 36.9208 30.7704 36.6783 30.5666 36.557ZM97.8702 51.9992C90.4965 52.0801 84.4667 46.178 84.3852 38.8612C84.3037 31.5443 90.252 25.5615 97.6262 25.4806C105 25.3998 111.03 31.3017 111.111 38.6186C111.111 38.659 111.111 38.6995 111.111 38.7399C111.152 46.0163 105.204 51.9587 97.8702 51.9992ZM97.8702 26.8954C91.2703 26.9359 85.974 32.3123 86.0148 38.8612C86.0555 45.3291 91.3518 50.5843 97.8702 50.6247C104.471 50.6247 109.808 45.3291 109.808 38.7803C109.808 32.1911 104.471 26.8954 97.8702 26.8954ZM101.863 34.1315C97.3002 34.4144 95.4668 29.0784 99.5813 28.7954C103.982 28.5124 106.304 33.8485 101.863 34.1315ZM97.0149 24.1062C94.7333 24.187 92.4924 24.8742 90.5373 26.0465C90.252 25.1572 88.9887 21.7616 85.7295 19.8616C88.0519 19.9829 90.1705 21.3169 91.2703 23.3785C91.2703 23.3785 90.0075 18.0425 90.3335 14C92.8999 17.1531 94.8555 22.2871 94.8555 22.2871C94.611 19.9829 95.5891 17.6786 97.4632 16.2638C95.7928 19.6999 96.7297 23.2572 97.0149 24.1062Z" fill="white"/>
<defs>
<filter id="filter0_d_8008_334" x="0" y="0" width="144" height="70" filterUnits="userSpaceOnUse" color-interpolation-filters="sRGB">
<feFlood flood-opacity="0" result="BackgroundImageFix"/>
<feColorMatrix in="SourceAlpha" type="matrix" values="0 0 0 0 0 0 0 0 0 0 0 0 0 0 0 0 0 0 127 0" result="hardAlpha"/>
<feMorphology radius="1" operator="dilate" in="SourceAlpha" result="effect1_dropShadow_8008_334"/>
<feOffset dy="2"/>
<feGaussianBlur stdDeviation="2"/>
<feComposite in2="hardAlpha" operator="out"/>
<feColorMatrix type="matrix" values="0 0 0 0 0 0 0 0 0 0 0 0 0 0 0 0 0 0 0.25 0"/>
<feBlend mode="normal" in2="BackgroundImageFix" result="effect1_dropShadow_8008_334"/>
<feBlend mode="normal" in="SourceGraphic" in2="effect1_dropShadow_8008_334" result="shape"/>
</filter>
<linearGradient id="paint0_linear_8008_334" x1="72" y1="63" x2="72" y2="3.00001" gradientUnits="userSpaceOnUse">
<stop stop-color="#1E1E1E"/>
<stop offset="1" stop-color="#4B4B4B"/>
</linearGradient>
<linearGradient id="paint1_linear_8008_334" x1="14.3874" y1="2.99999" x2="29.0477" y2="78.3758" gradientUnits="userSpaceOnUse">
<stop stop-color="white" stop-opacity="0.4"/>
<stop offset="0.405687" stop-color="white" stop-opacity="0.01"/>
<stop offset="0.574372" stop-color="white" stop-opacity="0.01"/>
<stop offset="1" stop-color="white" stop-opacity="0.1"/>
</linearGradient>
</defs>
</svg>
