<svg width="54" height="36" viewBox="0 0 54 36" fill="none" xmlns="http://www.w3.org/2000/svg">
<path fill-rule="evenodd" clip-rule="evenodd" d="M0.0771484 21.1932V20.08H3.01479V21.3754C3.01479 22.5611 3.47289 23.1542 4.38844 23.1542H4.40006C5.30724 23.1542 5.76147 22.563 5.76147 21.3812C5.76147 20.7059 5.56594 20.073 5.17368 19.4818C4.78204 18.8906 4.3136 18.3501 3.7684 17.8603L2.29603 16.3409C1.68759 15.8094 1.17852 15.1508 0.768814 14.3657C0.35846 13.58 0.153283 12.7102 0.153283 11.7563C0.153283 10.2882 0.540408 9.16231 1.31466 8.37724C2.08827 7.59217 3.13996 7.19995 4.46845 7.19995C5.79693 7.19995 6.81703 7.59217 7.52934 8.37657C8.24164 9.16101 8.59782 10.287 8.59782 11.7544V12.3366H5.88855V11.5778C5.88855 10.3884 5.40979 9.7933 4.45168 9.7933C3.49354 9.7933 3.01479 10.389 3.01479 11.5791C3.01479 12.0772 3.11932 12.5523 3.32772 13.0042C3.53612 13.4561 3.80647 13.8631 4.13875 14.2264C4.47103 14.5891 4.83753 14.9479 5.23753 15.3022C5.63758 15.6573 6.03309 16.0289 6.42279 16.4173C6.81249 16.8056 7.17316 17.221 7.50418 17.6645C7.83453 18.1074 8.10358 18.6313 8.3113 19.2347C8.51907 19.8387 8.62297 20.4947 8.62297 21.204C8.62297 22.6683 8.25843 23.7916 7.52934 24.5741C6.80025 25.3566 5.77114 25.7482 4.442 25.7482C3.11286 25.7482 2.05278 25.356 1.2624 24.5716C0.472017 23.7871 0.0771484 22.6606 0.0771484 21.1932Z" fill="white"/>
<path fill-rule="evenodd" clip-rule="evenodd" d="M13.1135 16.1461H14.4742C14.9401 16.1461 15.2898 16.0151 15.5233 15.7539C15.7563 15.4926 15.873 15.0497 15.873 14.4251V11.7053C15.873 11.0807 15.7563 10.6404 15.5233 10.3829C15.2898 10.1255 14.9401 9.99716 14.4742 9.99716H13.1135V16.1461ZM10.252 25.5464V7.40381H14.4678C17.3119 7.40381 18.7345 8.90271 18.7345 11.8998V14.2563C18.7345 17.2451 17.3132 18.7401 14.471 18.7401H13.1135V25.5464H10.252Z" fill="white"/>
<path fill-rule="evenodd" clip-rule="evenodd" d="M22.9308 15.5757H24.0496C24.6264 15.5757 25.0568 15.428 25.3407 15.1327C25.6246 14.8374 25.7665 14.3445 25.7665 13.6525V11.8686C25.7749 10.6207 25.2916 9.99608 24.3168 9.99608H22.9308V15.5757ZM20.0693 25.5453V7.4021H24.3871C25.8594 7.4021 26.935 7.74424 27.6118 8.42788C28.2893 9.11156 28.628 10.1624 28.628 11.5803V13.0105C28.628 14.876 28.0035 16.104 26.7544 16.6945C28.0203 17.2267 28.6532 18.5137 28.6532 20.5563V23.348V23.4616C28.6532 24.3879 28.7551 25.0825 28.9584 25.5453H26.0575C25.8891 25.0317 25.8007 24.291 25.7923 23.3223V20.4805C25.7923 19.6557 25.6459 19.0638 25.3536 18.7063C25.0606 18.3481 24.5839 18.1697 23.9225 18.1697H22.9308V25.5453H20.0693Z" fill="white"/>
<path fill-rule="evenodd" clip-rule="evenodd" d="M30.5352 25.5453H33.3967V7.4021H30.5352V25.5453Z" fill="white"/>
<path fill-rule="evenodd" clip-rule="evenodd" d="M38.3429 22.953H39.9837C40.4837 22.953 40.8567 22.8201 41.1025 22.5544C41.3483 22.2886 41.4716 21.8271 41.4716 21.1691V19.5874C41.4716 18.7606 41.3296 18.1874 41.0451 17.8671C40.7612 17.5461 40.2889 17.3863 39.6276 17.3863H38.3429V22.953ZM38.3429 14.7923H39.4669C40.0457 14.7923 40.4779 14.6447 40.7631 14.3494C41.0489 14.0541 41.1915 13.5649 41.1915 12.882V11.8697C41.1999 10.6218 40.7147 9.99716 39.7353 9.99716H38.3429V14.7923ZM35.4814 25.547V7.40381H39.8056C41.2806 7.40381 42.3574 7.74531 43.0355 8.42832C43.7137 9.11133 44.053 10.1615 44.053 11.5789V12.224C44.053 14.0881 43.4343 15.3071 42.1961 15.8804C43.6208 16.4369 44.3324 17.7323 44.3324 19.7646V21.2449C44.3324 22.6449 43.964 23.7124 43.2265 24.4461C42.4884 25.1798 41.4077 25.547 39.9837 25.547H35.4814Z" fill="white"/>
<path fill-rule="evenodd" clip-rule="evenodd" d="M46.0498 25.5453V7.4021H53.8582V9.99608H48.9114V15.0441H52.8408V17.6375H48.9114V22.9513H53.8582V25.5453H46.0498Z" fill="white"/>
<path fill-rule="evenodd" clip-rule="evenodd" d="M0 29.2393H53.8979V26.7205H0V29.2393Z" fill="white"/>
<path fill-rule="evenodd" clip-rule="evenodd" d="M0.0771484 21.1932V20.08H3.01479V21.3754C3.01479 22.5611 3.47289 23.1542 4.38844 23.1542H4.40006C5.30724 23.1542 5.76147 22.563 5.76147 21.3812C5.76147 20.7059 5.56594 20.073 5.17368 19.4818C4.78204 18.8906 4.3136 18.3501 3.7684 17.8603L2.29603 16.3409C1.68759 15.8094 1.17852 15.1508 0.768814 14.3657C0.35846 13.58 0.153283 12.7102 0.153283 11.7563C0.153283 10.2882 0.540408 9.16231 1.31466 8.37724C2.08827 7.59217 3.13996 7.19995 4.46845 7.19995C5.79693 7.19995 6.81703 7.59217 7.52934 8.37657C8.24164 9.16101 8.59782 10.287 8.59782 11.7544V12.3366H5.88855V11.5778C5.88855 10.3884 5.40979 9.7933 4.45168 9.7933C3.49354 9.7933 3.01479 10.389 3.01479 11.5791C3.01479 12.0772 3.11932 12.5523 3.32772 13.0042C3.53612 13.4561 3.80647 13.8631 4.13875 14.2264C4.47103 14.5891 4.83753 14.9479 5.23753 15.3022C5.63758 15.6573 6.03309 16.0289 6.42279 16.4173C6.81249 16.8056 7.17316 17.221 7.50418 17.6645C7.83453 18.1074 8.10358 18.6313 8.3113 19.2347C8.51907 19.8387 8.62297 20.4947 8.62297 21.204C8.62297 22.6683 8.25843 23.7916 7.52934 24.5741C6.80025 25.3566 5.77114 25.7482 4.442 25.7482C3.11286 25.7482 2.05278 25.356 1.2624 24.5716C0.472017 23.7871 0.0771484 22.6606 0.0771484 21.1932Z" fill="white"/>
<path fill-rule="evenodd" clip-rule="evenodd" d="M13.1135 16.1461H14.4742C14.9401 16.1461 15.2898 16.0151 15.5233 15.7539C15.7563 15.4926 15.873 15.0497 15.873 14.4251V11.7053C15.873 11.0807 15.7563 10.6404 15.5233 10.3829C15.2898 10.1255 14.9401 9.99716 14.4742 9.99716H13.1135V16.1461ZM10.252 25.5464V7.40381H14.4678C17.3119 7.40381 18.7345 8.90271 18.7345 11.8998V14.2563C18.7345 17.2451 17.3132 18.7401 14.471 18.7401H13.1135V25.5464H10.252Z" fill="white"/>
<path fill-rule="evenodd" clip-rule="evenodd" d="M22.9308 15.5757H24.0496C24.6264 15.5757 25.0568 15.428 25.3407 15.1327C25.6246 14.8374 25.7665 14.3445 25.7665 13.6525V11.8686C25.7749 10.6207 25.2916 9.99608 24.3168 9.99608H22.9308V15.5757ZM20.0693 25.5453V7.4021H24.3871C25.8594 7.4021 26.935 7.74424 27.6118 8.42788C28.2893 9.11156 28.628 10.1624 28.628 11.5803V13.0105C28.628 14.876 28.0035 16.104 26.7544 16.6945C28.0203 17.2267 28.6532 18.5137 28.6532 20.5563V23.348V23.4616C28.6532 24.3879 28.7551 25.0825 28.9584 25.5453H26.0575C25.8891 25.0317 25.8007 24.291 25.7923 23.3223V20.4805C25.7923 19.6557 25.6459 19.0638 25.3536 18.7063C25.0606 18.3481 24.5839 18.1697 23.9225 18.1697H22.9308V25.5453H20.0693Z" fill="white"/>
<path fill-rule="evenodd" clip-rule="evenodd" d="M30.5352 25.5453H33.3967V7.4021H30.5352V25.5453Z" fill="white"/>
<path fill-rule="evenodd" clip-rule="evenodd" d="M38.3429 22.953H39.9837C40.4837 22.953 40.8567 22.8201 41.1025 22.5544C41.3483 22.2886 41.4716 21.8271 41.4716 21.1691V19.5874C41.4716 18.7606 41.3296 18.1874 41.0451 17.8671C40.7612 17.5461 40.2889 17.3863 39.6276 17.3863H38.3429V22.953ZM38.3429 14.7923H39.4669C40.0457 14.7923 40.4779 14.6447 40.7631 14.3494C41.0489 14.0541 41.1915 13.5649 41.1915 12.882V11.8697C41.1999 10.6218 40.7147 9.99716 39.7353 9.99716H38.3429V14.7923ZM35.4814 25.547V7.40381H39.8056C41.2806 7.40381 42.3574 7.74531 43.0355 8.42832C43.7137 9.11133 44.053 10.1615 44.053 11.5789V12.224C44.053 14.0881 43.4343 15.3071 42.1961 15.8804C43.6208 16.4369 44.3324 17.7323 44.3324 19.7646V21.2449C44.3324 22.6449 43.964 23.7124 43.2265 24.4461C42.4884 25.1798 41.4077 25.547 39.9837 25.547H35.4814Z" fill="white"/>
<path fill-rule="evenodd" clip-rule="evenodd" d="M46.0498 25.5453V7.4021H53.8582V9.99608H48.9114V15.0441H52.8408V17.6375H48.9114V22.9513H53.8582V25.5453H46.0498Z" fill="white"/>
<path fill-rule="evenodd" clip-rule="evenodd" d="M0 29.2393H53.8979V26.7205H0V29.2393Z" fill="white"/>
<path fill-rule="evenodd" clip-rule="evenodd" d="M0.0771484 21.1932V20.08H3.01479V21.3754C3.01479 22.5611 3.47289 23.1542 4.38844 23.1542H4.40006C5.30724 23.1542 5.76147 22.563 5.76147 21.3812C5.76147 20.7059 5.56594 20.073 5.17368 19.4818C4.78204 18.8906 4.3136 18.3501 3.7684 17.8603L2.29603 16.3409C1.68759 15.8094 1.17852 15.1508 0.768814 14.3657C0.35846 13.58 0.153283 12.7102 0.153283 11.7563C0.153283 10.2882 0.540408 9.16231 1.31466 8.37724C2.08827 7.59217 3.13996 7.19995 4.46845 7.19995C5.79693 7.19995 6.81703 7.59217 7.52934 8.37657C8.24164 9.16101 8.59782 10.287 8.59782 11.7544V12.3366H5.88855V11.5778C5.88855 10.3884 5.40979 9.7933 4.45168 9.7933C3.49354 9.7933 3.01479 10.389 3.01479 11.5791C3.01479 12.0772 3.11932 12.5523 3.32772 13.0042C3.53612 13.4561 3.80647 13.8631 4.13875 14.2264C4.47103 14.5891 4.83753 14.9479 5.23753 15.3022C5.63758 15.6573 6.03309 16.0289 6.42279 16.4173C6.81249 16.8056 7.17316 17.221 7.50418 17.6645C7.83453 18.1074 8.10358 18.6313 8.3113 19.2347C8.51907 19.8387 8.62297 20.4947 8.62297 21.204C8.62297 22.6683 8.25843 23.7916 7.52934 24.5741C6.80025 25.3566 5.77114 25.7482 4.442 25.7482C3.11286 25.7482 2.05278 25.356 1.2624 24.5716C0.472017 23.7871 0.0771484 22.6606 0.0771484 21.1932Z" fill="white"/>
<path fill-rule="evenodd" clip-rule="evenodd" d="M13.1135 16.1461H14.4742C14.9401 16.1461 15.2898 16.0151 15.5233 15.7539C15.7563 15.4926 15.873 15.0497 15.873 14.4251V11.7053C15.873 11.0807 15.7563 10.6404 15.5233 10.3829C15.2898 10.1255 14.9401 9.99716 14.4742 9.99716H13.1135V16.1461ZM10.252 25.5464V7.40381H14.4678C17.3119 7.40381 18.7345 8.90271 18.7345 11.8998V14.2563C18.7345 17.2451 17.3132 18.7401 14.471 18.7401H13.1135V25.5464H10.252Z" fill="white"/>
<path fill-rule="evenodd" clip-rule="evenodd" d="M22.9308 15.5757H24.0496C24.6264 15.5757 25.0568 15.428 25.3407 15.1327C25.6246 14.8374 25.7665 14.3445 25.7665 13.6525V11.8686C25.7749 10.6207 25.2916 9.99608 24.3168 9.99608H22.9308V15.5757ZM20.0693 25.5453V7.4021H24.3871C25.8594 7.4021 26.935 7.74424 27.6118 8.42788C28.2893 9.11156 28.628 10.1624 28.628 11.5803V13.0105C28.628 14.876 28.0035 16.104 26.7544 16.6945C28.0203 17.2267 28.6532 18.5137 28.6532 20.5563V23.348V23.4616C28.6532 24.3879 28.7551 25.0825 28.9584 25.5453H26.0575C25.8891 25.0317 25.8007 24.291 25.7923 23.3223V20.4805C25.7923 19.6557 25.6459 19.0638 25.3536 18.7063C25.0606 18.3481 24.5839 18.1697 23.9225 18.1697H22.9308V25.5453H20.0693Z" fill="white"/>
<path fill-rule="evenodd" clip-rule="evenodd" d="M30.5352 25.5453H33.3967V7.4021H30.5352V25.5453Z" fill="white"/>
<path fill-rule="evenodd" clip-rule="evenodd" d="M38.3429 22.953H39.9837C40.4837 22.953 40.8567 22.8201 41.1025 22.5544C41.3483 22.2886 41.4716 21.8271 41.4716 21.1691V19.5874C41.4716 18.7606 41.3296 18.1874 41.0451 17.8671C40.7612 17.5461 40.2889 17.3863 39.6276 17.3863H38.3429V22.953ZM38.3429 14.7923H39.4669C40.0457 14.7923 40.4779 14.6447 40.7631 14.3494C41.0489 14.0541 41.1915 13.5649 41.1915 12.882V11.8697C41.1999 10.6218 40.7147 9.99716 39.7353 9.99716H38.3429V14.7923ZM35.4814 25.547V7.40381H39.8056C41.2806 7.40381 42.3574 7.74531 43.0355 8.42832C43.7137 9.11133 44.053 10.1615 44.053 11.5789V12.224C44.053 14.0881 43.4343 15.3071 42.1961 15.8804C43.6208 16.4369 44.3324 17.7323 44.3324 19.7646V21.2449C44.3324 22.6449 43.964 23.7124 43.2265 24.4461C42.4884 25.1798 41.4077 25.547 39.9837 25.547H35.4814Z" fill="white"/>
<path fill-rule="evenodd" clip-rule="evenodd" d="M46.0498 25.5453V7.4021H53.8582V9.99608H48.9114V15.0441H52.8408V17.6375H48.9114V22.9513H53.8582V25.5453H46.0498Z" fill="white"/>
<path fill-rule="evenodd" clip-rule="evenodd" d="M0 29.2393H53.8979V26.7205H0V29.2393Z" fill="white"/>
</svg>
