<svg width="43" height="43" viewBox="0 0 43 43" fill="none" xmlns="http://www.w3.org/2000/svg">
<path d="M8.64783 37.805L6.07293 37.8852C6.05068 37.886 6.0288 37.8911 6.00865 37.9005C5.98844 37.9098 5.97032 37.9231 5.95538 37.9396C5.94038 37.956 5.92888 37.9753 5.92152 37.9963C5.91415 38.0173 5.91104 38.0395 5.91243 38.0617L5.95909 38.762C5.96172 38.8042 5.98043 38.8437 6.01139 38.8726C6.04235 38.9013 6.08314 38.9171 6.12545 38.9167L6.8257 38.9079L6.98324 42.2021C6.98577 42.2463 7.00571 42.2877 7.03871 42.3173C7.05516 42.3319 7.07435 42.3429 7.0951 42.35C7.1159 42.357 7.13788 42.3597 7.15976 42.3582L7.95488 42.3071C7.99654 42.3023 8.03481 42.2819 8.0619 42.2499C8.08899 42.218 8.10291 42.1768 8.10076 42.135L8.00885 38.8904L8.70185 38.8816C8.72426 38.8813 8.74635 38.8764 8.76683 38.8672C8.78725 38.858 8.80564 38.8448 8.82079 38.8283C8.83595 38.8117 8.84761 38.7923 8.85498 38.7711C8.86234 38.75 8.86535 38.7275 8.86374 38.7051L8.81418 37.9582C8.81085 37.9164 8.79188 37.8774 8.76102 37.8489C8.73023 37.8206 8.68975 37.8049 8.64783 37.805ZM11.6473 38.0194L10.8726 37.9757C10.8301 37.9749 10.7888 37.9907 10.7577 38.0199C10.7267 38.0491 10.7082 38.0892 10.7063 38.1318L10.6947 39.8503L10.3562 39.9233L10.2701 37.9742C10.2683 37.932 10.2503 37.8922 10.2199 37.8628C10.1895 37.8335 10.149 37.817 10.1068 37.8166L9.33937 37.8356C9.31712 37.8356 9.29508 37.8399 9.27455 37.8484C9.25402 37.857 9.23537 37.8694 9.21973 37.8852C9.20414 37.901 9.19188 37.9196 9.18361 37.9402C9.17533 37.9607 9.17124 37.9827 9.17157 38.0049L9.3175 42.3378C9.31825 42.3807 9.33572 42.4217 9.36625 42.4519C9.39678 42.4822 9.4379 42.4993 9.4809 42.4997L10.2482 42.4807C10.2702 42.4811 10.292 42.4771 10.3124 42.4689C10.3327 42.4606 10.3512 42.4484 10.3668 42.4329C10.3822 42.4174 10.3945 42.3989 10.4027 42.3785C10.4109 42.3582 10.415 42.3364 10.4146 42.3144L10.3299 40.8628L10.632 40.8832L10.6845 42.1817C10.6824 42.2044 10.6851 42.2273 10.6923 42.2489C10.6996 42.2705 10.7113 42.2903 10.7268 42.3071C10.742 42.3231 10.7604 42.3359 10.7807 42.3446C10.8009 42.3534 10.8228 42.358 10.8449 42.3582L11.6459 42.4136H11.6561C11.6975 42.4118 11.7368 42.3944 11.766 42.365C11.7952 42.3355 11.8122 42.2961 11.8136 42.2546V38.193C11.8143 38.1711 11.8107 38.1492 11.803 38.1287C11.7952 38.1082 11.7835 38.0894 11.7684 38.0734C11.7531 38.0565 11.7344 38.043 11.7135 38.0337C11.6927 38.0244 11.6701 38.0195 11.6473 38.0194ZM14.5345 37.6547L13.8255 37.7087C13.7854 37.7133 13.7483 37.7325 13.7214 37.7627C13.6946 37.7928 13.6796 37.8317 13.6796 37.8721C13.6796 37.8721 13.6796 40.5827 13.6796 40.9357C13.6796 41.1459 13.7015 41.4989 13.4724 41.5091C13.3148 41.5091 13.258 41.283 13.255 40.9562C13.255 40.5871 13.2827 38.0661 13.2827 38.0384C13.2834 37.9975 13.2688 37.9579 13.2418 37.9271C13.2149 37.8964 13.1774 37.8768 13.1369 37.8721L12.3199 37.7845C12.2967 37.7821 12.2732 37.7845 12.2511 37.7918C12.2289 37.7991 12.2085 37.8109 12.1912 37.8267C12.174 37.8424 12.1603 37.8616 12.151 37.883C12.1418 37.9044 12.1372 37.9275 12.1375 37.9509C12.1375 37.9509 12.1681 41.1283 12.1711 41.2392C12.1745 41.3942 12.2092 41.5469 12.273 41.6883C12.3368 41.8296 12.4284 41.9566 12.5424 42.0617C12.6563 42.1668 12.7903 42.2479 12.9363 42.3001C13.0824 42.3523 13.2374 42.3745 13.3922 42.3654C14.3944 42.3378 14.5753 41.7425 14.6366 41.0525C14.6628 40.7607 14.7095 38.1143 14.7124 37.821C14.7125 37.7981 14.7079 37.7756 14.6988 37.7546C14.6897 37.7336 14.6764 37.7147 14.6597 37.6991C14.643 37.6835 14.6233 37.6715 14.6017 37.6639C14.5802 37.6562 14.5573 37.6531 14.5345 37.6547ZM17.6492 37.8283L16.9197 37.8633C16.8978 37.8645 16.8764 37.8699 16.8566 37.8794C16.8368 37.889 16.8191 37.9023 16.8046 37.9188C16.79 37.9352 16.7789 37.9544 16.7719 37.9752C16.7649 37.996 16.7621 38.018 16.7636 38.0399L16.8847 40.0823L16.1218 37.98C16.1088 37.9459 16.0848 37.9168 16.0537 37.8976C16.0226 37.8783 15.986 37.8699 15.9496 37.8736L15.2129 37.9553C15.1722 37.9599 15.1348 37.9796 15.1079 38.0103C15.0809 38.041 15.0663 38.0807 15.067 38.1216L15.1881 42.1335C15.1881 42.1739 15.2031 42.2128 15.2299 42.2429C15.2568 42.273 15.2939 42.2922 15.3339 42.2969L16.0736 42.3509C16.097 42.3526 16.1204 42.3493 16.1424 42.3412C16.1644 42.3331 16.1844 42.3204 16.2011 42.304C16.2178 42.2876 16.2308 42.2678 16.2393 42.2459C16.2478 42.2241 16.2514 42.2006 16.2501 42.1773L16.1349 40.4266L16.7724 42.2502C16.7836 42.2804 16.8034 42.3067 16.8293 42.3258C16.8552 42.345 16.8861 42.3563 16.9183 42.3582H17.7134C17.7362 42.3579 17.7587 42.3529 17.7795 42.3434C17.8003 42.334 17.8189 42.3203 17.8341 42.3033C17.8493 42.2863 17.8608 42.2663 17.8679 42.2446C17.875 42.2229 17.8776 42.2 17.8753 42.1773L17.8286 37.9917C17.8282 37.9696 17.8232 37.9477 17.8142 37.9274C17.8052 37.9071 17.7923 37.8888 17.7761 37.8736C17.7594 37.8574 17.7394 37.8451 17.7175 37.8372C17.6957 37.8294 17.6723 37.8264 17.6492 37.8283ZM18.6339 37.7437H18.4764C18.4344 37.7448 18.3944 37.7619 18.3646 37.7914C18.3348 37.8209 18.3174 37.8608 18.3159 37.9027L18.1831 42.0708C18.1818 42.1122 18.196 42.1525 18.2231 42.1839C18.2501 42.2152 18.2879 42.2353 18.3291 42.24C18.3291 42.24 18.4268 42.2473 18.5727 42.2473C19.0906 42.2473 20.3233 42.1539 20.6151 41.2844C20.8529 40.555 20.815 39.5746 20.761 39.1049C20.6385 38.1887 19.944 37.7437 18.6339 37.7437ZM19.7354 40.4894C19.6464 41.194 19.4276 41.2378 19.1854 41.3209L19.2992 38.7037C19.3652 38.7108 19.4288 38.7326 19.4853 38.7674C19.5419 38.8023 19.5899 38.8492 19.626 38.905C19.8229 39.169 19.8215 39.8008 19.7354 40.4879V40.4894ZM23.1696 41.5106L22.2038 41.5864L22.1586 40.6834L22.7845 40.6498C22.8231 40.6473 22.8595 40.6314 22.8875 40.6047C22.9155 40.578 22.9333 40.5424 22.9377 40.5039L22.996 39.9495C22.9987 39.9258 22.9962 39.9018 22.9886 39.8791C22.981 39.8564 22.9687 39.8356 22.9523 39.8182C22.9355 39.801 22.9152 39.7875 22.8929 39.7787C22.8705 39.7699 22.8464 39.766 22.8224 39.7672L22.144 39.8022V38.8233H23.1477C23.1696 38.8237 23.1913 38.8197 23.2115 38.8116C23.2318 38.8034 23.2502 38.7913 23.2657 38.776C23.2812 38.7606 23.2935 38.7423 23.3018 38.7221C23.3101 38.7019 23.3143 38.6802 23.3141 38.6584C23.3154 38.6463 23.3154 38.6341 23.3141 38.622L23.2586 38.0384C23.2536 37.9974 23.2334 37.9598 23.2021 37.9328C23.1709 37.9059 23.1307 37.8915 23.0894 37.8925L21.2541 37.9377C21.2109 37.9389 21.1699 37.957 21.1399 37.988C21.1098 38.0192 21.0933 38.0608 21.0936 38.104L21.152 42.2269C21.1524 42.2704 21.1699 42.3119 21.2008 42.3425C21.2317 42.3731 21.2734 42.3903 21.3169 42.3903H23.1725C23.2154 42.3899 23.2565 42.373 23.2872 42.3431C23.3179 42.3133 23.3359 42.2726 23.3374 42.2298L23.352 41.6915C23.3525 41.6684 23.3483 41.6454 23.3395 41.6241C23.3307 41.6027 23.3176 41.5834 23.3009 41.5675C23.2848 41.5484 23.2647 41.5332 23.242 41.5229C23.2193 41.5125 23.1946 41.5073 23.1696 41.5077V41.5106ZM26.172 39.0932C26.1312 38.5096 25.9298 37.7466 24.6723 37.7466C24.356 37.7519 24.041 37.787 23.7313 37.8517C23.6935 37.8595 23.6596 37.8802 23.6353 37.9103C23.6111 37.9403 23.5981 37.9779 23.5985 38.0165L23.6555 42.0489C23.6559 42.089 23.6709 42.1276 23.6978 42.1574C23.7246 42.1872 23.7615 42.2062 23.8013 42.2108L24.3849 42.2561C24.4074 42.2582 24.4301 42.2556 24.4515 42.2483C24.4728 42.241 24.4924 42.2292 24.5089 42.2138C24.5256 42.1983 24.5389 42.1796 24.5479 42.1587C24.557 42.1379 24.5616 42.1154 24.5614 42.0927V40.7928L24.8532 40.7768L25.18 42.1685C25.1871 42.2062 25.2072 42.2403 25.2368 42.2648C25.2664 42.2893 25.3035 42.3027 25.3419 42.3027H25.355L25.9386 42.2575C25.9617 42.2558 25.9842 42.2492 26.0046 42.2382C26.025 42.2271 26.0428 42.2118 26.0568 42.1933C26.0708 42.1751 26.0809 42.1541 26.0865 42.1318C26.092 42.1094 26.0928 42.0862 26.0889 42.0635L25.6789 40.5141C25.9619 40.2909 26.2289 39.8927 26.1706 39.0902L26.172 39.0932ZM25.1289 39.6621C24.9717 39.7994 24.7715 39.8773 24.5629 39.8825V38.6935C24.6151 38.682 24.6684 38.6761 24.7219 38.6759C24.9422 38.6759 25.2135 38.7752 25.2486 39.2478C25.2589 39.321 25.2535 39.3957 25.2326 39.4667C25.2117 39.5376 25.1758 39.6033 25.1275 39.6592L25.1289 39.6621ZM28.3793 40.2719C28.9287 39.6271 29.2083 38.7952 29.1598 37.9494C29.1587 37.9276 29.1533 37.9063 29.1439 37.8866C29.1344 37.8669 29.1212 37.8493 29.1049 37.8348C29.0886 37.8203 29.0696 37.8091 29.049 37.802C29.0284 37.7949 29.0065 37.7919 28.9848 37.7933L28.2976 37.8385C28.2542 37.8415 28.2136 37.8616 28.1849 37.8945C28.1562 37.9273 28.1417 37.9701 28.1445 38.0136C28.1678 38.3754 27.9285 39.1486 27.5857 39.6344L27.6353 38.0632C27.6359 38.0409 27.6319 38.0188 27.6238 37.9981C27.6156 37.9774 27.6032 37.9585 27.5876 37.9427C27.5719 37.9269 27.5531 37.9145 27.5326 37.9061C27.5119 37.8977 27.4898 37.8936 27.4675 37.894L26.582 37.9071C26.5603 37.9073 26.5388 37.9118 26.5189 37.9204C26.499 37.9289 26.4809 37.9414 26.4658 37.957C26.4507 37.9726 26.4389 37.9911 26.4311 38.0113C26.4232 38.0316 26.4195 38.0532 26.42 38.0749L26.5091 42.2488C26.5094 42.272 26.5148 42.2949 26.5246 42.3159C26.5345 42.337 26.5488 42.3557 26.5664 42.3709C26.584 42.386 26.6047 42.3973 26.627 42.4039C26.6493 42.4105 26.6727 42.4123 26.6958 42.4093L27.3858 42.3173C27.4257 42.3127 27.4625 42.2937 27.4893 42.2639C27.5162 42.2341 27.5313 42.1955 27.5317 42.1554L27.5419 40.9314C27.6878 41.016 28.0919 41.6112 28.162 42.1991C28.1667 42.2395 28.1861 42.2767 28.2165 42.3036C28.2469 42.3306 28.2862 42.3453 28.3268 42.3451H29.0563H29.0665C29.1086 42.3421 29.1481 42.323 29.1766 42.2918C29.2051 42.2605 29.2205 42.2196 29.2197 42.1773C29.2065 42.0241 28.9629 40.7417 28.3793 40.2719ZM30.4393 37.7043L29.6529 37.805C29.6128 37.8096 29.5758 37.8288 29.5489 37.8589C29.5221 37.889 29.5071 37.928 29.5071 37.9684V42.0533C29.507 42.0756 29.5115 42.0976 29.5202 42.1181C29.529 42.1386 29.5418 42.1571 29.5579 42.1725C29.574 42.1879 29.593 42.1999 29.6139 42.2077C29.6347 42.2156 29.6569 42.2191 29.6792 42.2181L30.5356 42.1539C30.5763 42.1495 30.6139 42.13 30.6409 42.0992C30.668 42.0684 30.6824 42.0286 30.6815 41.9876L30.6202 37.8589C30.6199 37.8357 30.6147 37.8127 30.6049 37.7916C30.5951 37.7705 30.5809 37.7517 30.5633 37.7364C30.5453 37.7226 30.5245 37.7127 30.5024 37.7074C30.4802 37.7022 30.4573 37.7016 30.4349 37.7058L30.4393 37.7043ZM32.1126 37.8239C31.8734 37.84 31.0914 37.98 31.0258 39.137C31.017 39.2838 31.0087 39.4234 31.0009 39.5557C30.9528 40.3391 30.9192 40.9066 31.0199 41.3968C31.0797 41.6886 31.3263 42.3728 32.2964 42.3728C32.3563 42.3728 32.419 42.3728 32.4832 42.364C32.8888 42.3305 33.1878 42.2006 33.376 41.9774C33.643 41.6608 33.6065 41.248 33.5876 41.0364V40.9941C33.5828 40.9525 33.5623 40.9142 33.5304 40.8871C33.4984 40.86 33.4573 40.8461 33.4154 40.8482L32.8027 40.8745C32.7795 40.8756 32.7568 40.8816 32.7362 40.8922C32.7155 40.9026 32.6972 40.9174 32.6826 40.9354C32.668 40.9535 32.6574 40.9744 32.6514 40.9968C32.6455 41.0193 32.6443 41.0427 32.6481 41.0656C32.6776 41.2277 32.6492 41.395 32.5678 41.5383C32.5442 41.5657 32.5144 41.5871 32.481 41.6008C32.4475 41.6145 32.4113 41.62 32.3752 41.6171H32.3665C32.3281 41.6192 32.2897 41.6131 32.2539 41.599C32.2182 41.5849 32.1859 41.5632 32.1593 41.5354C32.0688 41.442 31.9697 41.2115 31.9974 40.6483C31.9974 40.5185 32.0105 40.3654 32.0163 40.2107C32.0324 39.7906 32.0514 39.3135 32.0907 39.0129V39.0027C32.1199 38.7752 32.1637 38.6788 32.3548 38.6701C32.4048 38.6616 32.4562 38.6646 32.5049 38.6787C32.5537 38.6929 32.5986 38.7179 32.6364 38.7518C32.6836 38.8263 32.7008 38.916 32.6845 39.0027C32.6798 39.0266 32.6804 39.0511 32.6862 39.0747C32.6921 39.0982 32.7031 39.1201 32.7184 39.1389C32.7337 39.1578 32.753 39.173 32.7749 39.1835C32.7968 39.194 32.8207 39.1995 32.845 39.1997L33.5832 39.2099C33.6263 39.2103 33.6679 39.194 33.6992 39.1643C33.7305 39.1346 33.7491 39.094 33.751 39.0509C33.7497 38.7457 33.633 38.4522 33.4242 38.2295C33.1324 37.9202 32.6904 37.7845 32.1082 37.8239H32.1126ZM37.0204 42.0066C37.0086 41.9585 36.6906 40.7067 36.0429 40.11C36.3609 39.8182 37.0072 39.2201 36.7913 37.8765C36.7844 37.8347 36.7619 37.7971 36.7283 37.7713C36.6947 37.7456 36.6525 37.7336 36.6104 37.7379L35.757 37.8327C35.7346 37.8352 35.713 37.8421 35.6935 37.8531C35.6739 37.8642 35.6568 37.879 35.6431 37.8969C35.6167 37.933 35.6057 37.9782 35.6125 38.0223C35.6125 38.0355 35.7876 39.0071 35.1281 39.5907L35.1442 37.9348C35.1444 37.9115 35.1395 37.8884 35.1301 37.867C35.1207 37.8457 35.1068 37.8266 35.0894 37.811C35.072 37.7954 35.0515 37.7837 35.0293 37.7766C35.007 37.7696 34.9835 37.7673 34.9604 37.77L34.1069 37.8648C34.0662 37.8698 34.0288 37.8897 34.0018 37.9207C33.9749 37.9517 33.9604 37.9915 33.9611 38.0326L34.0602 42.1787C34.0607 42.2018 34.066 42.2245 34.0759 42.2453C34.0857 42.2662 34.0997 42.2847 34.1172 42.2998C34.1484 42.3276 34.1892 42.3423 34.2309 42.3407H34.2441L34.9662 42.2604C35.0049 42.256 35.0407 42.2381 35.0674 42.2098C35.0941 42.1815 35.11 42.1446 35.1121 42.1058L35.1719 40.8103C35.3995 41.0466 35.7817 41.6492 35.843 42.1554C35.8454 42.1769 35.8519 42.1979 35.8624 42.2169C35.8728 42.2359 35.887 42.2526 35.9039 42.2662C35.9208 42.2798 35.9403 42.2898 35.9612 42.2958C35.982 42.3019 36.0038 42.3037 36.0254 42.3013L36.8774 42.2065C36.9005 42.2039 36.923 42.1965 36.9431 42.1847C36.9632 42.1729 36.9806 42.157 36.9941 42.1379C37.0066 42.1187 37.015 42.0971 37.0187 42.0745C37.0225 42.0519 37.0215 42.0288 37.0159 42.0066H37.0204Z" fill="white"/>
<path d="M34.8219 22.4144L35.8198 15.4015L31.6255 6.60002L28.7719 7.57746L25.0488 3.58449L18.4692 0L17.0293 5.31765L16.008 2.52534L10.9603 7.46222L8.13296 12.4006L8.00751 17.5184L6.01758 16.5715L7.37143 24.7719L10.4526 30.0531L17.7164 32.542L23.6658 32.7579L33.9232 29.0086L36.8745 21.7141L34.8219 22.4144ZM30.384 18.5279L24.5673 18.6738L24.3573 25.2169L24.0436 29.0903L18.9769 29.0377V25.3249L18.5582 18.8343L12.4775 19.0954L12.2718 12.8149L21.2221 12.7623L30.4875 12.5012L30.6451 13.3387L30.384 18.5279Z" fill="white"/>
</svg>
