<svg width="88" height="38" viewBox="0 0 88 38" fill="none" xmlns="http://www.w3.org/2000/svg">
<path d="M87.5517 23.7293L87.3077 22.2336L86.7779 23.7293H86.3704L85.8406 22.2336L85.5559 23.7293H85.1483L85.5559 21.3442H86.0036L86.5742 23.0016L87.1447 21.3442H87.5925L88 23.7293H87.5517ZM84.5371 23.7293H84.048V21.7889H83.6002V21.3442H84.9446V21.7889H84.4963L84.5371 23.7293ZM78.1002 28.0547H76.7961V25.1441L74.7595 21.3442H76.1853L77.4889 23.7697L78.7925 21.3442H80.178L78.1409 25.1846L78.1002 28.0547ZM74.352 28.0547L73.8222 26.6803H71.0113L70.4408 28.0547H69.0557L71.7036 21.3038H73.0484L75.6963 28.0547H74.352ZM72.3964 23.0825L71.4596 25.3867H73.2924L72.3964 23.0825ZM65.063 21.3038H66.3665V26.8015H68.2814V28.0143H65.063V21.3038ZM62.8221 25.1037C62.3743 25.1846 61.8853 25.225 61.437 25.225V28.0952H60.1334V21.3038H61.5185C62.089 21.2634 62.6188 21.3442 63.1481 21.5059C63.4741 21.6272 63.7594 21.8697 63.9631 22.1527C64.1669 22.4761 64.2484 22.8803 64.2484 23.2442C64.2484 23.6889 64.1261 24.0931 63.8816 24.4165C63.5556 24.7803 63.2296 25.0229 62.8221 25.1037ZM62.6188 22.6783C62.3743 22.5569 62.0483 22.5165 61.763 22.557H61.3962V23.9718H61.8038C62.0483 23.9718 62.252 23.9718 62.4965 23.891C62.6188 23.8506 62.7406 23.7697 62.7813 23.6484C62.8628 23.5272 62.9036 23.4059 62.9036 23.2442C62.9443 23.042 62.8221 22.7995 62.6188 22.6783ZM52.474 22.274C51.1704 22.2336 50.1113 23.2846 50.0706 24.5378C50.0706 24.5782 50.0706 24.5782 50.0706 24.6186C50.0706 25.0633 50.1521 25.4676 50.3554 25.8314C50.5591 26.1952 50.8444 26.4782 51.2112 26.6803C51.5779 26.8824 52.0262 27.0037 52.474 27.0037C52.8408 27.0037 53.2075 26.9228 53.5335 26.8015C53.9406 26.5994 54.3073 26.3165 54.5926 25.9931L55.4891 26.9228C55.0816 27.3675 54.5518 27.6909 54.0221 27.9739C53.5335 28.176 52.963 28.2569 52.4332 28.2569C51.4149 28.2973 50.4776 27.9335 49.7446 27.2462C48.3187 25.8718 48.278 23.608 49.6631 22.1931C49.9076 21.9102 50.2336 21.708 50.5591 21.5463C51.1297 21.223 51.8224 21.0613 52.474 21.0613C53.6558 21.0613 54.7556 21.5463 55.5299 22.4357L54.5926 23.2846C54.0628 22.6378 53.289 22.274 52.474 22.274ZM46.3224 21.1825H47.6667V28.0547H46.3224V21.1825ZM43.9593 28.0547H42.6149V22.4357H41.3519V21.1421H45.2628V22.4357H43.9593V28.0547ZM40.1297 28.0547L39.5593 26.6399H36.6667L36.0963 28.0547H34.7111L37.4408 21.1825H38.7852L41.5149 28.0547H40.1297ZM38.1334 23.0016L37.1963 25.3867H39.0704L38.1334 23.0016ZM31.8593 23.6889L30.3519 28.0547H29.1704L27.7037 23.6889L26.9296 28.0547H25.5852L26.8074 21.1421H28.1111L29.7408 25.9526L31.4111 21.1421H32.7149L33.8963 28.0143H32.5926L31.8593 23.6889ZM23.263 27.8122C22.6926 28.0952 22.0815 28.2569 21.4704 28.2569C20.7778 28.2569 20.1259 28.0952 19.5148 27.8122C18.9445 27.4888 18.4555 27.0441 18.1704 26.4782C17.8445 25.9122 17.6815 25.2654 17.6815 24.6186C17.6815 23.7293 18.0074 22.8803 18.6186 22.2336C19.3519 21.4251 20.3704 21.0208 21.4704 21.0613C22.0815 21.0613 22.6519 21.1825 23.1815 21.3846C23.6704 21.6272 24.1593 21.9506 24.5259 22.3548L23.5889 23.2846C23.0593 22.6783 22.2852 22.3548 21.5111 22.3548C20.8593 22.3548 20.2482 22.5974 19.7593 23.042C19.3111 23.4463 19.0259 24.0527 19.0667 24.6995C19.0667 25.3462 19.3111 25.9526 19.8 26.3973C20.2889 26.842 20.9407 27.1249 21.5926 27.0845C22 27.0845 22.4074 27.0037 22.7741 26.8015C23.1 26.5994 23.3852 26.276 23.5482 25.9122H21.5111V24.6995H25.0556V24.9824C24.9741 26.0739 24.3222 27.2058 23.263 27.8122ZM15.4815 26.6399H12.6296L12.0593 28.0547H10.6334L13.363 21.1825H14.7074L17.437 28.0547H16.0519L15.4815 26.6399ZM14.0555 23.0016L13.1185 25.3867H14.9926L14.0555 23.0016ZM8.35187 28.0547L6.76298 25.1441H6.64073V28.0547H5.2963V21.1825H6.72223C7.29261 21.1421 7.86295 21.223 8.39258 21.3846C8.71854 21.5059 9.00371 21.7485 9.20742 22.0719C9.41113 22.3953 9.53334 22.7995 9.49259 23.2038C9.49259 23.608 9.37038 24.0123 9.16667 24.3356C8.92221 24.659 8.55559 24.9016 8.14816 25.0229L9.81851 28.0952L8.35187 28.0547ZM8.14816 23.1633C8.14816 22.8803 7.9852 22.6378 7.69999 22.5165C7.45557 22.4761 7.21111 22.4357 6.9667 22.4357H6.60003V23.8506H7.0074C7.29261 23.891 7.61853 23.8101 7.9037 23.6889C8.10741 23.5676 8.18892 23.3655 8.14816 23.1633ZM2.77036 25.0229C2.32223 25.1037 1.83335 25.1441 1.34443 25.1441V28.0547H0V21.1825H1.42593C1.99631 21.1421 2.56665 21.223 3.09628 21.3846C3.42224 21.5059 3.70741 21.7485 3.91112 22.0719C4.11483 22.3953 4.23704 22.7995 4.19629 23.2038C4.19629 23.6484 4.07408 24.0527 3.82962 24.3761C3.54445 24.6995 3.17778 24.942 2.77036 25.0229ZM2.56665 22.557C2.28148 22.4357 1.99631 22.3953 1.75185 22.4357H1.34443V23.8506H1.75185C1.99631 23.8506 2.24073 23.8506 2.44444 23.7697C2.56665 23.7293 2.6889 23.6484 2.77036 23.5272C2.85186 23.4059 2.89261 23.2846 2.89261 23.1229C2.89261 22.9208 2.77036 22.6783 2.56665 22.557ZM69.8702 37.9992C62.4965 38.0801 56.4667 32.178 56.3852 24.8612C56.3037 17.5443 62.252 11.5615 69.6262 11.4806C76.9999 11.3998 83.0297 17.3017 83.1112 24.6186C83.1112 24.659 83.1112 24.6995 83.1112 24.7399C83.152 32.0163 77.2036 37.9587 69.8702 37.9992ZM69.8702 12.8954C63.2703 12.9359 57.974 18.3123 58.0148 24.8612C58.0555 31.3291 63.3518 36.5843 69.8702 36.6247C76.4706 36.6247 81.8076 31.3291 81.8076 24.7803C81.8076 18.1911 76.4706 12.8954 69.8702 12.8954ZM73.8629 20.1315C69.3002 20.4144 67.4668 15.0784 71.5813 14.7954C75.9816 14.5124 78.3039 19.8485 73.8629 20.1315ZM69.0149 10.1062C66.7333 10.187 64.4924 10.8742 62.5373 12.0465C62.252 11.1572 60.9887 7.76155 57.7295 5.8616C60.0519 5.98286 62.1705 7.31685 63.2703 9.3785C63.2703 9.3785 62.0075 4.04247 62.3335 0C64.8999 3.15312 66.8555 8.28707 66.8555 8.28707C66.611 5.98286 67.5891 3.67864 69.4632 2.26378C67.7928 5.69985 68.7297 9.25724 69.0149 10.1062Z" fill="white"/>
</svg>
