<svg width="106" height="155" viewBox="0 0 106 155" fill="none" xmlns="http://www.w3.org/2000/svg">
<g filter="url(#filter0_d_93_18498)">
<path d="M93.3792 0H11.8403C7.51021 0 4 3.52835 4 7.8808V138.702C4 143.054 7.51021 146.583 11.8403 146.583H93.3792C97.7093 146.583 101.22 143.054 101.22 138.702V7.8808C101.22 3.52835 97.7093 0 93.3792 0Z" fill="white"/>
<path d="M59.9273 85.6379C54.9618 85.1126 53.1324 88.5276 52.8711 89.5783C52.3484 88.5276 50.7803 85.1126 45.8148 85.6379C41.1107 86.426 39.5426 90.6291 40.0653 94.8322C41.1107 101.137 50.7803 105.34 52.8711 109.28C54.9618 105.34 64.6315 101.137 65.6769 94.8322C66.1996 90.8918 64.6315 86.6887 59.9273 85.6379Z" fill="#BE1E2D"/>
<path d="M65.6768 65.9358H60.7113L58.6206 61.2074H47.1215L44.7694 65.9358H39.8039L51.0416 42.0308H54.7004L65.9382 65.9358H65.6768ZM56.5298 57.267L52.6097 48.5981L48.6895 57.267H56.5298Z" fill="#BE1E2D"/>
</g>
<defs>
<filter id="filter0_d_93_18498" x="0" y="0" width="105.219" height="154.583" filterUnits="userSpaceOnUse" color-interpolation-filters="sRGB">
<feFlood flood-opacity="0" result="BackgroundImageFix"/>
<feColorMatrix in="SourceAlpha" type="matrix" values="0 0 0 0 0 0 0 0 0 0 0 0 0 0 0 0 0 0 127 0" result="hardAlpha"/>
<feOffset dy="4"/>
<feGaussianBlur stdDeviation="2"/>
<feComposite in2="hardAlpha" operator="out"/>
<feColorMatrix type="matrix" values="0 0 0 0 0 0 0 0 0 0 0 0 0 0 0 0 0 0 0.25 0"/>
<feBlend mode="normal" in2="BackgroundImageFix" result="effect1_dropShadow_93_18498"/>
<feBlend mode="normal" in="SourceGraphic" in2="effect1_dropShadow_93_18498" result="shape"/>
</filter>
</defs>
</svg>
