<svg width="106" height="155" viewBox="0 0 106 155" fill="none" xmlns="http://www.w3.org/2000/svg">
<g filter="url(#filter0_d_93_18494)">
<path d="M93.3792 0H11.8403C7.51022 0 4 3.52835 4 7.8808V138.702C4 143.054 7.51022 146.583 11.8403 146.583H93.3792C97.7093 146.583 101.22 143.054 101.22 138.702V7.8808C101.22 3.52835 97.7093 0 93.3792 0Z" fill="white"/>
<path d="M62.8023 65.9358H56.7914L47.1218 55.4281V65.9358H42.4176V42.0308H47.1218V52.8012L56.7914 42.0308H62.2796L51.5646 53.852L62.541 65.9358H62.8023Z" fill="black"/>
<path d="M60.1884 92.9935C60.1884 92.9935 59.4043 92.2054 58.8817 91.9427C55.4842 89.0531 52.8708 85.3754 52.8708 85.3754C52.8708 85.3754 50.2574 89.3158 46.8599 91.9427C46.3372 92.2054 45.8145 92.7308 45.5532 92.9935C43.2011 94.8323 41.3717 96.1458 41.3717 99.0354C41.3717 100.612 41.8944 102.188 43.2011 103.239C44.2465 104.289 45.8145 105.077 47.6439 105.077C49.4733 105.077 51.0414 104.289 52.0868 103.239C52.0868 104.027 51.8254 105.077 51.5641 105.865C50.5187 108.492 49.212 109.543 49.212 109.543H56.7909C56.7909 109.543 55.4842 108.492 54.4388 105.865C54.4388 105.34 53.9162 104.289 53.9162 103.239C54.9615 104.552 56.5296 105.077 58.359 105.077C59.927 105.077 61.4951 104.552 62.8018 103.239C63.8472 102.188 64.6312 100.612 64.6312 99.0354C64.6312 96.4085 62.8018 94.8323 60.4497 92.9935H60.1884Z" fill="black"/>
</g>
<defs>
<filter id="filter0_d_93_18494" x="0" y="0" width="105.219" height="154.583" filterUnits="userSpaceOnUse" color-interpolation-filters="sRGB">
<feFlood flood-opacity="0" result="BackgroundImageFix"/>
<feColorMatrix in="SourceAlpha" type="matrix" values="0 0 0 0 0 0 0 0 0 0 0 0 0 0 0 0 0 0 127 0" result="hardAlpha"/>
<feOffset dy="4"/>
<feGaussianBlur stdDeviation="2"/>
<feComposite in2="hardAlpha" operator="out"/>
<feColorMatrix type="matrix" values="0 0 0 0 0 0 0 0 0 0 0 0 0 0 0 0 0 0 0.25 0"/>
<feBlend mode="normal" in2="BackgroundImageFix" result="effect1_dropShadow_93_18494"/>
<feBlend mode="normal" in="SourceGraphic" in2="effect1_dropShadow_93_18494" result="shape"/>
</filter>
</defs>
</svg>
