<svg width="36" height="18" viewBox="0 0 36 18" fill="none" xmlns="http://www.w3.org/2000/svg">
<path d="M16.58 11.4729C14.8659 17.9505 7.03953 20.3753 2.41166 15.1877C-4.73832 7.17189 5.52495 -4.05551 13.4991 2.3201C17.6534 5.64144 22.5153 19.052 29.3568 13.7625C35.4043 9.08579 29.1087 0.214473 22.9781 3.99462C21.7721 4.73824 20.8519 6.01934 19.7527 6.89484C20.415 0.709848 27.5456 -2.07955 32.3363 1.74825C41.8768 9.37282 30.7063 22.6172 22.4506 15.6753C18.2866 12.1733 14.3168 0.40952 7.43758 4.12539C0.99418 7.60632 5.11395 17.1326 11.9684 14.6746C13.7515 14.0351 15.0072 12.4803 16.5779 11.474L16.58 11.4729Z" fill="white"/>
</svg>
