<svg width="39" height="39" viewBox="0 0 39 39" fill="none" xmlns="http://www.w3.org/2000/svg">
<g clip-path="url(#clip0_93_19303)">
<path d="M35.6819 19.3529C35.6819 20.5927 38.5909 21.8083 38.3671 22.9816C37.5494 27.2683 35.3049 31.152 31.9988 34.0006C31.2912 34.6145 28.612 32.7572 27.8198 33.2628C26.5685 34.0617 27.1473 37.1388 25.7212 37.6353C21.5956 39.0626 17.1102 39.0626 12.9846 37.6353C11.6015 37.1515 12.1052 34.0296 10.886 33.2628C10.0532 32.739 7.44846 34.6441 6.707 34.0006C3.40092 31.152 1.15636 27.2683 0.338694 22.9816C0.114926 21.8083 3.02391 20.5927 3.02391 19.3529C3.02391 18.1131 0.114926 16.8975 0.338694 15.7242C1.15636 11.4375 3.40092 7.55376 6.707 4.70518C7.62566 3.90808 9.07168 6.65256 11.4908 5.44301C13.4412 4.4675 11.8271 1.47325 12.9846 1.07047C17.1102 -0.356822 21.5956 -0.356822 25.7212 1.07047C26.8788 1.47325 26.7753 4.83823 27.8198 5.44301C28.8769 6.05504 31.0801 3.90808 31.9988 4.70518C35.3049 7.55376 37.5494 11.4375 38.3671 15.7242C38.5909 16.8975 35.6819 18.1131 35.6819 19.3529Z" fill="#58397D"/>
<path d="M30.8436 21.772H33.6619C33.3017 23.9304 32.4536 25.9782 31.1823 27.7593L29.1865 25.7696L25.7696 29.1865L27.7593 31.1823C25.9782 32.4536 23.9304 33.3017 21.772 33.6619V30.8436H16.9338V33.6619C14.7753 33.3017 12.7276 32.4536 10.9465 31.1823L12.9362 29.1865L9.51918 25.7696L7.52341 27.7593C6.25208 25.9782 5.40402 23.9304 5.04382 21.772H7.86209V16.9338H5.04382C5.40402 14.7753 6.25208 12.7276 7.52341 10.9465L9.51918 12.9362L12.9362 9.51918L10.9465 7.52341C12.7276 6.25208 14.7753 5.40402 16.9338 5.04382V7.86209H21.772V5.04382C23.9304 5.40402 25.9782 6.25208 27.7593 7.52341L25.7696 9.51918L29.1865 12.9362L31.1823 10.9465C32.4536 12.7276 33.3017 14.7753 33.6619 16.9338H30.8436V21.772Z" fill="#A08DC3"/>
<path d="M38.7058 19.3529C38.7071 20.5704 38.5937 21.7853 38.3671 22.9816H36.2866C35.9661 22.9806 35.659 22.8529 35.4324 22.6262C35.2058 22.3996 35.078 22.0925 35.0771 21.772V16.9338C35.078 16.6133 35.2058 16.3062 35.4324 16.0796C35.659 15.8529 35.9661 15.7252 36.2866 15.7242H38.3671C38.5937 16.9205 38.7071 18.1354 38.7058 19.3529Z" fill="#ADA5CB"/>
<path d="M21.772 5.04388V7.86214H16.9338V5.04388C16.9519 5.03783 17.8893 4.91083 17.9921 4.90478C18.1554 4.88664 19.0626 4.83826 19.3529 4.83826C19.6432 4.83826 20.9193 4.92293 21.0221 4.93502C21.137 4.94712 21.7539 5.03783 21.772 5.04388Z" fill="#4F356E"/>
<path d="M12.9362 9.5192L9.5192 12.9362L7.52344 10.9465C7.54763 10.9102 8.42456 9.7974 8.55761 9.65225C8.72694 9.45873 8.90838 9.27124 9.08981 9.08981C9.27124 8.90838 9.45873 8.72694 9.65225 8.55761C9.7974 8.42456 10.9102 7.54763 10.9465 7.52344L12.9362 9.5192Z" fill="#4F356E"/>
<path d="M7.86208 16.9337V21.7719H5.04382C5.03777 21.7538 4.87448 20.3809 4.86239 20.2116C4.84424 19.9274 4.8382 19.6431 4.8382 19.3528C4.8382 19.0625 4.84424 18.7783 4.86239 18.494C4.87448 18.3247 5.03777 16.9519 5.04382 16.9337H7.86208Z" fill="#4F356E"/>
<path d="M12.9362 29.1866L10.9465 31.1824C10.9102 31.1582 9.7974 30.2812 9.65225 30.1482C9.45873 29.9788 9.27124 29.7974 9.08981 29.616C8.90838 29.4345 8.72694 29.2471 8.55761 29.0535C8.42456 28.9084 7.54763 27.7956 7.52344 27.7593L9.5192 25.7696L12.9362 29.1866Z" fill="#4F356E"/>
<path d="M21.772 30.8436V33.6619C21.7539 33.6679 20.381 33.8312 20.2117 33.8433C19.9274 33.8615 19.6432 33.8675 19.3529 33.8675C19.0626 33.8675 18.7783 33.8615 18.4941 33.8433C18.3248 33.8312 16.9519 33.6679 16.9338 33.6619V30.8436H21.772Z" fill="#4F356E"/>
<path d="M31.1824 27.7593C31.1582 27.7956 30.2812 28.9084 30.1482 29.0535C29.9788 29.2471 29.7974 29.4345 29.616 29.616C29.4345 29.7974 29.2471 29.9788 29.0535 30.1482C28.9084 30.2812 27.7956 31.1582 27.7593 31.1824L25.7696 29.1866L29.1866 25.7696L31.1824 27.7593Z" fill="#4F356E"/>
<path d="M33.8675 19.3528C33.8675 19.6431 33.8615 19.9274 33.8433 20.2116C33.8312 20.3809 33.6679 21.7538 33.6619 21.7719H30.8436V16.9337H33.6619C33.6679 16.9519 33.7587 17.5687 33.7708 17.6836C33.7828 17.7865 33.8675 19.0625 33.8675 19.3528Z" fill="#4F356E"/>
<path d="M31.1824 10.9465L29.1866 12.9362L25.7696 9.5192L27.7593 7.52344C27.7956 7.54763 28.9084 8.42456 29.0535 8.55761C29.2471 8.72694 29.4345 8.90838 29.616 9.08981C29.7974 9.27124 29.9788 9.45873 30.1482 9.65225C30.2812 9.7974 31.1582 10.9102 31.1824 10.9465Z" fill="#4F356E"/>
<path d="M19.3529 32.0532C26.3671 32.0532 32.0532 26.3671 32.0532 19.3529C32.0532 12.3387 26.3671 6.65259 19.3529 6.65259C12.3387 6.65259 6.65253 12.3387 6.65253 19.3529C6.65253 26.3671 12.3387 32.0532 19.3529 32.0532Z" fill="#4F356E"/>
<path d="M31.9988 4.70515L30.9646 6.50134C30.8851 6.63943 30.779 6.76045 30.6526 6.85744C30.5262 6.95443 30.3818 7.02548 30.2278 7.06651C30.0738 7.10753 29.9133 7.11772 29.7553 7.0965C29.5974 7.07527 29.4452 7.02305 29.3075 6.94282L25.1224 4.52371C24.9846 4.44469 24.8638 4.33931 24.7667 4.21357C24.6696 4.08783 24.5983 3.9442 24.5567 3.79088C24.5152 3.63757 24.5042 3.47757 24.5245 3.32002C24.5448 3.16248 24.5959 3.01047 24.6749 2.87267L25.7212 1.07043C28.0256 1.87228 30.1561 3.10585 31.9988 4.70515Z" fill="#ADA5CB"/>
<path d="M13.5833 4.52371L9.39823 6.94282C9.26054 7.02305 9.10835 7.07527 8.95042 7.0965C8.79248 7.11772 8.63191 7.10753 8.47792 7.06651C8.32394 7.02548 8.17958 6.95443 8.05314 6.85744C7.92669 6.76045 7.82067 6.63943 7.74114 6.50134L6.70697 4.70515C8.54964 3.10585 10.6802 1.87228 12.9846 1.07043L14.0308 2.87267C14.1099 3.01047 14.161 3.16248 14.1812 3.32002C14.2015 3.47757 14.1906 3.63757 14.149 3.79088C14.1075 3.9442 14.0361 4.08783 13.939 4.21357C13.842 4.33931 13.7211 4.44469 13.5833 4.52371Z" fill="#ADA5CB"/>
<path d="M19.3529 31.4484C26.0331 31.4484 31.4484 26.0331 31.4484 19.3529C31.4484 12.6727 26.0331 7.25732 19.3529 7.25732C12.6727 7.25732 7.25732 12.6727 7.25732 19.3529C7.25732 26.0331 12.6727 31.4484 19.3529 31.4484Z" fill="#58397D"/>
<path d="M3.62866 16.9338V21.772C3.62771 22.0925 3.49996 22.3996 3.27334 22.6262C3.04671 22.8529 2.73961 22.9806 2.41911 22.9816H0.338674C-0.112891 20.5835 -0.112891 18.1223 0.338674 15.7242H2.41911C2.73961 15.7252 3.04671 15.8529 3.27334 16.0796C3.49996 16.3062 3.62771 16.6133 3.62866 16.9338Z" fill="#ADA5CB"/>
<path d="M14.0308 35.8331L12.9846 37.6353C10.6802 36.8334 8.54964 35.5999 6.70697 34.0006L7.74114 32.2044C7.82067 32.0663 7.92669 31.9453 8.05314 31.8483C8.17958 31.7513 8.32394 31.6802 8.47792 31.6392C8.63191 31.5982 8.79248 31.588 8.95042 31.6092C9.10835 31.6305 9.26054 31.6827 9.39823 31.7629L13.5833 34.182C13.7211 34.261 13.842 34.3664 13.939 34.4922C14.0361 34.6179 14.1075 34.7615 14.149 34.9148C14.1906 35.0682 14.2015 35.2282 14.1812 35.3857C14.161 35.5432 14.1099 35.6953 14.0308 35.8331Z" fill="#ADA5CB"/>
<path d="M31.9988 34.0006C30.1561 35.5999 28.0256 36.8334 25.7212 37.6353L24.6749 35.8331C24.5959 35.6953 24.5448 35.5432 24.5245 35.3857C24.5042 35.2282 24.5152 35.0682 24.5567 34.9148C24.5983 34.7615 24.6696 34.6179 24.7667 34.4922C24.8638 34.3664 24.9846 34.261 25.1224 34.182L29.3075 31.7629C29.4452 31.6827 29.5974 31.6305 29.7553 31.6092C29.9133 31.588 30.0738 31.5982 30.2278 31.6392C30.3818 31.6802 30.5262 31.7513 30.6526 31.8483C30.779 31.9453 30.8851 32.0663 30.9646 32.2044L31.9988 34.0006Z" fill="#ADA5CB"/>
<path opacity="0.2" d="M38.7058 19.3529C38.7052 22.948 37.7034 26.472 35.8126 29.5297C33.9218 32.5875 31.2168 35.0582 28.0007 36.665C24.7846 38.2718 21.1846 38.9511 17.6041 38.6269C14.0236 38.3026 10.6042 36.9876 7.72906 34.8292C12.0841 36.6263 16.945 36.7737 21.4008 35.2437C25.8567 33.7136 29.6017 30.6112 31.934 26.5178C34.2664 22.4243 35.0259 17.6209 34.0703 13.0076C33.1148 8.39424 30.5097 4.2877 26.7433 1.45752C30.2833 2.92318 33.3093 5.40561 35.4386 8.59093C37.5679 11.7763 38.7049 15.5214 38.7058 19.3529Z" fill="#4F356E"/>
</g>
<defs>
<clipPath id="clip0_93_19303">
<rect width="38.7058" height="38.7058" fill="white"/>
</clipPath>
</defs>
</svg>
