<svg width="37" height="37" viewBox="0 0 37 37" fill="none" xmlns="http://www.w3.org/2000/svg">
<path d="M0.266001 24.0488C0.686392 23.5226 1.47125 23.435 1.99745 23.8554L14.8314 34.1084C15.3576 34.5287 15.4451 35.3136 15.0248 35.8398C14.6044 36.366 13.8195 36.4545 13.2933 36.0341L0.459361 25.7802C-0.0667064 25.3598 -0.154304 24.5749 0.266001 24.0488Z" fill="#EFD28E"/>
<path fill-rule="evenodd" clip-rule="evenodd" d="M9.92713 1.11227C10.4572 -0.419661 12.6279 -0.346635 13.0805 1.19234L15.2816 8.96383C15.5619 10.0077 16.7599 10.4816 17.6908 9.92184L25.2875 5.415C26.5902 4.62674 28.1682 5.88741 27.6869 7.33199L24.9447 15.7382C24.6144 16.7569 25.3544 17.8319 26.4242 17.8877L34.4906 18.3183C36.0886 18.3971 36.6391 20.4978 35.2494 21.3427L17.9652 32.0283C17.3857 32.3853 16.6205 32.3427 16.0814 31.9121L3.85096 22.1406C3.31193 21.7099 3.0912 20.986 3.32167 20.3291L9.92713 1.11227ZM12.639 17.1142C12.1129 16.6939 11.328 16.7814 10.9076 17.3076C10.4875 17.8337 10.575 18.6186 11.101 19.039L17.518 24.166C18.0441 24.5863 18.83 24.4987 19.2504 23.9726C19.6708 23.4464 19.5822 22.6606 19.056 22.2402L12.639 17.1142Z" fill="#EFD28E"/>
</svg>
