<svg width="23" height="24" viewBox="0 0 23 24" fill="none" xmlns="http://www.w3.org/2000/svg">
<path d="M14.1516 2.24988C14.8796 2.2497 15.3676 2.2499 15.8352 2.36902C16.0466 2.42291 16.2532 2.49462 16.4524 2.58386C16.895 2.78224 17.2736 3.08637 17.8293 3.53308L17.8967 3.58777L17.928 3.61218C18.9305 4.41747 19.7248 5.05578 20.3088 5.62781C20.9058 6.21244 21.3456 6.78676 21.5764 7.48718C21.7658 8.06201 21.8373 8.66818 21.7854 9.27136C21.7218 10.009 21.423 10.6682 20.9739 11.368C20.5354 12.0512 19.9068 12.8428 19.1165 13.8387L15.2278 18.7391C14.522 19.6286 13.942 20.3602 13.4094 20.8612C12.8503 21.3872 12.2507 21.7498 11.5002 21.7499C10.7498 21.7499 10.1502 21.3871 9.59106 20.8612C9.05856 20.3603 8.47842 19.6285 7.77271 18.7391L3.88306 13.8387C3.09288 12.843 2.46504 12.0511 2.02661 11.368C1.57745 10.6682 1.27769 10.009 1.21411 9.27136C1.16218 8.66823 1.23373 8.06197 1.4231 7.48718C1.6539 6.78678 2.09379 6.21242 2.69067 5.62781C3.27478 5.05572 4.06989 4.41758 5.07251 3.61218L5.10278 3.58777L5.17017 3.53308C5.72603 3.08631 6.10448 2.78226 6.54712 2.58386C6.74653 2.49449 6.95356 2.42295 7.16528 2.36902C7.63286 2.24992 8.11999 2.2497 8.8479 2.24988L14.1516 2.24988ZM9.58325 7.74988C9.18634 7.7499 8.86454 8.08571 8.8645 8.49988C8.8645 8.91408 9.18631 9.24986 9.58325 9.24988L13.4163 9.24988C13.8132 9.24988 14.135 8.91409 14.135 8.49988C14.135 8.0857 13.8132 7.74988 13.4163 7.74988L9.58325 7.74988Z" fill="#E5EAF2"/>
</svg>
