<svg width="20" height="20" viewBox="0 0 20 20" fill="none" xmlns="http://www.w3.org/2000/svg">
<path d="M12.306 1.87488C12.9388 1.87473 13.3625 1.87437 13.7689 1.97351C13.953 2.01846 14.1336 2.07871 14.307 2.1532C14.6918 2.31853 15.021 2.57196 15.5043 2.94421L15.5629 2.99011L15.5892 3.01062C16.461 3.68171 17.1517 4.21361 17.6595 4.69031C18.1786 5.1775 18.5614 5.65546 18.7621 6.23914C18.9269 6.7183 18.9889 7.22363 18.9437 7.72644C18.8884 8.34111 18.6282 8.89028 18.2377 9.47351C17.8565 10.0427 17.3104 10.7024 16.6234 11.5321L13.2416 15.6161C12.628 16.3571 12.1235 16.9662 11.6605 17.3837C11.1744 17.8219 10.6528 18.1247 10.0004 18.1249C9.34773 18.1249 8.82645 17.822 8.34021 17.3837C7.87713 16.9662 7.3719 16.3573 6.75818 15.6161L3.37732 11.5321C2.69017 10.7023 2.14334 10.0428 1.76208 9.47351C1.37151 8.89028 1.11131 8.34111 1.05603 7.72644C1.01081 7.22364 1.07291 6.7183 1.23767 6.23914C1.43838 5.65546 1.82116 5.1775 2.34021 4.69031C2.84808 4.21361 3.53878 3.68171 4.41052 3.01062L4.43689 2.99011L4.49646 2.94421C4.97952 2.57214 5.30806 2.31849 5.69275 2.1532C5.86616 2.07871 6.04672 2.01846 6.23083 1.97351C6.63731 1.87435 7.06097 1.87473 7.69373 1.87488L12.306 1.87488ZM8.33337 6.45789C7.98833 6.45789 7.70859 6.73789 7.70837 7.08289C7.70837 7.42806 7.9882 7.70789 8.33337 7.70789L11.6664 7.70789C12.0116 7.70789 12.2914 7.42806 12.2914 7.08289C12.2912 6.73789 12.0114 6.45789 11.6664 6.45789L8.33337 6.45789Z" fill="#F474FB"/>
</svg>
