<svg width="47" height="61" viewBox="0 0 47 61" fill="none" xmlns="http://www.w3.org/2000/svg">
<path d="M32.3289 54.5417L25.1194 57.7708L17.9099 54.5417L20.259 47.9949L21.1427 45.5303L25.1194 45.5303L29.096 45.5303L29.9798 47.9949L32.3289 54.5417Z" fill="#A4A4A4"/>
<path d="M22.675 54.5417L25.12 57.7708L17.9104 54.5417L21.1433 45.5303L22.4738 45.5303L23.7711 45.5303L22.675 54.5417Z" fill="#8C8C8C"/>
<path d="M29.9798 47.9949H20.259L21.1427 45.5303L25.1194 45.5303L29.0961 45.5303L29.9798 47.9949Z" fill="#8C8C8C"/>
<path d="M37.4048 54.5414H12.8339C11.0504 54.5414 9.60461 55.9872 9.60461 57.7707C9.60461 59.5542 11.0504 61 12.8339 61H37.4048C39.1883 61 40.6341 59.5542 40.6341 57.7707C40.6341 55.9872 39.1883 54.5414 37.4048 54.5414Z" fill="#ADADAD"/>
<path d="M18.7682 60.0535C19.3525 60.639 20.16 60.9999 21.0511 60.9999H12.8338C11.9416 60.9999 11.1351 60.639 10.5509 60.0535C9.96549 59.4693 9.60461 58.6629 9.60461 57.7707C9.60461 55.9873 11.0504 54.5415 12.8338 54.5415H21.0511C19.2676 54.5415 17.8219 55.9873 17.8219 57.7707C17.8219 58.6629 18.1839 59.4694 18.7682 60.0535Z" fill="#949494"/>
<path d="M25.1731 0C26.4044 0 27.6114 0.106354 28.7852 0.30778C26.2871 3.02357 24.7615 6.64792 24.7615 10.6288C24.7615 19.0511 31.5892 25.8788 40.0115 25.8788C42.1791 25.8788 44.2404 25.425 46.1076 24.6098C44.4795 34.7047 35.7274 42.415 25.1731 42.415C13.4607 42.4148 3.96606 32.9194 3.96606 21.207C3.96625 9.4948 13.4609 0.000184835 25.1731 0Z" fill="url(#paint0_linear_203_1435)"/>
<path d="M27.3096 19.0697C30.0425 23.174 34.711 25.8788 40.0116 25.8788C42.2264 25.8788 44.3305 25.4056 46.2295 24.5565C45.9729 26.2117 45.5216 27.8349 44.8802 29.3907C43.8142 31.9765 42.2475 34.3259 40.2698 36.3036C38.292 38.2813 35.9427 39.8489 33.3569 40.9149C30.7711 41.9809 27.9999 42.5245 25.203 42.5151C22.4061 42.5058 19.6385 41.9431 17.0599 40.8598C14.4813 39.7765 12.1422 38.1934 10.1777 36.2025L27.3096 19.0697Z" fill="url(#paint1_linear_203_1435)"/>
<path d="M21.3173 30.8475C22.9145 30.8475 24.2092 32.1422 24.2092 33.7394C24.209 35.3364 22.9144 36.6312 21.3173 36.6312C19.7204 36.6311 18.4256 35.3363 18.4255 33.7394C18.4255 32.1423 19.7203 30.8476 21.3173 30.8475Z" fill="#858585"/>
<path d="M33.8497 34.7033C34.3819 34.7035 34.8136 35.135 34.8136 35.6673C34.8134 36.1993 34.3817 36.631 33.8497 36.6312C33.3174 36.6312 32.8859 36.1995 32.8857 35.6673C32.8857 35.1349 33.3173 34.7033 33.8497 34.7033Z" fill="#858585"/>
<path d="M36.8047 25.5394C37.8388 25.7607 38.9114 25.8788 40.0116 25.8788C40.2047 25.8788 40.397 25.8733 40.5883 25.8661C40.5927 25.9193 40.5974 25.9734 40.5974 26.0277C40.5971 27.0923 39.7332 27.9556 38.6685 27.9556C37.6041 27.9554 36.7409 27.0921 36.7406 26.0277C36.7406 25.859 36.764 25.6953 36.8047 25.5394Z" fill="#858585"/>
<path d="M10.7138 23.1349C11.7784 23.1349 12.6415 23.9983 12.6417 25.0628C12.6417 26.1276 11.7786 26.9908 10.7138 26.9908C9.64909 26.9907 8.78589 26.1276 8.78589 25.0628C8.78611 23.9983 9.64923 23.135 10.7138 23.1349Z" fill="#858585"/>
<path d="M23.2452 20.2431C23.7775 20.2431 24.209 20.6748 24.2092 21.207C24.2092 21.7394 23.7776 22.171 23.2452 22.171C22.713 22.1708 22.2813 21.7393 22.2813 21.207C22.2815 20.6749 22.7131 20.2432 23.2452 20.2431Z" fill="#858585"/>
<path d="M15.5336 10.6035C17.1307 10.6035 18.4253 11.8983 18.4255 13.4954C18.4255 15.0925 17.1307 16.3872 15.5336 16.3872C13.9365 16.3871 12.6417 15.0925 12.6417 13.4954C12.6418 11.8984 13.9366 10.6036 15.5336 10.6035Z" fill="#858585"/>
<path d="M22.2813 2.89185C22.8137 2.89185 23.2452 3.32342 23.2452 3.8558C23.2452 4.38819 22.8137 4.81976 22.2813 4.81976C21.749 4.81958 21.3173 4.38808 21.3173 3.8558C21.3173 3.32353 21.749 2.89202 22.2813 2.89185Z" fill="#858585"/>
<path d="M41.4011 39.8206L45.1708 38.9949C46.3377 38.7393 46.3377 37.0754 45.1708 36.8199L41.4011 35.9941C40.9764 35.9012 40.6448 35.5695 40.5518 35.1449L39.7261 31.3751C39.4705 30.2083 37.8066 30.2083 37.5511 31.3751L36.7253 35.1449C36.6324 35.5696 36.3007 35.9012 35.8761 35.9941L32.1063 36.8199C30.9395 37.0754 30.9395 38.7393 32.1063 38.9949L35.8761 39.8206C36.3008 39.9136 36.6324 40.2453 36.7253 40.6699L37.5511 44.4396C37.8066 45.6065 39.4705 45.6065 39.7261 44.4396L40.5518 40.6699C40.6447 40.2453 40.9764 39.9136 41.4011 39.8206Z" fill="#E9E9E9"/>
<path d="M4.19966 14.6775L5.50903 16.9795C5.91433 17.6919 7.00468 17.3528 6.93434 16.5362L6.70715 13.8976C6.68156 13.6004 6.83132 13.3155 7.0906 13.168L9.39261 11.8586C10.1051 11.4533 9.76598 10.363 8.94933 10.4333L6.31075 10.6605C6.01357 10.6861 5.7286 10.5363 5.58114 10.2771L4.27176 7.97505C3.86646 7.26256 2.77611 7.60167 2.84646 8.41832L3.07364 11.0569C3.09924 11.3541 2.94948 11.639 2.6902 11.7865L0.388192 13.0959C-0.324288 13.5012 0.0148183 14.5915 0.831472 14.5212L3.47004 14.294C3.76723 14.2684 4.05219 14.4182 4.19966 14.6775Z" fill="#E9E9E9"/>
<defs>
<linearGradient id="paint0_linear_203_1435" x1="5.10423" y1="9.68881" x2="37.8793" y2="43.4278" gradientUnits="userSpaceOnUse">
<stop stop-color="#D0D0D0"/>
<stop offset="1" stop-color="#B4B4B4"/>
</linearGradient>
<linearGradient id="paint1_linear_203_1435" x1="22.1071" y1="27.2147" x2="40.0611" y2="44.3252" gradientUnits="userSpaceOnUse">
<stop stop-color="#C1C1C1" stop-opacity="0"/>
<stop offset="1" stop-color="#858585"/>
</linearGradient>
</defs>
</svg>
