<svg width="47" height="61" viewBox="0 0 47 61" fill="none" xmlns="http://www.w3.org/2000/svg">
<path d="M32.3289 54.5417L25.1194 57.7708L17.9099 54.5417L20.259 47.9949L21.1427 45.5303L25.1194 45.5303L29.096 45.5303L29.9798 47.9949L32.3289 54.5417Z" fill="#AD9978"/>
<path d="M22.6749 54.5417L25.1199 57.7708L17.9103 54.5417L21.1432 45.5303L22.4738 45.5303L23.771 45.5303L22.6749 54.5417Z" fill="#977C4E"/>
<path d="M29.9798 47.9949H20.259L21.1426 45.5303L25.1193 45.5303L29.096 45.5303L29.9798 47.9949Z" fill="#977C4E"/>
<path d="M37.4047 54.5414H12.8339C11.0503 54.5414 9.60455 55.9872 9.60455 57.7707C9.60455 59.5542 11.0503 61 12.8339 61H37.4047C39.1883 61 40.634 59.5542 40.634 57.7707C40.634 55.9872 39.1883 54.5414 37.4047 54.5414Z" fill="#B3A286"/>
<path d="M18.7681 60.0535C19.3524 60.639 20.1599 60.9999 21.051 60.9999H12.8337C11.9415 60.9999 11.135 60.639 10.5509 60.0535C9.96543 59.4693 9.60455 58.6629 9.60455 57.7707C9.60455 55.9873 11.0503 54.5415 12.8337 54.5415H21.051C19.2676 54.5415 17.8218 55.9873 17.8218 57.7707C17.8218 58.6629 18.1839 59.4694 18.7681 60.0535Z" fill="#A78C5F"/>
<path d="M25.1732 0C26.4046 0 27.6115 0.106354 28.7854 0.30778C26.2873 3.02357 24.7617 6.64792 24.7617 10.6288C24.7617 19.0511 31.5893 25.8788 40.0117 25.8788C42.1793 25.8788 44.2405 25.425 46.1077 24.6098C44.4796 34.7047 35.7275 42.415 25.1732 42.415C13.4609 42.4148 3.96619 32.9194 3.96619 21.207C3.96637 9.4948 13.461 0.000184835 25.1732 0Z" fill="url(#paint0_linear_195_1369)"/>
<path d="M27.3097 19.0697C30.0426 23.174 34.711 25.8788 40.0117 25.8788C42.2265 25.8788 44.3305 25.4056 46.2296 24.5565C45.973 26.2117 45.5216 27.8349 44.8802 29.3907C43.8142 31.9765 42.2475 34.3259 40.2698 36.3036C38.2921 38.2813 35.9428 39.8489 33.357 40.9149C30.7712 41.9809 27.9999 42.5245 25.2031 42.5151C22.4061 42.5058 19.6386 41.9431 17.06 40.8598C14.4813 39.7765 12.1422 38.1934 10.1778 36.2025L27.3097 19.0697Z" fill="url(#paint1_linear_195_1369)"/>
<path d="M21.3174 30.8475C22.9146 30.8475 24.2093 32.1422 24.2093 33.7394C24.2092 35.3364 22.9145 36.6312 21.3174 36.6312C19.7205 36.6311 18.4257 35.3363 18.4256 33.7394C18.4256 32.1423 19.7204 30.8476 21.3174 30.8475Z" fill="#8D6D35"/>
<path d="M33.8498 34.7033C34.382 34.7035 34.8137 35.135 34.8137 35.6673C34.8135 36.1993 34.3819 36.631 33.8498 36.6312C33.3175 36.6312 32.8861 36.1995 32.8858 35.6673C32.8858 35.1349 33.3174 34.7033 33.8498 34.7033Z" fill="#8D6D35"/>
<path d="M36.8048 25.5394C37.8389 25.7607 38.9115 25.8788 40.0117 25.8788C40.2048 25.8788 40.3971 25.8733 40.5884 25.8661C40.5929 25.9193 40.5975 25.9734 40.5975 26.0277C40.5972 27.0923 39.7333 27.9556 38.6687 27.9556C37.6042 27.9554 36.741 27.0921 36.7407 26.0277C36.7407 25.859 36.7641 25.6953 36.8048 25.5394Z" fill="#8D6D35"/>
<path d="M10.7139 23.1349C11.7786 23.1349 12.6416 23.9983 12.6418 25.0628C12.6418 26.1276 11.7787 26.9908 10.7139 26.9908C9.64922 26.9907 8.78601 26.1276 8.78601 25.0628C8.78624 23.9983 9.64935 23.135 10.7139 23.1349Z" fill="#8D6D35"/>
<path d="M23.2454 20.2431C23.7776 20.2431 24.2091 20.6748 24.2093 21.207C24.2093 21.7394 23.7777 22.171 23.2454 22.171C22.7131 22.1708 22.2814 21.7393 22.2814 21.207C22.2816 20.6749 22.7132 20.2432 23.2454 20.2431Z" fill="#8D6D35"/>
<path d="M15.5337 10.6035C17.1308 10.6035 18.4254 11.8983 18.4256 13.4954C18.4256 15.0925 17.1309 16.3872 15.5337 16.3872C13.9366 16.3871 12.6418 15.0925 12.6418 13.4954C12.642 11.8984 13.9367 10.6036 15.5337 10.6035Z" fill="#8D6D35"/>
<path d="M22.2814 2.89185C22.8138 2.89185 23.2453 3.32342 23.2454 3.8558C23.2454 4.38819 22.8138 4.81976 22.2814 4.81976C21.7492 4.81958 21.3174 4.38808 21.3174 3.8558C21.3175 3.32353 21.7492 2.89202 22.2814 2.89185Z" fill="#8D6D35"/>
<path d="M41.4012 39.8206L45.1709 38.9949C46.3378 38.7393 46.3378 37.0754 45.1709 36.8199L41.4012 35.9941C40.9765 35.9012 40.6449 35.5695 40.5519 35.1449L39.7262 31.3751C39.4706 30.2083 37.8067 30.2083 37.5511 31.3751L36.7254 35.1449C36.6324 35.5696 36.3007 35.9012 35.8761 35.9941L32.1064 36.8199C30.9395 37.0754 30.9395 38.7393 32.1064 38.9949L35.8761 39.8206C36.3008 39.9136 36.6324 40.2453 36.7254 40.6699L37.5511 44.4396C37.8067 45.6065 39.4706 45.6065 39.7262 44.4396L40.5519 40.6699C40.6447 40.2453 40.9765 39.9136 41.4012 39.8206Z" fill="#E9CFA1"/>
<path d="M4.19966 14.6775L5.50903 16.9795C5.91433 17.6919 7.00468 17.3528 6.93434 16.5362L6.70715 13.8976C6.68156 13.6004 6.83132 13.3155 7.0906 13.168L9.39261 11.8586C10.1051 11.4533 9.76598 10.363 8.94933 10.4333L6.31075 10.6605C6.01357 10.6861 5.7286 10.5363 5.58114 10.2771L4.27176 7.97505C3.86646 7.26256 2.77611 7.60167 2.84646 8.41832L3.07364 11.0569C3.09924 11.3541 2.94948 11.639 2.6902 11.7865L0.388192 13.0959C-0.324288 13.5012 0.0148183 14.5915 0.831472 14.5212L3.47004 14.294C3.76723 14.2684 4.05219 14.4182 4.19966 14.6775Z" fill="#E9CFA1"/>
<defs>
<linearGradient id="paint0_linear_195_1369" x1="5.10436" y1="9.68881" x2="37.8794" y2="43.4278" gradientUnits="userSpaceOnUse">
<stop stop-color="#C8B28B"/>
<stop offset="1" stop-color="#8D6D35"/>
</linearGradient>
<linearGradient id="paint1_linear_195_1369" x1="22.1071" y1="27.2147" x2="40.0611" y2="44.3252" gradientUnits="userSpaceOnUse">
<stop stop-color="#C8B28B" stop-opacity="0"/>
<stop offset="1" stop-color="#8D6D35"/>
</linearGradient>
</defs>
</svg>
